<svg width="170" height="40" viewBox="0 0 170 40" fill="none" xmlns="http://www.w3.org/2000/svg">
<path fill-rule="evenodd" clip-rule="evenodd" d="M39.5847 4.93025L40.6715 2.17601C41.2041 0.844154 40.4264 -0.410383 39.1026 0.127644L34.2654 2.09347L31.1036 5.63877L27.7234 4.69319L34.0469 2.06144L31.6976 1.44088C31.1876 1.33067 30.6565 1.37044 30.1686 1.55538C27.7474 2.38909 1.90719 12.7881 2.20017 13.1503C2.35198 13.3447 4.13133 12.8386 5.25809 13.8562C3.43814 14.4273 1.67733 15.1721 0 16.0803C3.70516 16.035 4.79455 16.2695 7.79384 17.7931C6.21216 18.2808 4.67571 18.9046 3.20174 19.6576C4.98052 19.7804 6.70866 20.303 8.25737 21.1866C8.38785 24.9157 8.33991 29.2814 7.84718 33.0372L38.061 3.0257C38.8868 2.20796 39.4275 2.25062 39.4541 3.0257L39.5207 4.94358C39.5207 5.04211 39.5553 5.01549 39.5847 4.94358M21.8687 20.0412L10.7639 31.3538L10.1672 34.0174L18.3074 40L36.8704 24.8491L34.6835 21.7219L29.1431 22.8886L32.747 24.3217L20.6141 30.7464L18.8134 29.5744L21.8687 20.0412ZM153.328 14.9802L166.172 14.9989C167.443 14.9989 168.128 13.4007 169.308 13.1849C169.401 13.1689 169.531 13.0491 169.526 12.9905L151.442 12.9905C146.914 12.9905 146.605 14.0293 144.091 20.502C143.526 21.959 142.349 24.1405 144.037 25.2966C145.524 26.3194 154.223 25.0808 156.477 25.8746C156.591 27.3423 155.145 30.7757 154.079 31.8385L152.955 32.1315L140.436 32.1315C138.636 32.1315 139.104 33.3915 137.184 33.9055C137.137 33.9241 137.097 33.9554 137.067 33.9959C137.037 34.0365 137.02 34.0845 137.016 34.1346L156.168 34.1346C158.365 34.1346 160.001 33.0931 160.661 31.4523L162.619 26.5938C163.064 25.4937 162.451 23.5466 160.134 23.5572L150.073 23.5998C149.17 23.5998 149.224 22.7155 149.477 22.0842L151.911 16.0217C152.026 15.731 152.219 15.4779 152.469 15.2907C152.72 15.1035 153.017 14.9896 153.328 14.9616V14.9802ZM92.7433 16.3121C93.1908 15.164 93.4119 12.8493 89.9385 12.8493L76.6921 12.8493C73.3439 12.8493 72.2811 14.4475 71.6978 15.9444L65.9229 30.7997C65.2544 32.5178 65.5794 34.2491 68.4028 34.2491H80.7568C85.1705 34.2491 86.4065 32.5471 87.432 29.918L92.7433 16.3121ZM72.3024 30.4295L77.9813 16.1496C78.3808 15.1453 78.9642 14.9935 80.043 14.9935H85.4555C86.6329 14.9935 86.8087 15.3265 86.521 16.083L80.6822 30.9063C80.368 31.7054 80.0776 32.0889 78.8896 32.0889H72.907C72.0147 32.0889 71.8362 31.5775 72.3024 30.4108V30.4295ZM51.9121 34.1133H60.1428C61.0378 34.1133 61.3868 33.4128 61.6264 32.7948L69.0021 13.9228C69.1539 13.4699 69.1619 12.9825 67.886 12.9825L58.7044 12.9825C56.696 12.9292 56.1792 13.3954 55.6412 13.8189L33.943 32.0517C33.1439 32.7229 31.7881 33.7324 31.1222 33.9775C31.0317 34.0121 30.9864 34.044 30.981 34.1079H36.7905C37.7148 34.1079 38.4872 33.5992 39.6593 32.611L46.7366 26.6338C47.7674 25.7627 48.4679 25.6614 49.2857 25.6721H56.8611C57.29 25.6721 58.1583 26.0717 57.7428 26.9827L55.9528 30.8876C55.3935 32.1102 53.5555 33.221 52.5034 33.7111C52.2264 33.8469 51.9201 34.0201 51.9121 34.1133V34.1133ZM50.8599 22.6276L59.1466 15.6887C60.1987 14.8098 62.2045 14.1891 61.3467 16.2988L58.9495 22.1961C58.4514 23.3175 58.2756 23.448 57.3966 23.4454L51.0571 23.4294C50.3885 23.4267 50.3432 23.0698 50.86 22.6276H50.8599ZM117.883 12.9824C117.883 13.1369 117.952 13.2141 118.101 13.2488C119.052 13.4805 122.006 15.6461 121.609 16.6556L116.24 30.2696C114.83 33.7962 117.414 34.1132 118.149 34.1106H132.349C134.395 34.1106 136.177 33.3994 137.346 30.4081L143.518 14.6099C143.987 13.4113 144.368 12.9798 142.69 12.9798L132.754 12.9798C132.742 13.037 132.749 13.0967 132.774 13.1497C132.799 13.2026 132.841 13.2459 132.893 13.2727C134.294 13.7735 136.622 15.4197 136.451 16.8634L130.858 31.0447C130.551 31.8172 130.019 32.1102 129.233 32.0915H122.92C122.121 32.0915 122.169 31.3377 122.387 30.7331L128.828 14.0426C129.145 13.2195 129.137 12.9772 127.976 12.9772L117.883 12.9824ZM110.174 14.8257C110.776 14.8257 111.171 15.3025 110.955 15.8539L108.225 22.8566C107.958 23.5199 107.617 23.5332 106.855 23.5358L101.081 23.5518C99.7914 23.5518 99.565 23.115 99.9246 22.2386L101.523 18.355C101.733 17.8436 101.789 17.207 100.937 17.207H96.5631C95.9344 17.2762 95.6121 17.3827 95.2312 18.371L89.4937 32.7414C89.0755 33.7829 89.6801 34.1132 90.1943 34.1132H94.1498C95.0448 34.1132 95.3671 34.1132 95.9185 32.6509L98.0733 26.916C98.694 25.2645 100.226 25.1234 100.881 26.7456L103.427 33.0557C103.734 33.8123 103.792 34.1212 104.583 34.1212H115.337C115.335 34.0786 115.321 34.0374 115.296 34.0031C115.271 33.9689 115.236 33.9431 115.195 33.9295C114.957 33.8544 114.728 33.7544 114.511 33.6311L112.977 32.4884C112.335 32.1129 112.247 32.0676 111.663 32.0676H110.172C109.386 32.0676 109.213 31.6653 108.896 30.9168L107.156 26.8041C106.77 25.8905 106.975 25.6934 108.035 25.6934H110.214C112.385 25.6934 113.962 24.604 114.78 22.4305L117.316 16.0376C117.795 14.8257 117.316 12.9744 114.953 12.9744L94.251 12.9744C95.1196 13.4594 95.9017 14.085 96.5657 14.8257L110.174 14.8257Z" fill="#DADADA"/>
</svg>
