<svg width="74" height="58" viewBox="0 0 74 58" fill="none" xmlns="http://www.w3.org/2000/svg">
<g filter="url(#filter0_d_177_678)">
<path d="M39.1727 12.7265C39.1727 8.46848 36.9546 4.84422 33.0865 2.78082C29.6552 0.753921 25.7377 0 18.6424 0C13.2977 0 7.49685 0.413773 4.53546 1.00595C4.22405 1.06851 4 1.34177 4 1.65941V48.6245C4 48.9549 4.24211 49.2354 4.56929 49.2836C6.39096 49.551 10.3463 50 16.3721 50C25.5209 50 31.8061 48.5372 35.5912 45.524C39.0021 42.7638 40.8048 39.0763 40.8048 34.8612C40.8048 29.3075 37.6756 24.9486 32.3476 22.9398C36.7074 20.8391 39.1727 17.1868 39.1727 12.7265ZM16.0449 28.3621H19.0679C22.4489 28.3621 28.1213 29.1513 28.1213 34.4355C28.1213 39.8436 22.76 40.6511 19.5644 40.6511C18.0992 40.6511 16.9675 40.6511 16.0449 40.5757V28.3621ZM18.9262 19.2965H16.0449V9.40449C16.8497 9.3048 18.067 9.20714 19.9908 9.20714C23.1821 9.20714 26.9864 10.0516 26.9864 14.0748C26.9861 17.3445 23.9732 19.2965 18.9262 19.2965Z" fill="#C58936"/>
<path d="M57.0644 18.3322L56.8296 14.1088C56.8102 13.7558 56.5182 13.4797 56.1647 13.4797H46.871C46.6888 13.4797 46.5146 13.5544 46.389 13.6862C46.2633 13.8181 46.1973 13.9955 46.2058 14.1774C46.3547 17.3181 46.489 20.5526 46.489 25.5675V48.8373C46.489 49.2052 46.7871 49.5034 47.155 49.5034H57.9383C58.3062 49.5034 58.6044 49.2053 58.6044 48.8373V31.2435C58.6044 30.4173 58.6755 29.6069 58.8026 28.9696C59.4604 25.8795 61.9747 24.0346 65.5294 24.0346C66.6643 24.0346 67.5405 24.1657 68.3185 24.3074C68.5136 24.3428 68.7128 24.2901 68.8646 24.1635C69.0162 24.037 69.1038 23.8497 69.1038 23.652V13.5071C69.1038 13.1852 68.8737 12.9093 68.5569 12.8519C67.7179 12.6992 67.1671 12.6992 66.1675 12.6992C63.0204 12.6995 59.2297 14.4586 57.0644 18.3322Z" fill="#C58936"/>
</g>
<defs>
<filter id="filter0_d_177_678" x="0" y="0" width="73.1035" height="58" filterUnits="userSpaceOnUse" color-interpolation-filters="sRGB">
<feFlood flood-opacity="0" result="BackgroundImageFix"/>
<feColorMatrix in="SourceAlpha" type="matrix" values="0 0 0 0 0 0 0 0 0 0 0 0 0 0 0 0 0 0 127 0" result="hardAlpha"/>
<feOffset dy="4"/>
<feGaussianBlur stdDeviation="2"/>
<feComposite in2="hardAlpha" operator="out"/>
<feColorMatrix type="matrix" values="0 0 0 0 0 0 0 0 0 0 0 0 0 0 0 0 0 0 0.25 0"/>
<feBlend mode="normal" in2="BackgroundImageFix" result="effect1_dropShadow_177_678"/>
<feBlend mode="normal" in="SourceGraphic" in2="effect1_dropShadow_177_678" result="shape"/>
</filter>
</defs>
</svg>
