<svg width="221" height="58" viewBox="0 0 221 58" fill="none" xmlns="http://www.w3.org/2000/svg">
<g filter="url(#filter0_d_177_681)">
<path d="M180.21 10.7319V39.5868C178.975 39.9479 177.717 40.2285 176.445 40.4268C174.863 40.6446 173.267 40.743 171.67 40.7213C170.281 40.726 168.899 40.5284 167.567 40.1348C166.307 39.7651 165.139 39.1361 164.137 38.2882C163.148 37.4278 162.367 36.3565 161.849 35.154L161.793 35.0199C161.218 33.6874 160.929 32.034 160.929 30.1077C160.92 28.6325 161.171 27.1674 161.672 25.7797C162.138 24.4754 162.862 23.2784 163.801 22.2604C164.754 21.2549 165.902 20.4555 167.176 19.9117C168.51 19.3442 169.943 19.0503 171.392 19.0467L171.559 19.0476C172.042 19.0476 172.556 19.0669 173.075 19.1079C173.583 19.1471 174.085 19.2344 174.577 19.3686L174.765 19.4217V10.7319H180.21ZM141.905 19.7693C143.113 20.2888 144.186 21.0763 145.043 22.0721C145.899 23.087 146.531 24.2704 146.9 25.5456C147.293 26.8808 147.497 28.264 147.508 29.6552L147.508 29.8639C147.519 31.3112 147.314 32.7521 146.9 34.1388C146.528 35.3986 145.9 36.568 145.055 37.5737C144.202 38.564 143.132 39.3452 141.93 39.8572C140.521 40.4343 139.008 40.7145 137.486 40.6803C135.976 40.7123 134.476 40.4321 133.08 39.8572C131.892 39.3432 130.839 38.5617 130.003 37.5737C129.167 36.5613 128.54 35.3941 128.156 34.1388C127.749 32.8172 127.539 31.4434 127.531 30.0614L127.531 29.8639C127.521 28.402 127.732 26.947 128.156 25.548C128.533 24.2776 129.161 23.0957 130.003 22.0721C130.844 21.0791 131.901 20.2914 133.093 19.7693C134.481 19.1801 135.978 18.8922 137.486 18.9245C139.002 18.8921 140.508 19.18 141.905 19.7693ZM111.351 10.6909V39.5337C110.115 39.8973 108.856 40.178 107.583 40.3737C106.111 40.5805 104.626 40.6835 103.139 40.6822L102.821 40.6803C101.431 40.6859 100.049 40.4874 98.7172 40.0913C97.4562 39.7245 96.2867 39.0961 95.2847 38.2471C94.2979 37.386 93.5173 36.3148 92.9998 35.1129L92.9433 34.9788C92.3664 33.6343 92.0767 31.9809 92.0767 30.0667C92.0728 28.5903 92.3277 27.1246 92.8299 25.7363C93.2993 24.4344 94.023 23.2389 94.9589 22.2193C95.904 21.2153 97.0452 20.4159 98.3117 19.8707C99.6455 19.3027 101.079 19.0087 102.528 19.0056L102.695 19.0065C103.144 19.0065 103.641 19.0258 104.211 19.0669C104.719 19.1068 105.221 19.1941 105.712 19.3276L105.901 19.3807V10.6909H111.351ZM192.835 18.9245C194.162 18.8996 195.479 19.1597 196.697 19.6872C197.788 20.1713 198.765 20.8813 199.562 21.7704C200.368 22.6818 200.976 23.7502 201.348 24.9083C201.751 26.1813 201.949 27.5102 201.935 28.8453C201.935 29.357 201.913 29.8663 201.872 30.3612L201.842 30.6996C201.814 31.0075 201.786 31.2302 201.754 31.4257H188.176V31.585C188.289 33.2578 188.888 34.4816 189.953 35.2419C191.017 36.0023 192.403 36.3692 194.116 36.3692C195.082 36.4088 196.048 36.3178 196.989 36.0988L199.591 35.3747L200.663 39.4999C198.495 40.2824 196.208 40.6821 193.905 40.6816L193.682 40.6803C191.751 40.6803 190.078 40.4075 188.702 39.8741C186.14 38.9593 184.172 36.8712 183.411 34.2595C182.571 31.4434 182.578 28.4424 183.43 25.6301C183.828 24.3493 184.476 23.1604 185.337 22.1324C186.2 21.1314 187.271 20.3307 188.475 19.7862C189.849 19.1876 191.336 18.8936 192.835 18.9245ZM58.8979 18.3884H59.1136C62.4471 18.3884 65.2785 19.2334 66.6906 20.6431C67.982 21.9369 68.5565 24.0007 68.5565 27.3366V39.4541L68.2579 39.5437C67.3933 39.7967 66.3709 40.0415 65.2133 40.2748C63.7973 40.5402 62.3602 40.6761 60.92 40.681L60.6319 40.6803C59.3664 40.6887 58.1036 40.5649 56.8639 40.311C55.8185 40.1084 54.8245 39.698 53.9407 39.104C53.1445 38.5623 52.5017 37.8239 52.0749 36.9606C51.608 35.9479 51.3825 34.8407 51.4159 33.726C51.3776 32.6032 51.6607 31.4928 52.2318 30.5253C52.7596 29.6766 53.4819 28.9659 54.339 28.4518C55.2418 27.92 56.2262 27.5407 57.2525 27.3294C58.3132 27.1013 59.3949 26.9856 60.4798 26.9842C61.2595 26.9842 62.1333 27.0253 63.0771 27.1073H63.2388V26.4797C63.2388 24.2807 61.5177 23.069 58.3918 23.069C56.6088 23.0731 54.8442 23.43 53.1997 24.119V19.3783C55.0312 18.7334 56.9571 18.399 58.8979 18.3884ZM22.972 10.6909L23.1669 10.6905C24.579 10.685 25.9888 10.807 27.379 11.0554C28.587 11.2597 29.7496 11.6747 30.8139 12.2816C31.7636 12.8331 32.5531 13.6226 33.1046 14.5723C33.6598 15.521 33.9422 16.7279 33.9422 18.1641C33.949 18.9722 33.8209 19.7758 33.5632 20.5417C33.3317 21.2307 32.9892 21.8772 32.5494 22.4559C32.1409 22.98 31.6521 23.4362 31.1011 23.8076C30.6214 24.1436 30.0718 24.3664 29.4935 24.4594V24.7539C30.1941 24.8583 30.8797 25.0463 31.5356 25.3139C32.2985 25.6214 33.0012 26.061 33.6115 26.6125C34.2863 27.2354 34.8282 27.9883 35.2046 28.826C35.6421 29.8123 35.8669 30.8791 35.8652 31.9569L35.8636 32.104C35.8636 33.8347 35.5353 35.2709 34.8981 36.3692C34.2565 37.4582 33.3411 38.3602 32.2429 38.9858C31.0458 39.657 29.7375 40.1068 28.3807 40.3134C26.8453 40.5624 25.292 40.6852 23.7365 40.6806C22.5296 40.6806 21.2744 40.6441 20.0361 40.5765C18.8703 40.5137 17.5547 40.3906 16.0195 40.2048V11.1206C16.8107 11.0018 17.7019 10.8955 18.6716 10.8268L19.164 10.7939C20.2084 10.7287 21.4867 10.6937 22.972 10.6909ZM155.527 10.6909V31.9446C155.515 32.6346 155.563 33.3242 155.669 34.0061C155.738 34.4565 155.903 34.8869 156.152 35.2685C156.365 35.5727 156.67 35.7997 157.023 35.9154C157.434 36.0389 157.862 36.0967 158.29 36.0868C158.511 36.091 158.731 36.0806 158.949 36.0554C159.512 37.1899 160.429 38.2978 161.972 39.7003L160.251 40.0397C159.457 40.1942 158.728 40.3318 158.559 40.3505L158.544 40.352C157.904 40.4075 157.356 40.4341 156.857 40.4341C154.815 40.4341 153.154 39.8644 151.923 38.7444C150.692 37.6244 150.076 35.7609 150.076 33.2071V10.6909H155.527ZM215.192 19.1731H215.493C215.698 19.1703 215.902 19.184 216.104 19.2141L216.748 19.3155L216.635 24.1094C216.352 24.07 216.066 24.0514 215.781 24.0538H215.114C214.586 24.0583 214.059 24.1068 213.538 24.1987C212.918 24.3122 212.336 24.5813 211.848 24.9808C211.251 25.4893 210.792 26.1413 210.516 26.8756C210.168 27.7132 209.992 28.8839 209.992 30.3563V40.2337L204.501 40.2289V19.4145L209.985 19.4555V22.2193L210.255 21.8355C210.796 21.0704 211.105 20.8362 211.846 20.269L212.02 20.1386C212.94 19.472 214.056 19.1322 215.192 19.1731ZM49.1155 19.1658H49.4196C49.624 19.163 49.8282 19.1768 50.0303 19.2069L50.6772 19.3083L50.5614 24.1021C50.2783 24.0626 49.9927 24.0441 49.7069 24.0466H49.0358C48.5081 24.0511 47.9817 24.0996 47.462 24.1914C46.8414 24.3039 46.2597 24.5731 45.7724 24.9735C45.1748 25.4815 44.717 26.1338 44.4423 26.8684C44.0947 27.7035 43.9185 28.8767 43.9185 30.3491V40.2265L38.4223 40.2289V19.4145L43.9354 19.4555L43.9137 22.2073L44.1889 21.8211C44.6495 21.1713 44.9384 20.9069 45.466 20.4996L45.9486 20.1314C46.8669 19.4651 47.9817 19.1253 49.1155 19.1658ZM126.761 10.3119L128.431 10.6668L127.63 14.9441L126.843 14.7872C126.403 14.7092 125.956 14.6744 125.508 14.6834C124.649 14.648 123.801 14.8946 123.094 15.3858C122.416 15.8951 122.056 16.9306 122.056 18.3789V19.4241H128.924C128.294 19.8598 127.726 20.3777 127.234 20.9641C126.596 21.7374 126.079 22.6024 125.699 23.53H122.056V40.1975L116.608 40.1879V23.5204H113.265V19.4169H116.608V18.2462C116.59 17.076 116.787 15.9124 117.19 14.8137C117.546 13.8652 118.113 13.0095 118.846 12.3106C119.588 11.6178 120.465 11.0861 121.422 10.7488C122.431 10.4006 123.489 10.2189 124.556 10.2104L125.202 10.2105C125.724 10.193 126.246 10.2269 126.761 10.3119ZM82.9187 18.9245C85.2529 18.9245 87.0343 19.5665 88.2098 20.8338C89.3854 22.1011 89.9864 24.1407 89.9864 26.8853V40.1879H84.495V28.4374C84.495 26.9529 84.2536 25.7821 83.8022 24.9783C83.3508 24.1745 82.4915 23.7207 81.328 23.7207C80.8332 23.7248 80.3412 23.7955 79.8652 23.9307C79.3367 24.083 78.8567 24.3699 78.4725 24.7635C78.0167 25.2508 77.6775 25.8351 77.4804 26.4725C77.2023 27.3855 77.0752 28.3378 77.1038 29.2918V40.1879H71.6148V19.4145H77.0917V22.1445L77.3645 21.7366C77.4329 21.6193 77.5148 21.5105 77.6086 21.4126L77.7473 21.2735C77.7948 21.225 77.8545 21.163 77.9342 21.0776C78.3205 20.6679 78.7549 20.3064 79.228 20.001C79.7459 19.6718 80.3041 19.4106 80.8887 19.2238C81.5454 19.0179 82.2305 18.9169 82.9187 18.9245ZM137.486 23.1511C135.943 23.1511 134.809 23.7449 134.106 24.9156C133.404 26.0863 133.088 27.7253 133.088 29.8639C133.088 32.0026 133.43 33.6657 134.106 34.8099C134.782 35.954 135.934 36.5744 137.486 36.5744C139.038 36.5744 140.204 35.9806 140.894 34.8099C141.584 33.6392 141.915 31.9977 141.915 29.8639C141.915 27.7301 141.589 26.0694 140.904 24.9156C140.218 23.7618 139.067 23.1511 137.486 23.1511ZM60.9988 30.325C59.6422 30.325 58.5536 30.5663 57.7618 31.0491C56.9701 31.5319 56.5284 32.3719 56.5284 33.4823C56.5284 34.2209 56.6901 34.8002 57.0111 35.2033C57.3076 35.5913 57.7004 35.895 58.1505 36.0844C58.5521 36.2525 58.9759 36.3614 59.4084 36.4078L59.5384 36.4199C60.0212 36.4633 60.4388 36.4826 60.7936 36.4826C61.2117 36.4821 61.6291 36.4473 62.0415 36.3788L62.4311 36.313C62.6788 36.2705 62.9025 36.2308 63.1036 36.1954L63.2267 36.1713V30.5519L63.1012 30.5326C62.7778 30.477 62.4181 30.4288 62.0343 30.3877C61.6904 30.3489 61.3448 30.3279 60.9988 30.325ZM169.59 23.7594C168.92 24.1303 168.342 24.6477 167.9 25.2728C167.436 25.9415 167.103 26.6916 166.917 27.4839C166.724 28.2815 166.62 29.0981 166.607 29.9184L166.606 30.1077C166.584 31.0849 166.725 32.059 167.024 32.9898C167.257 33.7087 167.654 34.3638 168.182 34.904C168.676 35.3809 169.276 35.7348 169.932 35.9371C170.637 36.1483 171.369 36.2524 172.105 36.2461C172.561 36.2461 172.991 36.2268 173.382 36.1881C173.76 36.1416 174.135 36.0665 174.502 35.9636L174.767 35.8864V23.5518L174.654 23.5252C174.212 23.4076 173.764 23.3173 173.312 23.2549C172.877 23.2089 172.44 23.188 172.003 23.1921C171.164 23.174 170.333 23.3692 169.59 23.7594ZM100.73 23.7207C100.055 24.0876 99.4728 24.6045 99.0286 25.2318C98.5645 25.8999 98.2319 26.6503 98.0486 27.4429C97.8413 28.302 97.7375 29.1829 97.7396 30.0667C97.718 31.0429 97.8583 32.016 98.1548 32.9464C98.3862 33.6669 98.783 34.3233 99.3134 34.863C99.8061 35.3419 100.406 35.6962 101.063 35.8961C101.768 36.1083 102.5 36.2133 103.236 36.2075C103.695 36.2075 104.124 36.1857 104.515 36.1471C104.898 36.1028 105.277 36.028 105.648 35.9234L105.913 35.8454V23.5131L105.802 23.4842C105.36 23.3661 104.911 23.2758 104.457 23.2138C104.021 23.1671 103.583 23.1461 103.144 23.1511C102.304 23.1321 101.473 23.3282 100.73 23.7207ZM24.4374 27.2302L21.622 27.2304V35.9854L21.75 36.0047C22.1362 36.0578 22.5876 36.0988 23.0872 36.1278C23.5869 36.1568 24.0262 36.1664 24.4631 36.1664C25.0725 36.1638 25.6806 36.1088 26.2807 36.0023C26.9144 35.8917 27.5238 35.6711 28.0814 35.3506C28.6514 35.0218 29.1314 34.5575 29.479 33.9988C29.8738 33.3133 30.0655 32.5298 30.0318 31.7395C30.0565 30.993 29.9129 30.2505 29.6118 29.567C29.3408 29.0002 28.9244 28.5154 28.4049 28.1622C27.8433 27.7993 27.2145 27.553 26.5559 27.438C25.8572 27.3054 25.1482 27.2359 24.4374 27.2302ZM192.745 23.028C191.348 23.028 190.269 23.4287 189.54 24.218C188.811 25.0073 188.374 26.1104 188.234 27.5249L188.219 27.6891H196.772V27.5346C196.716 26.2046 196.342 25.1208 195.656 24.2856C194.971 23.4504 193.984 23.028 192.745 23.028ZM21.7644 14.9199L21.6389 14.9392V23.04H23.5772C24.2255 23.0449 24.8725 22.9835 25.5083 22.8566C26.0779 22.7444 26.6175 22.5132 27.0918 22.1783C27.557 21.8377 27.9255 21.3818 28.1611 20.8555C28.4356 20.1972 28.5657 19.4877 28.5425 18.7748C28.5674 18.078 28.4128 17.3864 28.0935 16.7665C27.8148 16.2647 27.4159 15.84 26.9324 15.5306C26.4562 15.2323 25.9253 15.0321 25.3707 14.9416C24.8175 14.8456 24.257 14.7971 23.6955 14.7968C23.0496 14.789 22.4041 14.8302 21.7644 14.9199Z" fill="#9E8F7A"/>
<path d="M9.48904 5.48904H38.817V7.92218V7.98252V10.435H35.8263L41.5664 16.1751L47.3016 10.435H44.3061V7.98252V7.92218V0H4V50H44.3061V44.511H9.48904V5.48904Z" fill="#0984E3"/>
</g>
<defs>
<filter id="filter0_d_177_681" x="0" y="0" width="220.748" height="58" filterUnits="userSpaceOnUse" color-interpolation-filters="sRGB">
<feFlood flood-opacity="0" result="BackgroundImageFix"/>
<feColorMatrix in="SourceAlpha" type="matrix" values="0 0 0 0 0 0 0 0 0 0 0 0 0 0 0 0 0 0 127 0" result="hardAlpha"/>
<feOffset dy="4"/>
<feGaussianBlur stdDeviation="2"/>
<feComposite in2="hardAlpha" operator="out"/>
<feColorMatrix type="matrix" values="0 0 0 0 0 0 0 0 0 0 0 0 0 0 0 0 0 0 0.25 0"/>
<feBlend mode="normal" in2="BackgroundImageFix" result="effect1_dropShadow_177_681"/>
<feBlend mode="normal" in="SourceGraphic" in2="effect1_dropShadow_177_681" result="shape"/>
</filter>
</defs>
</svg>
