<svg width="214" height="40" viewBox="0 0 214 40" fill="none" xmlns="http://www.w3.org/2000/svg">
<path d="M202.605 34.3316C202.605 31.201 205.147 28.6611 208.276 28.6611C211.407 28.6611 213.945 31.201 213.945 34.3316C213.945 37.4622 211.407 40.0005 208.276 40.0005C205.147 40.0005 202.605 37.4622 202.605 34.3316Z" fill="#86BC24"/>
<path d="M21.7632 19.3139C21.7632 15.7223 21.0693 13.0576 19.6813 11.3215C18.2913 9.58739 16.1865 8.72106 13.3558 8.72106H10.3453V30.6844H12.6489C15.7925 30.6844 18.0962 29.7522 19.5632 27.8818C21.0282 26.0149 21.7634 23.1582 21.7634 19.3139M32.5004 18.9395C32.5004 25.4831 30.7417 30.5253 27.2237 34.0643C23.706 37.605 18.7608 39.3753 12.3861 39.3753H0V0.166166H13.251C19.3972 0.166166 24.1424 1.7759 27.4862 4.99343C30.8286 8.21266 32.5004 12.8593 32.5004 18.94M66.8103 39.3751H76.6663V0.00144925H66.8103V39.3751ZM90.5124 24.6885C90.5124 27.1988 90.8404 29.1136 91.4954 30.4294C92.1516 31.7471 93.2508 32.405 94.7963 32.405C96.3256 32.405 97.4069 31.7471 98.037 30.4294C98.6669 29.1136 98.9804 27.1988 98.9804 24.6885C98.9804 22.1911 98.6621 20.3075 98.024 19.0362C97.3839 17.7609 96.2927 17.1228 94.7456 17.1228C93.2327 17.1228 92.1516 17.758 91.4952 19.0212C90.8407 20.2863 90.5122 22.1747 90.5122 24.6885M109.012 24.6885C109.012 29.4713 107.758 33.2025 105.245 35.8769C102.733 38.5529 99.2166 39.8919 94.6963 39.8919C90.3615 39.8919 86.9109 38.5235 84.3495 35.7866C81.7851 33.0499 80.5036 29.3515 80.5036 24.6887C80.5036 19.9204 81.759 16.2154 84.2725 13.5739C86.786 10.9322 90.3105 9.61155 94.8487 9.61155C97.653 9.61155 100.134 10.2236 102.283 11.4459C104.434 12.668 106.095 14.419 107.261 16.6997C108.43 18.977 109.012 21.6417 109.012 24.6885M112.926 39.3751H122.784V10.1284H112.926V39.3751ZM112.926 6.59061H122.784V0H112.926V6.59061ZM142.755 31.9155C144.086 31.9155 145.671 31.5773 147.52 30.9064V38.2653C146.191 38.8493 144.927 39.2676 143.726 39.5154C142.526 39.7666 141.116 39.8912 139.503 39.8912C136.194 39.8912 133.808 39.0594 132.343 37.3987C130.884 35.7385 130.152 33.1888 130.152 29.7481V17.6914H126.7V10.1311H130.152V2.66204L140.086 0.934443V10.1308H146.375V17.6916H140.086V29.0752C140.086 30.9687 140.977 31.9155 142.755 31.9155ZM165.569 31.9155C166.9 31.9155 168.485 31.5773 170.334 30.9064V38.2653C169.007 38.8493 167.742 39.2676 166.541 39.5154C165.338 39.7666 163.934 39.8912 162.318 39.8912C159.008 39.8912 156.623 39.0594 155.16 37.3987C153.699 35.7385 152.967 33.1888 152.967 29.7481V17.6914H149.513V10.1311H152.967V2.54901L162.898 0.934443V10.1308H169.191V17.6916H162.899V29.0752C162.899 30.9687 163.789 31.9155 165.57 31.9155M182.772 21.1255C182.907 19.5243 183.365 18.351 184.146 17.6013C184.93 16.8531 185.898 16.4789 187.057 16.4789C188.32 16.4789 189.324 16.8989 190.069 17.7455C190.819 18.5872 191.209 19.7146 191.24 21.1255H182.772ZM196.673 13.0595C194.33 10.7626 191.006 9.61227 186.706 9.61227C182.185 9.61227 178.707 10.9331 176.268 13.5747C173.832 16.2164 172.613 20.0063 172.613 24.9454C172.613 29.728 173.93 33.4165 176.559 36.0056C179.189 38.5947 182.882 39.891 187.639 39.891C189.923 39.891 191.889 39.7352 193.536 39.4251C195.173 39.1183 196.758 38.5636 198.296 37.7629L196.781 31.1718C195.664 31.6283 194.601 31.9792 193.597 32.2104C192.146 32.547 190.555 32.7159 188.822 32.7159C186.922 32.7159 185.422 32.2517 184.323 31.323C183.224 30.3927 182.638 29.1095 182.571 27.4754H200.189V22.9845C200.189 18.6645 199.018 15.3549 196.673 13.0595ZM45.5821 21.1255C45.7167 19.5243 46.1746 18.351 46.9554 17.6013C47.738 16.8531 48.7077 16.4789 49.8679 16.4789C51.1279 16.4789 52.1322 16.8989 52.8787 17.7455C53.6284 18.5872 54.0172 19.7146 54.0518 21.1255H45.5821ZM59.4843 13.0595C57.1396 10.7626 53.817 9.61227 49.5151 9.61227C44.9931 9.61227 41.5164 10.9331 39.0797 13.5747C36.6432 16.2164 35.4226 20.0063 35.4226 24.9454C35.4226 29.728 36.7384 33.4165 39.3702 36.0056C41.9987 38.5947 45.692 39.891 50.4488 39.891C52.7326 39.891 54.6983 39.7352 56.3455 39.4251C57.983 39.1183 59.5681 38.5636 61.1071 37.7629L59.5911 31.1718C58.4735 31.6283 57.4104 31.9792 56.4078 32.2104C54.9543 32.547 53.3644 32.7159 51.6315 32.7159C49.7332 32.7159 48.2321 32.2517 47.1327 31.323C46.0316 30.3927 45.4476 29.1095 45.3805 27.4754H62.9989V22.9845C62.9989 18.6645 61.8275 15.3549 59.4843 13.0595" fill="#9E8F7A"/>
</svg>
