<svg width="89" height="58" viewBox="0 0 89 58" fill="none" xmlns="http://www.w3.org/2000/svg">
<g filter="url(#filter0_d_177_685)">
<path d="M35.1854 1.61133H30.2381C29.5582 1.61133 29.002 2.16757 29.002 2.84745V7.79507C29.002 8.47494 29.5582 9.03119 30.2381 9.03119H35.1854C35.8653 9.03119 36.4215 8.47494 36.4215 7.79507V2.84745C36.4215 2.16757 35.8654 1.61133 35.1854 1.61133Z" fill="#5B8DC9"/>
<path d="M35.1854 13.1309H30.2381C29.5582 13.1309 29.002 13.6871 29.002 14.367V37.1132C29.002 37.793 29.5582 38.3493 30.2381 38.3493H35.1854C35.8653 38.3493 36.4215 37.793 36.4215 37.1132V14.367C36.4215 13.6869 35.8654 13.1309 35.1854 13.1309Z" fill="#5B8DC9"/>
<path d="M81.9939 13.1309H65.1834C64.5035 13.1309 63.9473 13.6871 63.9473 14.367V37.1182C63.9473 37.7981 64.5035 38.3543 65.1834 38.3543H74.5792C75.2591 38.3543 75.8153 38.9106 75.8153 39.5905V41.2241C75.8153 41.904 75.2591 42.4603 74.5792 42.4603H65.1834C64.5035 42.4603 63.9473 43.0165 63.9473 43.6964V47.1541C63.9473 47.834 64.5035 48.3903 65.1834 48.3903H81.9936C82.6734 48.3903 83.2297 47.834 83.2297 47.1541V14.367C83.23 13.6869 82.6737 13.1309 81.9939 13.1309ZM75.8155 31.1822C75.8155 31.8621 75.2593 32.4183 74.5794 32.4183H72.6036C71.924 32.4183 71.3674 31.8621 71.3674 31.1822V20.3035C71.3674 19.6236 71.924 19.0673 72.6036 19.0673H74.5794C75.2593 19.0673 75.8155 19.6236 75.8155 20.3035V31.1822Z" fill="#5B8DC9"/>
<path d="M23.6579 1.61133H18.7157C18.0358 1.61133 17.4796 2.16757 17.4796 2.84745V11.8942C17.4796 12.5741 16.9233 13.1303 16.2435 13.1303H6.84744C6.16757 13.1303 5.61133 13.6866 5.61133 14.3664V37.1126C5.61133 37.7925 6.16757 38.3487 6.84744 38.3487H23.6578C24.3377 38.3487 24.8939 37.7925 24.8939 37.1126V2.84745C24.8941 2.16757 24.3378 1.61133 23.6579 1.61133ZM17.4794 31.1818C17.4794 31.8617 16.9232 32.4179 16.2433 32.4179H14.267C13.5871 32.4179 13.0309 31.8617 13.0309 31.1818V20.3031C13.0309 19.6232 13.5871 19.067 14.267 19.067H16.2433C16.9232 19.067 17.4794 19.6232 17.4794 20.3031V31.1818Z" fill="#5B8DC9"/>
<path d="M58.622 13.1309H41.8064C41.1266 13.1309 40.5703 13.6871 40.5703 14.367V37.1182C40.5703 37.7981 41.1266 38.3543 41.8064 38.3543H51.2028C51.8826 38.3543 52.4389 38.9106 52.4389 39.5905V41.2241C52.4389 41.904 51.8826 42.4603 51.2028 42.4603H41.8064C41.1266 42.4603 40.5703 43.0165 40.5703 43.6964V47.1541C40.5703 47.834 41.1266 48.3903 41.8064 48.3903H58.622C59.3018 48.3903 59.8581 47.834 59.8581 47.1541V14.367C59.8581 13.6869 59.3018 13.1309 58.622 13.1309ZM52.439 31.1822C52.439 31.8621 51.8828 32.4183 51.2029 32.4183H49.226C48.5461 32.4183 47.9899 31.8621 47.9899 31.1822V20.3035C47.9899 19.6236 48.5461 19.0673 49.226 19.0673H51.2029C51.8828 19.0673 52.439 19.6236 52.439 20.3035V31.1822Z" fill="#5B8DC9"/>
<path d="M35.1845 10.6408H30.2371C28.6676 10.6408 27.3906 9.36379 27.3906 7.79421V2.84659C27.3906 1.27701 28.6676 0 30.2371 0H35.1845C36.7541 0 38.0311 1.27701 38.0311 2.84659V7.79421C38.0311 9.36379 36.7543 10.6408 35.1845 10.6408ZM30.6114 7.42002H34.8103V3.22079H30.6114V7.42002Z" fill="#324A5E"/>
<path d="M35.1845 39.9586H30.2371C28.6676 39.9586 27.3906 38.6816 27.3906 37.112V14.366C27.3906 12.7965 28.6676 11.5195 30.2371 11.5195H35.1845C36.7541 11.5195 38.0311 12.7965 38.0311 14.366V37.1122C38.0311 38.6816 36.7543 39.9586 35.1845 39.9586ZM30.6114 36.738H34.8103V14.7402H30.6114V36.738Z" fill="#324A5E"/>
<path d="M81.9927 50H65.1825C63.6129 50 62.3359 48.723 62.3359 47.1535V43.6957C62.3359 42.1261 63.6129 40.8491 65.1825 40.8491H74.204V39.9636H65.1825C63.6129 39.9636 62.3359 38.6866 62.3359 37.117V14.366C62.3359 12.7965 63.6129 11.5195 65.1825 11.5195H81.9927C83.5623 11.5195 84.8393 12.7965 84.8393 14.366V47.1535C84.8393 48.723 83.5623 50 81.9927 50ZM65.5567 46.7793H81.6187V14.7402H65.5567V36.7432H74.5782C76.1478 36.7432 77.4248 38.0202 77.4248 39.5896V41.2234C77.4248 42.793 76.1478 44.07 74.5782 44.07H65.5567V46.7793ZM74.5782 34.0278H72.6024C71.0328 34.0278 69.7558 32.7508 69.7558 31.1814V20.3025C69.7558 18.7329 71.0328 17.4559 72.6024 17.4559H74.5782C76.1478 17.4559 77.4248 18.7329 77.4248 20.3025V31.1814C77.4248 32.7508 76.1478 34.0278 74.5782 34.0278ZM72.9766 30.807H74.2042V20.6766H72.9766V30.807Z" fill="#324A5E"/>
<path d="M23.6568 39.9582H6.84659C5.27701 39.9582 4 38.6812 4 37.1116V14.3656C4 12.7962 5.27701 11.5191 6.84659 11.5191H15.8681V2.84659C15.8681 1.27701 17.1451 0 18.7147 0H23.6566C25.2262 0 26.5032 1.27701 26.5032 2.84659V37.1118C26.5034 38.6812 25.2265 39.9582 23.6568 39.9582ZM7.22063 36.7376H23.2826V3.22063H19.0889V11.8932C19.0889 13.4628 17.8119 14.7398 16.2424 14.7398H7.22063V36.7376ZM16.2423 34.0274H14.266C12.6964 34.0274 11.4194 32.7504 11.4194 31.181V20.3021C11.4194 18.7325 12.6964 17.4555 14.266 17.4555H16.2423C17.8117 17.4555 19.0887 18.7325 19.0887 20.3021V31.181C19.0889 32.7504 17.812 34.0274 16.2423 34.0274ZM14.64 30.8066H15.8681V20.6763H14.64V30.8066Z" fill="#324A5E"/>
<path d="M58.6213 50H41.8056C40.236 50 38.959 48.723 38.959 47.1535V43.6957C38.959 42.1261 40.236 40.8491 41.8056 40.8491H50.8277V39.9636H41.8056C40.236 39.9636 38.959 38.6866 38.959 37.117V14.366C38.959 12.7965 40.236 11.5195 41.8056 11.5195H58.6211C60.1905 11.5195 61.4676 12.7965 61.4676 14.366V47.1535C61.4676 48.723 60.1907 50 58.6213 50ZM42.1798 46.7793H58.2469V14.7402H42.1798V36.7432H51.2019C52.7715 36.7432 54.0485 38.0202 54.0485 39.5896V41.2234C54.0485 42.793 52.7715 44.07 51.2019 44.07H42.1798V46.7793ZM51.2019 34.0278H49.225C47.6555 34.0278 46.3785 32.7508 46.3785 31.1814V20.3025C46.3785 18.7329 47.6555 17.4559 49.225 17.4559H51.2019C52.7715 17.4559 54.0485 18.7329 54.0485 20.3025V31.1814C54.0485 32.7508 52.7715 34.0278 51.2019 34.0278ZM49.5993 30.807H50.8279V20.6766H49.5993V30.807Z" fill="#324A5E"/>
</g>
<defs>
<filter id="filter0_d_177_685" x="0" y="0" width="88.8389" height="58" filterUnits="userSpaceOnUse" color-interpolation-filters="sRGB">
<feFlood flood-opacity="0" result="BackgroundImageFix"/>
<feColorMatrix in="SourceAlpha" type="matrix" values="0 0 0 0 0 0 0 0 0 0 0 0 0 0 0 0 0 0 127 0" result="hardAlpha"/>
<feOffset dy="4"/>
<feGaussianBlur stdDeviation="2"/>
<feComposite in2="hardAlpha" operator="out"/>
<feColorMatrix type="matrix" values="0 0 0 0 0 0 0 0 0 0 0 0 0 0 0 0 0 0 0.25 0"/>
<feBlend mode="normal" in2="BackgroundImageFix" result="effect1_dropShadow_177_685"/>
<feBlend mode="normal" in="SourceGraphic" in2="effect1_dropShadow_177_685" result="shape"/>
</filter>
</defs>
</svg>
