<svg width="211" height="58" viewBox="0 0 211 58" fill="none" xmlns="http://www.w3.org/2000/svg">
<g filter="url(#filter0_d_177_731)">
<path d="M205.154 24.4692L203.316 24.9694C201.549 18.9677 198.59 16.3745 194.411 16.3745C191.475 16.3745 189.41 18.3088 189.41 21.3759C189.41 24.3117 191.845 25.8771 198.387 28.5378C204.426 30.7585 206.933 33.4792 206.933 38.2305C206.933 45.4638 201.252 50 191.929 50C187.428 50 182.357 48.9972 179.491 47.8519L179.133 37.8017L180.9 37.444C183.551 44.3209 186.939 46.9217 191.357 46.9217C195.176 46.9217 197.183 44.2709 197.183 41.5502C197.183 38.8294 195.633 37.2527 189.664 35.1047C183.982 33.2291 180.091 30.8072 180.091 24.7681C180.091 18.8239 185.317 13.7863 194.224 13.7863C198.425 13.7863 202.245 14.5027 204.751 15.6618L205.154 24.4692ZM166.693 27.6201C166.909 22.8938 165.953 16.0669 162.062 16.0669C158.061 16.0669 155.879 22.4412 155.808 27.9077L166.693 27.6201ZM163.017 13.7738C172.805 13.7738 177.521 20.9358 177.604 30.3408H155.593C155.522 38.6719 159.938 44.9749 168.196 44.9749C171.801 44.9749 173.878 43.9721 176.074 42.3967L177.099 43.542C174.664 46.8366 169.651 49.9875 162.966 49.9875C152.223 49.9875 144.774 42.6105 144.774 32.2026C144.749 22.7963 150.863 13.7725 163.012 13.7725M131.266 31.2023C131.051 23.754 128.33 17.8574 123.102 17.8574C121.86 17.8574 120.905 18.0725 119.425 18.5739L119.856 47.198C120.381 47.413 121.622 47.5556 122.506 47.5556C127.592 47.5556 131.268 40.3699 131.268 31.2011M142.178 30.6284C142.178 42.3979 134.73 49.9888 122.148 49.9888C117.646 49.9888 113.004 49.2723 108.969 48.342C109.326 43.6157 109.326 14.3327 108.969 8.83118C108.611 5.95539 107.799 4.60502 105.593 4.32994L104.113 4.18615V2.87329L119.639 0C119.568 2.43442 119.424 8.83243 119.424 16.3545C122.146 14.9941 124.651 14.2064 128.043 14.2064C136.136 14.2064 142.175 21.0833 142.175 30.6309M102.62 24.2317C97.8208 21.0808 92.6644 22.4412 91.6379 24.2317C91.184 29.7332 91.2803 38.2355 91.7091 42.5905C91.9242 45.4663 92.7344 46.6728 94.9563 46.8879L97.8921 47.1755V49.051H75.9523V47.1755L77.6478 46.8879C79.7733 46.6728 80.5236 45.455 80.6561 42.5905C81.1812 37.9354 81.325 28.1715 80.6561 22.8C80.5123 19.7204 79.7733 18.5739 77.6478 18.2988L75.9523 18.0837V16.7959L91.6366 13.7875L91.4215 21.8085C95.0975 13.5012 102.403 12.4984 106.366 14.719L102.62 24.2317ZM51.1492 31.9188C51.1492 40.6799 53.5249 47.8419 58.2762 47.8419C63.4326 47.8419 64.913 40.8237 64.913 31.9188C64.913 23.0138 62.6324 16.0669 57.7848 16.0669C52.6046 16.0669 51.1492 22.8713 51.1492 31.9188ZM76.0236 31.775C76.0236 41.8253 69.3867 49.99 57.546 49.99C45.8965 49.99 40.0237 42.2316 40.0237 32.0601C40.0237 22.0823 46.6605 13.7738 58.5012 13.7738C70.1507 13.7738 76.0236 21.5809 76.0236 31.775ZM45.5389 14.504L43.1045 15.2204C41.0514 8.1785 37.4229 4.1674 31.1675 4.1674H23.0027C22.5489 8.84618 22.3338 16.0794 22.5489 23.8853L27.9916 23.5977C31.6676 23.5977 33.218 20.947 34.1033 17.0809H36.1563V33.3604H34.1033C33.2205 29.4218 31.6689 26.7336 27.9916 26.5335L22.5489 26.4623C22.5489 32.2639 22.6201 37.2152 23.0027 40.2373C23.3603 44.5347 24.5532 46.4915 27.704 46.8979L30.6648 47.1855V49.061H4V47.1855L6.22061 46.8979C9.30021 46.4678 10.5656 44.5222 10.9219 40.2373C11.5183 33.2191 11.6621 18.2263 10.9219 9.89522C10.5643 5.4565 9.29896 3.66476 6.22061 3.30591L4 2.94831V1.01278H45.4689L45.5389 14.504Z" fill="#0984E3"/>
</g>
<defs>
<filter id="filter0_d_177_731" x="0" y="0" width="210.934" height="58" filterUnits="userSpaceOnUse" color-interpolation-filters="sRGB">
<feFlood flood-opacity="0" result="BackgroundImageFix"/>
<feColorMatrix in="SourceAlpha" type="matrix" values="0 0 0 0 0 0 0 0 0 0 0 0 0 0 0 0 0 0 127 0" result="hardAlpha"/>
<feOffset dy="4"/>
<feGaussianBlur stdDeviation="2"/>
<feComposite in2="hardAlpha" operator="out"/>
<feColorMatrix type="matrix" values="0 0 0 0 0 0 0 0 0 0 0 0 0 0 0 0 0 0 0.25 0"/>
<feBlend mode="normal" in2="BackgroundImageFix" result="effect1_dropShadow_177_731"/>
<feBlend mode="normal" in="SourceGraphic" in2="effect1_dropShadow_177_731" result="shape"/>
</filter>
</defs>
</svg>
