<svg width="166" height="40" viewBox="0 0 166 40" fill="none" xmlns="http://www.w3.org/2000/svg">
<path d="M58.8409 39.9982C52.7435 39.9982 48.0742 35.4153 48.0742 29.0191C48.0742 22.6228 52.6838 18.0465 58.9339 18.0465C60.1454 18.0003 61.3535 18.2021 62.4843 18.6396C63.615 19.077 64.6444 19.7409 65.5094 20.5904V18.4052H69.1227V25.9571H65.091C64.6719 24.7305 63.8655 23.6733 62.7933 22.9449C61.7211 22.2165 60.4411 21.8564 59.1464 21.9188C55.1612 21.9188 52.5044 24.9475 52.5044 29.0124C52.5044 33.4426 55.4468 36.1127 59.2394 36.1127C62.2084 36.1127 64.2142 34.3526 64.7854 32.5592H59.2062V29.1054H69.1227V39.6329H65.6954V36.6905C64.8949 37.7436 63.8565 38.5923 62.6652 39.1672C61.4738 39.7421 60.1634 40.0269 58.8409 39.9982V39.9982ZM71.3942 39.6329V36.478H72.789V28.8995H71.3942V25.7446H76.6082V28.0825C76.8508 27.3246 77.336 26.6676 77.9889 26.2127C78.6419 25.7577 79.4264 25.5302 80.2214 25.5652C80.5881 25.559 80.9541 25.5992 81.3107 25.6848V29.6235H79.6435C77.651 29.6235 76.7344 30.5666 76.7344 32.991V36.478H78.4281V39.6329H71.3942ZM87.222 39.9982C84.0405 39.9982 82.2538 37.906 82.2538 35.6278C82.2538 32.971 84.1933 31.357 87.2818 31.357H89.9851C90.6493 31.357 90.9814 30.9917 90.9814 30.4736V30.3209C90.9814 29.5039 90.3504 28.7467 88.8626 28.7467C88.3755 28.7244 87.8917 28.8365 87.4641 29.0708C87.0365 29.3051 86.6816 29.6526 86.4383 30.0751H83.2501V25.7446H86.6508V26.6877C87.0822 26.2615 87.5936 25.9247 88.1555 25.6968C88.7175 25.4688 89.3189 25.3541 89.9253 25.3593C92.715 25.3593 94.9267 26.8139 94.9267 30.4869V36.4647H96.3083V39.6197H90.9947V38.2248C90.2574 39.3938 88.6169 39.9982 87.222 39.9982V39.9982ZM90.9814 34.6847V33.6884C90.6302 33.9361 90.1987 34.0427 89.7726 33.9872H88.2848C87.0427 33.9872 86.2922 34.5385 86.2922 35.5083C86.2922 36.478 87.0493 37.1422 88.2848 37.1422C89.7128 37.1156 90.9947 36.3916 90.9947 34.6581L90.9814 34.6847ZM97.8957 39.6329V36.478H99.2905V28.8995H97.8957V25.7446H103.143V26.2892C103.139 26.7048 103.108 27.1197 103.05 27.5312C103.553 26.8715 104.199 26.3348 104.94 25.962C105.682 25.5891 106.498 25.3898 107.327 25.3792C110.329 25.3792 112.481 27.2921 112.481 30.5334V36.5112H113.876V39.6661H107.148V36.478H108.543V31.5364C108.579 31.2115 108.544 30.8826 108.44 30.5728C108.336 30.263 108.165 29.9797 107.94 29.743C107.714 29.5062 107.44 29.3217 107.136 29.2023C106.831 29.083 106.504 29.0318 106.178 29.0523C105.601 29.0773 105.037 29.2317 104.528 29.5042C104.018 29.7767 103.577 30.1602 103.236 30.6264V36.478H104.943V39.6329H97.8957ZM120.492 39.9982C117.49 39.9982 115.55 38.0854 115.55 34.8441V28.8663H114.149V25.7446H119.462V33.8743C119.462 35.6345 120.372 36.3584 121.614 36.3584C122.178 36.3337 122.729 36.1787 123.224 35.9056C123.718 35.6325 124.142 35.2487 124.464 34.7843V28.8995H122.212V25.7446H128.462V36.478H129.857V39.6329H124.61V39.0883C124.61 38.7562 124.643 38.3577 124.67 37.8728C124.182 38.523 123.552 39.0526 122.828 39.4211C122.103 39.7896 121.304 39.987 120.492 39.9982ZM131.438 39.6329V36.478H132.839V21.5601H131.444V18.4052H136.758V36.478H138.153V39.6329H131.438ZM144.536 39.9982C141.354 39.9982 139.561 37.906 139.561 35.6278C139.561 32.971 141.5 31.357 144.595 31.357H147.292C147.956 31.357 148.295 30.9917 148.295 30.4736V30.3209C148.295 29.5039 147.631 28.7467 146.17 28.7467C145.683 28.7244 145.199 28.8365 144.771 29.0708C144.343 29.3051 143.989 29.6526 143.745 30.0751H140.564V25.7446H143.958V26.6877C144.389 26.2618 144.901 25.9252 145.463 25.6973C146.025 25.4693 146.626 25.3545 147.232 25.3593C150.022 25.3593 152.24 26.8139 152.24 30.4869V36.4647H153.635V39.6197H148.322V38.2248C147.571 39.3938 145.93 39.9982 144.536 39.9982V39.9982ZM148.295 34.6847V33.6884C147.942 33.9365 147.508 34.0431 147.08 33.9872H145.598C144.356 33.9872 143.606 34.5385 143.606 35.5083C143.606 36.478 144.363 37.1422 145.598 37.1422C147.02 37.1156 148.295 36.3916 148.295 34.6581V34.6847ZM155.362 39.6329V36.478H156.75V28.8995H155.355V25.7446H160.569V28.0825C160.812 27.3258 161.296 26.6695 161.948 26.2147C162.599 25.7599 163.382 25.5317 164.176 25.5652C164.545 25.5589 164.913 25.5991 165.272 25.6848V29.6235H163.605C161.612 29.6235 160.689 30.5666 160.689 32.991V36.478H162.389V39.6329H155.362Z" fill="#9E8F7A"/>
<path d="M0 18.3518V0H39.5397V18.3518H0ZM0 39.5397V21.1813H18.3518V39.5397H0ZM31.0645 29.6564V21.1813H39.5397V29.6564H31.0645ZM21.1813 39.5397V32.4793H39.5331V39.5397H21.1813Z" fill="#C03131"/>
</svg>
