<svg width="66" height="58" viewBox="0 0 66 58" fill="none" xmlns="http://www.w3.org/2000/svg">
<g filter="url(#filter0_d_177_717)">
<path d="M57.9036 22.5014C51.3651 16.0238 44.8267 9.54891 38.2938 3.07038C37.3398 2.13948 36.4412 1.07954 35.1785 0.546802C33.9287 -0.0421552 32.4752 -0.12695 31.1314 0.156929C29.9544 0.42514 28.8907 1.06295 28.041 1.90445C20.6905 9.18669 13.3391 16.4708 5.98501 23.7502C5.13798 24.5862 4.47805 25.6333 4.208 26.7955C3.60337 28.8868 4.361 31.2316 5.90943 32.7395C11.0921 37.8742 16.2793 43.0033 21.461 48.1417C22.6168 49.3114 24.2491 49.9934 25.9054 49.9722C30.1461 49.9971 34.3822 49.9685 38.6201 49.986C40.5261 50.1077 42.4561 49.4312 43.8064 48.0781C48.5015 43.4402 53.1836 38.7857 57.8787 34.145C58.6437 33.3763 59.4723 32.6583 60.0954 31.7662C61.2373 30.1338 61.4281 27.9356 60.7608 26.0876C60.2391 24.6028 58.9856 23.5788 57.9036 22.5014ZM21.1993 30.7707C20.4002 31.7118 18.9955 31.4629 17.9162 31.2961C16.9651 30.5421 16.0922 29.6647 15.3245 28.7301C14.8811 28.2112 15.4507 27.6729 15.8037 27.307C20.6389 22.5373 25.4575 17.7473 30.2834 12.9721C30.9304 12.3453 31.5203 11.6494 32.2484 11.1149C32.8761 10.8024 33.3591 11.4752 33.7757 11.8319C34.6651 12.7693 35.6698 13.6006 36.4836 14.6034C36.902 15.1011 36.4421 15.6772 36.0744 16.0339C31.1111 20.9409 26.1441 25.848 21.1993 30.7707ZM36.4154 42.0706C35.6439 42.9305 34.8375 43.773 33.9342 44.4919C33.1029 44.69 32.2171 44.6439 31.3756 44.525C30.5682 44.1186 30.0207 43.3407 29.359 42.7407C28.8861 42.2863 28.1497 41.6024 28.7553 40.9471C29.7811 39.8171 30.877 38.7424 32.0116 37.7166C32.4328 37.3626 33.0641 37.5387 33.4052 37.9202C34.3748 38.8502 35.3297 39.794 36.2652 40.759C36.6301 41.0835 36.8338 41.6982 36.4154 42.0706ZM36.126 29.2002C33.3729 31.9228 30.6097 34.6427 27.8714 37.3848C27.1036 38.3193 25.7478 38.0235 24.6971 37.9368C23.6795 37.2907 22.8915 36.3331 22.074 35.4593C21.5302 34.9497 22.0408 34.2814 22.4583 33.8971C25.2169 31.1772 27.9709 28.4564 30.7129 25.7217C31.2116 25.2406 31.6641 24.6848 32.2696 24.318C32.877 24.0599 33.3213 24.6719 33.7222 25.0157C34.6393 25.9881 35.6836 26.8443 36.5195 27.8849C36.8891 28.3495 36.4615 28.8702 36.126 29.2002Z" fill="#84BF31" fill-opacity="0.8"/>
<path d="M57.9036 22.5014C51.3651 16.0238 44.8267 9.54891 38.2938 3.07038C37.3398 2.13948 36.4412 1.07954 35.1785 0.546802C33.9287 -0.0421552 32.4752 -0.12695 31.1314 0.156929C29.9544 0.42514 28.8907 1.06295 28.041 1.90445C20.6905 9.18669 13.3391 16.4708 5.98501 23.7502C5.13798 24.5862 4.47805 25.6333 4.208 26.7955C3.60337 28.8868 4.361 31.2316 5.90943 32.7395C11.0921 37.8742 16.2793 43.0033 21.461 48.1417C22.6168 49.3114 24.2491 49.9934 25.9054 49.9722C30.1461 49.9971 34.3822 49.9685 38.6201 49.986C40.5261 50.1077 42.4561 49.4312 43.8064 48.0781C48.5015 43.4402 53.1836 38.7857 57.8787 34.145C58.6437 33.3763 59.4723 32.6583 60.0954 31.7662C61.2373 30.1338 61.4281 27.9356 60.7608 26.0876C60.2391 24.6028 58.9856 23.5788 57.9036 22.5014ZM21.1993 30.7707C20.4002 31.7118 18.9955 31.4629 17.9162 31.2961C16.9651 30.5421 16.0922 29.6647 15.3245 28.7301C14.8811 28.2112 15.4507 27.6729 15.8037 27.307C20.6389 22.5373 25.4575 17.7473 30.2834 12.9721C30.9304 12.3453 31.5203 11.6494 32.2484 11.1149C32.8761 10.8024 33.3591 11.4752 33.7757 11.8319C34.6651 12.7693 35.6698 13.6006 36.4836 14.6034C36.902 15.1011 36.4421 15.6772 36.0744 16.0339C31.1111 20.9409 26.1441 25.848 21.1993 30.7707ZM36.4154 42.0706C35.6439 42.9305 34.8375 43.773 33.9342 44.4919C33.1029 44.69 32.2171 44.6439 31.3756 44.525C30.5682 44.1186 30.0207 43.3407 29.359 42.7407C28.8861 42.2863 28.1497 41.6024 28.7553 40.9471C29.7811 39.8171 30.877 38.7424 32.0116 37.7166C32.4328 37.3626 33.0641 37.5387 33.4052 37.9202C34.3748 38.8502 35.3297 39.794 36.2652 40.759C36.6301 41.0835 36.8338 41.6982 36.4154 42.0706ZM36.126 29.2002C33.3729 31.9228 30.6097 34.6427 27.8714 37.3848C27.1036 38.3193 25.7478 38.0235 24.6971 37.9368C23.6795 37.2907 22.8915 36.3331 22.074 35.4593C21.5302 34.9497 22.0408 34.2814 22.4583 33.8971C25.2169 31.1772 27.9709 28.4564 30.7129 25.7217C31.2116 25.2406 31.6641 24.6848 32.2696 24.318C32.877 24.0599 33.3213 24.6719 33.7222 25.0157C34.6393 25.9881 35.6836 26.8443 36.5195 27.8849C36.8891 28.3495 36.4615 28.8702 36.126 29.2002Z" fill="#84BF31" fill-opacity="0.8"/>
<path d="M29.3601 46.9075C30.0218 47.5076 30.5693 48.2855 31.3767 48.691C32.2182 48.8108 33.1039 48.8569 33.9353 48.6597C34.8386 47.9417 35.645 47.0983 36.4165 46.2375C36.8349 45.8651 36.6312 45.2513 36.2653 44.9278C35.8284 44.4761 35.3741 44.0439 34.9307 43.6015C34.6063 43.9084 34.2828 44.2162 33.9353 44.4927C33.1039 44.6909 32.2182 44.6448 31.3767 44.5259C30.9297 44.301 30.5629 43.96 30.2108 43.5996C29.714 44.0955 29.2273 44.5996 28.7564 45.1149C28.1499 45.7702 28.8872 46.4522 29.3601 46.9075Z" fill="#72AA11" fill-opacity="0.8"/>
<path d="M5.98582 27.919C13.34 20.6386 20.6913 13.3546 28.0418 6.07139C28.8916 5.23081 29.9543 4.59208 31.1322 4.32479C32.476 4.03907 33.9286 4.12387 35.1793 4.71374C36.442 5.24556 37.3407 6.30642 38.2946 7.23732C44.8275 13.7149 51.3669 20.1898 57.9044 26.6674C58.9865 27.7467 60.239 28.7688 60.7625 30.2546C60.7754 30.2942 60.7837 30.3357 60.7985 30.3781C61.2759 29.002 61.2538 27.4499 60.7625 26.0876C60.2399 24.6037 58.9865 23.5788 57.9044 22.5014C51.366 16.0238 44.8275 9.54891 38.2946 3.07038C37.3407 2.13948 36.442 1.07954 35.1793 0.546802C33.9295 -0.0421552 32.476 -0.12695 31.1322 0.156929C29.9552 0.42514 28.8916 1.06295 28.0418 1.90445C20.6913 9.18669 13.34 16.4708 5.98582 23.7502C5.13879 24.5862 4.47886 25.6333 4.20881 26.7955C3.8687 27.9762 3.97285 29.2324 4.39591 30.379C4.72587 29.4518 5.28441 28.6103 5.98582 27.919Z" fill="#A1E03D" fill-opacity="0.8"/>
<path d="M36.5203 32.0519C36.0401 31.4519 35.4908 30.9155 34.935 30.3818C32.5755 32.7109 30.2142 35.0391 27.8712 37.3848C27.1035 38.3194 25.7477 38.0235 24.6969 37.9369C24.2776 37.6687 23.9006 37.3415 23.5393 36.9959C23.1771 37.3525 22.8195 37.7083 22.4582 38.065C22.0406 38.4484 21.53 39.1176 22.0738 39.6282C22.8914 40.4992 23.6794 41.4568 24.6969 42.1038C25.7486 42.1923 27.1035 42.4873 27.8712 41.5517C30.6096 38.8097 33.3728 36.0898 36.1258 33.3672C36.4613 33.0372 36.889 32.5155 36.5203 32.0519Z" fill="#72AA11" fill-opacity="0.8"/>
<path d="M15.3241 32.8967C16.0928 33.8341 16.9647 34.7088 17.9159 35.4627C18.9952 35.6295 20.3989 35.8775 21.1989 34.9374C26.1438 30.0137 31.1107 25.1076 36.074 20.2014C36.4418 19.8448 36.9017 19.2696 36.4833 18.7728C36.0123 18.194 35.4805 17.6723 34.9431 17.1553C30.3568 21.6881 25.7677 26.221 21.1989 30.7704C20.3998 31.7115 18.9952 31.4626 17.9159 31.2958C17.5601 31.0137 17.2292 30.7004 16.8965 30.3879C16.5324 30.7501 16.1675 31.1114 15.8025 31.4737C15.4504 31.8396 14.8808 32.3797 15.3241 32.8967Z" fill="#72AA11" fill-opacity="0.8"/>
</g>
<defs>
<filter id="filter0_d_177_717" x="0" y="0" width="65.1445" height="58" filterUnits="userSpaceOnUse" color-interpolation-filters="sRGB">
<feFlood flood-opacity="0" result="BackgroundImageFix"/>
<feColorMatrix in="SourceAlpha" type="matrix" values="0 0 0 0 0 0 0 0 0 0 0 0 0 0 0 0 0 0 127 0" result="hardAlpha"/>
<feOffset dy="4"/>
<feGaussianBlur stdDeviation="2"/>
<feComposite in2="hardAlpha" operator="out"/>
<feColorMatrix type="matrix" values="0 0 0 0 0 0 0 0 0 0 0 0 0 0 0 0 0 0 0.25 0"/>
<feBlend mode="normal" in2="BackgroundImageFix" result="effect1_dropShadow_177_717"/>
<feBlend mode="normal" in="SourceGraphic" in2="effect1_dropShadow_177_717" result="shape"/>
</filter>
</defs>
</svg>
