<svg width="40" height="40" viewBox="0 0 40 40" fill="none" xmlns="http://www.w3.org/2000/svg">
<path fill-rule="evenodd" clip-rule="evenodd" d="M11.1104 30.8526C11.1104 32.4897 9.75598 33.6184 8.17533 33.6184C6.5951 33.6184 5.29688 32.5459 5.29688 30.9092C5.29688 29.3852 6.5951 28.1435 8.28822 28.1997C9.92511 28.1999 11.1104 29.4417 11.1104 30.8526ZM6.31287 30.8526C6.31287 31.8686 7.04665 32.9975 8.23198 32.9975C9.36067 32.9975 10.0947 32.1508 10.0947 31.0219C10.0947 29.893 9.41732 28.877 8.23198 28.877C7.04665 28.877 6.31287 29.7237 6.31287 30.8526ZM14.8356 28.313C15.8516 28.313 16.7545 28.8208 16.7545 29.7239C16.7545 30.6274 15.9078 31.1915 15.0049 31.1915C14.8356 31.1915 14.4969 31.1352 14.3276 31.0784C15.0049 31.0221 15.7385 30.6272 15.7385 29.837C15.7385 29.1597 15.2869 28.9339 14.6098 28.9339C14.4405 28.9339 14.384 28.9901 14.2147 28.9901V32.4895C14.2147 32.941 14.1584 33.2795 14.6098 33.5053H12.9165C13.3116 33.3363 13.3116 32.7717 13.3116 32.4332V29.4417C13.3116 29.0466 13.3116 28.4823 12.9165 28.313H14.8356V28.313ZM20.762 32.4895C20.762 32.941 20.762 33.223 21.1571 33.5053H19.52C19.9151 33.3363 19.8587 32.7717 19.8587 32.4332V28.9901H19.1814C18.8427 28.9901 18.4478 29.1032 18.2218 29.329L18.1654 29.2723L18.4476 28.2566H18.5038C18.6167 28.3128 18.6732 28.3128 18.7861 28.3128H21.9467C22.0594 28.3128 22.2287 28.3128 22.2852 28.2566H22.3418L22.1161 29.329H22.0594V29.2159C21.9467 28.9901 21.6647 28.9901 21.3821 28.9901H20.7616V32.4895H20.762V32.4895ZM27.7041 32.9975C27.4783 33.449 26.9705 33.6184 26.2932 33.6748C25.7285 33.6748 25.2207 33.5055 24.8818 33.1106C24.4871 32.659 24.4871 32.0946 24.4871 31.5299V29.4419C24.4871 29.0468 24.5434 28.4825 24.1483 28.3132H25.7285C25.3334 28.4825 25.3896 29.0468 25.3896 29.4419V31.5299C25.3896 32.6024 25.7285 32.9412 26.5187 32.9412C26.8572 32.9412 27.1396 32.885 27.4781 32.5461C27.7601 32.2641 27.7039 31.6995 27.7039 31.4174V29.4419C27.7039 29.0468 27.7601 28.4825 27.3654 28.3132H29.0021C28.607 28.4825 28.607 29.0468 28.607 29.4419V32.4334C28.607 32.7719 28.607 33.3366 29.0021 33.5055H27.7039V32.9975H27.7041ZM34.2514 29.3852C33.969 29.0464 33.461 28.877 33.0096 28.877C32.5583 28.877 32.1065 28.9337 32.1065 29.4979C32.1065 30.5704 34.703 30.5704 34.703 31.9817C34.703 32.8279 33.8563 33.6746 32.6145 33.6746C32.1067 33.6746 31.6552 33.5619 31.2036 33.3926L30.9778 32.2639C31.4294 32.659 32.0503 32.9412 32.6712 32.9412C33.1227 32.9412 33.687 32.6592 33.687 32.2639C33.8001 31.0221 31.1474 31.3608 31.0909 29.5548C31.0909 28.5388 32.1067 28.1999 33.0665 28.1999C33.4612 28.1999 33.8565 28.2566 34.2516 28.3692V29.3852H34.2514V29.3852ZM26.7447 19.4516C24.8818 21.3705 22.2292 22.6123 19.3509 22.6123C13.7067 22.6123 9.19154 18.0405 9.19154 12.3965C9.19154 7.88115 12.1264 4.04314 16.1902 2.68848H16.2467C13.1987 4.38181 11.2233 7.59893 11.2233 11.3241C11.2233 16.7988 15.6258 21.2014 21.1005 21.2014C23.1323 21.2014 25.1076 20.5805 26.7447 19.4516V19.4516Z" fill="#A8CFCC"/>
<path fill-rule="evenodd" clip-rule="evenodd" d="M30.4695 3.25293C30.4695 3.25293 30.808 3.76093 30.3002 4.21228C29.7355 4.66383 29.002 5.11539 29.002 5.11539C29.002 5.11539 29.0582 5.17183 29.3408 5.56694C29.6228 5.90561 29.7924 6.30072 29.7924 6.30072C29.7924 6.30072 30.3566 5.96205 30.8648 5.45405C31.2033 5.17183 31.5984 4.4945 31.5984 4.4945C31.6546 4.32517 31.5984 4.26872 31.5984 4.26872L30.4695 3.25293V3.25293ZM30.4129 7.76828C30.4129 7.76828 30.8648 7.59894 31.2595 7.26028C31.7111 6.86517 31.8804 6.47005 31.8804 6.47005C31.8804 6.47005 32.5577 6.86517 32.6708 6.97805C32.7835 7.09074 32.8966 7.20383 32.8398 7.31672C32.7835 7.42961 32.6708 7.5425 32.3886 7.88116C31.8804 8.50205 30.808 9.17918 30.808 9.17918C30.808 9.17918 30.7517 8.78407 30.6391 8.4454L30.4129 7.76828ZM30.9773 10.9854C30.9773 10.9854 31.4289 10.8725 31.9366 10.5338C32.6706 10.0823 33.0657 9.23562 33.0657 9.23562C33.0657 9.23562 33.9684 9.85651 34.0251 10.0258C34.0813 10.1387 34.0813 10.0823 34.0251 10.3081C33.9684 10.4774 33.7993 10.7596 33.0657 11.3241C32.1622 12.1707 30.9209 12.6787 30.9209 12.6787C30.9209 12.6787 30.9771 12.3401 30.9771 11.8321C31.0337 11.3241 30.9773 10.9854 30.9773 10.9854V10.9854Z" fill="#C58936"/>
<path fill-rule="evenodd" clip-rule="evenodd" d="M24.9392 7.88088C26.8579 6.97776 28.3255 6.35688 30.3573 5.73599C30.9782 5.51021 31.5991 5.51021 31.9375 5.51021C32.1633 5.56665 32.22 5.6231 32.22 5.6231C32.22 5.6231 32.6715 6.75178 32.8404 7.20354C32.5584 6.86488 31.9942 6.92132 31.4295 7.03421C27.8175 7.71154 23.1893 9.74333 20.0284 11.3802C17.9966 12.5091 16.1339 13.5813 14.3279 14.936C17.545 12.0573 21.101 9.74333 24.9392 7.88088V7.88088ZM26.6322 10.5336C28.495 9.63044 31.5993 8.27578 33.0668 8.38867C33.4053 8.44511 33.2922 8.44511 33.4053 8.50156L34.0826 10.0818C33.8568 9.68668 32.7282 9.79957 32.3897 9.85622C27.9868 10.7593 20.7628 14.0327 15.5134 17.758C18.9563 14.8796 23.1895 12.1702 26.6322 10.5336V10.5336ZM31.5991 4.21199C31.5424 4.21199 31.5424 4.15575 31.3171 4.09931C31.0346 4.04286 30.6962 3.92997 29.1722 4.38153C27.0837 4.88932 25.447 5.51021 21.7782 7.03421C20.4237 7.59865 16.1906 9.68689 13.0863 12.114C16.1341 9.29199 20.4799 6.63931 23.5279 5.17175C25.9548 3.98642 29.4544 2.40618 30.7524 2.6884C31.0344 2.74485 30.9782 2.80129 31.0913 2.97063L31.6555 4.26885C31.6555 4.26864 31.5991 4.26864 31.5991 4.21199ZM6.70853 36.2145C6.59564 36.1014 6.48276 36.0452 6.36987 36.0452C6.20053 36.0452 6.0312 36.271 5.97476 36.553C5.91831 36.8354 6.0312 37.0045 6.31342 37.0045C6.36987 37.0045 6.48275 37.0045 6.59564 36.9483L6.5392 37.2303C6.48276 37.2303 6.31342 37.2866 6.20053 37.2866C5.86187 37.2866 5.69253 37.0045 5.74898 36.553C5.80542 36.1014 6.08764 35.8194 6.42652 35.8194C6.5392 35.8194 6.65209 35.8194 6.70853 35.9321V36.2145ZM9.02255 36.5528C8.9661 37.0043 8.68388 37.2863 8.28877 37.2863C7.9501 37.2863 7.72453 36.9479 7.78098 36.5528C7.83742 36.1012 8.17588 35.8192 8.51475 35.8192C8.85321 35.8192 9.07899 36.1014 9.02255 36.5528ZM8.00675 36.5528C8.00675 36.8352 8.11964 37.061 8.34542 37.061C8.5712 37.061 8.74053 36.8352 8.79698 36.5528C8.85342 36.2708 8.68409 36.045 8.45831 36.045C8.23232 36.045 8.0632 36.2708 8.00675 36.5528ZM10.4899 35.8192V36.045C10.6028 35.8756 10.7157 35.8192 10.8286 35.8192C10.9979 35.8192 11.1108 35.8754 11.1672 36.045C11.2801 35.9319 11.393 35.8192 11.5623 35.8192C11.7881 35.8192 11.901 36.045 11.8446 36.3839L11.7317 37.2866H11.5059L11.6188 36.3839C11.675 36.1577 11.5623 36.045 11.4494 36.045C11.393 36.045 11.2803 36.1012 11.1672 36.2143L10.9979 37.2863H10.7721L10.9414 36.3836C10.9414 36.1575 10.885 36.0448 10.7721 36.0448C10.6592 36.0448 10.5463 36.101 10.4334 36.2141L10.3206 37.2861H10.095L10.2641 35.819H10.4899V35.8192V35.8192ZM13.3686 35.8192L13.3121 36.045C13.425 35.8756 13.5943 35.8192 13.7072 35.8192C13.8201 35.8192 13.933 35.8754 13.9894 36.045C14.1023 35.9319 14.2152 35.8192 14.3846 35.8192C14.6103 35.8192 14.7232 36.045 14.7232 36.3839L14.5539 37.2866H14.3281L14.4974 36.3839C14.4974 36.1577 14.3846 36.045 14.2717 36.045C14.2152 36.045 14.1023 36.1012 13.9894 36.2143L13.8766 37.2863H13.6508L13.7637 36.3836C13.7637 36.1575 13.7072 36.0448 13.5943 36.0448C13.4814 36.0448 13.425 36.101 13.3121 36.2141L13.1428 37.2861H12.917L13.1428 35.819H13.3686V35.8192V35.8192ZM16.4728 37.2866L16.5292 37.0612C16.4163 37.2301 16.2472 37.2866 16.1341 37.2866C15.9084 37.2866 15.7955 37.0612 15.8519 36.7223L15.9648 35.8192H16.1904L16.0775 36.7223C16.0212 36.9481 16.0775 37.0612 16.2468 37.0612C16.3597 37.0612 16.4724 37.0045 16.5288 36.8354L16.6982 35.8194H16.9239L16.6982 37.2866H16.4728V37.2866ZM18.3353 36.045C18.4481 35.8756 18.6175 35.8192 18.7304 35.8192C18.9561 35.8192 19.1255 35.9885 19.0126 36.3839L18.8997 37.2866H18.6739L18.7868 36.3839C18.843 36.1577 18.7868 36.045 18.6175 36.045C18.561 36.045 18.4483 36.1012 18.3353 36.2143L18.1659 37.2863H17.9401L18.1659 35.8192H18.3917L18.3353 36.045V36.045ZM20.4799 37.2866H20.2542L20.4799 35.8194H20.7057L20.4799 37.2866ZM20.6495 35.5934C20.5364 35.5934 20.4801 35.4807 20.5364 35.4241C20.5364 35.3114 20.593 35.2548 20.6495 35.2548C20.7626 35.2548 20.8188 35.3114 20.7626 35.4241C20.7626 35.4807 20.7057 35.5934 20.6495 35.5934ZM22.7379 36.2708C22.6248 36.1577 22.5686 36.1014 22.4555 36.1014C22.2862 36.1014 22.117 36.3272 22.0604 36.6092C22.0041 36.8916 22.117 37.0612 22.3428 37.0612C22.4555 37.0612 22.5686 37.0045 22.6813 36.9481L22.625 37.2301C22.5688 37.2863 22.3992 37.3432 22.2862 37.3432C21.9477 37.3432 21.7784 37.0612 21.835 36.6092C21.8913 36.1577 22.1735 35.8192 22.5123 35.8192C22.625 35.8192 22.6813 35.8754 22.7944 35.9319L22.7379 36.2708V36.2708ZM24.7697 37.1739C24.6566 37.2866 24.6004 37.2866 24.5439 37.2866C24.4308 37.2866 24.4308 37.2303 24.3746 37.1176C24.2619 37.2303 24.1488 37.2866 24.0926 37.2866C23.9232 37.2866 23.8102 37.1176 23.8668 36.9481C23.8668 36.6661 24.0926 36.553 24.3184 36.4965L24.4877 36.3839L24.5439 36.3272C24.5439 36.1579 24.4877 36.0452 24.3746 36.0452C24.2053 36.0452 24.0926 36.1579 23.9795 36.3272V35.9887C24.0926 35.8756 24.2619 35.8194 24.431 35.8194C24.6568 35.8194 24.8262 35.9321 24.7699 36.271L24.6568 37.0045V37.0612C24.7135 37.0612 24.7699 37.0612 24.8262 37.0045L24.7697 37.1739V37.1739ZM24.4877 36.5528C24.2619 36.6659 24.0926 36.7221 24.0926 36.8916C24.0359 37.0043 24.0926 37.1174 24.2053 37.1174C24.2619 37.1174 24.3746 37.0612 24.431 36.9481L24.4877 36.5528ZM26.4064 35.8756H26.8015L26.7453 36.1014H26.4064L26.2937 36.8354C26.2375 37.0043 26.3499 37.0612 26.4064 37.0612C26.5195 37.0612 26.5757 37.0612 26.6888 36.9481L26.6322 37.2301C26.5759 37.2863 26.4064 37.3432 26.3502 37.3432C26.1244 37.3432 26.0113 37.1174 26.0681 36.8916L26.1808 36.1012H25.955L26.4628 35.5934L26.4064 35.8756V35.8756ZM27.9866 37.2866H27.7608L27.9302 35.8756H28.156L27.9866 37.2866ZM28.0997 35.5934C28.0435 35.5934 27.9866 35.5372 27.9866 35.4241C27.9866 35.3679 28.0997 35.2548 28.156 35.2548C28.2122 35.2548 28.2691 35.3679 28.2691 35.4241C28.2693 35.5372 28.1562 35.5934 28.0997 35.5934ZM30.4704 36.5528C30.4137 37.0043 30.0753 37.3432 29.7364 37.3432C29.3979 37.3432 29.1722 37.0043 29.2286 36.5528C29.2848 36.1577 29.6237 35.8192 29.9622 35.8192C30.3011 35.8192 30.5268 36.1577 30.4704 36.5528ZM29.4544 36.5528C29.3982 36.8916 29.5675 37.061 29.7364 37.061C30.0188 37.061 30.188 36.8916 30.2446 36.5528C30.2446 36.327 30.1315 36.1012 29.9057 36.1012C29.68 36.1012 29.5106 36.3272 29.4544 36.5528ZM31.9375 36.045C32.0506 35.8756 32.22 35.8192 32.3326 35.8192C32.5584 35.8192 32.6715 35.9885 32.6147 36.3839L32.502 37.2866H32.2762L32.3893 36.3839C32.4455 36.1577 32.3893 36.045 32.22 36.045C32.1633 36.045 32.0506 36.1012 31.9375 36.2143L31.7686 37.2863H31.5424L31.7686 35.8192H31.9944L31.9375 36.045ZM34.5904 36.2145C34.4777 36.1014 34.3646 36.0452 34.3084 36.0452C34.1957 36.0452 34.1391 36.1014 34.1391 36.1579C34.1391 36.271 34.1957 36.3272 34.3648 36.4967C34.5342 36.6094 34.5906 36.7225 34.5342 36.8919C34.5342 37.1176 34.3084 37.2866 34.1391 37.2866C33.9697 37.2866 33.8571 37.2303 33.7444 37.1739L33.8006 36.8354C33.9133 37.0043 34.0264 37.0612 34.1391 37.0612C34.2522 37.0612 34.3084 37.0045 34.3084 36.8919C34.3646 36.6661 33.8568 36.553 33.9133 36.2145C33.9133 35.9321 34.0826 35.8194 34.3084 35.8194C34.4215 35.8194 34.5342 35.8194 34.6473 35.9321L34.5904 36.2145V36.2145Z" fill="#A8CFCC"/>
</svg>
