<svg width="137" height="40" viewBox="0 0 137 40" fill="none" xmlns="http://www.w3.org/2000/svg">
<path d="M23.6539 9.60701L26.5385 4.59596C27.3792 3.12891 26.8847 1.24976 25.4176 0.409093C23.9506 -0.431577 22.0714 0.0629336 21.2308 1.52999L18.3296 6.54104C12.1647 4.59596 5.25805 7.11797 1.89537 12.9532C-0.247519 16.662 -0.511259 20.9313 0.790955 24.6731L6.13168 15.4093C7.35148 13.2829 9.34601 11.7664 11.7197 11.1235C14.0933 10.4806 16.5659 10.8103 18.6923 12.0466C23.077 14.5851 24.5935 20.2225 22.055 24.6072C19.5165 28.9919 13.8955 30.5084 9.49436 27.9699L12.5603 22.6621C14.0274 23.5028 15.9065 23.0083 16.7472 21.5412C17.5879 20.0742 17.0934 18.195 15.6263 17.3544C14.1593 16.5137 12.2801 17.0082 11.4394 18.4753L1.68108 35.404C0.840407 36.8711 1.33492 38.7502 2.80197 39.5909C4.26902 40.4316 6.14817 39.9371 6.98884 38.47L9.88997 33.459C16.0549 35.404 22.9616 32.882 26.3242 27.0468C29.6869 21.228 28.4177 13.9917 23.6539 9.60701Z" fill="white"/>
<path d="M36.626 13.25H41.3733C44.1261 13.25 46.4008 14.6181 46.4008 17.783C46.4008 20.9479 44.1261 22.3325 41.3733 22.3325H39.4117V26.7667H36.626V13.25ZM41.2909 19.8929C42.659 19.8929 43.5327 19.283 43.5327 17.783C43.5327 16.2665 42.6261 15.7061 41.2909 15.7061H39.4117V19.8929H41.2909Z" fill="white"/>
<path d="M50.4727 13.25H59.4068V15.6896H53.2584V18.7885H58.6815V21.1787H53.2584V24.3106H59.6871V26.7502H50.4727V13.25Z" fill="white"/>
<path d="M64.3516 13.25H67.1208V24.3106H73.2363V26.7502H64.3516V13.25V13.25Z" fill="white"/>
<path d="M76.3359 20.0081C76.3359 16.0191 79.4349 13.085 83.325 13.085C87.2152 13.085 90.3141 16.0191 90.3141 20.0081C90.3141 23.9972 87.2152 26.9313 83.325 26.9313C79.4349 26.9313 76.3359 23.9972 76.3359 20.0081ZM87.446 20.0081C87.446 17.4861 85.7811 15.5575 83.325 15.5575C80.869 15.5575 79.2041 17.4861 79.2041 20.0081C79.2041 22.5301 80.869 24.4587 83.325 24.4587C85.7811 24.4587 87.446 22.5301 87.446 20.0081Z" fill="white"/>
<path d="M97.155 15.6896H93.2979V13.25H103.782V15.6896H99.9243V26.7502H97.1386V15.6896H97.155Z" fill="white"/>
<path d="M106.748 20.0081C106.748 16.0191 109.847 13.085 113.737 13.085C117.627 13.085 120.726 16.0191 120.726 20.0081C120.726 23.9972 117.627 26.9313 113.737 26.9313C109.847 26.9313 106.748 23.9972 106.748 20.0081ZM117.858 20.0081C117.858 17.4861 116.193 15.5575 113.737 15.5575C111.281 15.5575 109.616 17.4861 109.616 20.0081C109.616 22.5301 111.281 24.4587 113.737 24.4587C116.193 24.4587 117.858 22.5301 117.858 20.0081Z" fill="white"/>
<path d="M129.199 20.4865C128.523 19.8436 127.583 18.6403 127.583 18.6403C127.583 18.6403 127.781 20.1239 127.781 21.0964V26.7503H125.177V13.1348H125.457L132.265 19.5304C132.924 20.1403 133.847 21.3766 133.847 21.3766C133.847 21.3766 133.666 19.8436 133.666 18.9206V13.2666H136.27V26.8822H135.99L129.199 20.4865Z" fill="white"/>
</svg>
