<svg width="44" height="58" viewBox="0 0 44 58" fill="none" xmlns="http://www.w3.org/2000/svg">
<g filter="url(#filter0_d_177_698)">
<path d="M35.0938 0H8.70831C5.08443 0 4 2.72718 4 4.47547V46.8752C4 48.9643 5.05059 49.5807 5.62664 49.8199C6.20188 50.06 7.7262 50.2308 8.80902 49.1351C8.80902 49.1351 21.3419 34.3447 21.545 34.1054C21.7488 33.8661 21.8511 33.838 21.9865 33.838H29.911C33.2988 33.838 33.9409 31.5047 34.314 30.0642C34.6193 28.8654 38.107 11.7788 39.1923 6.36637C40.0052 2.18819 38.9546 0 35.0938 0ZM33.5357 7.2663L32.3506 13.196C32.2152 13.8123 31.6392 14.502 30.927 14.502H20.6305C19.4784 14.502 18.502 15.0909 18.502 16.2559V17.524C18.502 18.6882 19.4784 19.3368 20.6305 19.3368H29.3358C30.1487 19.3368 30.8262 20.2802 30.6571 21.1358C30.4879 22.0261 29.5726 26.5515 29.4719 27.0309C29.4026 27.5441 28.862 28.1983 28.0483 28.1983H20.9359C19.4454 28.1983 19.1401 28.3417 18.2603 29.4366C17.3789 30.5331 9.68155 40.4331 9.68155 40.4331C9.61388 40.5354 9.63966 40.5387 9.63966 40.4355V6.90616C9.63966 6.11822 10.0965 5.63966 10.8755 5.63966H32.2482C32.9935 5.63966 33.7387 6.30756 33.5357 7.2663Z" fill="#F34B78" fill-opacity="0.8"/>
<path d="M24.6302 5.63966L30.145 0H24.9082L19.3926 5.63966H24.6302Z" fill="#FF929A" fill-opacity="0.8"/>
<path d="M20.5079 28.2041C19.3824 28.246 19.048 28.4563 18.2617 29.4368C17.8565 29.9411 15.9865 32.3774 14.0859 34.7807L20.5079 28.2041Z" fill="#FF929A" fill-opacity="0.8"/>
<path d="M9.63966 6.90616C9.63966 6.11822 10.0965 5.63966 10.8756 5.63966H15.2471L20.7619 0H15.525L4 11.4775V16.7143L9.63966 11.2608V6.90616Z" fill="#FF929A" fill-opacity="0.8"/>
<path d="M32.2482 5.63966C32.6808 5.63966 33.0893 5.92486 33.3463 6.22135L38.4743 1.07395C37.7694 0.367383 36.6527 0 35.0938 0H34.2913L28.7773 5.63966H32.2482Z" fill="#FF929A" fill-opacity="0.8"/>
<path d="M20.6305 14.502L18.6873 15.509C18.502 15.6605 18.502 16.0263 18.502 16.2559V17.524C18.502 18.4497 19.1819 19.2103 20.3445 19.3222L25.3493 14.502H20.6305Z" fill="#FF929A" fill-opacity="0.8"/>
<path d="M32.3517 13.153C32.2163 13.7693 31.6403 14.5025 30.9281 14.5025H29.4956L23.9824 19.3365H29.2201L38.4014 10.3098C38.7422 8.62996 38.9879 7.39246 39.1942 6.36685C39.3481 5.56924 39.4351 4.795 39.4472 4.1416L32.7867 10.9148L32.3517 13.153Z" fill="#FF929A" fill-opacity="0.8"/>
<path d="M9.63966 34.1738L4 39.629V44.865L9.63966 39.4115V34.1738Z" fill="#FF929A" fill-opacity="0.8"/>
<path d="M34.3145 30.0639C34.3781 29.815 34.5804 28.8595 34.8672 27.4834L28.5 33.8377H29.9107C33.2985 33.8377 33.9415 31.5045 34.3145 30.0639Z" fill="#FF929A" fill-opacity="0.8"/>
<path d="M11.3783 0H8.70831C5.08443 0 4 2.72718 4 4.47547V7.33156L11.3783 0Z" fill="#FF929A" fill-opacity="0.8"/>
<path d="M9.63966 15.4082L4 20.8618V26.0994L9.63966 20.645V15.4082Z" fill="#FF929A" fill-opacity="0.8"/>
<path d="M9.63966 24.791L4 30.2446V35.4814L9.63966 30.0278V24.791Z" fill="#FF929A" fill-opacity="0.8"/>
<path d="M37.2962 15.7139L30.3642 22.6305C30.0291 24.3039 29.5449 26.6766 29.4707 27.031C29.4015 27.5443 28.8609 28.1985 28.0471 28.1985H24.6641L4.33398 48.6027C4.69331 49.3206 5.26453 49.6702 5.62547 49.8201C6.20071 50.0602 7.78787 50.2407 8.80785 49.1176C8.80785 49.1176 21.3408 34.336 21.5438 34.0967C21.7476 33.8566 21.85 33.8381 21.9853 33.8381H24.3532L35.9491 22.2712C36.3769 20.1877 36.8442 17.9303 37.2962 15.7139Z" fill="#FF929A" fill-opacity="0.8"/>
</g>
<defs>
<filter id="filter0_d_177_698" x="0" y="0" width="43.4492" height="58" filterUnits="userSpaceOnUse" color-interpolation-filters="sRGB">
<feFlood flood-opacity="0" result="BackgroundImageFix"/>
<feColorMatrix in="SourceAlpha" type="matrix" values="0 0 0 0 0 0 0 0 0 0 0 0 0 0 0 0 0 0 127 0" result="hardAlpha"/>
<feOffset dy="4"/>
<feGaussianBlur stdDeviation="2"/>
<feComposite in2="hardAlpha" operator="out"/>
<feColorMatrix type="matrix" values="0 0 0 0 0 0 0 0 0 0 0 0 0 0 0 0 0 0 0.25 0"/>
<feBlend mode="normal" in2="BackgroundImageFix" result="effect1_dropShadow_177_698"/>
<feBlend mode="normal" in="SourceGraphic" in2="effect1_dropShadow_177_698" result="shape"/>
</filter>
</defs>
</svg>
