<svg width="325" height="40" viewBox="0 0 325 40" fill="none" xmlns="http://www.w3.org/2000/svg">
<path d="M75.5987 14.768H48.2148L47.2367 15.5505V39.9024H54.7673V30.7092L55.4518 30.0248H75.5984C80.6838 30.0248 83.0312 28.6557 83.0312 25.135V19.5604C83.0314 16.1372 80.6841 14.768 75.5987 14.768ZM75.5987 23.7654C75.5987 25.4279 74.5228 25.7213 72.0779 25.7213H55.5498L54.7673 25.0369V19.8536L55.4518 19.169H72.0776C74.4249 19.169 75.5983 19.4624 75.5983 21.1248L75.5987 23.7654V23.7654ZM96.9189 19.3645L103.471 28.9487L103.08 29.829H88.6059L84.8895 34.4256H106.405L107.97 35.3057L111.295 39.9023H119.999L100.929 14.4746M183.275 35.0123V28.1665L184.058 27.4818H198.63V23.1786H175.549V39.9023H209.583V35.5991H184.156M175.549 14.768H209.877V19.4624H175.549V14.768ZM137.31 19.2667H164.987C164.596 15.746 162.346 14.768 156.87 14.768H137.017C130.757 14.768 128.801 15.9417 128.801 20.7337V34.0343C128.801 38.7288 130.757 40.0002 137.017 40.0002H156.87C162.444 40.0002 164.596 38.9243 164.791 35.3057H137.31L136.527 34.5232V19.8536M28.655 24.5479H8.60626L8.01943 23.8635V19.5603L8.60626 19.0713H35.6966L36.0877 18.1911C35.2075 15.8438 32.7626 14.6704 28.3616 14.6704H9.48637C3.2273 14.6704 1.27129 15.8439 1.27129 20.6359V23.4722C1.27129 28.1667 3.2273 29.4381 9.48637 29.4381H29.5353L30.122 30.0247V34.5234L29.633 35.2081H0.68446C0.68446 35.2081 0 35.5991 0 35.697C0.488937 39.0222 2.73836 39.9023 8.11719 39.9023H28.6551C34.9142 39.9023 36.9681 38.7288 36.9681 33.9367V30.5136C36.968 25.8193 34.9142 24.5479 28.655 24.5479M231.49 14.6703H220.146L219.559 15.8438L232.077 25.037C234.424 23.6677 237.065 22.2986 239.803 20.9293M241.661 31.8829L252.713 39.9023H264.058L264.546 38.8264L248.116 26.7972C245.965 28.4597 243.715 30.1224 241.661 31.8829Z" fill="#5B8DC9"/>
<path d="M229.827 39.902H219.558L218.678 38.5327C225.622 31.7847 256.722 3.03177 324.301 0C324.301 0 267.675 1.95587 229.827 39.902Z" fill="#A7A9AC"/>
</svg>
