<svg xmlns="http://www.w3.org/2000/svg" width="60" height="60" viewBox="0 0 60 60" version="1.1" xmlns:xlink="http://www.w3.org/1999/xlink">

    <defs>
        <style>.cls-1{fill:#fff;}.cls-2{fill:#006241;}</style>
    </defs>
    <circle class="cls-1" cx="30.09" cy="29.86" r="29.71"/>
    <path class="cls-2"
          d="M33.09,12.91a17.74,17.74,0,0,0-3-.26,18,18,0,0,0-3,.26c-.15,0-.2-.12-.09-.21l3.1-2.35,3.09,2.35C33.3,12.79,33.24,12.94,33.09,12.91ZM27.92,27.7a.32.32,0,0,0-.2.19c.63.48,1.06,1.58,2.37,1.58s1.74-1.1,2.36-1.58a.32.32,0,0,0-.2-.19,10.54,10.54,0,0,1-2.16.19A10.59,10.59,0,0,1,27.92,27.7Zm2.17-1.85c-.37,0-.45-.14-.69-.14a1.25,1.25,0,0,0-.8.37.43.43,0,0,0,.1.23c.53.08.77.38,1.39.38s.85-.3,1.38-.38a.43.43,0,0,0,.1-.23,1.25,1.25,0,0,0-.79-.37C30.53,25.71,30.45,25.85,30.09,25.85ZM59.9,31.5c0,.71-.1,1.42-.19,2.12-3.38.56-4.59-2.45-8.05-2.3a20.77,20.77,0,0,1,.5,2.24c2.86,0,4,2.67,7.19,2.28-.17.81-.37,1.62-.6,2.41-2.51.25-3.4-2.25-6.3-2.18,0,.42,0,.83,0,1.25,0,.24,0,.47,0,.7,2.48,0,3.28,2.26,5.65,2.16-.3.8-.63,1.58-1,2.35-1.7-.09-2.28-2.27-4.87-2.09-.07.55-.17,1.11-.29,1.65,2.24-.16,2.73,1.91,4.33,2.07q-.61,1.13-1.32,2.19C54,45.84,53.2,44.3,51.4,44.2c.19-.57.35-1.15.49-1.74a7.49,7.49,0,0,1-5-2c.5-2.83-3.9-5.71-3.9-7.79,0-2.25,1.14-3.5,1.14-6.54a9.51,9.51,0,0,0-2.74-6.37,5.38,5.38,0,0,0-1-.82,10.65,10.65,0,0,1,2.69,6.68c0,2.86-1.34,4.37-1.34,7s3.86,4.92,3.86,7.64c0,1.08-.34,2.12-1.47,4.18a8.75,8.75,0,0,0,5.45,2.67.84.84,0,0,0,.9-.51c.14-.32.28-.65.41-1,1.57.06,2.29,1.48,3.16,2.05q-.72,1-1.5,1.86a5.67,5.67,0,0,0-2.51-2c-.21.4-.42.79-.65,1.18a4.8,4.8,0,0,1,2.18,1.91c-.56.59-1.15,1.15-1.76,1.68a5.79,5.79,0,0,0-1.64-1.75c-.24.33-.5.66-.76,1a5.33,5.33,0,0,1,1.39,1.64c-.71.56-1.44,1.1-2.19,1.6-.37-3-4.51-5.11-3.4-8.63a4.66,4.66,0,0,0-.8,2.33c0,2.55,2.71,4.57,2.93,7.1-.56.34-1.14.65-1.72.95-.1-2.78-3-5.82-3-8.11,0-2.55,3.33-5.11,3.33-8.12s-3.85-5.09-3.85-7.73,1.64-4.16,1.64-7.55a9,9,0,0,0-3-6.59,4.78,4.78,0,0,0-1-.71,9.74,9.74,0,0,1,2.71,6.76c0,3.18-1.87,4.95-1.87,8.07s3.78,4.85,3.78,7.75-3.52,5.36-3.52,8.35c0,2.71,3.1,5.42,3.14,8.65q-1,.44-2.07.81c.4-3.26-3.09-6.62-3.09-9.27,0-2.91,3.65-5.4,3.65-8.54s-3.71-4.58-3.71-7.8,2.27-5,2.27-8.54a8.64,8.64,0,0,0-3.36-6.8l-.13-.1c-.18-.14-.34,0-.21.2a9.08,9.08,0,0,1,2.17,6.19c0,3.25-2.61,5.88-2.61,9,0,3.72,3.51,4.78,3.51,7.82S34.64,45.74,34.64,49c0,3,3.57,6.33,3,9.8-.72.18-1.44.34-2.18.47.67-4.31-2.82-7.41-2.82-10.22,0-3.06,3.89-5.78,3.89-8.77,0-2.81-2.79-3.73-3.16-6.61a.68.68,0,0,0-.8-.61,9.68,9.68,0,0,1-2.44.48A9.68,9.68,0,0,1,27.64,33a.68.68,0,0,0-.8.61c-.36,2.88-3.16,3.8-3.16,6.61,0,3,3.9,5.71,3.9,8.77,0,2.81-3.5,5.91-2.83,10.22-.73-.13-1.46-.29-2.17-.47-.62-3.47,3-6.8,3-9.8,0-3.23-3.77-5.67-3.77-8.72s3.51-4.1,3.51-7.82c0-3.15-2.61-5.78-2.61-9a9.08,9.08,0,0,1,2.17-6.19c.13-.17,0-.34-.21-.2l-.13.1a8.67,8.67,0,0,0-3.36,6.8c0,3.55,2.28,5.33,2.28,8.54s-3.71,4.67-3.71,7.8,3.64,5.63,3.64,8.54c0,2.65-3.49,6-3.09,9.27q-1-.37-2.07-.81c0-3.23,3.14-5.94,3.14-8.65,0-3-3.51-5.44-3.51-8.35s3.78-4.63,3.78-7.75-1.88-4.89-1.88-8.07a9.74,9.74,0,0,1,2.71-6.76,4.78,4.78,0,0,0-1,.71,9,9,0,0,0-3,6.59c0,3.39,1.64,4.91,1.64,7.55s-3.85,4.72-3.85,7.73,3.34,5.57,3.34,8.12c0,2.29-2.88,5.33-3,8.11-.59-.3-1.16-.61-1.73-.95.22-2.53,2.93-4.55,2.93-7.1A4.66,4.66,0,0,0,17,46.1c1.11,3.52-3,5.6-3.4,8.63-.75-.5-1.48-1-2.19-1.6a5.33,5.33,0,0,1,1.39-1.64c-.26-.31-.52-.64-.76-1a5.79,5.79,0,0,0-1.64,1.75c-.61-.53-1.2-1.09-1.76-1.68a4.8,4.8,0,0,1,2.18-1.91c-.22-.39-.44-.78-.64-1.18a5.7,5.7,0,0,0-2.52,2q-.78-.9-1.5-1.86c.87-.57,1.59-2,3.16-2.05.13.32.27.65.41,1a.85.85,0,0,0,.9.51A8.73,8.73,0,0,0,16,44.43c-1.13-2.06-1.47-3.1-1.47-4.18,0-2.72,3.86-5,3.86-7.64s-1.33-4.15-1.33-7a10.64,10.64,0,0,1,2.68-6.68,5.32,5.32,0,0,0-1,.82A9.48,9.48,0,0,0,16,26.11c0,3,1.14,4.29,1.14,6.54,0,2.08-4.4,5-3.9,7.79a7.45,7.45,0,0,1-5,2c.13.59.3,1.17.48,1.74-1.8.1-2.63,1.64-3.58,2.15q-.71-1.07-1.32-2.19C5.48,44,6,41.93,8.2,42.09c-.12-.54-.21-1.1-.29-1.65-2.58-.18-3.17,2-4.87,2.09-.36-.77-.69-1.55-1-2.35C4.42,40.29,5.22,38,7.7,38c0-.23,0-.46,0-.7,0-.42,0-.83,0-1.25C4.82,36,3.94,38.5,1.42,38.25c-.23-.79-.43-1.6-.59-2.41C4,36.23,5.15,33.56,8,33.56a20.77,20.77,0,0,1,.5-2.24c-3.46-.15-4.67,2.86-8,2.3-.09-.7-.15-1.41-.19-2.12,3.93.44,5.4-2.79,9-2.4a22.45,22.45,0,0,1,1.17-2.48c-4.48-.78-6,3-10.18,2.39a29.86,29.86,0,0,1,59.69,0c-4.17.57-5.69-3.17-10.18-2.39a20.77,20.77,0,0,1,1.17,2.48C54.5,28.71,56,31.94,59.9,31.5ZM17.25,19a7.76,7.76,0,0,0-7.13.77A7.76,7.76,0,0,0,7,14.62a.27.27,0,0,0-.44.25c.35,4.47-2.26,8.35-5.48,11.76,3.31,1,6.13-3.27,10.43-1.78A22.52,22.52,0,0,1,17.25,19Zm12.84-2.7c-2.78,0-5.1,1.57-5.71,3.59,0,.16,0,.26.2.18a4.16,4.16,0,0,1,1.68-.33A3.47,3.47,0,0,1,29,20.84a4.91,4.91,0,0,1,0,2.82c-.47-.1-.64-.47-1.09-.47s-.81.33-1.58.33-.86-.37-1.36-.37-.71.62-.71,1.31c0,3.09,2.84,7.34,5.86,7.34s5.85-4.25,5.85-7.34c0-.69-.14-1.29-.76-1.37a1.91,1.91,0,0,1-1.31.43c-.77,0-1-.33-1.44-.33s-.49,1.16-1.14,1.23a5.47,5.47,0,0,1-.1-3.58,3.47,3.47,0,0,1,2.72-1.13,4.1,4.1,0,0,1,1.68.33c.18.08.24,0,.2-.18C35.18,17.84,32.86,16.27,30.09,16.27ZM34.5,20.7a2.66,2.66,0,0,0-1.94.75.72.72,0,0,0,0,.52c1.2-.41,2.27-.43,2.78.14a.93.93,0,0,0,.36-.73C35.73,21,35.32,20.7,34.5,20.7Zm-9.69,1.41c.58-.58,1.8-.55,3.07-.08.06-.64-1.07-1.33-2.21-1.33-.82,0-1.23.28-1.23.68A.92.92,0,0,0,24.81,22.11Zm19.1-10.45a9.85,9.85,0,0,0-5.63,2.16,22,22,0,0,1,2.53-5A10.83,10.83,0,0,0,34,11.83L32.67,8.35l2.95-2.61-4-.28L30.09,1.78,28.51,5.46l-4,.28,3,2.61-1.33,3.48a10.83,10.83,0,0,0-6.82-3.05,22,22,0,0,1,2.53,5,9.79,9.79,0,0,0-5.62-2.16,26.59,26.59,0,0,1,3.33,5.42.37.37,0,0,0,.54.18,22.41,22.41,0,0,1,19.9,0,.36.36,0,0,0,.53-.18A26.2,26.2,0,0,1,43.91,11.66Zm4.77,13.19c4.3-1.49,7.12,2.77,10.43,1.78-3.21-3.41-5.83-7.29-5.48-11.76a.27.27,0,0,0-.44-.25,7.8,7.8,0,0,0-3.14,5.12A7.76,7.76,0,0,0,42.92,19,22.52,22.52,0,0,1,48.68,24.85Z"/>
    <path class="cls-2"
          d="M49.44,56A2.48,2.48,0,1,1,47,58.5,2.47,2.47,0,0,1,49.44,56Zm0,4.6a2.12,2.12,0,1,0-2-2.12A2.06,2.06,0,0,0,49.44,60.62Zm-.95-3.57h1.1c.68,0,1,.27,1,.83a.76.76,0,0,1-.77.79L50.66,60h-.47L49.4,58.7h-.47V60h-.44Zm.44,1.29h.46c.39,0,.77,0,.77-.48s-.35-.45-.65-.45h-.58Z"/>
</svg>