<svg width="51" height="58" viewBox="0 0 51 58" fill="none" xmlns="http://www.w3.org/2000/svg">
<g filter="url(#filter0_d_177_726)">
<path d="M46.9508 31.3494L46.1084 25.453C46.0438 25.0006 45.6302 24.6821 45.1763 24.7355C45.0884 24.7459 36.3555 25.6965 33.1757 19.6021C31.5505 16.4872 31.9749 12.2413 33.3721 10.3789C33.7032 9.93773 34.1704 9.5221 34.754 9.52572C35.3116 9.52933 35.7796 9.86449 36.0694 10.3222C37.3915 12.4099 36.492 17.6347 36.034 19.4714C35.9211 19.9228 36.1956 20.3801 36.6468 20.493L43.3855 22.1776C43.8367 22.2903 44.2942 22.016 44.407 21.5648C44.4489 21.3967 45.434 17.3987 45.3003 12.8712C45.1176 6.67299 42.8886 2.52593 38.8541 0.878375C35.1244 -0.644668 31.4687 -0.176017 28.5606 2.1982C24.6395 5.39936 22.5527 11.7527 23.5988 17.305C24.007 19.4718 25.8125 26.6424 32.2153 30.5273C29.6095 35.5054 26.6667 38.9764 25.1309 40.4074C21.9525 36.8679 19.3546 32.8972 17.402 28.5936C14.6132 22.4464 13.1828 15.5797 13.2655 8.73588C13.2712 8.27338 12.8858 7.88334 12.4233 7.88334H4.84231C4.3677 7.88334 3.97757 8.2932 4.001 8.76752C4.69133 22.6441 9.76329 33.1029 12.7251 38.1022C16.9415 45.2185 21.8977 49.9999 25.0584 49.9999C27.8243 49.9999 30.9426 47.6957 34.3269 43.1512C36.9806 39.5878 39.2543 35.3695 40.5032 32.8917C42.3385 32.9436 44.2849 32.742 46.3007 32.2906C46.7299 32.1945 47.0129 31.7845 46.9508 31.3494Z" fill="#28AC87"/>
<path d="M15.2521 38.1007C12.2902 33.1014 7.21828 22.6425 6.52805 8.76601C6.50461 8.2917 6.89465 7.88184 7.36936 7.88184H4.84231C4.3677 7.88184 3.97757 8.2917 4.001 8.76601C4.69133 22.6426 9.76329 33.1014 12.7251 38.1007C16.9414 45.217 21.8976 49.9984 25.0583 49.9984C25.5084 49.9984 25.968 49.9363 26.4364 49.8144C23.3027 48.8759 18.9871 44.4049 15.2521 38.1007Z" fill="#179975"/>
<path d="M31.0871 2.19683C32.5297 1.0191 34.1563 0.310992 35.8845 0.0815001C33.2187 -0.256585 30.6891 0.458843 28.5602 2.19683C24.6391 5.39799 22.5523 11.7513 23.5985 17.3036C24.0067 19.4704 25.8121 26.641 32.215 30.526H34.7418C28.3389 26.641 26.5335 19.4704 26.1253 17.3036C25.0791 11.7512 27.166 5.39799 31.0871 2.19683Z" fill="#179975"/>
</g>
<defs>
<filter id="filter0_d_177_726" x="0" y="0" width="50.959" height="58" filterUnits="userSpaceOnUse" color-interpolation-filters="sRGB">
<feFlood flood-opacity="0" result="BackgroundImageFix"/>
<feColorMatrix in="SourceAlpha" type="matrix" values="0 0 0 0 0 0 0 0 0 0 0 0 0 0 0 0 0 0 127 0" result="hardAlpha"/>
<feOffset dy="4"/>
<feGaussianBlur stdDeviation="2"/>
<feComposite in2="hardAlpha" operator="out"/>
<feColorMatrix type="matrix" values="0 0 0 0 0 0 0 0 0 0 0 0 0 0 0 0 0 0 0.25 0"/>
<feBlend mode="normal" in2="BackgroundImageFix" result="effect1_dropShadow_177_726"/>
<feBlend mode="normal" in="SourceGraphic" in2="effect1_dropShadow_177_726" result="shape"/>
</filter>
</defs>
</svg>
