<svg width="40" height="40" viewBox="0 0 40 40" fill="none" xmlns="http://www.w3.org/2000/svg">
<path d="M19.9662 40C30.9927 40 39.9315 31.0451 39.9315 20C39.9315 8.9531 30.9936 0 19.9662 0C8.93888 0 0 8.9531 0 20C0 31.0451 8.93888 40 19.9662 40Z" fill="#13B5EA"/>
<path d="M9.55752 19.9465L12.9645 16.5235C13.0665 16.4061 13.1201 16.2543 13.1142 16.0989C13.1083 15.9435 13.0434 15.7962 12.9328 15.6869C12.8221 15.5776 12.674 15.5146 12.5185 15.5106C12.3631 15.5066 12.2119 15.562 12.0959 15.6655L8.69066 19.0734L5.27213 15.6593C5.1567 15.5454 5.00076 15.482 4.83861 15.4831C4.67646 15.4842 4.52138 15.5496 4.40749 15.6651C4.2936 15.7805 4.23022 15.9364 4.23131 16.0986C4.23239 16.2607 4.29785 16.4158 4.41327 16.5297L7.82025 19.9411L4.41505 23.3552C4.35494 23.4108 4.30661 23.4779 4.27293 23.5526C4.23924 23.6272 4.22087 23.7078 4.21892 23.7897C4.21697 23.8715 4.23148 23.9529 4.26158 24.0291C4.29168 24.1052 4.33676 24.1746 4.39415 24.233C4.45154 24.2914 4.52007 24.3377 4.59568 24.3691C4.67129 24.4005 4.75243 24.4164 4.83431 24.4159C4.91619 24.4154 4.99713 24.3984 5.07234 24.3661C5.14754 24.3337 5.21548 24.2865 5.27213 24.2274L8.68622 20.8115L12.087 24.2141C12.1708 24.3032 12.2795 24.365 12.3989 24.3915C12.5183 24.4179 12.643 24.4078 12.7566 24.3624C12.8702 24.317 12.9675 24.2385 13.0358 24.137C13.1041 24.0356 13.1403 23.9159 13.1397 23.7935C13.14 23.7135 13.1245 23.6341 13.094 23.5601C13.0635 23.4861 13.0186 23.4189 12.9618 23.3623L9.55663 19.9429M29.8118 19.9456C29.8118 20.559 30.3097 21.0569 30.9232 21.0569C31.2179 21.0568 31.5005 20.9396 31.7089 20.7311C31.9172 20.5226 32.0342 20.2399 32.0341 19.9451C32.034 19.6504 31.9168 19.3677 31.7082 19.1594C31.4997 18.9511 31.217 18.8341 30.9223 18.8342C30.3115 18.8342 29.8145 19.3321 29.8145 19.9456M27.7091 19.9456C27.7091 18.1718 29.1494 16.7271 30.9223 16.7271C32.6916 16.7271 34.1345 18.1718 34.1345 19.9456C34.1345 21.7193 32.6924 23.1641 30.9223 23.1641C30.0696 23.1627 29.2523 22.8229 28.6499 22.2195C28.0475 21.6161 27.7091 20.7983 27.7091 19.9456M26.4448 19.9456C26.4448 22.4172 28.4542 24.4301 30.9223 24.4301C33.3904 24.4301 35.3997 22.419 35.3997 19.9465C35.3997 17.4748 33.3904 15.4619 30.9223 15.4619C29.7343 15.4643 28.5957 15.9377 27.7563 16.7784C26.917 17.6191 26.4453 18.7585 26.4448 19.9465M26.1274 15.5384H25.9407C25.3761 15.5384 24.832 15.7162 24.3777 16.0674C24.3465 15.9316 24.2703 15.8103 24.1616 15.7231C24.0528 15.636 23.9178 15.5881 23.7785 15.5873C23.6988 15.5873 23.6199 15.603 23.5463 15.6336C23.4727 15.6642 23.4059 15.7091 23.3497 15.7656C23.2935 15.8221 23.2491 15.8892 23.2189 15.963C23.1887 16.0367 23.1734 16.1157 23.1739 16.1954L23.1757 23.7482C23.1843 23.9043 23.2525 24.0511 23.3661 24.1584C23.4797 24.2657 23.6301 24.3254 23.7864 24.3252C23.9427 24.325 24.093 24.2648 24.2063 24.1572C24.3196 24.0495 24.3873 23.9025 24.3955 23.7464V19.1018C24.3955 17.5548 24.5377 16.9289 25.8607 16.7635C25.9852 16.7484 26.1168 16.7511 26.1185 16.7511C26.4795 16.7378 26.7373 16.4879 26.7373 16.151C26.7369 15.9886 26.672 15.833 26.557 15.7183C26.442 15.6037 26.2863 15.5393 26.1239 15.5393M14.4039 19.2085C14.4039 19.1907 14.4057 19.173 14.4066 19.157C14.5842 18.4553 14.9922 17.8335 15.5651 17.3911C16.138 16.9488 16.8427 16.7114 17.5665 16.7171C18.2903 16.7227 18.9912 16.971 19.5572 17.4222C20.1231 17.8734 20.5213 18.5015 20.688 19.2059H14.403L14.4039 19.2085ZM21.9372 19.0929C21.674 17.8456 20.9921 16.8204 19.9545 16.1625C19.2026 15.6905 18.3279 15.4513 17.4404 15.4751C16.553 15.4988 15.6923 15.7844 14.9667 16.2959C14.2325 16.8241 13.6731 17.56 13.3605 18.4087C13.0478 19.2575 12.9963 20.1804 13.2126 21.0587C13.4386 21.9328 13.9215 22.7191 14.5988 23.3161C15.2762 23.9131 16.1169 24.2934 17.0125 24.4079C17.5531 24.4737 18.0794 24.4435 18.6218 24.3012C19.0967 24.1858 19.5492 23.9923 19.9607 23.7286C20.3937 23.4504 20.7556 23.0823 21.1076 22.6422C21.113 22.6333 21.1201 22.6271 21.1272 22.6182C21.3708 22.3159 21.3255 21.8838 21.0587 21.6793C20.8329 21.5059 20.4542 21.4357 20.1572 21.818C20.0932 21.9105 20.0212 22.0047 19.9438 22.0981C19.7064 22.3603 19.4122 22.6137 19.0601 22.8111C18.6102 23.0512 18.0999 23.1872 17.5575 23.1907C15.7811 23.1703 14.8316 21.9282 14.4928 21.0427C14.4337 20.8748 14.3882 20.7023 14.3568 20.527L14.3479 20.4337H20.7227C21.5958 20.4141 22.0652 19.7962 21.9354 19.0912L21.9372 19.0929Z" fill="white"/>
</svg>
