<svg width="35" height="42" viewBox="0 0 35 42" fill="none" xmlns="http://www.w3.org/2000/svg">
<path d="M34.5501 3.83965C34.4837 3.39936 34.1453 3.04983 33.7075 2.96929L17.6891 0.0172154C17.5639 -0.00573846 17.4359 -0.00573846 17.3107 0.0172154L1.29251 2.96929C0.854721 3.04983 0.516256 3.39957 0.449899 3.83965C0.381663 4.29226 -1.18629 15.0319 1.96464 24.3222C5.15335 33.7241 16.4677 40.8675 16.9479 41.167C17.1169 41.2723 17.3086 41.3251 17.5 41.3251C17.6914 41.3251 17.8833 41.2725 18.0521 41.167C18.5323 40.8675 29.8467 33.7241 33.0354 24.3222C36.1863 15.0319 34.6183 4.29226 34.5501 3.83965ZM31.0094 23.4785C28.2453 31.469 18.4595 37.5263 18.0442 37.7802C17.8771 37.8825 17.6886 37.9334 17.5 37.9334C17.3114 37.9334 17.1225 37.8823 16.9558 37.7802C16.5405 37.5263 6.7549 31.469 3.99063 23.4785C1.26392 15.5964 2.62008 6.48957 2.67913 6.10561C2.74674 5.66532 3.08646 5.31663 3.52488 5.23754L17.3147 2.74601C17.4374 2.72389 17.5628 2.72389 17.6855 2.74601L31.4753 5.23754C31.9138 5.31663 32.2535 5.66532 32.3211 6.10561C32.3801 6.48957 33.7363 15.5964 31.0094 23.4785ZM15.1299 12.1279H16.4566V17.0828H15.1299C13.7642 17.0828 12.6532 15.9716 12.6532 14.6048C12.6532 13.239 13.7642 12.1279 15.1299 12.1279ZM18.5434 19.1695H19.8697C21.2356 19.1695 22.347 20.2809 22.347 21.6468C22.347 23.0128 21.2356 24.1242 19.8697 24.1242H18.5434V19.1695ZM30.3504 7.15481L17.5 4.83314L4.64961 7.15481C4.39545 9.43872 3.83434 16.6439 5.96278 22.7964C8.12858 29.0571 15.4383 34.2741 17.5 35.6474C19.5619 34.2741 26.8716 29.0569 29.0372 22.7964C31.1657 16.6439 30.6048 9.43893 30.3504 7.15481ZM19.8699 17.0828C22.3867 17.0828 24.4339 19.1302 24.4339 21.6468C24.4339 24.1634 22.3865 26.2109 19.8699 26.2109H18.5436V27.596C18.5436 28.1722 18.0766 28.6394 17.5002 28.6394C16.9239 28.6394 16.4569 28.1722 16.4569 27.596V26.2109H11.6098C11.0335 26.2109 10.5665 25.7437 10.5665 25.1675C10.5665 24.5914 11.0335 24.1242 11.6098 24.1242H16.4566V19.1695H15.1299C12.6135 19.1695 10.5665 17.1222 10.5665 14.606C10.5665 12.0884 12.6138 10.0414 15.1299 10.0414H16.4566V9.0364C16.4566 8.46026 16.9237 7.99304 17.5 7.99304C18.0763 7.99304 18.5434 8.46026 18.5434 9.0364V10.0414H23.3906C23.9669 10.0414 24.4339 10.5086 24.4339 11.0847C24.4339 11.6609 23.9669 12.1281 23.3906 12.1281H18.5434V17.083H19.8699V17.0828Z" fill="#9E8F7A"/>
</svg>
