<svg width="200" height="60" viewBox="0 0 200 60" fill="none" xmlns="http://www.w3.org/2000/svg">
<path d="M192.593 59.2593H7.40741C3.25926 59.2593 0 56 0 51.8518V7.40741C0 3.25926 3.25926 0 7.40741 0H192.593C196.741 0 200 3.25926 200 7.40741V51.8518C200 56 196.741 59.2593 192.593 59.2593Z" fill="black"/>
<path d="M192.593 1.18519C196 1.18519 198.815 4 198.815 7.40741V51.8518C198.815 55.2593 196 58.0741 192.593 58.0741H7.40741C4 58.0741 1.18519 55.2593 1.18519 51.8518V7.40741C1.18519 4 4 1.18519 7.40741 1.18519H192.593ZM192.593 0H7.40741C3.25926 0 0 3.40741 0 7.40741V51.8518C0 56 3.25926 59.2593 7.40741 59.2593H192.593C196.741 59.2593 200 56 200 51.8518V7.40741C200 3.40741 196.741 0 192.593 0Z" fill="#C58936"/>
<path d="M70.2219 15.1125C70.2219 16.2977 69.9256 17.3347 69.1849 18.0755C68.296 18.9644 67.2589 19.4088 65.9256 19.4088C64.5923 19.4088 63.5552 18.9644 62.6663 18.0755C61.7774 17.1866 61.333 16.1496 61.333 14.8162C61.333 13.4829 61.7774 12.4459 62.6663 11.557C63.5552 10.6681 64.5923 10.2236 65.9256 10.2236C66.5182 10.2236 67.1108 10.3718 67.7034 10.6681C68.296 10.9644 68.7404 11.2607 69.0367 11.7051L68.296 12.4459C67.7034 11.7051 66.9626 11.4088 65.9256 11.4088C65.0367 11.4088 64.1478 11.7051 63.5552 12.4459C62.8145 13.0384 62.5182 13.9273 62.5182 14.9644C62.5182 16.0014 62.8145 16.8903 63.5552 17.4829C64.296 18.0755 65.0367 18.5199 65.9256 18.5199C66.9626 18.5199 67.7034 18.2236 68.4441 17.4829C68.8886 17.0384 69.1849 16.4459 69.1849 15.7051H65.9256V14.5199H70.2219V15.1125ZM77.0367 11.4088H73.0367V14.2236H76.7404V15.2607H73.0367V18.0755H77.0367V19.2607H71.8515V10.3718H77.0367V11.4088ZM81.9256 19.2607H80.7404V11.4088H78.2219V10.3718H84.4441V11.4088H81.9256V19.2607ZM88.7404 19.2607V10.3718H89.9256V19.2607H88.7404ZM94.9626 19.2607H93.7775V11.4088H91.2589V10.3718H97.333V11.4088H94.8145V19.2607H94.9626ZM109.037 18.0755C108.148 18.9644 107.111 19.4088 105.777 19.4088C104.444 19.4088 103.407 18.9644 102.518 18.0755C101.629 17.1866 101.185 16.1496 101.185 14.8162C101.185 13.4829 101.629 12.4459 102.518 11.557C103.407 10.6681 104.444 10.2236 105.777 10.2236C107.111 10.2236 108.148 10.6681 109.037 11.557C109.926 12.4459 110.37 13.4829 110.37 14.8162C110.37 16.1496 109.926 17.1866 109.037 18.0755ZM103.407 17.3347C104 17.9273 104.889 18.3718 105.777 18.3718C106.666 18.3718 107.555 18.0755 108.148 17.3347C108.74 16.7422 109.185 15.8533 109.185 14.8162C109.185 13.7792 108.889 12.8903 108.148 12.2977C107.555 11.7051 106.666 11.2607 105.777 11.2607C104.889 11.2607 104 11.557 103.407 12.2977C102.814 12.8903 102.37 13.7792 102.37 14.8162C102.37 15.8533 102.666 16.7422 103.407 17.3347ZM112 19.2607V10.3718H113.333L117.629 17.3347V10.3718H118.814V19.2607H117.629L113.037 12.0014V19.2607H112Z" fill="#DADADA" stroke="#DADADA" stroke-width="0.2" stroke-miterlimit="10"/>
<path d="M100.888 32.296C97.3321 32.296 94.5173 34.9626 94.5173 38.6663C94.5173 42.2219 97.3321 45.0367 100.888 45.0367C104.443 45.0367 107.258 42.37 107.258 38.6663C107.258 34.8145 104.443 32.296 100.888 32.296ZM100.888 42.37C98.9618 42.37 97.3321 40.7404 97.3321 38.5182C97.3321 36.296 98.9618 34.6663 100.888 34.6663C102.814 34.6663 104.443 36.1478 104.443 38.5182C104.443 40.7404 102.814 42.37 100.888 42.37ZM87.1099 32.296C83.5544 32.296 80.7395 34.9626 80.7395 38.6663C80.7395 42.2219 83.5544 45.0367 87.1099 45.0367C90.6655 45.0367 93.4803 42.37 93.4803 38.6663C93.4803 34.8145 90.6655 32.296 87.1099 32.296ZM87.1099 42.37C85.184 42.37 83.5544 40.7404 83.5544 38.5182C83.5544 36.296 85.184 34.6663 87.1099 34.6663C89.0358 34.6663 90.6655 36.1478 90.6655 38.5182C90.6655 40.7404 89.0358 42.37 87.1099 42.37ZM70.6655 34.2219V36.8886H77.0358C76.8877 38.37 76.2951 39.5552 75.5544 40.296C74.6655 41.1849 73.184 42.2219 70.6655 42.2219C66.6655 42.2219 63.7025 39.1108 63.7025 35.1108C63.7025 31.1108 66.8136 27.9997 70.6655 27.9997C72.7396 27.9997 74.3692 28.8886 75.5544 29.9256L77.4803 27.9997C75.8507 26.5182 73.7766 25.333 70.8136 25.333C65.4803 25.333 60.8877 29.7775 60.8877 35.1108C60.8877 40.4441 65.4803 44.8886 70.8136 44.8886C73.7766 44.8886 75.8507 43.9997 77.6284 42.0737C79.4062 40.296 79.9988 37.7775 79.9988 35.8515C79.9988 35.2589 79.9988 34.6663 79.8507 34.2219H70.6655ZM137.925 36.296C137.332 34.8145 135.851 32.296 132.591 32.296C129.332 32.296 126.665 34.8145 126.665 38.6663C126.665 42.2219 129.332 45.0367 132.888 45.0367C135.703 45.0367 137.48 43.2589 138.073 42.2219L135.999 40.7404C135.258 41.7775 134.369 42.5182 132.888 42.5182C131.406 42.5182 130.517 41.9256 129.777 40.5923L138.221 37.0367L137.925 36.296ZM129.332 38.37C129.332 35.9997 131.258 34.6663 132.591 34.6663C133.628 34.6663 134.665 35.2589 134.962 35.9997L129.332 38.37ZM122.369 44.4441H125.184V25.9256H122.369V44.4441ZM117.925 33.6293C117.184 32.8886 115.999 32.1478 114.517 32.1478C111.406 32.1478 108.443 34.9626 108.443 38.5182C108.443 42.0737 111.258 44.7404 114.517 44.7404C115.999 44.7404 117.184 43.9997 117.777 43.2589H117.925V44.1478C117.925 46.5182 116.591 47.8515 114.517 47.8515C112.888 47.8515 111.703 46.6663 111.406 45.6293L109.036 46.6663C109.777 48.296 111.554 50.37 114.665 50.37C117.925 50.37 120.591 48.4441 120.591 43.8515V32.5923H117.925V33.6293ZM114.665 42.37C112.74 42.37 111.11 40.7404 111.11 38.5182C111.11 36.296 112.74 34.6663 114.665 34.6663C116.591 34.6663 118.073 36.296 118.073 38.5182C118.073 40.7404 116.591 42.37 114.665 42.37ZM150.814 25.9256H144.147V44.4441H146.962V37.4812H150.814C153.925 37.4812 156.888 35.2589 156.888 31.7034C156.888 28.1478 153.925 25.9256 150.814 25.9256ZM150.962 34.8145H146.962V28.4441H150.962C153.036 28.4441 154.221 30.2219 154.221 31.5552C154.073 33.1849 152.888 34.8145 150.962 34.8145ZM167.999 32.1478C165.925 32.1478 163.851 33.0367 163.11 34.9626L165.628 35.9997C166.221 34.9626 167.11 34.6663 168.147 34.6663C169.628 34.6663 170.962 35.5552 171.11 37.0367V37.1849C170.665 36.8886 169.48 36.4441 168.295 36.4441C165.628 36.4441 162.962 37.9256 162.962 40.5923C162.962 43.1108 165.184 44.7404 167.554 44.7404C169.48 44.7404 170.369 43.8515 171.11 42.9626H171.258V44.4441H173.925V37.333C173.628 34.0738 171.11 32.1478 167.999 32.1478ZM167.703 42.37C166.814 42.37 165.48 41.9256 165.48 40.7404C165.48 39.2589 167.11 38.8145 168.443 38.8145C169.628 38.8145 170.221 39.1108 170.962 39.4071C170.665 41.1849 169.184 42.37 167.703 42.37ZM183.258 32.5923L180.147 40.5923H179.999L176.74 32.5923H173.777L178.665 43.8515L175.851 50.0737H178.665L186.221 32.5923H183.258ZM158.369 44.4441H161.184V25.9256H158.369V44.4441Z" fill="#DADADA"/>
<path d="M15.407 11.1143C14.9626 11.5587 14.8145 12.2994 14.8145 13.1883V45.9291C14.8145 46.818 15.1107 47.5587 15.5552 48.0031L15.7033 48.1513L34.0737 29.7809V29.4846L15.407 11.1143Z" fill="url(#paint0_linear_177_812)"/>
<path d="M39.9989 35.9988L33.9248 29.9248V29.4803L39.9989 23.4062L40.147 23.5544L47.4063 27.7025C49.4804 28.8877 49.4804 30.8137 47.4063 31.9988L39.9989 35.9988Z" fill="url(#paint1_linear_177_812)"/>
<path d="M40.1489 35.857L33.9267 29.6348L15.4082 48.1533C16.1489 48.894 17.186 48.894 18.5193 48.3014L40.1489 35.857Z" fill="url(#paint2_linear_177_812)"/>
<path d="M40.1489 23.4083L18.5193 11.112C17.186 10.3713 16.1489 10.5194 15.4082 11.2601L33.9267 29.6305L40.1489 23.4083Z" fill="url(#paint3_linear_177_812)"/>
<path opacity="0.2" d="M40.0008 35.708L18.5193 47.8562C17.3341 48.5969 16.2971 48.4487 15.5564 47.8562L15.4082 48.0043L15.5564 48.1525C16.2971 48.745 17.3341 48.8932 18.5193 48.1525L40.0008 35.708Z" fill="black"/>
<path opacity="0.12" d="M15.407 47.857C14.9626 47.4125 14.8145 46.6718 14.8145 45.7829V45.9311C14.8145 46.82 15.1107 47.5607 15.5552 48.0051V47.857H15.407ZM47.407 31.5607L39.9996 35.7088L40.1478 35.857L47.407 31.7088C48.4441 31.1162 48.8885 30.3755 48.8885 29.6348C48.8885 30.3755 48.2959 30.9681 47.407 31.5607Z" fill="black"/>
<path opacity="0.25" d="M18.5182 11.2616L47.407 27.7061C48.2959 28.2987 48.8885 28.8913 48.8885 29.632C48.8885 28.8913 48.4441 28.1505 47.407 27.5579L18.5182 11.1135C16.4441 9.92832 14.8145 10.8172 14.8145 13.1876V13.3357C14.8145 11.1135 16.4441 10.0765 18.5182 11.2616Z" fill="#DADADA"/>
<defs>
<linearGradient id="paint0_linear_177_812" x1="32.2959" y1="12.9069" x2="7.43223" y2="37.7691" gradientUnits="userSpaceOnUse">
<stop stop-color="#00A0FF"/>
<stop offset="0.007" stop-color="#00A1FF"/>
<stop offset="0.26" stop-color="#00BEFF"/>
<stop offset="0.512" stop-color="#00D2FF"/>
<stop offset="0.76" stop-color="#00DFFF"/>
<stop offset="1" stop-color="#00E3FF"/>
</linearGradient>
<linearGradient id="paint1_linear_177_812" x1="50.1233" y1="29.63" x2="14.2759" y2="29.63" gradientUnits="userSpaceOnUse">
<stop stop-color="#FFE000"/>
<stop offset="0.409" stop-color="#FFBD00"/>
<stop offset="0.775" stop-color="#FFA500"/>
<stop offset="1" stop-color="#FF9C00"/>
</linearGradient>
<linearGradient id="paint2_linear_177_812" x1="36.7815" y1="33.0362" x2="3.06599" y2="66.7518" gradientUnits="userSpaceOnUse">
<stop stop-color="#FF3A44"/>
<stop offset="1" stop-color="#C31162"/>
</linearGradient>
<linearGradient id="paint3_linear_177_812" x1="10.8112" y1="0.26163" x2="25.8675" y2="15.3179" gradientUnits="userSpaceOnUse">
<stop stop-color="#32A071"/>
<stop offset="0.069" stop-color="#2DA771"/>
<stop offset="0.476" stop-color="#15CF74"/>
<stop offset="0.801" stop-color="#06E775"/>
<stop offset="1" stop-color="#00F076"/>
</linearGradient>
</defs>
</svg>
