<svg width="200" height="60" viewBox="0 0 200 60" fill="none" xmlns="http://www.w3.org/2000/svg">
<path d="M198.672 52.2647C198.672 53.0106 198.525 53.7491 198.24 54.4381C197.954 55.1271 197.535 55.753 197.008 56.2801C196.48 56.8072 195.853 57.2252 195.164 57.51C194.474 57.7949 193.735 57.9412 192.989 57.9404H7.00884C5.50146 57.942 4.05517 57.3449 2.98804 56.2806C1.92091 55.2162 1.32032 53.7717 1.31836 52.2647V7.00336C1.32032 5.4957 1.92067 4.05044 2.98759 2.98491C4.05451 1.91939 5.50078 1.3207 7.00884 1.32031H192.988C193.734 1.32031 194.473 1.46732 195.163 1.75294C195.853 2.03856 196.479 2.45719 197.007 2.98493C197.535 3.51267 197.953 4.13917 198.239 4.82867C198.524 5.51816 198.671 6.25712 198.671 7.00336L198.672 52.2647Z" fill="#DADADA"/>
<path d="M192.99 59.2593H7.00972C5.1528 59.2589 3.37187 58.5221 2.05772 57.2105C0.743567 55.8989 0.00353321 54.1197 0 52.2633L0 7.00341C0.00274704 5.14607 0.742293 3.36564 2.0564 2.05271C3.37051 0.739787 5.15188 0.00156767 7.00972 0L192.989 0C194.846 0.0023499 196.627 0.740821 197.941 2.05358C199.255 3.36634 199.995 5.14631 199.999 7.00341V52.2633C200.001 56.1222 196.852 59.2593 192.99 59.2593Z" fill="#C58936"/>
<path d="M198.672 52.2647C198.672 53.0106 198.525 53.7491 198.24 54.4381C197.954 55.1271 197.535 55.753 197.008 56.2801C196.48 56.8072 195.853 57.2252 195.164 57.51C194.474 57.7949 193.735 57.9412 192.989 57.9404H7.00884C5.50146 57.942 4.05517 57.3449 2.98804 56.2806C1.92091 55.2162 1.32032 53.7717 1.31836 52.2647V7.00336C1.32032 5.4957 1.92067 4.05044 2.98759 2.98491C4.05451 1.91939 5.50078 1.3207 7.00884 1.32031H192.988C193.734 1.32031 194.473 1.46732 195.163 1.75294C195.853 2.03856 196.479 2.45719 197.007 2.98493C197.535 3.51267 197.953 4.13917 198.239 4.82867C198.524 5.51816 198.671 6.25712 198.671 7.00336L198.672 52.2647Z" fill="black"/>
<path d="M44.6579 29.3197C44.615 24.5435 48.5697 22.2199 48.7505 22.1117C46.5108 18.8471 43.0393 18.4011 41.8194 18.3655C38.9037 18.0588 36.0755 20.1097 34.5903 20.1097C33.0754 20.1097 30.7882 18.3952 28.3232 18.4455C25.1511 18.4944 22.1836 20.3305 20.556 23.1817C17.1972 28.9951 19.7022 37.5382 22.9203 42.2373C24.53 44.5401 26.411 47.1083 28.8731 47.0179C31.2818 46.9201 32.1816 45.4841 35.0883 45.4841C37.9684 45.4841 38.8133 47.0179 41.3243 46.9601C43.9094 46.9201 45.5369 44.6483 47.0904 42.3262C48.9506 39.6899 49.6977 37.0907 49.7273 36.9573C49.6681 36.9366 44.7083 35.0427 44.6579 29.3197ZM39.9146 15.2743C41.2101 13.6546 42.0966 11.451 41.8505 9.21484C39.9754 9.29783 37.6304 10.5115 36.2801 12.0956C35.0854 13.4916 34.0181 15.7796 34.2938 17.9313C36.4001 18.0884 38.5628 16.8688 39.9146 15.2743Z" fill="#DADADA"/>
<path d="M192.99 0H93.373L132.391 59.2593H192.99C194.847 59.2577 196.628 58.5199 197.942 57.2076C199.256 55.8954 199.996 54.1157 200 52.2589V7.00341C199.996 5.14619 199.257 3.36599 197.943 2.05315C196.629 0.740304 194.848 0.00195894 192.99 0V0Z" fill="url(#paint0_linear_177_825)" fill-opacity="0.7"/>
<path d="M79.548 46.6848H76.1817L74.3378 40.8921H67.9284L66.1719 46.6848H62.8945L69.2461 26.9638H73.1682L79.548 46.6848ZM73.7819 38.4618L72.1143 33.3122C71.9379 32.7862 71.6059 31.5473 71.1197 29.5971H71.0604C70.8648 30.4359 70.552 31.6747 70.1236 33.3122L68.4842 38.4618H73.7819ZM95.8501 39.3998C95.8501 41.8183 95.1935 43.7299 93.8787 45.1333C92.7018 46.3825 91.2387 47.0064 89.4941 47.0064C87.6101 47.0064 86.2553 46.3351 85.4326 44.9895V52.4508H82.2724V37.1385C82.2724 35.6195 82.2324 34.0621 82.1553 32.4646H84.9346L85.111 34.7185H85.1703C86.2242 33.0203 87.8236 32.1712 89.9699 32.1712C91.6479 32.1712 93.0486 32.8336 94.1692 34.1599C95.2883 35.4891 95.8501 37.2348 95.8501 39.3998ZM92.6306 39.5154C92.6306 38.1313 92.3193 36.9903 91.6938 36.0908C91.0105 35.1557 90.0929 34.6874 88.9427 34.6874C88.163 34.6874 87.4545 34.9482 86.8215 35.4624C86.1871 35.9811 85.7721 36.6583 85.5779 37.4971C85.4912 37.8108 85.442 38.1336 85.4312 38.4588V40.8313C85.4312 41.8642 85.7484 42.737 86.3828 43.4513C87.0172 44.1626 87.8414 44.5198 88.8552 44.5198C90.0455 44.5198 90.9719 44.0589 91.6345 43.1446C92.2986 42.2273 92.6306 41.0181 92.6306 39.5154ZM112.21 39.3998C112.21 41.8183 111.553 43.7299 110.239 45.1333C109.06 46.3825 107.599 47.0064 105.853 47.0064C103.969 47.0064 102.614 46.3351 101.791 44.9895V52.4508H98.6309V37.1385C98.6309 35.6195 98.5909 34.0621 98.5138 32.4646H101.293L101.469 34.7185H101.529C102.581 33.0203 104.181 32.1712 106.328 32.1712C108.005 32.1712 109.406 32.8336 110.529 34.1599C111.647 35.4891 112.21 37.2348 112.21 39.3998ZM108.989 39.5154C108.989 38.1313 108.676 36.9903 108.051 36.0908C107.367 35.1557 106.453 34.6874 105.303 34.6874C104.523 34.6874 103.814 34.9482 103.179 35.4624C102.544 35.9811 102.131 36.6583 101.936 37.4971C101.84 37.8883 101.788 38.2069 101.788 38.4588V40.8313C101.788 41.8642 102.107 42.737 102.738 43.4513C103.373 44.1611 104.197 44.5198 105.214 44.5198C106.405 44.5198 107.332 44.0589 107.993 43.1446C108.657 42.2273 108.989 41.0181 108.989 39.5154ZM130.501 41.1529C130.501 42.8319 129.914 44.1967 128.748 45.2503C127.464 46.4003 125.672 46.9767 123.375 46.9767C121.252 46.9767 119.55 46.5677 118.267 45.7482L118.997 43.1149C120.383 43.9359 121.906 44.3449 123.563 44.3449C124.755 44.3449 125.681 44.0752 126.342 43.5402C127.005 43.0038 127.34 42.2866 127.34 41.3915C127.34 40.5898 127.063 39.9185 126.519 39.3717C125.972 38.8263 125.067 38.3181 123.797 37.8513C120.343 36.5635 118.615 34.68 118.615 32.2023C118.615 30.5841 119.226 29.2593 120.444 28.2234C121.663 27.1891 123.278 26.6719 125.288 26.6719C127.083 26.6719 128.579 26.9846 129.766 27.6084L128.973 30.184C127.856 29.5793 126.594 29.277 125.183 29.277C124.068 29.277 123.194 29.5512 122.568 30.0965C122.042 30.5841 121.775 31.1783 121.775 31.8837C121.775 32.6617 122.079 33.3078 122.684 33.8146C123.209 34.2814 124.166 34.7897 125.551 35.335C127.249 36.0196 128.497 36.8169 129.296 37.7327C130.101 38.6485 130.501 39.791 130.501 41.1529ZM140.977 34.8356H137.493V41.7397C137.493 43.4958 138.107 44.3716 139.337 44.3716C139.902 44.3716 140.37 44.3242 140.741 44.2249L140.829 46.624C140.206 46.8567 139.386 46.9738 138.371 46.9738C137.123 46.9738 136.147 46.5929 135.443 45.8312C134.742 45.0695 134.389 43.7936 134.389 41.9976V34.8297H132.314V32.4587H134.389V29.855L137.493 28.9184V32.4587H140.977V34.8356ZM156.662 39.4576C156.662 41.6434 156.037 43.438 154.789 44.8413C153.483 46.2862 151.746 47.0064 149.58 47.0064C147.49 47.0064 145.828 46.3143 144.589 44.9317C143.35 43.5462 142.73 41.8005 142.73 39.6947C142.73 37.4912 143.371 35.6862 144.647 34.2829C145.926 32.878 147.649 32.1756 149.814 32.1756C151.901 32.1756 153.578 32.8691 154.846 34.2532C156.059 35.5958 156.662 37.3296 156.662 39.4576ZM153.386 39.5302C153.386 38.2277 153.105 37.1103 152.54 36.1752C151.877 35.046 150.929 34.4814 149.7 34.4814C148.434 34.4814 147.463 35.046 146.802 36.1752C146.236 37.1103 145.954 38.2469 145.954 39.5895C145.954 40.8936 146.236 42.0139 146.802 42.946C147.485 44.0752 148.439 44.6398 149.673 44.6398C150.881 44.6398 151.829 44.0633 152.513 42.9178C153.094 41.9605 153.386 40.8358 153.386 39.5302ZM166.939 35.2431C166.61 35.1838 166.277 35.1545 165.943 35.1557C164.831 35.1557 163.971 35.5736 163.367 36.4153C162.842 37.1562 162.578 38.0928 162.578 39.2235V46.6848H159.418V36.9429C159.421 35.4501 159.39 33.9575 159.326 32.4661H162.079L162.194 35.1868H162.282C162.617 34.2517 163.141 33.4975 163.862 32.9329C164.521 32.4395 165.322 32.1723 166.146 32.1712C166.438 32.1712 166.702 32.1919 166.936 32.229L166.939 35.2431ZM181.073 38.9019C181.081 39.3822 181.042 39.8621 180.957 40.3349H171.476C171.512 41.7397 171.971 42.8156 172.852 43.5565C173.651 44.2175 174.684 44.5494 175.953 44.5494C177.356 44.5494 178.637 44.3271 179.789 43.8781L180.284 46.0698C178.938 46.6567 177.349 46.9486 175.515 46.9486C173.31 46.9486 171.578 46.2995 170.319 45.0043C169.062 43.7077 168.432 41.965 168.432 39.7822C168.432 37.6393 169.017 35.8537 170.19 34.4296C171.417 32.9092 173.076 32.1489 175.163 32.1489C177.213 32.1489 178.765 32.9092 179.818 34.4296C180.653 35.6343 181.073 37.1281 181.073 38.9019ZM178.059 38.0824C178.081 37.1444 177.874 36.3368 177.445 35.6536C176.898 34.7734 176.056 34.3347 174.928 34.3347C173.895 34.3347 173.053 34.763 172.413 35.6225C171.887 36.3056 171.574 37.1266 171.478 38.0795L178.059 38.0824Z" fill="#DADADA"/>
<path d="M67.0145 19.9923C66.1355 19.9923 65.3751 19.9493 64.7422 19.8767V10.3422C65.6274 10.2055 66.522 10.1381 67.4177 10.1407C71.0419 10.1407 72.7109 11.9234 72.7109 14.8294C72.7109 18.1814 70.7395 19.9923 67.0145 19.9923ZM67.5452 11.3632C67.056 11.3632 66.6395 11.3929 66.2941 11.464V18.7119C66.4809 18.7416 66.8396 18.7549 67.3436 18.7549C69.7182 18.7549 71.07 17.4034 71.07 14.8724C71.07 12.6154 69.8472 11.3632 67.5452 11.3632ZM77.9123 20.0649C75.8697 20.0649 74.546 18.54 74.546 16.4698C74.546 14.3122 75.8978 12.774 78.0279 12.774C80.0408 12.774 81.3941 14.2263 81.3941 16.3557C81.3941 18.54 79.9993 20.0649 77.9123 20.0649ZM77.9716 13.9091C76.8495 13.9091 76.1306 14.9583 76.1306 16.4254C76.1306 17.8643 76.8643 18.9135 77.9567 18.9135C79.0492 18.9135 79.7829 17.7917 79.7829 16.3957C79.7829 14.9731 79.064 13.9091 77.9716 13.9091ZM93.0419 12.9177L90.8556 19.9063H89.4311L88.5254 16.8714C88.3002 16.1291 88.1127 15.3758 87.9636 14.6145H87.934C87.8198 15.3762 87.6034 16.1394 87.3737 16.8714L86.4102 19.9063H84.9709L82.9135 12.9177H84.5099L85.3014 16.2401C85.4882 17.0315 85.6453 17.7783 85.7758 18.4837H85.8054C85.9196 17.8954 86.1063 17.1604 86.3806 16.255L87.3737 12.9192H88.6395L89.5897 16.1838C89.8195 16.9752 90.0062 17.7517 90.1515 18.4852H90.193C90.2938 17.7665 90.4524 17.0033 90.6673 16.1838L91.5167 12.9192L93.0419 12.9177ZM101.091 19.9063H99.5373V15.8934C99.5373 14.6575 99.063 14.0381 98.1276 14.0381C97.2071 14.0381 96.5742 14.8294 96.5742 15.7496V19.9063H95.0208V14.9153C95.0208 14.2974 95.006 13.635 94.963 12.9163H96.3296L96.4023 13.9951H96.4453C96.8633 13.2482 97.7111 12.774 98.6613 12.774C100.129 12.774 101.092 13.8958 101.092 15.7215L101.091 19.9063ZM105.375 19.9063H103.82V9.71094H105.375V19.9063ZM111.038 20.0649C108.997 20.0649 107.672 18.54 107.672 16.4698C107.672 14.3122 109.024 12.774 111.152 12.774C113.167 12.774 114.519 14.2263 114.519 16.3557C114.52 18.54 113.124 20.0649 111.038 20.0649ZM111.096 13.9091C109.974 13.9091 109.255 14.9583 109.255 16.4254C109.255 17.8643 109.99 18.9135 111.08 18.9135C112.174 18.9135 112.906 17.7917 112.906 16.3957C112.907 14.9731 112.19 13.9091 111.096 13.9091ZM120.644 19.9063L120.531 19.1017H120.489C120.015 19.7493 119.323 20.0649 118.445 20.0649C117.193 20.0649 116.303 19.1876 116.303 18.008C116.303 16.2831 117.799 15.391 120.389 15.391V15.2621C120.389 14.3418 119.901 13.881 118.937 13.881C118.248 13.881 117.643 14.0544 117.111 14.3996L116.796 13.3786C117.442 12.9755 118.248 12.774 119.195 12.774C121.022 12.774 121.943 13.7372 121.943 15.6652V18.2392C121.943 18.9446 121.975 19.4914 122.044 19.9078L120.644 19.9063ZM120.43 16.4254C118.705 16.4254 117.839 16.8433 117.839 17.8347C117.839 18.5682 118.285 18.9268 118.905 18.9268C119.695 18.9268 120.43 18.3237 120.43 17.5042V16.4254ZM129.487 19.9063L129.414 18.7846H129.371C128.925 19.6322 128.175 20.0649 127.127 20.0649C125.442 20.0649 124.194 18.583 124.194 16.498C124.194 14.3122 125.488 12.7725 127.254 12.7725C128.19 12.7725 128.852 13.0882 129.226 13.7224H129.257V9.71094H130.812V18.0229C130.812 18.6986 130.828 19.3314 130.87 19.9063H129.487ZM129.257 15.7941C129.257 14.8161 128.609 13.9817 127.621 13.9817C126.469 13.9817 125.765 15.0028 125.765 16.4402C125.765 17.8495 126.496 18.8142 127.59 18.8142C128.566 18.8142 129.257 17.9651 129.257 16.9589V15.7941ZM140.671 20.0649C138.63 20.0649 137.306 18.54 137.306 16.4698C137.306 14.3122 138.658 12.774 140.786 12.774C142.801 12.774 144.153 14.2263 144.153 16.3557C144.154 18.54 142.759 20.0649 140.671 20.0649ZM140.728 13.9091C139.608 13.9091 138.889 14.9583 138.889 16.4254C138.889 17.8643 139.623 18.9135 140.714 18.9135C141.808 18.9135 142.54 17.7917 142.54 16.3957C142.543 14.9731 141.824 13.9091 140.728 13.9091ZM152.507 19.9063H150.952V15.8934C150.952 14.6575 150.477 14.0381 149.542 14.0381C148.622 14.0381 147.99 14.8294 147.99 15.7496V19.9063H146.435V14.9153C146.435 14.2974 146.42 13.635 146.377 12.9163H147.744L147.817 13.9951H147.86C148.276 13.2482 149.126 12.7725 150.074 12.7725C151.542 12.7725 152.507 13.8943 152.507 15.72V19.9063ZM162.958 14.0825H161.249V17.476C161.249 18.34 161.549 18.7712 162.153 18.7712C162.428 18.7712 162.657 18.7416 162.843 18.6986L162.886 19.8782C162.585 19.9938 162.182 20.0516 161.681 20.0516C160.456 20.0516 159.724 19.3758 159.724 17.6064V14.0825H158.704V12.9177H159.724V11.6374L161.249 11.1765V12.9163H162.958V14.0825ZM171.182 19.9063H169.63V15.923C169.63 14.6723 169.157 14.0395 168.22 14.0395C167.415 14.0395 166.665 14.5864 166.665 15.6933V19.9063H165.113V9.71094H166.665V13.9091H166.697C167.186 13.1474 167.894 12.7725 168.798 12.7725C170.278 12.7725 171.182 13.9225 171.182 15.7496V19.9063ZM179.607 16.7855H174.945C174.975 18.1088 175.851 18.8557 177.148 18.8557C177.837 18.8557 178.472 18.7401 179.032 18.5252L179.274 19.604C178.613 19.8915 177.834 20.0353 176.929 20.0353C174.742 20.0353 173.448 18.6541 173.448 16.5128C173.448 14.37 174.774 12.7592 176.754 12.7592C178.54 12.7592 179.661 14.0825 179.661 16.0816C179.671 16.3175 179.653 16.5538 179.607 16.7855ZM178.183 15.6785C178.183 14.5997 177.639 13.838 176.646 13.838C175.753 13.838 175.048 14.6145 174.947 15.6785H178.183Z" fill="#DADADA"/>
<defs>
<linearGradient id="paint0_linear_177_825" x1="146.685" y1="59.4166" x2="146.685" y2="-154.301" gradientUnits="userSpaceOnUse">
<stop stop-color="#DADADA"/>
<stop offset="0.123" stop-color="#212121" stop-opacity="0.151"/>
<stop offset="0.308" stop-color="#353535" stop-opacity="0.227"/>
<stop offset="0.532" stop-color="#575757" stop-opacity="0.318"/>
<stop offset="0.783" stop-color="#858585" stop-opacity="0.421"/>
<stop offset="1" stop-color="#B3B3B3" stop-opacity="0.51"/>
</linearGradient>
</defs>
</svg>
