<svg width="30" height="22" viewBox="0 0 30 22" fill="none" xmlns="http://www.w3.org/2000/svg">
<path fill-rule="evenodd" clip-rule="evenodd" d="M26 3C26 2.46947 25.7895 1.96084 25.4138 1.5861C25.0391 1.21053 24.5305 1 23.9997 1C19.4803 1 8.51969 1 4.00031 1C3.46954 1 2.96092 1.21053 2.58615 1.5861C2.21046 1.96084 2 2.46947 2 3C2 6.07368 2 11.9263 2 15C2 15.5305 2.21046 16.0392 2.58615 16.4139C2.96092 16.7895 3.46954 17 4.00031 17C8.51969 17 19.4803 17 23.9997 17C24.5305 17 25.0391 16.7895 25.4138 16.4139C25.7895 16.0392 26 15.5305 26 15C26 11.9263 26 6.07368 26 3Z" fill="#9FE2BF"/>
<path d="M25 21C27.7614 21 30 18.7614 30 16C30 13.2386 27.7614 11 25 11C22.2386 11 20 13.2386 20 16C20 18.7614 22.2386 21 25 21Z" fill="#9FE2BF"/>
<path fill-rule="evenodd" clip-rule="evenodd" d="M23 0H3C2.204 0 1.441 0.315998 0.878998 0.878998C0.315998 1.441 0 2.204 0 3V15C0 15.796 0.315998 16.559 0.878998 17.121C1.441 17.684 2.204 18 3 18H18.342C19.166 20.329 21.39 22 24 22C27.311 22 30 19.311 30 16C30 13.39 28.329 11.166 26 10.342V3C26 2.204 25.684 1.441 25.121 0.878998C24.559 0.315998 23.796 0 23 0ZM24 12C26.208 12 28 13.792 28 16C28 18.208 26.208 20 24 20C21.792 20 20 18.208 20 16C20 13.792 21.792 12 24 12ZM21.543 17.207L22.546 18.21C22.733 18.397 22.988 18.503 23.253 18.503C23.519 18.503 23.773 18.397 23.961 18.209L26.458 15.706C26.848 15.316 26.847 14.682 26.456 14.292C26.066 13.902 25.432 13.903 25.042 14.294L23.252 16.088L22.957 15.793C22.567 15.403 21.933 15.403 21.543 15.793C21.153 16.183 21.153 16.817 21.543 17.207ZM24 6H23C21.344 6 20 4.656 20 3V2H6V3C6 4.656 4.656 6 3 6H2V12H3C4.656 12 6 13.344 6 15V16H18C18 12.689 20.689 10 24 10V6ZM2 14V15C2 15.265 2.105 15.52 2.293 15.707C2.48 15.895 2.735 16 3 16H4V15C4 14.448 3.552 14 3 14H2ZM13 4C10.24 4 8 6.24 8 9C8 11.76 10.24 14 13 14C15.76 14 18 11.76 18 9C18 6.24 15.76 4 13 4ZM13 6C14.656 6 16 7.344 16 9C16 10.656 14.656 12 13 12C11.344 12 10 10.656 10 9C10 7.344 11.344 6 13 6ZM22 2V3C22 3.552 22.448 4 23 4H24V3C24 2.735 23.895 2.48 23.707 2.293C23.52 2.105 23.265 2 23 2H22ZM4 2H3C2.735 2 2.48 2.105 2.293 2.293C2.105 2.48 2 2.735 2 3V4H3C3.552 4 4 3.552 4 3V2Z" fill="#4CAF50"/>
</svg>
