<svg width="16" height="18" viewBox="0 0 16 18" fill="none" xmlns="http://www.w3.org/2000/svg">
<path d="M12.75 6H14.45C14.6754 6 14.8916 6.09031 15.051 6.25105C15.2104 6.4118 15.3 6.62981 15.3 6.85714V17.1429C15.3 17.3702 15.2104 17.5882 15.051 17.7489C14.8916 17.9097 14.6754 18 14.45 18H0.85C0.624566 18 0.408365 17.9097 0.248959 17.7489C0.0895533 17.5882 0 17.3702 0 17.1429V6.85714C0 6.62981 0.0895533 6.4118 0.248959 6.25105C0.408365 6.09031 0.624566 6 0.85 6H2.55V5.14286C2.55 3.77889 3.08732 2.47078 4.04376 1.50631C5.00019 0.541835 6.2974 0 7.65 0C9.0026 0 10.2998 0.541835 11.2562 1.50631C12.2127 2.47078 12.75 3.77889 12.75 5.14286V6ZM11.05 6V5.14286C11.05 4.23354 10.6918 3.36147 10.0542 2.71849C9.41654 2.07551 8.55174 1.71429 7.65 1.71429C6.74826 1.71429 5.88346 2.07551 5.24584 2.71849C4.60821 3.36147 4.25 4.23354 4.25 5.14286V6H11.05ZM6.8 11.1429V12.8571H8.5V11.1429H6.8ZM3.4 11.1429V12.8571H5.1V11.1429H3.4ZM10.2 11.1429V12.8571H11.9V11.1429H10.2Z" fill="#9E8F7A"/>
</svg>
