<svg width="25" height="30" viewBox="0 0 25 30" fill="none" xmlns="http://www.w3.org/2000/svg">
<rect x="2.5" y="14.9951" width="19.9935" height="12.4959" fill="#C58936"/>
<path d="M22.4927 13.1309H2.49919C1.12463 13.1309 0 14.2555 0 15.63V27.5012C0 28.8757 1.12463 30.0004 2.49919 30.0004H22.4927C23.8672 30.0004 24.9919 28.8757 24.9919 27.5012V15.63C24.9919 14.2555 23.8672 13.1309 22.4927 13.1309ZM15.6199 26.564C14.6827 27.1888 13.6206 27.5012 12.4959 27.5012C12.1211 27.5012 11.7462 27.4387 11.3713 27.3762C9.87179 27.0638 8.62219 26.2516 7.80996 25.002L9.87179 23.6274C10.3091 24.3147 11.0589 24.8146 11.8711 24.9395C12.6834 25.127 13.4956 24.9395 14.2454 24.4397C15.6824 23.5025 16.0573 21.5031 15.1201 20.1286C14.6827 19.4413 13.933 18.9415 13.1207 18.8165C12.3085 18.6291 11.4963 18.8165 10.7465 19.3163C10.5591 19.4413 10.4341 19.5663 10.3091 19.6912L12.4959 21.878H6.87276V16.2548L8.49723 17.8793C8.74715 17.6294 9.05955 17.3795 9.30947 17.192C10.5591 16.3798 12.0586 16.0674 13.5581 16.3173C15.0576 16.6297 16.3072 17.442 17.1194 18.6915C18.8689 21.3157 18.1816 24.8146 15.6199 26.564Z" fill="#181E2D"/>
<path d="M3.1248 10.6313H5.62398C5.99886 10.6313 6.24878 10.4439 6.24878 10.069V10.0065C6.24878 6.44521 9.31028 3.50866 12.9341 3.75858C16.2455 4.0085 18.7447 6.88257 18.7447 10.2565V10.069C18.7447 10.4439 18.9946 10.6313 19.3695 10.6313H21.8687C22.2436 10.6313 22.4935 10.4439 22.4935 10.069V10.0065C22.4935 4.3209 17.745 -0.240116 11.9969 0.00980267C6.68614 0.259721 2.62496 4.75826 2.5 10.069C2.56248 10.3814 2.8124 10.6313 3.1248 10.6313Z" fill="#181E2D"/>
</svg>
