<svg width="57" height="50" viewBox="0 0 57 50" fill="none" xmlns="http://www.w3.org/2000/svg">
<path d="M49.8506 32.5401C49.6597 33.4203 47.8778 35.0124 46.6055 35.0709C44.2193 35.181 42.3104 35.0709 42.4059 35.181L42.4973 37.3955L42.5012 37.4918L39.1678 37.5686L37.7292 37.6017C37.7292 37.6017 37.7494 37.5265 37.7873 37.3955C37.9099 36.9719 38.2187 35.957 38.6362 34.9532C39.1426 33.7358 39.8085 32.5358 40.497 32.4299C41.9285 32.2099 45.9374 32.6499 45.9374 32.6499C45.9374 32.6499 46.2236 33.0899 45.1738 33.0899C44.1241 33.0899 43.4558 33.2002 43.4558 33.2002C43.4558 33.2002 45.6513 34.0804 46.4147 34.0804C47.1781 34.0804 50.0417 31.6598 49.8506 32.5401ZM32.8177 20.1985C33.1645 20.7619 33.6963 21.1398 33.284 21.4772C33.1918 21.5524 33.0581 21.6188 32.9052 21.6707C33.2447 23.5365 33.563 24.9986 32.0736 25.1686C31.6068 25.2219 31.0029 25.1419 30.3529 24.955L30.3792 25.7319L29.5705 26.9464L28.154 29.0738L27.0528 26.9464L25.8219 24.5684L25.6777 25.0006L26.0974 22.2526C26.155 22.2847 26.2122 22.3225 26.2699 22.3516C26.2769 22.3564 26.2834 22.3593 26.292 22.3618C26.9469 22.6903 27.6096 22.8334 28.2049 22.7859C28.5217 22.7629 28.8179 22.6861 29.0854 22.5552C28.9083 22.5365 28.7341 22.482 28.5722 22.3946C28.4019 22.3047 28.2455 22.1758 28.1105 22.0113C27.8001 21.636 27.6951 21.0896 27.9771 20.6581C28.3557 20.0803 29.1076 20.0406 29.6112 20.3954C29.8751 20.5805 30.0801 20.8614 30.2238 21.1831C30.5053 20.2804 30.3419 19.1513 29.8052 18.091C29.5678 18.0403 31.852 17.6941 32.035 17.673L32.0619 17.6699C32.3615 18.2988 32.5656 19.0225 32.6332 19.8085C32.6378 19.8651 32.6435 19.9216 32.6496 19.9772C32.7099 20.0435 32.7672 20.1164 32.8177 20.1985ZM31.8807 20.1035C31.8553 19.8651 31.7309 19.6856 31.604 19.7019C31.4764 19.7186 31.3945 19.9246 31.42 20.1623C31.4458 20.4009 31.5704 20.5802 31.6963 20.5645C31.8241 20.5479 31.9051 20.3412 31.8807 20.1035ZM16.3209 20.6314C14.8893 20.4114 10.8805 20.8514 10.8805 20.8514C10.8805 20.8514 10.5942 21.2914 11.6439 21.2914C12.6938 21.2914 13.362 21.4015 13.362 21.4015C13.362 21.4015 11.1668 22.2817 10.4032 22.2817C9.63973 22.2817 6.77619 19.8609 6.96712 20.7413C7.15819 21.6215 8.94011 23.2135 10.2124 23.2721C12.5984 23.3822 14.5075 23.2721 14.412 23.3822L13.6565 28.5466L13.803 28.5561L16.8691 28.7525C16.8691 28.7525 16.8756 28.6945 16.8863 28.5902C17.0025 27.466 17.631 20.8328 16.3209 20.6314Z" fill="#C58936"/>
<path d="M15.9865 0L18.6806 2.24381L15.1261 7.91926L14.8739 7.73081L18.2392 2.35708L16.0317 0.518961L12.5857 6.02099L12.333 5.83206L15.9865 0ZM17.8911 2.42219L14.6644 7.57419L14.2154 7.23856L12.8449 6.09698L16.0881 0.920656L17.8911 2.42219ZM16.215 4.34813C16.2418 4.0053 16.1082 3.66615 15.8656 3.46491C15.4861 3.14815 14.953 3.2475 14.6788 3.68567C14.5892 3.82853 14.5349 3.99666 14.5211 4.17136C14.4942 4.51498 14.6279 4.85285 14.8699 5.0549C15.054 5.20816 15.2794 5.26943 15.5035 5.22767C15.7277 5.18624 15.9245 5.04578 16.0575 4.83397C16.1472 4.6908 16.2016 4.52266 16.215 4.34813ZM15.7199 3.69783C15.4513 3.47418 15.075 3.54457 14.881 3.85429C14.8175 3.95491 14.779 4.07329 14.7696 4.19711C14.7504 4.43979 14.8449 4.6796 15.016 4.82086C15.1462 4.92932 15.3052 4.97251 15.4638 4.94388C15.6221 4.91412 15.7614 4.81542 15.8551 4.66504C15.9188 4.5641 15.9572 4.44571 15.9669 4.32237C15.9858 4.07969 15.8912 3.84069 15.7199 3.69783ZM40.3728 22.7416C40.4186 22.8546 40.4902 22.9502 40.5797 23.0196C40.7549 23.1558 40.9825 23.1759 41.1726 23.071C41.3176 22.9918 41.4271 22.852 41.4817 22.6781C41.5356 22.5039 41.5275 22.3156 41.4586 22.1483C41.4125 22.0353 41.3409 21.9395 41.252 21.8701C41.0764 21.7342 40.8491 21.7147 40.6582 21.8189C40.3586 21.9825 40.231 22.3965 40.3728 22.7416ZM40.9797 18.1273L37.9762 19.7675L40.0875 24.905C40.1762 24.8578 40.2682 24.8111 40.3627 24.7651L38.3924 19.972L40.853 18.6277L42.8735 23.5421C42.9534 23.4874 43.041 23.4292 43.1343 23.3686L40.9797 18.1273ZM40.7348 19.0108L42.6592 23.6917C42.3986 23.8776 42.2525 23.9971 42.2525 23.9971C42.2525 23.9971 41.3934 24.2894 40.5934 24.6562L38.7249 20.1086L40.7348 19.0108ZM40.5512 21.5594C40.1276 21.7902 39.9463 22.3767 40.1472 22.8648C40.2125 23.0243 40.3141 23.1601 40.4402 23.258C40.6885 23.4509 41.0097 23.4786 41.2799 23.3316C41.4851 23.2191 41.6402 23.0214 41.7164 22.7746C41.793 22.528 41.781 22.2615 41.6843 22.0251C41.6186 21.8658 41.5171 21.7298 41.391 21.632C41.1433 21.4399 40.8211 21.4116 40.5512 21.5594ZM30.9853 26.9462H32.3974V27.8032V36.4269V50H24.5441V26.9462H25.0286L25.6778 25.0005L25.822 24.5682L27.0529 26.9462L28.1541 29.0736L29.5707 26.9462L30.3794 25.7317L30.4233 25.6656L30.9853 26.9462ZM30.6125 47.8899L29.0066 32.3424V32.2518V31.2915L28.7627 30.7785L28.202 29.5986L27.2439 31.2537L27.2219 31.2915V32.2518V32.3424L25.7933 47.8899L28.202 49.5828L30.6125 47.8899Z" fill="#6AB891"/>
<path d="M6.69042 9.1871V17.2198H9.31529V15.3493C9.31529 14.4984 9.91347 13.8086 10.6514 13.8086C11.3894 13.8086 11.9876 14.4984 11.9876 15.3493V17.2198H14.6125V9.1871L10.7849 6.32594L6.69042 9.1871ZM9.06691 12.4882H7.63522V10.8376H9.06691V12.4882ZM12.0734 10.8376H13.5051V12.4882H12.0734V10.8376ZM14.9845 13.0383H18.4205V17.1099H14.9845V13.0383ZM6.39431 17.1099H2.95826V13.0383H6.39431V17.1099ZM52.2584 23.2473C50.8134 21.9979 48.1403 21.2483 46.0092 21.9563C44.8344 22.3467 43.8139 22.9264 43.1339 23.3686C43.0405 23.4292 42.953 23.4876 42.873 23.5422C42.7946 23.5958 42.7235 23.6455 42.6588 23.6917C42.3982 23.8776 42.2521 23.9971 42.2521 23.9971C42.2521 23.9971 41.3929 24.2894 40.593 24.6562C40.515 24.6919 40.438 24.7282 40.3622 24.7652C40.2676 24.8111 40.1756 24.8578 40.0871 24.905C39.6547 25.1354 39.3128 25.3753 39.2537 25.5798C39.073 26.2043 39.1815 26.7874 39.1815 26.7874C39.1815 26.7874 38.7841 26.8292 38.7841 27.1624C38.7841 27.4956 38.712 28.4118 39.1815 28.4952C39.6514 28.5785 39.6514 28.5785 39.6514 28.5785L40.973 28.5508C40.9625 28.4708 40.9515 28.3912 40.9515 28.3077C40.9515 27.3993 41.5905 26.6628 42.3785 26.6628C43.1665 26.6628 43.8053 27.3993 43.8053 28.3077C43.8053 28.371 43.7954 28.4309 43.7891 28.4918L48.9781 28.3835C48.9767 28.3577 48.9714 28.3336 48.9714 28.3075C48.9714 27.3992 49.6103 26.6626 50.3983 26.6626C51.186 26.6626 51.8251 27.3992 51.8251 28.3075C51.8251 28.3131 51.8234 28.3184 51.8234 28.324L53.5948 28.2869L53.6312 27.6622C53.6312 27.6622 54.0648 27.9538 54.0648 27.0791C54.0649 26.2043 53.7037 24.4967 52.2584 23.2473ZM47.5826 24.4551H43.8858C44.2301 23.4481 45.7253 22.6689 47.5826 22.5556V24.4551ZM48.1716 24.4551V22.5425C50.1871 22.5743 51.8491 23.386 52.2142 24.4551H48.1716ZM5.38998 29.7897V31.6537C5.38998 31.7691 5.30895 31.8625 5.20863 31.8625C5.10858 31.8625 5.02727 31.7692 5.02727 31.6537V29.7897C5.02727 29.6742 5.10858 29.5804 5.20863 29.5804C5.30895 29.5804 5.38998 29.6742 5.38998 29.7897ZM5.38998 35.3797V37.2436C5.38998 37.3589 5.30895 37.4525 5.20863 37.4525C5.10858 37.4525 5.02727 37.3589 5.02727 37.2436V35.3797C5.02727 35.2639 5.10858 35.1706 5.20863 35.1706C5.30895 35.1706 5.38998 35.2639 5.38998 35.3797ZM3.59294 33.7257H1.97656C1.87623 33.7257 1.79492 33.6321 1.79492 33.5163C1.79492 33.401 1.87623 33.3074 1.97656 33.3074H3.59294C3.69326 33.3074 3.77457 33.401 3.77457 33.5163C3.77443 33.6321 3.69326 33.7257 3.59294 33.7257ZM8.62289 33.5165C8.62289 33.6321 8.54144 33.7259 8.44139 33.7259H6.82487C6.72455 33.7259 6.64338 33.6323 6.64338 33.5165C6.64338 33.4011 6.72455 33.3075 6.82487 33.3075H8.44139C8.54144 33.3075 8.62289 33.4011 8.62289 33.5165ZM4.19445 32.0514C4.26536 32.1333 4.26536 32.2655 4.19487 32.3472C4.12369 32.4288 4.00879 32.4288 3.93803 32.3472L2.79481 31.0292C2.7239 30.9476 2.7239 30.8151 2.79481 30.7335C2.86557 30.6516 2.98046 30.6516 3.05137 30.7335L4.19445 32.0514ZM7.62287 36.0038C7.69363 36.0858 7.69363 36.218 7.62287 36.2999C7.5521 36.3815 7.43735 36.3815 7.36644 36.2999L6.22308 34.9818C6.15232 34.9001 6.15232 34.7678 6.22308 34.6862C6.29385 34.6045 6.40888 34.6045 6.47978 34.6862L7.62287 36.0038ZM4.19445 34.686C4.26536 34.7676 4.26536 34.8999 4.19445 34.9817L3.05137 36.2997C2.98046 36.3813 2.86557 36.3813 2.79481 36.2997C2.7239 36.218 2.7239 36.0858 2.79481 36.0036L3.93803 34.686C4.00879 34.6045 4.12369 34.6045 4.19445 34.686ZM6.22308 32.0514L7.36644 30.7335C7.43735 30.6516 7.5521 30.6516 7.62287 30.7335C7.69363 30.8151 7.69363 30.9476 7.62287 31.0292L6.47978 32.3472C6.40888 32.4288 6.29385 32.4288 6.22308 32.3472C6.15232 32.2653 6.15232 32.1333 6.22308 32.0514ZM45.761 7.86234V5.99831C45.761 5.88281 45.8423 5.78906 45.9422 5.78906C46.0427 5.78906 46.1238 5.88265 46.1238 5.99831V7.86234C46.1238 7.97784 46.0427 8.07127 45.9422 8.07127C45.8423 8.07127 45.761 7.97784 45.761 7.86234ZM45.761 13.4522V11.5883C45.761 11.4725 45.8423 11.3791 45.9422 11.3791C46.0427 11.3791 46.1238 11.4725 46.1238 11.5883V13.4522C46.1238 13.5675 46.0427 13.6611 45.9422 13.6611C45.8423 13.6611 45.761 13.5675 45.761 13.4522ZM42.5285 9.72509C42.5285 9.60975 42.6098 9.51617 42.7101 9.51617H44.3265C44.427 9.51617 44.5082 9.60975 44.5082 9.72509C44.5082 9.84076 44.427 9.93434 44.3265 9.93434H42.7101C42.6098 9.93434 42.5285 9.84076 42.5285 9.72509ZM47.5585 9.51617H49.175C49.275 9.51617 49.3563 9.60975 49.3563 9.72509C49.3563 9.84076 49.275 9.93434 49.175 9.93434H47.5585C47.4581 9.93434 47.377 9.84092 47.377 9.72509C47.3771 9.60975 47.4583 9.51617 47.5585 9.51617ZM43.5282 7.2378C43.4573 7.15605 43.4573 7.02359 43.5282 6.942C43.5992 6.8601 43.714 6.8601 43.785 6.942L44.928 8.26004C44.9989 8.34195 44.9989 8.47409 44.9284 8.55584C44.8574 8.63742 44.7422 8.63742 44.6716 8.55584L43.5282 7.2378ZM46.9568 11.1905C46.886 11.1087 46.886 10.9764 46.9568 10.8948C47.0276 10.8131 47.1426 10.8131 47.2135 10.8948L48.3567 12.2124C48.4274 12.2945 48.4274 12.4268 48.3567 12.5085C48.2858 12.5901 48.1711 12.5901 48.1002 12.5085L46.9568 11.1905ZM44.928 10.8948C44.9989 10.9764 44.9989 11.1087 44.928 11.1905L43.785 12.5085C43.714 12.5901 43.5992 12.5901 43.5282 12.5085C43.4573 12.4268 43.4573 12.2945 43.5282 12.2124L44.6716 10.8948C44.7424 10.8131 44.8575 10.8131 44.928 10.8948ZM46.9568 8.55567C46.886 8.47393 46.886 8.34195 46.9568 8.25988L48.1002 6.94184C48.1711 6.85994 48.2858 6.85994 48.3567 6.94184C48.4274 7.02343 48.4274 7.15589 48.3567 7.23764L47.2135 8.55567C47.1425 8.63726 47.0274 8.63726 46.9568 8.55567Z" fill="#DADADA"/>
<path d="M15.9392 9.73756L10.7851 5.88615L5.44017 9.84778V8.63741L10.7851 4.67578L12.3329 5.8324L12.5856 6.02133L14.2153 7.23907L14.6643 7.57469L14.8739 7.73131L15.126 7.91976L15.9391 8.52751V9.73756H15.9392ZM14.9849 10.838V12.5987H19.5662L18.4209 10.838H14.9849ZM1.81348 12.5987H6.39482V10.838H2.95878L1.81348 12.5987ZM34.1105 14.7109C34.0336 13.8193 33.5947 13.073 32.9824 12.6466C32.5717 12.3602 32.0834 12.2165 31.5715 12.2751C30.6292 12.3828 29.9497 13.1897 28.8338 13.3229C28.5784 13.3519 28.3822 13.3706 28.2286 13.3805C27.4437 13.4311 27.7453 13.2666 26.8554 13.3685C26.8106 13.3733 26.7658 13.3784 26.7236 13.3852L26.7103 13.3869C23.3315 14.1105 23.2325 16.7067 23.4844 18.3916C23.6812 19.7074 24.5186 21.0011 24.9775 21.4335C25.1017 21.5493 25.2274 21.6591 25.3552 21.7618C25.597 21.9546 25.8466 22.1137 26.0981 22.2528C26.1557 22.2849 26.2128 22.3227 26.2706 22.3518C26.2775 22.3566 26.284 22.3595 26.2926 22.362C26.9475 22.6904 27.6103 22.8336 28.2055 22.7861C28.5223 22.7631 28.8186 22.6863 29.0861 22.5554C28.9089 22.5367 28.7347 22.4822 28.5728 22.3948C28.4026 22.3049 28.2462 22.176 28.1112 22.0115C27.8008 21.6362 27.6957 21.0897 27.9777 20.6583C28.3564 20.0804 29.1083 20.0408 29.6118 20.3956C29.8757 20.5807 30.0807 20.8616 30.2244 21.1833C30.506 20.2806 30.3425 19.1515 29.8058 18.0912C29.5684 18.0404 31.8526 17.6943 32.0356 17.6731L32.0626 17.6701H32.0641C32.7655 17.5797 33.3591 17.1308 33.7257 16.4962C34.0178 15.991 34.1664 15.3674 34.1105 14.7109ZM29.0066 32.2522V31.2918L28.7626 30.7788L28.2019 29.599L27.2438 31.2541L27.2219 31.2918V32.2522V32.3427L25.7932 47.8902L28.2019 49.5831L30.6124 47.8902L29.0066 32.3427V32.2522V32.2522Z" fill="#9E8F7A"/>
<path d="M22.5295 26.9458H24.5442V49.9996H22.5295H20.0825C20.1772 49.9724 20.0005 45.567 19.8137 41.0443C19.0644 42.6113 18.3064 44.0584 17.6334 45.1325C17.3047 46.4673 16.3364 47.5334 15.0704 47.7769C13.3203 48.1135 11.6648 46.7506 11.373 44.7327C11.172 43.3446 12.429 34.2233 13.803 28.5557L16.8691 28.7521C16.8691 28.7521 16.8757 28.6941 16.8863 28.5897C17.0819 30.5045 17.2184 32.795 17.3219 35.0081C17.8601 32.6938 18.32 30.7828 18.3898 30.138C18.6093 28.1082 20.2144 26.6676 21.9753 26.9207C22.0628 26.9334 22.1458 26.9502 22.2261 26.9692C22.3259 26.9542 22.4271 26.9458 22.5295 26.9458ZM12.8449 6.09657L16.0881 0.920251L17.8911 2.42162L14.6644 7.57379L14.8739 7.7304L18.2392 2.35667L16.0317 0.518555L12.5857 6.02059L14.2154 7.23832L12.8449 6.09657ZM14.8699 5.05449C14.6279 4.85244 14.4942 4.51458 14.5211 4.17095C14.535 3.99626 14.5891 3.82796 14.6789 3.68527C14.953 3.24709 15.486 3.14775 15.8656 3.4645C16.1082 3.66575 16.2418 4.0049 16.215 4.34772C16.2016 4.52226 16.1472 4.69039 16.0577 4.83357C15.9246 5.04538 15.7279 5.18583 15.5036 5.22727C15.2795 5.26902 15.0542 5.20759 14.8699 5.05449ZM15.0162 4.82061C15.1463 4.92907 15.3053 4.97227 15.4639 4.94363C15.6223 4.91388 15.7616 4.81517 15.8552 4.6648C15.9189 4.56385 15.9574 4.44547 15.9671 4.32213C15.9859 4.07944 15.8912 3.84028 15.7201 3.69758C15.4515 3.47394 15.0751 3.54433 14.8812 3.85404C14.8176 3.95466 14.7792 4.07305 14.7697 4.19687C14.7506 4.43939 14.8451 4.67919 15.0162 4.82061ZM40.5934 24.6558L38.7249 20.1082L40.7347 19.0104L42.6591 23.6913C42.7238 23.6452 42.795 23.5953 42.8734 23.5417L40.8529 18.6273L38.3923 19.9716L40.3625 24.7647C40.4384 24.7279 40.5156 24.6916 40.5934 24.6558ZM41.2799 23.3312C41.0097 23.4781 40.6885 23.4505 40.4402 23.2576C40.3141 23.1597 40.2124 23.0237 40.1472 22.8644C39.9463 22.3763 40.1276 21.7898 40.5513 21.559C40.821 21.4112 41.1433 21.4395 41.391 21.6318C41.5171 21.7295 41.6187 21.8653 41.6843 22.0248C41.7811 22.2614 41.793 22.5278 41.7164 22.7743C41.6402 23.021 41.4851 23.2189 41.2799 23.3312ZM41.4587 22.148C41.4127 22.0351 41.3411 21.9393 41.2521 21.8698C41.0766 21.734 40.8493 21.7145 40.6584 21.8186C40.3588 21.9821 40.2311 22.3963 40.3729 22.7414C40.4187 22.8543 40.4903 22.95 40.5798 23.0194C40.7551 23.1555 40.9826 23.1757 41.1727 23.0708C41.3177 22.9916 41.4272 22.8518 41.4819 22.6779C41.5356 22.5035 41.5277 22.3154 41.4587 22.148ZM21.9522 19.2003C21.9522 18.8964 21.7385 18.65 21.4749 18.65H0.477186C0.213685 18.65 0 18.8964 0 19.2003C0 19.5041 0.213685 19.7505 0.477186 19.7505H21.4749C21.7385 19.7505 21.9522 19.5043 21.9522 19.2003ZM56.341 30.4487H37.7385C37.7195 30.3277 37.7048 30.2226 37.6956 30.1381C37.4762 28.1084 35.8708 26.6678 34.1101 26.9209C34.0255 26.933 33.9424 26.95 33.8602 26.9694C33.7605 26.954 33.6596 26.9458 33.5572 26.9458H32.3973V27.8028V36.4265V49.9996H33.5572H35.956C35.908 49.9417 35.9186 49.0452 35.9631 47.6738C36.2594 48.1757 36.6663 48.6007 37.1696 48.8938C38.7534 49.8159 40.6858 49.0831 41.4855 47.2569C41.8868 46.3408 42.3605 41.8045 42.533 37.3949H42.4973L42.5012 37.4913L39.1678 37.568L37.7293 37.6012C37.7293 37.6012 37.7496 37.526 37.7875 37.3949C37.91 36.9713 38.2189 35.9564 38.6364 34.9526C38.3629 33.6298 38.1137 32.4428 37.9387 31.5491H56.3411C56.6045 31.5491 56.8182 31.3028 56.8182 30.999C56.8182 30.6949 56.6045 30.4487 56.341 30.4487ZM49.2247 28.3906C49.2247 27.6432 49.7503 27.037 50.3987 27.037C51.047 27.037 51.5727 27.6432 51.5727 28.3906C51.5727 29.1378 51.047 29.744 50.3987 29.744C49.7503 29.7441 49.2247 29.138 49.2247 28.3906ZM49.9472 28.3906C49.9472 28.6777 50.1491 28.9111 50.3987 28.9111C50.6481 28.9111 50.8502 28.6779 50.8502 28.3906C50.8502 28.1033 50.6481 27.8699 50.3987 27.8699C50.1491 27.8699 49.9472 28.1033 49.9472 28.3906ZM42.3067 27.037C42.9548 27.037 43.4808 27.6432 43.4808 28.3906C43.4808 29.1378 42.9548 29.744 42.3067 29.744C41.6585 29.744 41.1326 29.1378 41.1326 28.3906C41.1326 27.6432 41.6585 27.037 42.3067 27.037ZM42.3067 27.8699C42.0573 27.8699 41.8552 28.1033 41.8552 28.3906C41.8552 28.6777 42.0573 28.9111 42.3067 28.9111C42.5566 28.9111 42.7582 28.6779 42.7582 28.3906C42.7582 28.1033 42.5566 27.8699 42.3067 27.8699ZM31.6042 19.7014C31.4765 19.718 31.3947 19.924 31.4202 20.1618C31.446 20.4003 31.5706 20.5796 31.6965 20.5639C31.8243 20.5475 31.9053 20.3408 31.8809 20.1031C31.8556 19.8645 31.731 19.685 31.6042 19.7014Z" fill="#383C47"/>
</svg>
