<svg width="250" height="250" viewBox="0 0 250 250" fill="none" xmlns="http://www.w3.org/2000/svg">
<path d="M239.5 114.5C239.5 177.454 187.795 228.5 124 228.5C60.205 228.5 8.5 177.454 8.5 114.5C8.5 51.5457 60.205 0.5 124 0.5C187.795 0.5 239.5 51.5457 239.5 114.5Z" stroke="#5B8DC9"/>
<path d="M249.999 248.095C249.999 249.148 249.135 250 248.07 250H3.93992C2.87381 250 2.00977 249.147 2.00977 248.095C2.00977 247.043 2.87381 246.189 3.93992 246.189H71.5419C71.5815 246.527 71.8664 246.797 72.2261 246.797H93.0678C93.3874 246.797 93.5954 246.475 93.473 246.189H100.194H103.415H105.312H106.436H108.171H108.684H110.394H112.242C112.31 246.52 112.607 246.769 112.962 246.769C113.317 246.769 113.613 246.52 113.682 246.189H114.055H115.71H118.618H120.326H122.598H124.398H127.307H129.084H133.563H170.435L170.364 246.248H175.034L175.201 246.189H248.07C249.135 246.19 249.999 247.043 249.999 248.095Z" fill="#263238"/>
<path d="M224.508 237.082V236.806V236.023V235.747V234.965V234.689V233.906V233.63V232.848V232.572V231.789V231.513V230.731V230.455V229.672H228.347V230.455V230.731V231.513V231.789V232.572V232.848V233.63V233.906V234.689V234.965V235.747V236.023V236.806V237.082V237.864H226.428V238.647V238.923V239.705V239.981V240.764V241.04V241.822V242.098V242.881V243.157V243.939V244.215V244.997V245.273V246.056H222.589V245.273V244.997V244.215V243.939V243.157V242.881V242.098V241.822V241.04V240.764V239.981V239.705V238.923V238.647V237.864H224.508V237.082ZM224.508 229.674V229.617V228.892V228.616V227.833V227.557V226.775V226.499V225.716V225.44V224.658V224.382V223.599V223.323V222.541V222.265V221.482H227.643V220.7V220.424V219.641V219.365V218.583V218.307V217.524V217.249V216.466V216.19V215.408V215.132V214.349V214.073V213.291V213.233H223.804V213.291V214.073V214.349V215.132V215.408V216.19V216.466V217.249V217.524V218.307V218.583V219.365V219.641V220.424V220.7V221.482H220.669V222.265V222.541V223.323V223.599V224.382V224.658V225.44V225.716V226.499V226.775V227.557V227.833V228.616V228.892V229.674H224.508Z" fill="#9E8F7A"/>
<path d="M226.429 246.055V245.272H239.095V246.055H226.429ZM209.924 245.272V246.055H222.59V245.272H209.924ZM209.924 244.214V244.997H222.59V244.214H209.924ZM239.095 244.997V244.214H226.429V244.997H239.095ZM209.924 243.156V243.938H222.59V243.156H209.924ZM239.095 243.938V243.156H226.429V243.938H239.095ZM239.095 242.881V242.098H226.429V242.881H239.095ZM209.924 242.098V242.881H222.59V242.098H209.924ZM209.924 241.04V241.822H222.59V241.04H209.924ZM239.095 241.822V241.04H226.429V241.822H239.095ZM209.924 239.982V240.764H222.59V239.982H209.924ZM239.095 240.764V239.981H226.429V240.764H239.095ZM210.832 238.923H209.925V239.616V239.705H222.59V238.923H210.832V238.923ZM239.095 239.706V238.923H226.429V239.706H239.095ZM226.429 237.865V238.648H239.095V237.865H241.014V237.083H228.349V237.865H226.429ZM209.924 238.647H211.111H222.59V237.865H224.509V237.082H211.843V237.865H210.548H209.924V238.647H209.924ZM241.014 236.807V236.024H228.349V236.807H241.014ZM211.844 236.024V236.807H224.51V236.024H211.844ZM211.844 234.966V235.749H224.51V234.966H211.844ZM241.014 235.748V234.966H228.349V235.748H241.014ZM211.844 233.908V234.69H224.51V233.908H211.844ZM241.014 234.69V233.908H228.349V234.69H241.014ZM241.014 233.632V232.849H228.349V233.632H241.014ZM211.844 232.849V233.632H224.51V232.849H211.844ZM211.844 231.792V232.574H224.51V231.792H211.844V231.792ZM241.014 232.574V231.792H228.349V232.574H241.014ZM241.014 231.516V230.733H228.349V231.516H241.014ZM211.844 230.733V231.516H224.51V230.733H211.844ZM220.671 229.675V228.893H208.005V229.675H211.845V230.458H224.511V229.675H220.671ZM224.51 229.675H228.349V230.458H241.014V229.675H237.175V228.893H224.51V229.618V229.675V229.675ZM237.175 228.617V227.834H224.51V228.617H237.175ZM208.005 227.834V228.617H220.67V227.834H208.005ZM237.175 227.559V226.776H224.51V227.559H237.175ZM208.005 226.776V227.559H220.67V226.776H208.005ZM237.175 226.5V225.718H224.51V226.5H237.175ZM208.005 225.718V226.5H220.67V225.718H208.005ZM208.005 224.66V225.442H220.67V224.66H208.005ZM237.175 225.442V224.66H224.51V225.442H237.175ZM237.175 224.384V223.601H224.51V224.384H237.175ZM208.005 223.601V224.384H220.67V223.601H208.005ZM237.175 223.326V222.544H224.51V223.326H237.175ZM208.005 222.544V223.326H220.67V222.544H208.005ZM224.51 221.485V222.268H237.175V221.485H240.31V220.703H227.644V221.485H224.51ZM223.806 221.485V220.703H211.14V221.485H208.005V222.268H220.671V221.485H223.806ZM240.31 220.427V219.645H227.644V220.427H240.31ZM211.14 219.645V220.427H223.805V219.645H211.14ZM211.14 218.586V219.369H223.805V218.586H211.14ZM240.31 219.369V218.586H227.644V219.369H240.31ZM211.14 217.528V218.311H223.805V217.528H211.14ZM240.31 218.31V217.528H227.644V218.31H240.31ZM240.31 217.252V216.47H227.644V217.252H240.31ZM211.14 216.47V217.252H223.805V216.47H211.14ZM211.14 215.412V216.194H223.805V215.412H211.14ZM240.31 216.194V215.411H227.644V216.194H240.31ZM211.14 214.353V215.136H223.805V214.353H211.14ZM240.31 215.136V214.353H227.644V215.136H240.31ZM211.14 213.295V214.077H223.805V213.295H211.14ZM240.31 214.077V213.295H227.644V214.077H240.31Z" fill="#66BB6A"/>
<path d="M152.233 148.089H144.364L145.785 142.908H144.364L145.833 137.551H153.182C153.5 137.693 153.813 137.843 154.114 138.016C154.165 138.046 154.215 138.078 154.264 138.109C154.24 138.163 154.215 138.217 154.191 138.273C153.144 137.822 151.974 137.591 150.924 137.575C150.647 137.571 150.581 137.979 150.816 138.053C151.86 138.381 152.896 138.749 153.833 139.288C154.825 140.847 155.864 142.192 157.483 142.653C157.934 142.782 158.409 142.745 158.827 142.567C159.257 142.797 159.678 143.026 160.092 143.254L160.873 146.104L161.418 148.088H152.233V148.089ZM159.949 137.551H159.531C159.716 137.706 159.903 137.859 160.079 138.025L159.949 137.551ZM2.48 208.805H44.5431V204.609H2.48V208.805ZM45.5393 199.904H3.47569V204.1H45.5388V199.904H45.5393ZM42.0631 195.269H0V199.464H42.0631V195.269ZM44.5431 194.829V190.633H38.1762H37.6448H2.48V194.829H41.6719H42.2494H44.5431ZM51.2734 232.23C50.891 234.383 49.1212 236.133 46.1796 236.639V239.567H43.3312V236.84C41.3838 236.754 39.4937 236.238 38.3897 235.606L39.2618 232.249C40.4823 232.908 42.198 233.511 44.0869 233.511C45.7435 233.511 46.8773 232.88 46.8773 231.732C46.8773 230.641 45.9472 229.952 43.7966 229.235C40.686 228.202 38.5641 226.767 38.5641 223.984C38.5641 221.458 40.3664 219.478 43.4764 218.875V216.149H46.3248V218.674C48.2723 218.76 49.5811 219.162 50.5399 219.621L49.697 222.864C48.9408 222.548 47.6038 221.888 45.5111 221.888C43.6216 221.888 43.0111 222.692 43.0111 223.495C43.0111 224.442 44.0284 225.045 46.4992 225.963C49.9581 227.169 51.3536 228.747 51.3536 231.33C51.3536 231.444 51.3455 231.557 51.3384 231.669C51.3709 231.614 51.3991 231.558 51.4479 231.512C53.4365 229.654 56.9046 228.078 56.9046 228.078L57.396 228.449L59.2736 225.847L58.7096 225.369C59.441 223.827 60.2617 222.302 61.1631 220.811C58.3364 214.523 51.9609 210.134 44.5442 210.134C43.7023 210.134 42.8757 210.196 42.0642 210.305V209.246H0V213.441H34.0358C33.8321 213.584 33.6312 213.73 33.4334 213.881H3.47623V218.076H29.4507C29.3369 218.244 29.2281 218.414 29.1203 218.586H2.48V222.781H27.1717C27.1262 222.926 27.0866 223.074 27.0449 223.221H0V227.416H26.3818C26.3764 227.563 26.3726 227.71 26.3705 227.857H3.47569V232.052H26.8169C26.8559 232.222 26.8922 232.393 26.936 232.561H2.48V236.756H28.6295C28.7123 236.905 28.7985 237.051 28.8857 237.197H0V241.392H32.3516C32.5201 241.542 32.6924 241.688 32.8663 241.832H3.47569V246.028H45.5388V246C51.0383 245.707 55.8862 242.999 59.0184 238.933L51.4652 232.528C51.3682 232.447 51.3113 232.341 51.2734 232.23Z" fill="#C58936"/>
<path d="M204.391 236.306L201.72 232.269L206.346 229.7L208.338 234.791L209.081 235.825C207.531 237.007 205.696 237.726 203.53 237.592L204.391 236.306ZM169.64 148.741C170.942 147.038 172.198 145.286 173.25 143.406C172.043 143.031 170.776 142.652 169.5 142.272C166.771 141.462 164.006 140.649 161.702 139.86C161.217 139.196 160.674 138.581 160.078 138.023C159.902 137.858 159.715 137.704 159.53 137.549C159.101 137.19 158.658 136.847 158.187 136.544C156.917 135.217 154.76 134.56 152.959 134.531C152.682 134.527 152.616 134.935 152.851 135.009C153.895 135.338 154.93 135.706 155.868 136.244C155.885 136.254 155.901 136.265 155.917 136.275C155.854 136.311 155.791 136.347 155.731 136.385C154.502 135.638 152.946 135.262 151.593 135.24C151.317 135.236 151.25 135.645 151.485 135.718C152.529 136.047 153.565 136.415 154.502 136.953C154.619 137.02 154.732 137.092 154.843 137.166C154.842 137.168 154.841 137.17 154.839 137.172C153.705 136.607 152.379 136.321 151.204 136.302C150.928 136.298 150.861 136.706 151.096 136.78C151.805 137.003 152.508 137.249 153.181 137.55C153.499 137.692 153.812 137.842 154.114 138.015C154.164 138.044 154.214 138.077 154.264 138.107C154.239 138.162 154.214 138.216 154.19 138.272C153.143 137.821 151.973 137.59 150.923 137.574C150.647 137.569 150.58 137.978 150.815 138.052C151.859 138.38 152.895 138.748 153.832 139.287C154.824 140.846 155.863 142.191 157.482 142.652C157.933 142.781 158.408 142.744 158.827 142.565C159.256 142.795 159.677 143.025 160.091 143.253C161.893 144.247 163.56 145.223 165.152 146.157C163.673 146.151 162.223 146.139 160.873 146.102L161.417 148.087H152.232C153.489 149.129 154.76 149.935 156.273 149.921C156.743 149.917 157.187 149.747 157.537 149.459C162.111 150.408 165.954 151.503 169.687 152.322C170.059 151.335 170.417 150.338 170.74 149.331C170.373 149.138 170.007 148.943 169.64 148.741ZM184.815 239.444L184.427 238.561L184.946 233.63H179.727L180.214 238.136L178.675 239.403C180.657 239.962 182.738 239.891 184.815 239.444ZM177.292 121.287C178.831 119.625 180.504 118.184 182.379 117.322L182.414 116.236L182.444 115.272L182.566 111.421L182.509 111.422C182.645 111.005 182.742 110.568 182.787 110.114L181.71 109.081C179.62 108.436 177.651 107.402 175.912 105.972C173.926 104.337 172.15 102.261 171.253 99.9279L171.161 110.3L171.157 110.736C170.909 113.211 172.754 115.41 174.269 115.558L175.87 115.714C176.168 115.743 176.462 115.744 176.753 115.733L176.622 119.866L176.577 121.29L177.292 121.287ZM95.6352 170.106C94.7051 172.151 95.5892 173.92 96.7918 175.757C96.8871 176.791 96.7896 177.84 96.6542 178.879C96.6239 179.113 97.0144 179.222 97.1239 178.981C97.5388 178.064 97.8129 176.955 97.8406 175.862C97.9002 175.865 97.9592 175.866 98.0177 175.866C98.0247 175.922 98.0334 175.978 98.0388 176.034C98.1342 177.068 98.0367 178.117 97.9012 179.156C97.8709 179.39 98.2615 179.499 98.3709 179.258C98.8352 178.232 99.1234 176.965 99.086 175.751C99.0882 175.75 99.0903 175.75 99.0925 175.749C99.1131 175.876 99.1304 176.003 99.1423 176.131C99.2377 177.165 99.1401 178.214 99.0047 179.253C98.9744 179.488 99.365 179.597 99.4744 179.356C100.01 178.173 100.313 176.671 100.151 175.299C100.21 175.263 100.267 175.223 100.326 175.183C100.328 175.201 100.331 175.22 100.333 175.238C100.428 176.272 100.331 177.321 100.195 178.36C100.165 178.594 100.556 178.704 100.665 178.462C101.377 176.889 101.676 174.75 101.017 173.105C100.79 171.533 100.266 170.009 99.4625 168.613C99.4684 168.61 99.4739 168.608 99.4798 168.606C97.9299 164.814 95.58 159.982 93.2766 155.21C93.2711 155.263 93.2646 155.316 93.2598 155.369C93.0664 157.369 92.3573 159.204 91.2771 160.755L91.0344 165.564C92.5154 167.13 94.048 168.647 95.6352 170.106ZM59.2721 225.846L57.3945 228.448L59.5685 230.093C60.0793 230.48 60.6996 230.7 61.3426 230.723L63.2105 230.791L64.0886 229.931L59.2721 225.846ZM78.5266 239.071L79.9881 237.921L80.0862 236.703H73.7367L74.0297 239.885L76.7649 239.735C77.4074 239.699 78.0228 239.467 78.5266 239.071ZM92.1546 113.388L93.1828 113.437L93.4499 107.925L93.49 107.098L94.7062 107.054C97.6103 106.95 99.8791 104.542 99.774 101.675L99.4581 93.0674L99.2864 88.3896L91.5122 88.6678L91.1259 91.4276L89.7082 92.2127L88.7732 97.9789L87.79 98.0142L87.7645 97.3253C87.7293 96.3669 86.9059 95.6106 85.9351 95.6454C84.9644 95.6802 84.1984 96.4931 84.2336 97.4516L84.278 98.6678C84.3024 99.3396 84.7146 99.9103 85.2927 100.181C85.3138 100.759 85.4108 101.315 85.5608 101.849L85.4584 103.967L85.3604 105.992L85.2385 108.51C87.849 109.617 90.1097 111.38 92.1546 113.388ZM89.2998 151.719C90.6655 152.373 92.0533 152.981 93.4515 153.566C99.4592 156.081 105.739 157.968 112.148 159.189C112.322 160.437 112.936 161.312 113.797 162.002C114.174 162.305 114.598 162.572 115.054 162.82C115.408 163.013 115.781 163.195 116.165 163.372C116.801 164.198 117.282 165.139 117.726 166.091C117.826 166.305 118.216 166.193 118.179 165.931C118.038 164.937 117.674 163.852 117.111 162.912C117.163 162.883 117.213 162.853 117.262 162.822C117.299 162.866 117.336 162.908 117.371 162.954C118.007 163.78 118.488 164.72 118.932 165.673C119.032 165.887 119.422 165.775 119.385 165.513C119.227 164.4 118.79 163.175 118.106 162.165C118.108 162.163 118.11 162.162 118.111 162.16C118.196 162.257 118.28 162.355 118.359 162.458C118.995 163.284 119.476 164.225 119.92 165.177C120.02 165.391 120.41 165.279 120.373 165.017C120.236 164.055 119.892 163.008 119.359 162.09C119.182 161.785 118.984 161.494 118.766 161.225C118.796 161.163 118.824 161.099 118.852 161.034C118.863 161.049 118.876 161.063 118.888 161.078C119.165 161.439 119.41 161.824 119.639 162.221C119.933 162.731 120.199 163.26 120.449 163.796C120.549 164.01 120.939 163.898 120.902 163.636C120.877 163.459 120.84 163.277 120.801 163.096C120.63 162.3 120.323 161.481 119.895 160.74C119.481 160.02 118.957 159.374 118.321 158.911C117.284 157.698 116.021 156.68 114.59 155.918C114.594 155.913 114.597 155.908 114.601 155.902C109.656 152.358 102.019 147.808 95.8914 143.821C94.3762 146.801 91.757 149.325 89.2998 151.719Z" fill="#C58936"/>
<path d="M171.256 99.9298L171.165 110.302C170.149 109.513 169.243 108.6 168.876 107.401C168.508 106.203 168.714 104.81 167.99 103.783C167.552 103.161 166.845 102.789 166.255 102.304C165.665 101.819 165.151 101.086 165.337 100.351C165.63 99.1954 167.446 98.752 167.424 97.5609C167.414 97.0453 167.032 96.6062 166.945 96.0976C166.759 95.0188 167.88 94.2064 168.852 93.6795C170.87 92.5852 172.905 91.4872 175.1 90.8015C177.295 90.1159 179.685 89.8613 181.901 90.479C184.348 91.1615 186.609 93.2506 186.541 95.7606C186.525 96.3431 186.388 96.9373 186.543 97.4994C186.787 98.3846 187.665 98.9243 188.251 99.6361C189.365 100.989 189.314 103.141 188.137 104.44C187.489 105.156 186.504 105.726 186.407 106.682C186.356 107.194 186.586 107.685 186.743 108.175C187.416 110.268 186.684 112.731 184.972 114.134C184.25 114.726 183.369 115.1 182.447 115.273L182.569 111.423L182.512 111.423C182.648 111.006 182.745 110.569 182.79 110.115L181.713 109.082C179.623 108.438 177.654 107.404 175.915 105.973C173.93 104.339 172.153 102.263 171.256 99.9298ZM85.2972 100.182C84.7192 99.9111 84.3069 99.3404 84.2825 98.6686L84.2381 97.4524C84.2029 96.4939 84.9683 95.6809 85.9397 95.6462C86.9104 95.6114 87.7338 96.3672 87.769 97.3261L87.7945 98.015L88.7777 97.9797L89.7127 92.2135L91.1304 91.4284L91.5167 88.6686L99.2909 88.3904L99.4627 93.0682C99.7693 92.9019 100.057 92.6992 100.294 92.4077C101.062 91.4647 101.401 90.1886 101.283 88.9916C100.951 85.6322 98.0255 83.3495 94.8759 82.5659C92.4539 81.9632 89.5968 81.9327 87.2772 82.9328C86.275 83.365 85.2722 84.0598 84.7051 85.0038C84.2663 85.7338 84.3817 86.4671 84.1964 87.2485C84.0301 87.9497 83.6216 88.5905 83.2067 89.1713C82.8118 89.7233 82.3849 90.2597 82.0864 90.8678C81.9986 91.0465 81.9304 91.2294 81.8784 91.4155C81.5869 92.4563 81.802 93.6025 82.0068 94.6487C82.6444 97.9107 83.8166 101.07 85.4629 103.967L85.5653 101.849C85.4153 101.316 85.3183 100.759 85.2972 100.182Z" fill="#9E8F7A"/>
<path d="M101.196 40.1575C101.235 40.288 101.16 40.426 101.027 40.4645C100.388 40.6528 99.7512 40.8491 99.1184 41.0529C99.0924 41.0614 99.0664 41.0652 99.041 41.0652C98.9359 41.0652 98.8373 40.9989 98.8031 40.8951C98.7604 40.7657 98.8324 40.6261 98.9635 40.5838C99.6006 40.3784 100.241 40.1811 100.886 39.9917C101.017 39.9522 101.156 40.027 101.196 40.1575ZM124.361 192.842C124.223 192.843 124.112 192.955 124.113 193.091C124.115 193.226 124.227 193.335 124.364 193.335C124.365 193.335 124.365 193.335 124.366 193.335C125.038 193.328 125.708 193.314 126.376 193.291C126.514 193.287 126.622 193.172 126.617 193.036C126.612 192.9 126.494 192.797 126.358 192.797C125.695 192.82 125.03 192.835 124.361 192.842ZM52.2557 81.3205C52.1306 81.2627 51.9821 81.3146 51.9225 81.4376C51.6338 82.0372 51.3527 82.6405 51.0785 83.2476C51.0227 83.3722 51.0791 83.5182 51.2053 83.5738C51.2384 83.5883 51.2725 83.5952 51.3066 83.5952C51.4025 83.5952 51.494 83.5407 51.5352 83.4487C51.8072 82.8454 52.0867 82.2458 52.3738 81.6505C52.4339 81.5264 52.3808 81.3788 52.2557 81.3205ZM120.695 36.7907C120.557 36.7955 120.449 36.9099 120.454 37.0458C120.459 37.179 120.57 37.2843 120.704 37.2843C120.707 37.2843 120.71 37.2843 120.713 37.2843C121.377 37.2613 122.043 37.2458 122.711 37.2383C122.849 37.2367 122.96 37.125 122.959 36.9886C122.957 36.8522 122.851 36.7645 122.706 36.7441C122.033 36.7516 121.363 36.7666 120.695 36.7907ZM95.6395 41.7359C95.0106 41.9696 94.3854 42.2108 93.7646 42.4595C93.6368 42.5109 93.575 42.6547 93.627 42.7815C93.6665 42.8778 93.7603 42.9355 93.8589 42.9355C93.8903 42.9355 93.9222 42.9297 93.9531 42.9174C94.5701 42.6697 95.191 42.4301 95.8161 42.198C95.945 42.1498 96.0106 42.0076 95.9618 41.8797C95.9131 41.7525 95.7695 41.6877 95.6395 41.7359ZM106.241 38.6156C105.585 38.76 104.932 38.9124 104.282 39.0729C104.148 39.106 104.067 39.2403 104.1 39.3724C104.128 39.4847 104.23 39.5596 104.342 39.5596C104.362 39.5596 104.383 39.5574 104.403 39.5521C105.049 39.3927 105.698 39.2413 106.35 39.0975C106.485 39.0681 106.57 38.9359 106.539 38.8028C106.509 38.6696 106.376 38.5862 106.241 38.6156ZM85.6036 46.281C85.0158 46.5982 84.4324 46.9228 83.8533 47.2539C83.7335 47.3224 83.6929 47.4732 83.7623 47.5914C83.8088 47.67 83.8928 47.7144 83.9789 47.7144C84.0212 47.7144 84.0645 47.7037 84.1041 47.6812C84.6794 47.3518 85.259 47.0298 85.843 46.7142C85.9644 46.649 86.0088 46.4987 85.9427 46.3794C85.8766 46.2596 85.7244 46.2152 85.6036 46.281ZM90.5392 43.8352C89.9303 44.1111 89.3257 44.3941 88.7255 44.6845C88.6015 44.7444 88.5505 44.8925 88.6107 45.015C88.654 45.1022 88.7428 45.153 88.8355 45.153C88.8723 45.153 88.9102 45.145 88.9454 45.1279C89.5419 44.8391 90.1426 44.5577 90.7472 44.2839C90.8729 44.2272 90.9281 44.0801 90.8702 43.9566C90.8133 43.833 90.6654 43.779 90.5392 43.8352ZM109.694 37.9352C109.559 37.9588 109.467 38.0871 109.492 38.2214C109.513 38.3412 109.619 38.4252 109.738 38.4252C109.752 38.4252 109.767 38.4241 109.782 38.4214C110.437 38.3075 111.095 38.2011 111.756 38.1032C111.893 38.0829 111.986 37.9572 111.966 37.8224C111.945 37.6876 111.82 37.5972 111.682 37.6149C111.016 37.7133 110.354 37.8202 109.694 37.9352ZM57.7179 71.8435C57.6025 71.7676 57.447 71.7991 57.3712 71.9131C57.0007 72.4666 56.6372 73.0245 56.2807 73.5871C56.2076 73.7027 56.2433 73.8551 56.3603 73.9273C56.4015 73.953 56.4475 73.9647 56.4925 73.9647C56.5759 73.9647 56.6572 73.9236 56.7049 73.8487C57.0592 73.2892 57.4199 72.7351 57.7883 72.1853C57.8652 72.0719 57.8333 71.9189 57.7179 71.8435ZM55.3657 154.525C55.2471 154.595 55.2075 154.747 55.278 154.864C55.6193 155.433 55.9681 155.998 56.3235 156.558C56.3712 156.632 56.4524 156.673 56.5358 156.673C56.5814 156.673 56.6274 156.661 56.6686 156.636C56.7856 156.563 56.8208 156.411 56.7477 156.295C56.3945 155.739 56.0483 155.177 55.7086 154.611C55.6382 154.495 55.4849 154.456 55.3657 154.525ZM60.9357 67.4134C60.8257 67.3305 60.6692 67.3513 60.5847 67.4594C60.1762 67.9857 59.7748 68.5168 59.3799 69.0538C59.2986 69.1639 59.3236 69.3185 59.4351 69.3987C59.4796 69.4308 59.531 69.4458 59.582 69.4458C59.6594 69.4458 59.7358 69.4105 59.7846 69.3442C60.1773 68.8109 60.5766 68.283 60.9823 67.76C61.0663 67.6514 61.0457 67.4963 60.9357 67.4134ZM58.3208 159.116C58.2071 159.193 58.1784 159.347 58.2569 159.46C58.6377 160.005 59.0256 160.544 59.4194 161.079C59.4687 161.146 59.5446 161.181 59.622 161.181C59.673 161.181 59.7244 161.165 59.7688 161.134C59.8804 161.053 59.9054 160.899 59.8236 160.789C59.4319 160.257 59.0467 159.721 58.6681 159.179C58.5901 159.067 58.434 159.039 58.3208 159.116ZM128.224 37.3662C128.356 37.3662 128.465 37.2651 128.473 37.1335C128.481 36.9977 128.376 36.8805 128.238 36.873C127.57 36.8345 126.9 36.8046 126.227 36.7832C126.225 36.7832 126.221 36.7832 126.219 36.7832C126.085 36.7832 125.973 36.8885 125.969 37.0217C125.965 37.1581 126.073 37.2726 126.21 37.2768C126.879 37.2988 127.545 37.3282 128.209 37.3662C128.214 37.3656 128.219 37.3662 128.224 37.3662ZM54.8197 76.4865C54.6994 76.4202 54.5466 76.4614 54.4789 76.5801C54.1479 77.1578 53.8251 77.7397 53.5092 78.3259C53.4442 78.4462 53.4908 78.596 53.6127 78.6602C53.6501 78.68 53.6902 78.6891 53.7303 78.6891C53.8197 78.6891 53.9063 78.6415 53.9513 78.558C54.2655 77.975 54.5867 77.3969 54.915 76.823C54.9822 76.7042 54.9399 76.5539 54.8197 76.4865ZM52.7433 149.745C52.6197 149.806 52.5699 149.954 52.6317 150.076C52.9318 150.668 53.2389 151.255 53.5537 151.838C53.5986 151.921 53.6853 151.968 53.7747 151.968C53.8142 151.968 53.8543 151.959 53.8922 151.939C54.0141 151.875 54.0602 151.725 53.9952 151.605C53.6826 151.026 53.3771 150.443 53.0786 149.855C53.0174 149.733 52.8673 149.684 52.7433 149.745ZM65.1676 167.641C65.0658 167.733 65.0588 167.889 65.1519 167.99C65.6059 168.478 66.0658 168.961 66.5317 169.437C66.581 169.487 66.646 169.512 66.7116 169.512C66.7738 169.512 66.8367 169.489 66.8854 169.443C66.9846 169.348 66.9873 169.192 66.8914 169.093C66.4282 168.62 65.9716 168.142 65.5208 167.656C65.4271 167.556 65.2684 167.549 65.1676 167.641ZM76.3022 52.1643C75.7637 52.5596 75.2312 52.9613 74.7036 53.3688C74.5947 53.4528 74.5757 53.6079 74.6608 53.7154C74.7101 53.7774 74.7838 53.8101 74.858 53.8101C74.9121 53.8101 74.9663 53.793 75.0124 53.7577C75.5362 53.3522 76.0655 52.9532 76.6007 52.5607C76.7117 52.4794 76.7345 52.3248 76.6522 52.2151C76.5698 52.1055 76.4133 52.0825 76.3022 52.1643ZM71.9814 55.5735C71.4727 56.004 70.9689 56.4415 70.4711 56.8849C70.3687 56.9758 70.3606 57.1325 70.4532 57.2336C70.5025 57.2876 70.5702 57.3149 70.639 57.3149C70.6986 57.3149 70.7588 57.2941 70.8064 57.2513C71.3016 56.8106 71.8016 56.3763 72.3075 55.9479C72.4121 55.8591 72.4246 55.7034 72.3346 55.5997C72.2447 55.497 72.0865 55.4847 71.9814 55.5735ZM68.262 59.2725C68.165 59.1751 68.0063 59.1746 67.9082 59.2703C67.4304 59.7351 66.9586 60.2063 66.4927 60.6829C66.3968 60.7807 66.3995 60.9374 66.4992 61.0321C66.548 61.0786 66.6102 61.1011 66.6731 61.1011C66.7386 61.1011 66.8042 61.076 66.8529 61.0257C67.3161 60.5518 67.7847 60.0844 68.2593 59.6223C68.3578 59.526 68.3589 59.3698 68.262 59.2725ZM61.5934 163.496C61.4856 163.581 61.4677 163.736 61.5538 163.842C61.9726 164.36 62.3973 164.872 62.8285 165.379C62.8778 165.437 62.9488 165.467 63.0203 165.467C63.0771 165.467 63.134 165.448 63.1812 165.409C63.2868 165.322 63.3009 165.165 63.2115 165.062C62.783 164.558 62.3604 164.049 61.9449 163.535C61.8588 163.427 61.7012 163.41 61.5934 163.496ZM80.8505 49.0617C80.286 49.4184 79.7264 49.7821 79.1722 50.1533C79.0579 50.2298 79.0276 50.3833 79.1051 50.4961C79.1533 50.5667 79.2324 50.6047 79.3125 50.6047C79.3608 50.6047 79.4095 50.5908 79.4523 50.5625C80.0032 50.194 80.5596 49.8324 81.1203 49.4778C81.2367 49.404 81.2703 49.2516 81.1961 49.1366C81.1214 49.0221 80.9659 48.9873 80.8505 49.0617ZM115.175 37.1736C115.037 37.1881 114.937 37.3095 114.952 37.4448C114.965 37.5715 115.074 37.6662 115.201 37.6662C115.209 37.6662 115.218 37.6657 115.227 37.6646C115.889 37.5956 116.552 37.5352 117.219 37.4828C117.357 37.4721 117.46 37.3528 117.449 37.2169C117.437 37.0811 117.32 36.9805 117.179 36.9907C116.508 37.0437 115.84 37.1046 115.175 37.1736ZM183.918 64.6108C183.813 64.6985 183.799 64.8547 183.888 64.959C184.318 65.4617 184.74 65.9704 185.156 66.4844C185.205 66.5453 185.278 66.5774 185.351 66.5774C185.406 66.5774 185.461 66.5598 185.508 66.5234C185.615 66.4384 185.634 66.2827 185.547 66.1763C185.128 65.6591 184.703 65.1472 184.271 64.6407C184.182 64.5364 184.024 64.5236 183.918 64.6108ZM187.335 68.8831C187.223 68.9634 187.199 69.118 187.28 69.2281C187.673 69.7592 188.058 70.2951 188.438 70.8359C188.486 70.9054 188.564 70.9423 188.643 70.9423C188.693 70.9423 188.742 70.9279 188.785 70.8985C188.899 70.8209 188.927 70.6674 188.849 70.5551C188.468 70.0101 188.079 69.4709 187.685 68.9366C187.602 68.827 187.446 68.8029 187.335 68.8831ZM190.44 73.3775C190.323 73.4497 190.288 73.6021 190.361 73.7176C190.715 74.2739 191.062 74.8349 191.402 75.4003C191.448 75.4778 191.532 75.5211 191.617 75.5211C191.66 75.5211 191.704 75.5099 191.744 75.4864C191.863 75.4168 191.902 75.265 191.831 75.1478C191.49 74.5787 191.141 74.0145 190.785 73.455C190.711 73.34 190.557 73.3058 190.44 73.3775ZM171.983 53.326C171.898 53.4335 171.918 53.5886 172.027 53.6726C172.553 54.078 173.073 54.4899 173.588 54.9081C173.635 54.9461 173.691 54.9643 173.747 54.9643C173.82 54.9643 173.891 54.9338 173.941 54.8739C174.028 54.7685 174.013 54.6129 173.906 54.5262C173.387 54.1053 172.863 53.6908 172.334 53.2832C172.225 53.1998 172.068 53.2175 171.983 53.326ZM176.225 56.8127C176.133 56.9143 176.141 57.0705 176.244 57.1614C176.74 57.6016 177.23 58.0482 177.715 58.5001C177.763 58.5451 177.825 58.5675 177.887 58.5675C177.954 58.5675 178.019 58.5413 178.068 58.49C178.163 58.391 178.159 58.2343 178.059 58.1407C177.571 57.6861 177.077 57.2363 176.578 56.7934C176.477 56.7036 176.317 56.7116 176.225 56.8127ZM180.21 60.5812C180.111 60.6764 180.108 60.8326 180.204 60.9305C180.668 61.4033 181.125 61.882 181.577 62.366C181.626 62.419 181.694 62.4457 181.761 62.4457C181.821 62.4457 181.883 62.4238 181.93 62.3805C182.032 62.2879 182.038 62.1318 181.944 62.0312C181.49 61.5445 181.03 61.0626 180.563 60.5866C180.467 60.4892 180.309 60.4866 180.21 60.5812ZM196.556 85.2281C196.589 85.2281 196.621 85.2222 196.653 85.2088C196.78 85.1564 196.84 85.012 196.787 84.8858C196.53 84.2755 196.264 83.6696 195.991 83.0678C195.934 82.9427 195.786 82.8876 195.66 82.9432C195.534 82.9994 195.478 83.1449 195.534 83.27C195.805 83.868 196.069 84.4702 196.326 85.0762C196.366 85.1709 196.459 85.2281 196.556 85.2281ZM197.65 141.656C197.42 142.278 197.184 142.895 196.939 143.508C196.888 143.635 196.952 143.779 197.08 143.829C197.111 143.841 197.141 143.846 197.172 143.846C197.272 143.846 197.366 143.786 197.405 143.69C197.652 143.071 197.89 142.45 198.12 141.825C198.167 141.696 198.1 141.555 197.97 141.508C197.839 141.463 197.696 141.528 197.65 141.656ZM193.22 78.0718C193.098 78.136 193.052 78.2858 193.117 78.4061C193.431 78.9843 193.737 79.5678 194.036 80.1545C194.08 80.2406 194.168 80.2904 194.259 80.2904C194.297 80.2904 194.336 80.2818 194.372 80.2642C194.495 80.2032 194.544 80.0545 194.483 79.9326C194.182 79.3416 193.874 78.7548 193.559 78.1729C193.493 78.0526 193.34 78.0082 193.22 78.0718ZM195.582 146.702C195.31 147.306 195.03 147.905 194.742 148.5C194.683 148.624 194.735 148.771 194.86 148.83C194.895 148.846 194.932 148.854 194.967 148.854C195.061 148.854 195.15 148.802 195.193 148.713C195.483 148.114 195.765 147.512 196.04 146.904C196.096 146.779 196.039 146.633 195.913 146.577C195.787 146.523 195.639 146.578 195.582 146.702ZM139.161 38.7504C139.278 38.7504 139.382 38.6696 139.406 38.5519C139.433 38.4182 139.345 38.2882 139.209 38.2615C138.553 38.1315 137.893 38.0101 137.23 37.8967C137.097 37.8727 136.964 37.9636 136.941 38.0978C136.917 38.2321 137.008 38.3599 137.145 38.3834C137.803 38.4963 138.458 38.6172 139.111 38.7461C139.128 38.7487 139.145 38.7504 139.161 38.7504ZM129.853 192.603C129.715 192.614 129.612 192.733 129.623 192.868C129.634 192.998 129.743 193.096 129.872 193.096C129.879 193.096 129.886 193.096 129.892 193.095C130.563 193.043 131.231 192.983 131.897 192.914C132.034 192.9 132.134 192.779 132.12 192.643C132.106 192.507 131.979 192.406 131.845 192.423C131.184 192.491 130.519 192.551 129.853 192.603ZM144.528 40.0046C144.638 40.0046 144.739 39.9329 144.77 39.8227C144.807 39.6912 144.728 39.5553 144.595 39.5189C143.948 39.344 143.299 39.1772 142.646 39.0178C142.509 38.9851 142.377 39.0664 142.344 39.1986C142.31 39.3307 142.392 39.4649 142.526 39.4975C143.175 39.6553 143.82 39.8217 144.462 39.9955C144.484 40.0019 144.507 40.0046 144.528 40.0046ZM142.671 190.546C142.026 190.705 141.376 190.856 140.724 190.999C140.589 191.028 140.504 191.16 140.534 191.293C140.56 191.409 140.663 191.487 140.778 191.487C140.796 191.487 140.814 191.485 140.832 191.481C141.488 191.337 142.141 191.185 142.792 191.026C142.925 190.993 143.007 190.859 142.974 190.726C142.94 190.593 142.805 190.513 142.671 190.546ZM133.717 37.87C133.84 37.87 133.948 37.7791 133.964 37.6544C133.981 37.5191 133.885 37.3956 133.747 37.3779C133.083 37.294 132.417 37.218 131.748 37.1501C131.613 37.1399 131.488 37.2346 131.474 37.371C131.46 37.5063 131.559 37.6277 131.697 37.6416C132.362 37.709 133.024 37.7839 133.684 37.8679C133.695 37.8695 133.706 37.87 133.717 37.87ZM135.317 191.988C135.18 192.008 135.086 192.133 135.107 192.268C135.125 192.391 135.232 192.479 135.353 192.479C135.366 192.479 135.378 192.478 135.391 192.476C136.056 192.379 136.718 192.272 137.378 192.158C137.514 192.135 137.605 192.007 137.581 191.872C137.557 191.737 137.419 191.644 137.291 191.672C136.636 191.785 135.978 191.891 135.317 191.988ZM163.153 47.1721C163.034 47.1047 162.881 47.1448 162.812 47.2625C162.743 47.3807 162.784 47.5315 162.903 47.5999C163.482 47.9294 164.057 48.2664 164.626 48.6103C164.666 48.6349 164.711 48.6466 164.756 48.6466C164.84 48.6466 164.922 48.6049 164.97 48.5284C165.042 48.4124 165.004 48.2599 164.887 48.1888C164.313 47.8428 163.736 47.5037 163.153 47.1721ZM167.506 50.1367C167.428 50.2496 167.459 50.4031 167.574 50.4796C168.127 50.8481 168.677 51.2235 169.219 51.6054C169.263 51.6364 169.314 51.6514 169.365 51.6514C169.443 51.6514 169.52 51.615 169.568 51.5477C169.648 51.4364 169.622 51.2824 169.51 51.2032C168.963 50.8187 168.411 50.4411 167.853 50.0704C167.739 49.995 167.584 50.0233 167.506 50.1367ZM158.257 44.6043C158.135 44.5454 157.984 44.5952 157.923 44.7182C157.862 44.8407 157.914 44.9888 158.038 45.0482C158.64 45.3375 159.237 45.6338 159.829 45.9376C159.867 45.9564 159.906 45.9655 159.945 45.9655C160.035 45.9655 160.122 45.9168 160.167 45.8323C160.231 45.7114 160.183 45.5622 160.06 45.4991C159.463 45.1937 158.862 44.8952 158.257 44.6043ZM147.97 40.5137C147.839 40.472 147.698 40.5432 147.655 40.6726C147.613 40.8026 147.684 40.9416 147.817 40.9833C148.454 41.1871 149.088 41.3979 149.719 41.6166C149.746 41.6262 149.774 41.6305 149.801 41.6305C149.904 41.6305 150.001 41.5669 150.038 41.4652C150.084 41.3369 150.015 41.1957 149.885 41.1508C149.25 40.9309 148.612 40.7186 147.97 40.5137ZM153.188 42.3809C153.061 42.3301 152.914 42.3911 152.862 42.5178C152.81 42.6446 152.872 42.7885 153.001 42.8393C153.622 43.0864 154.239 43.3404 154.851 43.603C154.884 43.6169 154.918 43.6234 154.951 43.6234C155.048 43.6234 155.14 43.5677 155.181 43.4747C155.235 43.3495 155.177 43.204 155.051 43.15C154.433 42.8853 153.812 42.6291 153.188 42.3809ZM64.4564 63.2164C64.3534 63.1266 64.1953 63.1362 64.1032 63.2384C63.6595 63.7352 63.2218 64.2369 62.79 64.745C62.7012 64.8493 62.7153 65.0055 62.8209 65.0932C62.868 65.1317 62.9249 65.151 62.9813 65.151C63.0528 65.151 63.1237 65.121 63.173 65.0627C63.6015 64.5584 64.0371 64.0588 64.478 63.5652C64.5696 63.463 64.5598 63.3068 64.4564 63.2164ZM202.182 109.458C202.229 110.112 202.268 110.77 202.299 111.429C202.305 111.561 202.415 111.665 202.548 111.665C202.552 111.665 202.556 111.665 202.56 111.665C202.698 111.659 202.805 111.544 202.798 111.407C202.768 110.744 202.729 110.082 202.681 109.422C202.671 109.286 202.542 109.182 202.414 109.194C202.276 109.204 202.172 109.322 202.182 109.458ZM118.863 192.709C118.728 192.697 118.606 192.805 118.598 192.941C118.59 193.077 118.695 193.195 118.833 193.202C119.501 193.241 120.171 193.272 120.844 193.294C120.847 193.294 120.85 193.294 120.853 193.294C120.987 193.294 121.098 193.189 121.103 193.056C121.107 192.92 120.999 192.805 120.861 192.8C120.193 192.778 119.526 192.748 118.863 192.709ZM198.499 90.3161C198.525 90.3161 198.553 90.3118 198.579 90.3033C198.71 90.2594 198.781 90.1193 198.736 89.9904C198.521 89.3614 198.299 88.7367 198.068 88.1152C198.021 87.9874 197.878 87.9216 197.748 87.9681C197.618 88.0152 197.551 88.1569 197.599 88.2848C197.828 88.902 198.049 89.5235 198.263 90.1482C198.297 90.2514 198.394 90.3161 198.499 90.3161ZM201.815 103.78C201.678 103.799 201.582 103.924 201.602 104.059C201.695 104.709 201.78 105.362 201.857 106.018C201.872 106.144 201.98 106.237 202.105 106.237C202.115 106.237 202.125 106.236 202.134 106.235C202.271 106.22 202.37 106.097 202.354 105.961C202.277 105.302 202.192 104.645 202.098 103.991C202.079 103.854 201.954 103.758 201.815 103.78ZM151.349 188.387C151.378 188.387 151.408 188.382 151.436 188.371C152.065 188.138 152.69 187.897 153.312 187.649C153.44 187.598 153.502 187.454 153.45 187.327C153.398 187.201 153.251 187.141 153.124 187.191C152.506 187.438 151.885 187.677 151.26 187.909C151.13 187.956 151.065 188.099 151.113 188.226C151.152 188.326 151.247 188.387 151.349 188.387ZM69.0252 171.534C68.9299 171.633 68.9342 171.789 69.035 171.884C69.1975 172.036 69.3649 172.184 69.529 172.335C69.4657 172.058 69.4072 171.782 69.347 171.505C69.2468 171.438 69.1108 171.445 69.0252 171.534ZM146.119 190.121C146.142 190.121 146.166 190.118 146.19 190.111C146.835 189.922 147.475 189.725 148.112 189.52C148.243 189.478 148.315 189.338 148.273 189.209C148.23 189.079 148.089 189.009 147.958 189.05C147.325 189.254 146.688 189.449 146.048 189.637C145.916 189.676 145.84 189.813 145.879 189.944C145.911 190.051 146.011 190.121 146.119 190.121ZM50.4675 144.798C50.3402 144.851 50.2795 144.996 50.3326 145.121C50.5899 145.732 50.8548 146.338 51.1273 146.94C51.169 147.032 51.26 147.086 51.3559 147.086C51.39 147.086 51.4247 147.08 51.4578 147.065C51.584 147.009 51.6403 146.863 51.584 146.738C51.3131 146.14 51.0498 145.537 50.7941 144.931C50.7416 144.805 50.5948 144.748 50.4675 144.798ZM115.324 192.92C115.332 192.921 115.341 192.922 115.35 192.922C115.476 192.922 115.585 192.827 115.598 192.7C115.612 192.565 115.513 192.443 115.375 192.429C114.814 192.372 114.255 192.306 113.697 192.237V192.734C114.237 192.8 114.779 192.865 115.324 192.92ZM201.529 128.103C201.543 128.105 201.556 128.106 201.571 128.106C201.69 128.106 201.796 128.02 201.816 127.899C201.926 127.246 202.027 126.592 202.12 125.934C202.139 125.799 202.043 125.674 201.907 125.656C201.774 125.64 201.643 125.731 201.625 125.866C201.533 126.519 201.432 127.17 201.323 127.819C201.3 127.953 201.392 128.08 201.529 128.103ZM200.423 133.439C200.442 133.444 200.462 133.446 200.481 133.446C200.594 133.446 200.697 133.37 200.724 133.256C200.879 132.612 201.026 131.966 201.165 131.316C201.193 131.183 201.108 131.052 200.972 131.023C200.836 130.998 200.705 131.081 200.676 131.214C200.538 131.859 200.392 132.501 200.237 133.141C200.205 133.274 200.288 133.407 200.423 133.439ZM201.328 100.847C201.464 100.822 201.553 100.693 201.528 100.558C201.404 99.9059 201.272 99.2566 201.132 98.6095C201.103 98.4763 200.971 98.3896 200.835 98.4196C200.701 98.4479 200.614 98.579 200.643 98.7127C200.782 99.355 200.913 100.001 201.036 100.649C201.059 100.768 201.164 100.851 201.282 100.851C201.297 100.851 201.313 100.849 201.328 100.847ZM107.863 191.803C108.52 191.933 109.179 192.056 109.842 192.169C109.856 192.172 109.871 192.173 109.885 192.173C110.004 192.173 110.11 192.089 110.132 191.969C110.155 191.835 110.064 191.706 109.928 191.683C109.27 191.569 108.614 191.448 107.962 191.318C107.827 191.291 107.694 191.378 107.667 191.512C107.64 191.646 107.728 191.776 107.863 191.803ZM199.66 136.314C199.525 136.273 199.388 136.352 199.351 136.484C199.167 137.117 198.975 137.748 198.776 138.375C198.734 138.505 198.808 138.644 198.939 138.685C198.964 138.693 198.989 138.696 199.014 138.696C199.121 138.696 199.219 138.629 199.252 138.523C199.454 137.891 199.646 137.257 199.831 136.619C199.87 136.488 199.793 136.352 199.66 136.314ZM202.279 122.704C202.406 122.704 202.515 122.609 202.528 122.481C202.591 121.822 202.645 121.162 202.691 120.5C202.701 120.364 202.597 120.246 202.459 120.236C202.321 120.23 202.202 120.33 202.192 120.465C202.146 121.124 202.093 121.78 202.03 122.434C202.017 122.57 202.118 122.69 202.256 122.703C202.263 122.704 202.271 122.704 202.279 122.704ZM102.479 190.539C103.125 190.715 103.774 190.882 104.426 191.042C104.446 191.047 104.466 191.049 104.486 191.049C104.599 191.049 104.7 190.973 104.729 190.861C104.762 190.729 104.68 190.595 104.546 190.562C103.899 190.403 103.253 190.237 102.611 190.063C102.479 190.027 102.341 190.104 102.304 190.235C102.267 190.367 102.345 190.503 102.479 190.539ZM94.0761 187.211C93.4553 186.963 92.8383 186.708 92.2256 186.446C92.0994 186.391 91.952 186.449 91.8967 186.574C91.842 186.699 91.9 186.845 92.0268 186.899C92.6432 187.163 93.264 187.42 93.8887 187.669C93.9195 187.681 93.951 187.687 93.9824 187.687C94.0815 187.687 94.1747 187.628 94.2142 187.532C94.2662 187.407 94.2045 187.262 94.0761 187.211ZM97.191 188.901C97.8254 189.122 98.4635 189.336 99.1043 189.541C99.1298 189.549 99.1564 189.553 99.1813 189.553C99.2869 189.553 99.385 189.487 99.4191 189.382C99.4619 189.252 99.3898 189.113 99.2582 189.071C98.6206 188.867 97.9873 188.656 97.3568 188.436C97.2262 188.389 97.0837 188.457 97.0377 188.586C96.9927 188.715 97.061 188.856 97.191 188.901ZM200.079 95.5352C200.099 95.5352 200.121 95.5325 200.141 95.5271C200.275 95.4924 200.355 95.3576 200.32 95.226C200.151 94.5842 199.974 93.945 199.788 93.3091C199.749 93.1781 199.609 93.1027 199.478 93.1401C199.345 93.1781 199.269 93.3145 199.307 93.446C199.491 94.0777 199.668 94.7126 199.836 95.3501C199.866 95.4613 199.967 95.5352 200.079 95.5352ZM46.2458 131.59C46.2632 131.59 46.2805 131.588 46.2978 131.584C46.4327 131.556 46.5194 131.425 46.4907 131.292C46.352 130.649 46.222 130.003 46.1001 129.355C46.0747 129.22 45.9441 129.132 45.8087 129.157C45.6727 129.182 45.5833 129.311 45.6082 129.445C45.7312 130.097 45.8628 130.747 46.0015 131.394C46.0264 131.51 46.1305 131.59 46.2458 131.59ZM45.2892 126.226C45.3005 126.226 45.3125 126.225 45.3244 126.224C45.4609 126.205 45.5568 126.08 45.5373 125.945C45.4452 125.295 45.3607 124.642 45.2843 123.986C45.2686 123.851 45.1445 123.752 45.0075 123.769C44.8704 123.784 44.7718 123.907 44.7875 124.042C44.8645 124.701 44.949 125.359 45.0421 126.013C45.0595 126.136 45.1662 126.226 45.2892 126.226ZM45.6077 102.054C45.4696 102.028 45.3422 102.123 45.3206 102.257C45.2117 102.91 45.1115 103.565 45.0194 104.222C45.0004 104.357 45.0958 104.482 45.2328 104.5C45.2442 104.502 45.2561 104.503 45.2675 104.503C45.3905 104.503 45.4977 104.414 45.5151 104.29C45.6066 103.636 45.7063 102.985 45.8141 102.337C45.8363 102.203 45.7437 102.076 45.6077 102.054ZM44.703 109.921C44.8336 109.921 44.9435 109.821 44.9527 109.691C44.9977 109.033 45.0513 108.376 45.1136 107.722C45.1261 107.586 45.0253 107.466 44.8877 107.453C44.7518 107.44 44.6283 107.54 44.6153 107.676C44.553 108.334 44.4993 108.995 44.4538 109.657C44.4446 109.793 44.5486 109.911 44.6868 109.92C44.6916 109.921 44.6976 109.921 44.703 109.921ZM44.7133 120.809C44.7193 120.809 44.7252 120.809 44.7306 120.808C44.8682 120.799 44.9723 120.68 44.9625 120.545C44.9165 119.889 44.878 119.232 44.8482 118.573C44.8417 118.436 44.7231 118.326 44.5871 118.337C44.4489 118.343 44.3422 118.458 44.3482 118.595C44.378 119.258 44.417 119.92 44.463 120.578C44.4733 120.709 44.5833 120.809 44.7133 120.809ZM156.435 186.298C156.47 186.298 156.506 186.291 156.539 186.276C157.149 186.001 157.753 185.719 158.354 185.429C158.478 185.369 158.53 185.221 158.469 185.098C158.408 184.975 158.257 184.926 158.134 184.985C157.538 185.272 156.936 185.553 156.331 185.827C156.206 185.883 156.15 186.03 156.208 186.154C156.25 186.245 156.341 186.298 156.435 186.298ZM44.2918 113.131C44.2761 113.765 44.2686 114.401 44.2686 115.039V115.118C44.2686 115.254 44.3807 115.365 44.5188 115.365C44.657 115.365 44.7691 115.254 44.7691 115.118V115.039C44.7691 114.406 44.7767 113.773 44.7924 113.143C44.7957 113.006 44.6862 112.893 44.5481 112.89C44.4078 112.882 44.2951 112.994 44.2918 113.131ZM48.546 139.702C48.4149 139.746 48.3445 139.886 48.3884 140.015C48.6023 140.644 48.8244 141.269 49.0547 141.89C49.0915 141.99 49.1874 142.052 49.2898 142.052C49.3185 142.052 49.3472 142.048 49.3754 142.038C49.5054 141.99 49.572 141.849 49.5249 141.72C49.2963 141.103 49.0758 140.482 48.8629 139.857C48.819 139.728 48.6776 139.659 48.546 139.702ZM50.0411 86.3224C49.9128 86.2732 49.7676 86.3347 49.7172 86.462C49.4718 87.0797 49.2334 87.7018 49.0037 88.3275C48.9566 88.4554 49.0238 88.5976 49.1538 88.6442C49.182 88.6538 49.2107 88.6586 49.2389 88.6586C49.3412 88.6586 49.4371 88.5966 49.474 88.496C49.7026 87.8745 49.9382 87.2568 50.1825 86.6428C50.2329 86.5155 50.1695 86.3721 50.0411 86.3224ZM170.784 177.961C171.322 177.567 171.856 177.166 172.384 176.758C172.493 176.674 172.512 176.519 172.426 176.412C172.341 176.303 172.183 176.285 172.075 176.369C171.55 176.774 171.021 177.173 170.485 177.565C170.374 177.646 170.351 177.801 170.433 177.91C170.482 177.976 170.558 178.01 170.634 178.01C170.687 178.01 170.739 177.994 170.784 177.961ZM48.1868 91.4692C48.0541 91.4275 47.9143 91.5008 47.8732 91.6313C47.6727 92.263 47.481 92.8978 47.2962 93.5359C47.2583 93.6669 47.3352 93.8039 47.4685 93.8413C47.4913 93.8477 47.5146 93.8509 47.5373 93.8509C47.6462 93.8509 47.7464 93.7803 47.7778 93.6717C47.9609 93.038 48.1516 92.4068 48.3504 91.7794C48.3921 91.6484 48.319 91.5099 48.1868 91.4692ZM166.233 181.059C166.798 180.703 167.358 180.34 167.913 179.969C168.027 179.894 168.057 179.74 167.98 179.627C167.902 179.514 167.747 179.484 167.633 179.56C167.082 179.928 166.525 180.289 165.964 180.643C165.847 180.717 165.813 180.869 165.887 180.984C165.935 181.058 166.016 181.099 166.099 181.099C166.145 181.098 166.191 181.086 166.233 181.059ZM47.3412 136.695C47.3726 136.803 47.4728 136.874 47.5812 136.874C47.6039 136.874 47.6272 136.871 47.6505 136.864C47.7833 136.827 47.8596 136.69 47.8217 136.559C47.6381 135.927 47.462 135.292 47.2941 134.653C47.2594 134.521 47.1229 134.443 46.9891 134.476C46.8553 134.511 46.7751 134.646 46.8098 134.778C46.9793 135.42 47.1559 136.06 47.3412 136.695ZM161.357 183.866C161.398 183.866 161.439 183.856 161.477 183.836C162.065 183.519 162.649 183.195 163.228 182.864C163.348 182.796 163.389 182.645 163.32 182.527C163.25 182.409 163.096 182.368 162.978 182.437C162.402 182.766 161.822 183.088 161.238 183.402C161.116 183.467 161.071 183.617 161.137 183.737C161.183 183.819 161.269 183.866 161.357 183.866ZM202.857 117.026C202.873 116.366 202.881 115.704 202.881 115.039V114.884C202.881 114.748 202.769 114.637 202.631 114.637C202.493 114.637 202.381 114.748 202.381 114.884V115.039C202.381 115.699 202.373 116.358 202.356 117.014C202.353 117.15 202.462 117.264 202.6 117.268C202.602 117.268 202.604 117.268 202.606 117.268C202.742 117.268 202.853 117.161 202.857 117.026ZM46.709 96.7166C46.5752 96.684 46.4398 96.7669 46.4078 96.9001C46.2534 97.5435 46.1066 98.1901 45.9679 98.8394C45.9398 98.9726 46.0259 99.1042 46.1613 99.132C46.1787 99.1358 46.196 99.1374 46.2133 99.1374C46.3293 99.1374 46.4333 99.0577 46.4577 98.9411C46.5953 98.2955 46.741 97.6532 46.8943 97.0135C46.9268 96.8814 46.8434 96.7482 46.709 96.7166ZM179.728 233.633H184.947L187.374 210.592L201.721 232.272L206.347 229.703L196.422 204.347L195.6 203.559L195.313 203.283L190.996 199.144L199.213 182.499C201.794 177.272 202.374 171.299 200.845 165.683L200.69 165.114C194.21 170.006 180.835 169.808 172.488 168.603L175.592 195.4L177.682 214.726L177.729 215.162L179.728 233.633ZM173.808 132.079C175.819 125.153 180.868 119.908 187.124 116.495C186.579 116.2 185.993 115.989 185.365 115.898C184.371 115.756 183.374 115.924 182.415 116.239L182.38 117.324C180.505 118.187 178.832 119.628 177.293 121.289L176.578 121.293L176.623 119.869C175.69 120.694 174.761 121.605 173.88 122.548C172.601 125.583 172.662 129.112 173.808 132.079ZM80.7064 236.706C81.0661 231.344 81.4486 226.072 82.0336 220.835C82.0488 220.7 82.0645 220.565 82.0797 220.43C82.3424 218.122 82.6468 215.82 83.006 213.519C83.0531 213.479 83.103 213.435 83.1496 213.394C86.8116 210.214 89.011 205.704 89.2537 200.895L91.0349 165.567L91.2776 160.757C89.004 164.022 85.0797 166.025 80.8142 165.631C79.688 165.527 78.5541 165.365 77.4393 165.146C73.6716 164.408 70.6677 161.912 69.1748 158.649L68.3026 158.723C67.8708 162.937 68.4142 167.215 69.3465 171.503C69.4066 171.78 69.4651 172.056 69.5285 172.332C72.2046 184.043 77.5222 195.813 73.7296 206.602C71.2046 208.552 68.8541 210.787 66.7235 213.219C66.6298 213.326 66.5333 213.431 66.4407 213.538C64.4737 215.82 62.6996 218.267 61.1632 220.81C60.2618 222.302 59.4411 223.826 58.7098 225.368L59.2737 225.847L64.0907 229.931L64.5604 230.329C66.3584 228.52 68.6379 226.366 71.0773 224.128C71.2111 228.422 71.8628 232.694 72.9944 236.703H73.7382H80.0877H80.7064V236.706Z" fill="#DADADA"/>
<path d="M15.9741 156.233C10.6853 143.028 7.91113 128.823 7.91113 114.196C7.91113 92.8924 13.7866 72.4831 24.769 54.7604C24.8789 54.8353 24.9927 54.9059 25.1119 54.9706C14.4178 72.2371 8.24808 92.518 8.24808 114.196C8.24808 128.991 11.123 143.134 16.3468 156.114C16.219 156.149 16.0949 156.189 15.9741 156.233ZM123.575 0.332676C168.697 0.332676 207.842 26.053 226.779 63.4201C226.901 63.3618 227.027 63.3099 227.158 63.2618C221.65 52.3691 214.336 42.3075 205.363 33.4472C183.517 11.8784 154.471 0 123.576 0C92.6808 0 63.6348 11.8784 41.7893 33.4472C37.4832 37.6987 33.5644 42.2305 30.0378 46.9939C30.1494 47.0709 30.2555 47.1527 30.3574 47.2388C51.3475 18.8304 85.3118 0.332676 123.575 0.332676ZM20.1703 164.574C20.0565 164.644 19.9368 164.708 19.8133 164.768C24.4737 174.068 30.4506 182.764 37.6457 190.633H38.1771C31.0237 182.848 24.9434 174.085 20.1703 164.574ZM42.2503 194.828H41.6729C41.7119 194.867 41.7498 194.907 41.7888 194.945C49.2385 202.301 57.5285 208.524 66.4409 213.538C66.5336 213.431 66.63 213.326 66.7237 213.219C57.7468 208.175 49.5208 201.977 42.2503 194.828ZM205.362 194.945C227.208 173.377 239.239 144.699 239.239 114.196C239.239 99.4293 236.412 85.0932 231.024 71.7814C230.908 71.8397 230.788 71.8926 230.664 71.9408C235.975 85.013 238.903 99.2726 238.903 114.196C238.903 150.23 221.858 182.403 195.314 203.282L195.601 203.557C198.989 200.885 202.251 198.017 205.362 194.945ZM93.9187 228.694C93.6592 230.131 93.5595 231.584 93.5969 233.032C94.7649 235.353 96.1939 237.568 97.3147 239.9C98.3137 241.979 99.266 244.079 100.194 246.189H103.415C103.13 245.656 102.844 245.123 102.56 244.59C99.733 239.262 96.9171 233.928 93.9187 228.694ZM112.227 228.604V212.003C111.874 217.53 111.744 223.061 112.227 228.604ZM112.227 246.043C112.227 246.093 112.233 246.142 112.242 246.189H110.394C108.92 239.915 107.752 233.574 106.801 227.195C106.223 227.112 105.646 227.03 105.071 226.939C106.024 233.404 107.202 239.83 108.684 246.189H108.171C106.125 239.558 104.069 232.931 101.809 226.373C101.183 226.256 100.559 226.135 99.9356 226.009C102.26 232.681 104.355 239.433 106.437 246.189H105.312C105.054 245.711 104.792 245.234 104.537 244.754C101.254 238.579 98.0027 232.388 94.4837 226.342C94.6321 225.849 94.8017 225.365 94.9843 224.885C90.5811 223.785 86.2571 222.435 82.0338 220.834C82.049 220.699 82.0647 220.564 82.0799 220.429C86.9505 222.29 91.9831 223.824 97.1457 225.024C96.7427 224.262 96.3369 223.5 95.929 222.74C96.4436 221.719 97.0314 220.733 97.6885 219.791C98.4161 221.723 99.1138 223.665 99.7958 225.613C100.42 225.743 101.047 225.864 101.675 225.983C100.776 223.387 99.8478 220.802 98.8695 218.233C99.1398 217.903 99.4242 217.585 99.7113 217.269C100.184 218.681 100.662 220.09 101.175 221.487C101.54 222.48 103.159 222.052 102.79 221.048C102.166 219.349 101.592 217.633 101.021 215.916C101.781 215.19 102.587 214.509 103.431 213.879C103.876 218.12 104.399 222.352 105.014 226.567C105.592 226.66 106.167 226.757 106.747 226.842C106.058 222.177 105.481 217.493 104.999 212.797C106.775 211.659 108.689 210.734 110.684 210.059C110.226 216.413 109.992 222.771 110.595 229.146C110.681 230.062 111.966 230.187 112.227 229.5V246.043ZM97.3727 225.454C96.6533 225.291 95.9361 225.121 95.221 224.944C96.1408 226.677 97.0488 228.416 97.8998 230.185C98.3619 231.146 99.8067 230.308 99.3462 229.35C98.7151 228.039 98.0504 226.743 97.3727 225.454ZM113.682 246.189H114.055C113.561 233.695 116.178 221.233 118.617 208.8C118.503 208.798 118.389 208.791 118.275 208.791C116.732 208.788 115.2 208.951 113.697 209.254V246.043C113.696 246.093 113.692 246.142 113.682 246.189ZM123.785 228.39C124.378 228.389 124.969 228.378 125.561 228.369C123.483 234.181 121.581 240.142 120.325 246.189H122.597C123.974 243.019 125.494 239.939 126.822 237.012C128.163 234.056 129.497 231.101 130.87 228.162C131.502 228.123 132.134 228.083 132.764 228.035C131.331 231.072 129.944 234.131 128.564 237.194C127.273 240.058 125.772 243.079 124.398 246.189H127.307C128.481 242.952 129.685 239.726 130.935 236.516C132.056 233.637 133.176 230.747 134.387 227.898C135.046 227.838 135.703 227.77 136.36 227.699C135.174 230.405 134.048 233.136 132.963 235.9C131.623 239.313 130.336 242.745 129.083 246.189H133.562C136.621 241.983 140.125 238.028 143.605 234.174C143.634 232.217 143.435 230.257 142.979 228.338C142.958 228.251 142.933 228.164 142.91 228.076C140.514 230.775 138.438 233.675 137.229 237.037C136.871 238.035 135.253 237.602 135.614 236.597C136.917 232.971 139.151 229.878 141.71 226.999C154.372 225.042 166.514 221.044 177.731 215.161L177.684 214.725C166.741 220.49 154.752 224.562 142.077 226.589C142.177 226.478 142.275 226.365 142.376 226.255C141.706 224.29 140.773 222.42 139.626 220.683C138.532 222.883 137.508 225.104 136.522 227.34C135.863 227.413 135.202 227.481 134.539 227.544C135.279 225.818 136.053 224.108 136.884 222.427C137.424 221.335 137.981 220.242 138.528 219.143C138.271 218.809 138.006 218.481 137.732 218.16C136.977 219.556 136.235 220.96 135.517 222.376C134.626 224.133 133.773 225.906 132.93 227.685C132.3 227.736 131.667 227.777 131.035 227.817C132.176 225.381 133.341 222.956 134.571 220.559C135.21 219.314 135.876 218.083 136.549 216.857C136.177 216.473 135.793 216.1 135.398 215.739C134.187 217.669 132.974 219.597 131.685 221.479C131.085 222.357 129.634 221.528 130.239 220.644C131.585 218.677 132.851 216.659 134.117 214.642C133.316 213.996 132.481 213.392 131.613 212.838C130.312 215.844 129.081 218.88 127.927 221.946C127.171 223.955 126.415 225.986 125.679 228.035C125.088 228.046 124.497 228.056 123.903 228.058C124.689 225.853 125.498 223.667 126.311 221.507C127.52 218.297 128.809 215.121 130.173 211.977C128.831 211.234 127.424 210.615 125.975 210.119C124.287 215.06 122.802 220.059 121.9 225.221C121.717 226.269 120.103 225.822 120.284 224.781C121.19 219.602 122.681 214.585 124.378 209.628C123.03 209.265 121.653 209.01 120.258 208.886C117.806 221.288 115.182 233.738 115.71 246.19H118.618C119.85 240.151 121.723 234.2 123.785 228.39ZM203.532 237.593L197.648 246.024H201.53L209.924 239.616V238.923H210.831L211.139 238.688L211.11 238.648H209.924V237.865H210.548L209.082 235.826C207.532 237.007 205.698 237.727 203.532 237.593ZM175.033 246.247L175.2 246.189L186.112 242.389L184.817 239.445C182.74 239.892 180.659 239.963 178.676 239.405L170.435 246.189L170.364 246.247H175.033ZM200.692 165.113C200.928 164.935 201.156 164.751 201.373 164.559C196.995 154.524 193.062 149.539 193.002 144.882C192.943 140.28 192.412 138.711 192.481 134.109C192.549 129.507 192.786 123.934 190.449 119.952C189.637 118.567 188.517 117.247 187.124 116.493C180.868 119.906 175.819 125.151 173.808 132.077C172.662 129.111 172.601 125.582 173.881 122.546C171.983 124.579 170.313 126.748 169.342 128.456C165.31 135.55 167.508 138.456 169.501 142.273C170.778 142.652 172.045 143.031 173.252 143.407C172.2 145.287 170.943 147.039 169.642 148.742C170.008 148.944 170.375 149.139 170.742 149.333C170.419 150.34 170.061 151.337 169.689 152.324C170.332 152.465 170.972 152.594 171.612 152.715C171.392 157.082 170.182 159.77 171.446 168.443C171.783 168.498 172.132 168.551 172.489 168.602C180.836 169.807 194.21 170.005 200.692 165.113ZM61.3449 230.724C60.7014 230.701 60.0817 230.481 59.5708 230.094L57.3969 228.449L56.9055 228.077C56.9055 228.077 53.4374 229.654 51.4488 231.512C51.4 231.558 51.3718 231.615 51.3393 231.669C51.2342 231.843 51.2115 232.044 51.2743 232.23C51.3123 232.342 51.3691 232.447 51.4672 232.53L59.0204 238.935L67.2779 245.937C67.5276 246.149 67.916 246.027 67.9962 245.712L68.2351 244.773C68.5726 243.446 68.2703 242.04 67.4166 240.961L65.4404 238.467C64.416 237.173 63.3049 235.557 63.4371 233.921L63.7128 230.81L63.2133 230.792L61.3449 230.724ZM72.226 246.796H93.0676C93.3873 246.796 93.5953 246.474 93.4728 246.189C93.4691 246.18 93.468 246.171 93.4636 246.163L93.0254 245.297C92.4057 244.074 91.248 243.201 89.8894 242.932L86.7436 242.311C85.113 241.989 83.2034 241.478 82.2235 240.151L80.38 237.614L79.9894 237.921L78.5278 239.071C78.0246 239.467 77.4086 239.699 76.7661 239.734L74.031 239.885L73.4129 239.919C73.4129 239.919 71.8224 243.345 71.5402 246.035C71.5347 246.087 71.5358 246.138 71.5412 246.188C71.5813 246.526 71.8663 246.796 72.226 246.796ZM77.4395 165.146C78.5538 165.364 79.6882 165.526 80.8144 165.631C85.0799 166.025 89.0042 164.022 91.2778 160.757C92.358 159.205 93.0671 157.371 93.2605 155.371C93.2654 155.318 93.2724 155.265 93.2773 155.212C93.3309 154.663 93.3948 154.115 93.4528 153.567C92.0552 152.982 90.6673 152.374 89.301 151.72C91.7583 149.326 94.3775 146.802 95.8922 143.823C95.5357 143.592 95.1879 143.363 94.8418 143.135C95.8998 136.673 97.325 130.279 99.2276 123.974C100.893 118.455 99.1853 112.385 94.6489 108.767C94.2632 108.459 93.8618 108.185 93.4517 107.926L93.1846 113.437L92.1565 113.389C90.1115 111.381 87.8509 109.618 85.2403 108.51L85.3622 105.992C83.3432 106.056 78.0164 108.186 76.4736 112.84C71.7536 127.078 68.8965 139.276 68.1593 153.357C68.0612 155.232 68.4361 157.033 69.175 158.649C70.6685 161.912 73.6718 164.407 77.4395 165.146Z" fill="#181E2D"/>
</svg>
