<svg width="271" height="250" viewBox="0 0 271 250" fill="none" xmlns="http://www.w3.org/2000/svg">
<path d="M163.865 72.7822L164.514 73.0062L152.625 94.4197L157.53 96.1138L151.976 94.1952M157.53 96.1138C158.155 95.4211 158.929 94.7948 159.765 94.1776C160.309 93.0513 160.64 91.8291 160.925 90.6022C160.989 90.326 161.479 90.3622 161.501 90.6782C161.586 91.8812 161.429 93.2439 161 94.4862C161.069 94.508 161.137 94.5309 161.203 94.5543C161.234 94.4942 161.268 94.4352 161.298 94.3734C161.841 93.247 162.173 92.0249 162.458 90.798C162.522 90.5218 163.012 90.558 163.034 90.874C163.128 92.2202 162.921 93.7663 162.367 95.1194C162.369 95.121 162.371 95.122 162.374 95.1236C162.45 94.989 162.523 94.8528 162.591 94.7129C163.135 93.5865 163.466 92.3644 163.751 91.1374C163.815 90.8613 164.305 90.8975 164.327 91.2135C164.436 92.7645 164.147 94.582 163.385 96.0622C163.436 96.1271 163.486 96.1958 163.535 96.2649C163.544 96.2447 163.556 96.2256 163.566 96.2053C164.109 95.079 164.441 93.8568 164.726 92.6299C164.79 92.3537 165.279 92.3899 165.302 92.7059C165.43 94.5357 165 96.731 163.897 98.3102L168.326 99.8399L180.216 78.4264L179.566 78.2024L172.184 75.6527L164.516 73.0041L152.626 94.4176L157.53 96.1138ZM271 247.932C271 249.074 270.056 250 268.891 250H2.10893C0.944055 250 0 249.074 0 247.932C0 246.789 0.944055 245.864 2.10893 245.864H41.4489H44.6917H46.5923H47.6742H49.412H49.909H51.6219H55.2505H56.9086H59.7733H61.4823H63.715H65.5174H68.4466H69.8378V242.11V236.591V232.589V219.778V215.309V210.86V207.486V206.984V158.828V158.252V152.217H66.7842V149.45H79.4107L79.8225 147.708H97.6234L103.072 124.673H104.19L98.741 147.708L98.3292 149.45L104.19 124.673H106.505H129.525H141.817H142.935L141.055 132.62L139.521 139.104L137.073 149.45H139.668H149.378L149.789 147.708H167.591L173.04 124.673H174.157L168.708 147.708L168.297 149.45L174.158 124.673H211.784H212.902L208.678 142.529L208.586 142.919L207.041 149.45H209.148V152.217H204.584H204.012H198.993V159.924V160.729V207.925V208.408V222.079C198.473 221.947 197.946 221.84 197.415 221.762V209.416V208.945V152.216H163.69V186.603V187.13V223.361V223.737V245.864H183.528C183.539 245.888 183.551 245.912 183.562 245.938H185.673C185.66 245.913 185.646 245.888 185.633 245.864H186.868C186.882 245.888 186.895 245.913 186.908 245.938H187.6C187.592 245.913 187.585 245.888 187.577 245.864H188.706C188.714 245.888 188.721 245.913 188.729 245.938H189.048C189.042 245.913 189.037 245.888 189.031 245.864H190.144C190.15 245.888 190.155 245.913 190.161 245.938H192.508C192.507 245.913 192.507 245.888 192.506 245.864H193.583C193.584 245.888 193.584 245.913 193.585 245.938H195.434C195.439 245.913 195.446 245.889 195.451 245.864H196.561C196.556 245.888 196.55 245.912 196.544 245.938H197.984C198.311 245.186 198.651 244.446 198.993 243.712V245.864H199.188C199.178 245.889 199.166 245.912 199.155 245.938H201.062C201.071 245.913 201.08 245.889 201.089 245.864H202.245C202.236 245.888 202.227 245.912 202.218 245.938H205.068C205.085 245.912 205.106 245.889 205.124 245.864H268.892C270.056 245.864 271 246.789 271 247.932ZM108.221 152.216H108.027H106.718V199.861V234.406V237.698V245.863H149.718H162.111V224.11V223.74V152.216H139.698H108.221ZM71.4155 237.963V242.664V245.864H74.64H97.848H105.14V238.054V234.406V203.469V186.591V186.058V152.216H71.4155V208.038V208.524V215.848V220.328V221.04V229.171V233.12V237.963ZM197.414 232.515C197.506 232.453 197.581 232.359 197.607 232.212C197.953 230.245 198.433 228.316 198.992 226.408V222.804C198.41 224.529 197.871 226.266 197.414 228.026V232.515ZM197.414 242.308C197.882 240.563 198.417 238.832 198.992 237.118V233.814C198.439 235.348 197.909 236.899 197.414 238.462V242.308Z" fill="#0C0E13"/>
<path d="M140.373 106L146.159 103.835L156.073 100.126C155.938 98.4647 156.547 97.2058 157.53 96.1146C158.155 95.4218 158.93 94.7956 159.765 94.1784C160.309 93.052 160.64 91.8298 160.925 90.6029C160.989 90.3268 161.479 90.3629 161.501 90.679C161.586 91.882 161.429 93.2446 161.001 94.487C161.069 94.5088 161.137 94.5317 161.203 94.5551C161.234 94.495 161.268 94.4359 161.298 94.3742C161.842 93.2478 162.173 92.0256 162.458 90.7987C162.522 90.5226 163.012 90.5587 163.034 90.8748C163.128 92.2209 162.921 93.7671 162.367 95.1201C162.369 95.1217 162.372 95.1228 162.374 95.1244C162.45 94.9898 162.524 94.8536 162.591 94.7136C163.135 93.5873 163.467 92.3651 163.751 91.1382C163.815 90.862 164.305 90.8982 164.328 91.2142C164.437 92.7652 164.147 94.5827 163.386 96.063C163.437 96.1279 163.486 96.1965 163.535 96.2657C163.545 96.2455 163.556 96.2263 163.566 96.2061C164.109 95.0797 164.441 93.8575 164.726 92.6306C164.79 92.3545 165.28 92.3906 165.302 92.7067C165.431 94.5365 165 96.7318 163.897 98.3109C163.756 98.5131 163.606 98.7084 163.443 98.8882C162.526 100.563 161.292 102.063 159.799 103.305L159.805 103.311L147.698 114.032C145.165 116.275 141.318 115.92 139.269 113.609C138.794 113.073 138.415 112.431 138.173 111.692C137.582 109.895 137.923 107.896 140.373 106ZM101.967 238.227L105.14 238.055V234.407H102.176L101.967 238.227ZM109.517 235.869L109.851 234.407H106.719V237.699C107.006 237.576 107.286 237.432 107.547 237.249L109.517 235.869ZM129.194 238.046C129.969 238.004 130.702 237.725 131.292 237.25L133.005 235.869L133.066 234.407H125.391L125.895 238.227L129.194 238.046ZM122.38 81.8116L123.559 82.2037L126.055 74.9894L127.482 75.3364C127.964 75.4534 128.445 75.5071 128.92 75.5146C131.812 75.5582 134.46 73.6556 135.186 70.7845L137.909 60.0177L139.104 55.294L129.978 53.0742L128.597 56.1331L126.685 56.5757L123.652 62.9243L122.497 62.6434L122.701 61.84C122.983 60.7221 122.282 59.5808 121.142 59.3036C120.003 59.0264 118.839 59.7139 118.556 60.8317L118.197 62.2497C117.999 63.0329 118.285 63.8267 118.866 64.3274C118.696 65.001 118.62 65.6751 118.614 66.3402L118.387 66.9957L116.554 72.2945L115.991 73.9211C118.651 76.0525 120.682 78.8262 122.38 81.8116ZM129.525 124.673H141.817H142.934L141.054 132.62C145.611 133.458 150.221 134.024 154.847 134.308C155.567 136.905 157.766 137.882 160.317 138.683C161.208 139.571 161.932 140.618 162.613 141.684C162.767 141.924 163.216 141.732 163.131 141.426C162.807 140.263 162.201 139.027 161.379 137.992C161.436 137.949 161.492 137.906 161.547 137.863C161.597 137.909 161.648 137.954 161.697 138.002C162.589 138.89 163.312 139.937 163.993 141.003C164.147 141.243 164.597 141.051 164.511 140.745C164.149 139.444 163.433 138.051 162.456 136.952C162.457 136.95 162.459 136.948 162.461 136.946C162.578 137.048 162.693 137.153 162.804 137.263C163.695 138.151 164.419 139.198 165.1 140.264C165.253 140.504 165.703 140.312 165.618 140.006C165.2 138.507 164.317 136.884 163.1 135.733C163.126 135.655 163.15 135.574 163.172 135.493C163.189 135.509 163.206 135.524 163.222 135.54C164.113 136.428 164.837 137.474 165.518 138.54C165.671 138.78 166.121 138.588 166.036 138.282C165.479 136.287 164.098 134.076 162.204 133.046C160.772 131.758 159.098 130.737 157.264 130.045C157.267 130.039 157.27 130.033 157.274 130.026C151.835 127.112 144.015 123.642 136.931 120.344C135.573 119.712 134.239 119.085 132.957 118.47C132.178 120.65 130.932 122.705 129.525 124.673Z" fill="#C58936"/>
<path d="M100.946 221.8C101.417 215.63 102.804 209.358 105.14 203.47V234.407H102.176H101.277C100.741 230.491 100.625 226.366 100.918 222.189C100.927 222.059 100.936 221.929 100.946 221.8ZM139.668 149.451C139.624 145.913 139.566 142.451 139.521 139.104L137.073 149.451H139.668ZM108.222 152.217C108.418 164.259 112.169 176.461 110.597 188.032C110.575 188.197 110.55 188.362 110.525 188.527C110.019 191.92 109.044 195.258 107.371 198.519C107.145 198.962 106.934 199.413 106.719 199.862V234.407H109.85H110.599C111.272 231.272 111.949 228.163 112.654 225.072C112.681 224.955 112.707 224.837 112.734 224.72C114.931 215.124 117.416 205.7 120.979 196.22C122.399 192.443 123.663 188.471 124.815 184.393C125.135 186.695 125.278 188.976 125.179 191.23C125.172 191.394 125.166 191.558 125.156 191.722C125.019 194.019 124.624 196.287 123.896 198.519C120.253 209.683 120.784 222.938 124.493 234.407H125.392H133.067H133.815C133.884 231.989 133.957 229.585 134.046 227.193C134.051 227.083 134.055 226.973 134.059 226.864C134.451 216.526 135.147 206.405 137.075 196.221C137.32 194.933 137.536 193.617 137.739 192.289C137.764 192.125 137.786 191.959 137.81 191.795C139.653 179.397 139.827 165.409 139.699 152.218H108.222V152.217Z" fill="#5B8DC9"/>
<path d="M118.614 66.3404L118.388 66.9959C117.587 63.3417 117.342 59.571 117.679 55.8481C117.797 54.5488 117.994 53.2261 118.606 52.0678C119.217 50.9095 120.314 49.9283 121.632 49.7517C122.27 46.6008 124.729 44.3837 127.988 44.0666C131.247 43.7495 134.468 44.8791 137.447 46.2145C138.174 46.5402 138.909 46.8839 139.701 46.986C139.789 46.9972 139.878 47.0052 139.968 47.0094C141.747 47.093 143.294 48.2108 143.734 49.9028C144.214 51.7496 144.111 53.7236 143.279 55.4533C142.238 57.6167 140.222 59.2773 137.909 60.0179L139.104 55.2942L129.978 53.0745L128.597 56.1333L126.685 56.576L123.652 62.9246L122.497 62.6436L122.701 61.8402C122.984 60.7224 122.282 59.5811 121.143 59.3039C120.003 59.0267 118.839 59.7141 118.556 60.832L118.198 62.2499C118 63.0331 118.286 63.827 118.866 64.3276C118.695 65.0012 118.62 65.6754 118.614 66.3404Z" fill="#9E8F7A"/>
<path d="M179.457 49.8083C180.016 50.1775 180.569 50.5532 181.117 50.9352C181.229 51.0139 181.256 51.1672 181.175 51.2778C181.126 51.3449 181.049 51.381 180.971 51.381C180.921 51.381 180.87 51.3661 180.826 51.3353C180.282 50.9554 179.731 50.5819 179.178 50.2153C179.063 50.1397 179.032 49.987 179.11 49.8742C179.188 49.762 179.343 49.7338 179.457 49.8083ZM183.595 53.0475C183.509 53.1544 183.529 53.3087 183.638 53.3923C184.165 53.7956 184.686 54.2052 185.202 54.6213C185.249 54.6591 185.305 54.6772 185.361 54.6772C185.433 54.6772 185.505 54.6469 185.555 54.5873C185.642 54.4825 185.627 54.3276 185.52 54.2414C185.001 53.8227 184.476 53.4103 183.946 53.0049C183.837 52.9219 183.68 52.9395 183.595 53.0475ZM187.842 56.5165C187.75 56.6176 187.758 56.773 187.861 56.8634C188.358 57.3013 188.849 57.7456 189.334 58.1952C189.383 58.2399 189.445 58.2622 189.507 58.2622C189.574 58.2622 189.639 58.2362 189.689 58.1851C189.783 58.0867 189.779 57.9308 189.679 57.8377C189.19 57.3854 188.696 56.9379 188.196 56.4979C188.094 56.4075 187.935 56.4154 187.842 56.5165ZM143.296 36.9562C143.161 36.9461 143.036 37.0403 143.022 37.176C143.008 37.3106 143.108 37.4314 143.245 37.4452C143.911 37.5122 144.575 37.5867 145.236 37.6703C145.246 37.6713 145.257 37.6724 145.268 37.6724C145.392 37.6724 145.5 37.5819 145.516 37.458C145.533 37.3239 145.437 37.2004 145.299 37.1829C144.634 37.0988 143.967 37.0233 143.296 36.9562ZM148.787 37.6979C148.654 37.674 148.521 37.7644 148.498 37.898C148.474 38.0315 148.565 38.1587 148.702 38.1821C149.361 38.2944 150.018 38.4146 150.671 38.5428C150.688 38.546 150.704 38.5476 150.721 38.5476C150.838 38.5476 150.942 38.4668 150.966 38.3502C150.994 38.2172 150.905 38.0879 150.77 38.0613C150.112 37.932 149.451 37.8107 148.787 37.6979ZM137.768 36.5902C137.765 36.5902 137.762 36.5902 137.76 36.5902C137.625 36.5902 137.513 36.695 137.509 36.8275C137.505 36.9631 137.613 37.077 137.751 37.0813C138.42 37.1031 139.088 37.1323 139.752 37.1701C139.757 37.1701 139.762 37.1706 139.767 37.1706C139.899 37.1706 140.009 37.0701 140.017 36.9392C140.025 36.8041 139.92 36.6875 139.782 36.6801C139.112 36.6412 138.441 36.6115 137.768 36.5902ZM174.75 46.9255C174.631 46.8585 174.477 46.8984 174.408 47.0155C174.339 47.133 174.38 47.2831 174.5 47.3512C175.08 47.6795 175.655 48.0141 176.225 48.3563C176.266 48.3807 176.311 48.3924 176.356 48.3924C176.44 48.3924 176.522 48.3509 176.569 48.2749C176.642 48.1594 176.604 48.0083 176.486 47.937C175.912 47.5927 175.334 47.2554 174.75 46.9255ZM166.636 42.9233C166.017 42.661 165.395 42.4062 164.769 42.1588C164.642 42.1082 164.495 42.1689 164.443 42.295C164.391 42.4211 164.454 42.5642 164.582 42.6147C165.204 42.8606 165.822 43.1133 166.436 43.3745C166.468 43.3884 166.502 43.3948 166.535 43.3948C166.632 43.3948 166.724 43.3394 166.765 43.2468C166.821 43.1223 166.762 42.9776 166.636 42.9233ZM191.833 60.2649C191.734 60.3596 191.731 60.515 191.827 60.6124C192.292 61.0827 192.75 61.5589 193.203 62.041C193.252 62.0936 193.319 62.1203 193.387 62.1203C193.447 62.1203 193.508 62.0984 193.556 62.0553C193.658 61.9633 193.664 61.8079 193.571 61.7079C193.115 61.2237 192.655 60.7443 192.187 60.2708C192.091 60.1734 191.933 60.1708 191.833 60.2649ZM214.515 116.416C214.532 115.76 214.54 115.101 214.54 114.44V114.286C214.54 114.15 214.428 114.04 214.289 114.04C214.151 114.04 214.039 114.15 214.039 114.286V114.44C214.039 115.096 214.031 115.751 214.014 116.404C214.01 116.54 214.12 116.653 214.258 116.656C214.26 116.656 214.262 116.656 214.264 116.656C214.4 116.656 214.512 116.55 214.515 116.416ZM209.914 89.6786C209.949 89.7807 210.046 89.8456 210.151 89.8456C210.177 89.8456 210.204 89.8414 210.231 89.8329C210.362 89.7892 210.433 89.6498 210.388 89.5216C210.173 88.8959 209.95 88.2744 209.719 87.6562C209.672 87.529 209.528 87.4636 209.398 87.5099C209.267 87.5567 209.201 87.6977 209.248 87.8248C209.478 88.4388 209.699 89.0566 209.914 89.6786ZM213.937 122.065C214.064 122.065 214.173 121.97 214.186 121.842C214.249 121.187 214.303 120.531 214.35 119.872C214.359 119.737 214.255 119.619 214.117 119.609C213.978 119.603 213.86 119.702 213.85 119.838C213.804 120.493 213.75 121.145 213.687 121.796C213.675 121.931 213.775 122.05 213.913 122.063C213.921 122.065 213.928 122.065 213.937 122.065ZM213.564 125.001C213.431 124.985 213.3 125.076 213.281 125.21C213.189 125.86 213.089 126.508 212.98 127.152C212.957 127.287 213.049 127.413 213.186 127.435C213.2 127.438 213.213 127.438 213.228 127.438C213.347 127.438 213.454 127.353 213.474 127.233C213.585 126.583 213.685 125.932 213.778 125.278C213.796 125.143 213.701 125.019 213.564 125.001ZM195.548 64.2735C195.442 64.3608 195.428 64.5161 195.517 64.6199C195.948 65.12 196.371 65.626 196.787 66.1373C196.836 66.198 196.909 66.2299 196.983 66.2299C197.038 66.2299 197.093 66.2124 197.14 66.1762C197.247 66.0916 197.265 65.9368 197.179 65.8309C196.759 65.3164 196.333 64.8072 195.901 64.3033C195.811 64.1996 195.653 64.1868 195.548 64.2735ZM212.491 97.9064C212.356 97.9346 212.269 98.065 212.298 98.198C212.437 98.837 212.569 99.4797 212.692 100.125C212.715 100.243 212.82 100.325 212.938 100.325C212.954 100.325 212.969 100.324 212.984 100.321C213.121 100.296 213.21 100.168 213.185 100.034C213.06 99.385 212.929 98.7391 212.789 98.0953C212.759 97.9628 212.627 97.8766 212.491 97.9064ZM198.969 68.5242C198.857 68.604 198.833 68.7578 198.914 68.8674C199.308 69.3952 199.694 69.9288 200.074 70.4668C200.122 70.5359 200.201 70.5726 200.28 70.5726C200.329 70.5726 200.379 70.5583 200.422 70.529C200.536 70.4519 200.564 70.2992 200.486 70.1874C200.104 69.6452 199.715 69.1089 199.32 68.5774C199.237 68.4678 199.08 68.4438 198.969 68.5242ZM203.258 75.1276C203.301 75.1276 203.345 75.1165 203.385 75.0931C203.504 75.0239 203.544 74.8733 203.473 74.7563C203.13 74.1901 202.781 73.6288 202.425 73.0723C202.35 72.9574 202.196 72.9233 202.079 72.9946C201.962 73.0664 201.927 73.2181 202 73.333C202.354 73.8863 202.701 74.4445 203.042 75.0069C203.089 75.0845 203.173 75.1276 203.258 75.1276ZM199.359 160.249C199.44 160.139 199.416 159.986 199.303 159.906C199.206 159.837 199.078 159.85 198.992 159.926V160.73C199.113 160.569 199.239 160.411 199.359 160.249ZM191.866 168.228C191.402 168.699 190.932 169.164 190.456 169.624C190.358 169.719 190.356 169.875 190.454 169.971C190.502 170.02 190.568 170.045 190.632 170.045C190.696 170.045 190.759 170.021 190.808 169.974C191.287 169.511 191.76 169.044 192.227 168.57C192.323 168.472 192.32 168.317 192.221 168.223C192.121 168.128 191.962 168.131 191.866 168.228ZM187.904 171.979C187.408 172.417 186.906 172.849 186.399 173.275C186.294 173.363 186.282 173.518 186.372 173.621C186.421 173.678 186.492 173.707 186.562 173.707C186.62 173.707 186.678 173.687 186.725 173.647C187.236 173.219 187.74 172.784 188.239 172.344C188.342 172.253 188.351 172.098 188.258 171.997C188.165 171.896 188.006 171.888 187.904 171.979ZM195.908 164.186C195.803 164.099 195.645 164.112 195.556 164.216C195.126 164.717 194.69 165.214 194.247 165.705C194.155 165.806 194.165 165.962 194.269 166.051C194.316 166.093 194.376 166.113 194.435 166.113C194.504 166.113 194.573 166.085 194.622 166.03C195.068 165.536 195.506 165.037 195.939 164.532C196.028 164.428 196.015 164.273 195.908 164.186ZM157.689 189.131C157.713 189.131 157.737 189.127 157.761 189.12C158.407 188.933 159.048 188.737 159.686 188.533C159.818 188.491 159.89 188.352 159.847 188.223C159.804 188.094 159.663 188.024 159.531 188.065C158.897 188.268 158.26 188.462 157.618 188.649C157.486 188.688 157.411 188.824 157.45 188.955C157.482 189.061 157.581 189.131 157.689 189.131ZM183.687 175.45C183.161 175.853 182.631 176.249 182.094 176.639C181.983 176.72 181.96 176.874 182.042 176.983C182.091 177.048 182.167 177.083 182.244 177.083C182.296 177.083 182.348 177.067 182.393 177.034C182.932 176.642 183.466 176.243 183.995 175.837C184.104 175.754 184.124 175.6 184.038 175.493C183.953 175.384 183.795 175.367 183.687 175.45ZM138.158 192.031C138.153 191.896 138.035 191.793 137.899 191.794C137.869 191.795 137.838 191.795 137.808 191.796C137.784 191.96 137.763 192.126 137.738 192.289C137.798 192.287 137.857 192.287 137.917 192.286C138.055 192.28 138.163 192.167 138.158 192.031ZM108.534 187.604C108.487 187.732 108.556 187.873 108.687 187.918C109.296 188.129 109.909 188.331 110.525 188.528C110.549 188.363 110.575 188.198 110.597 188.033C110.013 187.846 109.431 187.655 108.853 187.454C108.722 187.408 108.58 187.476 108.534 187.604ZM124.627 191.412C124.61 191.547 124.707 191.67 124.844 191.688C124.948 191.701 125.052 191.711 125.155 191.723C125.165 191.559 125.172 191.395 125.179 191.231C125.089 191.22 124.998 191.212 124.908 191.2C124.773 191.184 124.645 191.278 124.627 191.412ZM203.839 152.525C203.771 152.643 203.814 152.793 203.934 152.86C203.973 152.882 204.015 152.892 204.057 152.892C204.145 152.892 204.229 152.847 204.275 152.768C204.38 152.586 204.48 152.401 204.583 152.219H204.011C203.953 152.32 203.898 152.423 203.839 152.525ZM165.032 186.352C164.98 186.227 164.833 186.166 164.706 186.216C164.369 186.351 164.028 186.476 163.689 186.605V187.133C164.091 186.981 164.495 186.83 164.894 186.672C165.022 186.621 165.085 186.478 165.032 186.352ZM208.729 143.079C208.76 143.092 208.79 143.096 208.821 143.096C208.921 143.096 209.016 143.037 209.054 142.941C209.302 142.326 209.54 141.708 209.77 141.086C209.818 140.958 209.751 140.817 209.621 140.771C209.49 140.725 209.347 140.79 209.299 140.918C209.099 141.459 208.89 141.995 208.677 142.53L208.585 142.92C208.607 142.99 208.655 143.051 208.729 143.079ZM169.723 184.021C169.126 184.307 168.524 184.587 167.918 184.859C167.792 184.915 167.737 185.061 167.794 185.184C167.836 185.275 167.927 185.328 168.022 185.328C168.057 185.328 168.092 185.321 168.126 185.306C168.737 185.033 169.342 184.751 169.944 184.463C170.068 184.403 170.119 184.256 170.059 184.134C169.997 184.012 169.846 183.963 169.723 184.021ZM174.575 181.486C173.998 181.814 173.417 182.134 172.832 182.446C172.71 182.512 172.665 182.661 172.731 182.78C172.777 182.862 172.863 182.908 172.952 182.908C172.992 182.908 173.034 182.899 173.072 182.878C173.661 182.563 174.246 182.241 174.825 181.912C174.945 181.844 174.986 181.693 174.917 181.576C174.847 181.459 174.693 181.418 174.575 181.486ZM69.7556 158.287C69.6417 158.364 69.613 158.517 69.6916 158.629C69.7394 158.696 69.7887 158.762 69.8365 158.829V158.253C69.8088 158.26 69.7811 158.27 69.7556 158.287ZM179.236 178.625C178.684 178.99 178.127 179.35 177.565 179.702C177.448 179.775 177.414 179.927 177.488 180.041C177.536 180.115 177.617 180.155 177.7 180.155C177.746 180.155 177.792 180.143 177.835 180.117C178.401 179.762 178.961 179.401 179.517 179.033C179.632 178.957 179.662 178.804 179.584 178.691C179.506 178.579 179.351 178.549 179.236 178.625ZM95.6542 181.491C95.0748 181.162 94.4996 180.826 93.93 180.483C93.8117 180.412 93.6576 180.449 93.5854 180.565C93.5133 180.68 93.5502 180.831 93.6679 180.903C94.2419 181.248 94.8203 181.585 95.403 181.916C95.4426 181.938 95.4855 181.949 95.5283 181.949C95.6151 181.949 95.6992 181.905 95.7454 181.826C95.8154 181.709 95.7741 181.558 95.6542 181.491ZM89.3323 177.499C89.22 177.421 89.0637 177.447 88.9829 177.557C88.9026 177.667 88.9286 177.82 89.0415 177.899C89.5889 178.282 90.1418 178.658 90.699 179.028C90.7419 179.056 90.7912 179.07 90.839 179.07C90.9193 179.07 90.9985 179.032 91.0468 178.962C91.1244 178.849 91.0945 178.696 90.9795 178.621C90.4256 178.253 89.8765 177.88 89.3323 177.499ZM84.9587 174.209C84.8524 174.123 84.694 174.139 84.6061 174.242C84.5182 174.347 84.5334 174.502 84.6402 174.588C85.1589 175.007 85.683 175.421 86.2131 175.827C86.2592 175.862 86.3135 175.879 86.3672 175.879C86.4421 175.879 86.5153 175.847 86.5647 175.784C86.6499 175.678 86.6304 175.523 86.5218 175.439C85.9956 175.036 85.4742 174.626 84.9587 174.209ZM100.525 184.034C99.9225 183.746 99.3252 183.45 98.7316 183.147C98.6085 183.084 98.4571 183.13 98.3936 183.252C98.3296 183.372 98.3773 183.521 98.4999 183.583C99.0973 183.888 99.6985 184.185 100.304 184.475C100.339 184.492 100.377 184.5 100.414 184.5C100.506 184.5 100.595 184.449 100.639 184.362C100.7 184.24 100.649 184.093 100.525 184.034ZM202.042 155.481C201.687 156.037 201.325 156.588 200.955 157.135C200.879 157.248 200.911 157.401 201.026 157.475C201.068 157.503 201.116 157.516 201.164 157.516C201.246 157.516 201.325 157.477 201.373 157.407C201.745 156.856 202.109 156.302 202.467 155.742C202.54 155.628 202.505 155.476 202.388 155.404C202.271 155.331 202.115 155.366 202.042 155.481ZM212.331 130.531C212.193 131.173 212.046 131.811 211.892 132.448C211.859 132.58 211.943 132.712 212.077 132.743C212.097 132.748 212.116 132.75 212.135 132.75C212.249 132.75 212.352 132.675 212.379 132.562C212.535 131.921 212.682 131.278 212.821 130.632C212.849 130.499 212.764 130.369 212.628 130.341C212.492 130.316 212.36 130.398 212.331 130.531ZM211.004 135.772C210.82 136.402 210.628 137.03 210.428 137.654C210.386 137.783 210.46 137.921 210.592 137.961C210.617 137.969 210.642 137.973 210.667 137.973C210.774 137.973 210.872 137.906 210.905 137.801C211.107 137.172 211.3 136.541 211.485 135.907C211.523 135.777 211.446 135.64 211.313 135.603C211.178 135.563 211.042 135.642 211.004 135.772ZM146.908 191.476C146.92 191.476 146.933 191.475 146.945 191.474C147.611 191.377 148.274 191.271 148.935 191.157C149.071 191.134 149.162 191.007 149.138 190.873C149.115 190.739 148.976 190.646 148.848 190.674C148.192 190.786 147.533 190.891 146.871 190.989C146.734 191.008 146.639 191.133 146.66 191.267C146.679 191.389 146.786 191.476 146.908 191.476ZM141.418 192.09C141.425 192.09 141.432 192.09 141.438 192.089C142.11 192.038 142.779 191.978 143.446 191.909C143.583 191.895 143.684 191.774 143.669 191.639C143.655 191.505 143.529 191.404 143.394 191.421C142.732 191.488 142.066 191.548 141.399 191.6C141.261 191.611 141.158 191.729 141.169 191.864C141.179 191.992 141.289 192.09 141.418 192.09ZM103.384 185.602C103.329 185.727 103.387 185.872 103.514 185.926C104.052 186.155 104.595 186.376 105.139 186.594V186.061C104.662 185.868 104.185 185.676 103.713 185.475C103.587 185.421 103.439 185.478 103.384 185.602ZM152.341 190.489C152.359 190.489 152.377 190.487 152.395 190.484C153.052 190.341 153.707 190.189 154.358 190.031C154.492 189.998 154.574 189.865 154.54 189.733C154.506 189.601 154.371 189.521 154.236 189.554C153.59 189.712 152.939 189.862 152.286 190.004C152.151 190.034 152.066 190.165 152.096 190.297C152.122 190.412 152.226 190.489 152.341 190.489ZM80.8304 170.631C80.73 170.539 80.5716 170.542 80.4766 170.641C80.3812 170.739 80.3855 170.895 80.4864 170.988C80.9742 171.442 81.4679 171.888 81.9671 172.33C82.0148 172.373 82.075 172.393 82.1347 172.393C82.2031 172.393 82.2714 172.366 82.3208 172.313C82.413 172.212 82.4054 172.056 82.3024 171.966C81.8059 171.527 81.3154 171.082 80.8304 170.631ZM76.9674 166.783C76.8735 166.683 76.7145 166.676 76.6131 166.768C76.5111 166.859 76.504 167.015 76.5979 167.115C77.0525 167.601 77.5132 168.081 77.9798 168.554C78.0292 168.604 78.0943 168.629 78.1599 168.629C78.2223 168.629 78.2852 168.606 78.3341 168.56C78.4334 168.466 78.4361 168.31 78.34 168.212C77.8761 167.742 77.4188 167.266 76.9674 166.783ZM73.3854 162.683C73.2991 162.576 73.1412 162.559 73.0333 162.644C72.9253 162.728 72.9074 162.883 72.9936 162.989C73.4125 163.504 73.8384 164.013 74.2703 164.517C74.3197 164.575 74.3907 164.605 74.4624 164.605C74.5193 164.605 74.5763 164.586 74.6235 164.548C74.7293 164.46 74.7434 164.305 74.6539 164.202C74.2247 163.701 73.8015 163.194 73.3854 162.683ZM126.698 36.9791C126.56 36.9935 126.46 37.1143 126.475 37.2489C126.488 37.375 126.597 37.4686 126.724 37.4686C126.733 37.4686 126.741 37.4681 126.75 37.467C127.413 37.3984 128.078 37.3383 128.745 37.2861C128.883 37.2755 128.986 37.1568 128.976 37.0217C128.964 36.8865 128.847 36.7865 128.706 36.7966C128.033 36.8498 127.364 36.9105 126.698 36.9791ZM83.4374 55.2832C82.9279 55.7115 82.4233 56.1468 81.9247 56.5878C81.8222 56.6783 81.8141 56.8342 81.9068 56.9347C81.9562 56.9885 82.024 57.0156 82.0929 57.0156C82.1531 57.0156 82.2128 56.9949 82.2606 56.9523C82.7565 56.5139 83.2573 56.0818 83.764 55.6557C83.8687 55.5673 83.8812 55.4125 83.7911 55.3093C83.7011 55.2071 83.5426 55.1949 83.4374 55.2832ZM87.7649 51.8918C87.2255 52.285 86.6922 52.6846 86.1638 53.0906C86.0547 53.1741 86.0357 53.3284 86.1209 53.4353C86.1703 53.4971 86.2441 53.5295 86.3184 53.5295C86.3726 53.5295 86.4269 53.5125 86.473 53.4774C86.9977 53.0741 87.5277 52.6772 88.0638 52.2866C88.175 52.2057 88.1978 52.052 88.1153 51.9429C88.0329 51.8333 87.8761 51.8104 87.7649 51.8918ZM69.1523 71.4686C69.0368 71.3931 68.881 71.4245 68.8051 71.5378C68.434 72.0885 68.0699 72.6434 67.7129 73.2032C67.6397 73.3181 67.6749 73.4697 67.7927 73.5416C67.8339 73.5671 67.88 73.5788 67.9251 73.5788C68.0086 73.5788 68.09 73.5378 68.1377 73.4633C68.4926 72.9068 68.8539 72.3556 69.2229 71.8086C69.2994 71.6958 69.2679 71.5437 69.1523 71.4686ZM97.0806 46.0396C96.4919 46.3552 95.9076 46.6781 95.3276 47.0075C95.2077 47.0756 95.167 47.2256 95.2364 47.3432C95.2831 47.4214 95.3672 47.4656 95.4535 47.4656C95.4958 47.4656 95.5392 47.4549 95.5788 47.4326C96.155 47.1048 96.7355 46.7845 97.3204 46.4706C97.442 46.4057 97.4864 46.2562 97.4202 46.1375C97.3546 46.0178 97.2021 45.9737 97.0806 46.0396ZM67.7552 155.742C67.803 155.817 67.8844 155.857 67.9679 155.857C68.0135 155.857 68.0596 155.845 68.1008 155.82C68.218 155.748 68.2533 155.597 68.1801 155.481C67.8263 154.928 67.4796 154.369 67.1394 153.806C67.0694 153.69 66.9159 153.651 66.796 153.72C66.6772 153.79 66.6376 153.94 66.7081 154.057C67.0505 154.624 67.3993 155.185 67.7552 155.742ZM61.8902 144.044C61.7627 144.096 61.7019 144.24 61.7556 144.365C62.0133 144.972 62.2786 145.576 62.5515 146.175C62.5933 146.266 62.6845 146.32 62.7805 146.32C62.8147 146.32 62.8494 146.313 62.8825 146.299C63.0089 146.243 63.0653 146.098 63.0089 145.974C62.7376 145.379 62.474 144.779 62.2179 144.176C62.1652 144.051 62.0182 143.994 61.8902 144.044ZM64.17 148.964C64.0463 149.026 63.9964 149.173 64.0582 149.294C64.3588 149.883 64.6664 150.466 64.9817 151.046C65.0267 151.129 65.1135 151.176 65.203 151.176C65.2426 151.176 65.2828 151.167 65.3208 151.148C65.4428 151.084 65.489 150.935 65.4239 150.815C65.1108 150.239 64.8048 149.659 64.5058 149.075C64.4445 148.953 64.2942 148.904 64.17 148.964ZM132.227 36.5982C132.088 36.6029 131.98 36.7168 131.985 36.8525C131.99 36.985 132.101 37.0898 132.235 37.0898C132.238 37.0898 132.241 37.0898 132.244 37.0898C132.91 37.0669 133.576 37.0515 134.245 37.044C134.384 37.0424 134.495 36.9312 134.493 36.7955C134.492 36.6599 134.385 36.5726 134.24 36.5524C133.566 36.5593 132.896 36.5742 132.227 36.5982ZM121.209 37.7368C121.073 37.7602 120.981 37.8879 121.006 38.0214C121.027 38.1406 121.133 38.2241 121.252 38.2241C121.267 38.2241 121.281 38.2231 121.296 38.2204C121.952 38.1071 122.611 38.0012 123.273 37.9038C123.41 37.8836 123.504 37.7586 123.484 37.6245C123.463 37.4904 123.338 37.4005 123.199 37.4181C122.533 37.516 121.87 37.6224 121.209 37.7368ZM102.024 43.606C101.414 43.8805 100.809 44.162 100.207 44.4509C100.083 44.5105 100.032 44.6579 100.092 44.7797C100.136 44.8664 100.225 44.917 100.318 44.917C100.354 44.917 100.392 44.909 100.428 44.892C101.025 44.6047 101.627 44.3248 102.232 44.0524C102.358 43.996 102.413 43.8502 102.355 43.7268C102.298 43.6038 102.15 43.5501 102.024 43.606ZM117.75 38.4135C117.093 38.5572 116.439 38.7089 115.788 38.8685C115.654 38.9015 115.572 39.035 115.606 39.1664C115.634 39.2782 115.736 39.3527 115.848 39.3527C115.868 39.3527 115.889 39.35 115.909 39.3452C116.556 39.1866 117.206 39.0361 117.859 38.8929C117.994 38.8637 118.079 38.7323 118.049 38.5998C118.019 38.4678 117.886 38.3843 117.75 38.4135ZM61.4632 85.8722C61.3346 85.8232 61.1892 85.8844 61.1387 86.011C60.8929 86.6256 60.6548 87.2444 60.4242 87.8669C60.377 87.994 60.4442 88.1356 60.5745 88.1819C60.6027 88.1914 60.6314 88.1962 60.6596 88.1962C60.7622 88.1962 60.8582 88.1345 60.8951 88.0345C61.1241 87.4162 61.3601 86.8017 61.6048 86.1909C61.6552 86.0642 61.5918 85.9217 61.4632 85.8722ZM107.133 41.5176C106.503 41.7501 105.877 41.9901 105.255 42.2375C105.127 42.2886 105.065 42.4317 105.117 42.5578C105.157 42.6536 105.25 42.711 105.349 42.711C105.381 42.711 105.413 42.7052 105.444 42.693C106.062 42.4466 106.683 42.2082 107.309 41.9773C107.439 41.9294 107.504 41.7879 107.455 41.6607C107.407 41.5341 107.263 41.4697 107.133 41.5176ZM112.386 39.7826C111.741 39.9709 111.099 40.1672 110.461 40.3716C110.329 40.4136 110.257 40.5525 110.3 40.6812C110.335 40.785 110.433 40.8504 110.538 40.8504C110.564 40.8504 110.59 40.8467 110.616 40.8382C111.25 40.6355 111.887 40.4402 112.528 40.2529C112.66 40.2141 112.736 40.0773 112.697 39.9475C112.658 39.8177 112.518 39.7432 112.386 39.7826ZM92.3202 48.8053C91.7548 49.1602 91.1944 49.522 90.6393 49.8913C90.5248 49.9674 90.4945 50.1201 90.5721 50.2323C90.6203 50.3026 90.6996 50.3403 90.7799 50.3403C90.8281 50.3403 90.877 50.3265 90.9198 50.2983C91.4716 49.9317 92.0288 49.572 92.5904 49.2193C92.707 49.1464 92.7407 48.9942 92.6663 48.8798C92.5915 48.7659 92.4363 48.7319 92.3202 48.8053ZM57.6625 130.904C57.6799 130.904 57.6973 130.902 57.7146 130.899C57.8497 130.871 57.9365 130.74 57.9078 130.608C57.7689 129.968 57.6387 129.325 57.516 128.681C57.4905 128.547 57.3598 128.459 57.2241 128.484C57.088 128.509 56.9984 128.637 57.0234 128.77C57.1466 129.419 57.2784 130.065 57.4173 130.709C57.4428 130.825 57.5464 130.904 57.6625 130.904ZM57.0228 101.522C56.8845 101.496 56.757 101.59 56.7353 101.725C56.6262 102.374 56.5264 103.025 56.4336 103.679C56.4146 103.814 56.5101 103.938 56.6474 103.956C56.6588 103.958 56.6707 103.959 56.6821 103.959C56.8053 103.959 56.9127 103.87 56.9301 103.746C57.0218 103.096 57.1216 102.449 57.2296 101.804C57.2518 101.67 57.1596 101.544 57.0228 101.522ZM58.759 135.983C58.7905 136.091 58.8909 136.161 58.9994 136.161C59.0222 136.161 59.0455 136.158 59.0688 136.151C59.2018 136.114 59.2788 135.978 59.2403 135.847C59.0564 135.219 58.88 134.587 58.7118 133.952C58.6771 133.82 58.5404 133.743 58.4064 133.776C58.2724 133.81 58.1921 133.944 58.2268 134.076C58.3966 134.715 58.5735 135.351 58.759 135.983ZM56.7038 125.568C56.7152 125.568 56.7272 125.567 56.7391 125.565C56.8764 125.547 56.9719 125.422 56.9523 125.288C56.8601 124.641 56.7754 123.991 56.6989 123.339C56.6832 123.205 56.559 123.107 56.4217 123.123C56.2844 123.139 56.1857 123.26 56.2014 123.395C56.2785 124.051 56.3631 124.705 56.4564 125.356C56.4738 125.479 56.5807 125.568 56.7038 125.568ZM58.1259 96.2123C57.9919 96.1799 57.8562 96.2623 57.8242 96.3948C57.6696 97.0349 57.5226 97.6782 57.3837 98.3241C57.3554 98.4566 57.4417 98.5875 57.5773 98.6151C57.5947 98.6189 57.6121 98.6205 57.6294 98.6205C57.7455 98.6205 57.8497 98.5412 57.8741 98.4252C58.0119 97.783 58.1579 97.144 58.3114 96.5076C58.344 96.3762 58.261 96.2437 58.1259 96.2123ZM55.705 112.541C55.6898 113.172 55.6816 113.805 55.6816 114.44V114.518C55.6816 114.653 55.794 114.763 55.9323 114.763C56.0707 114.763 56.183 114.653 56.183 114.518V114.44C56.183 113.809 56.1906 113.18 56.2063 112.553C56.2096 112.417 56.1 112.305 55.9616 112.301C55.8211 112.293 55.7088 112.405 55.705 112.541ZM56.1276 120.179C56.1336 120.179 56.1396 120.179 56.145 120.179C56.2828 120.169 56.387 120.052 56.3772 119.916C56.3311 119.265 56.2926 118.611 56.2627 117.955C56.2562 117.819 56.1374 117.709 56.0012 117.72C55.8629 117.726 55.756 117.841 55.7619 117.976C55.7918 118.637 55.8308 119.294 55.877 119.95C55.8867 120.08 55.9969 120.179 56.1276 120.179ZM59.6065 90.9922C59.4736 90.9507 59.3336 91.0236 59.2924 91.1535C59.0916 91.7813 58.8996 92.4134 58.7146 93.0481C58.6766 93.1785 58.7536 93.3147 58.8871 93.3519C58.9099 93.3583 58.9332 93.3615 58.956 93.3615C59.065 93.3615 59.1654 93.2913 59.1969 93.1833C59.3803 92.5528 59.5713 91.9249 59.7704 91.3008C59.8122 91.1705 59.7384 91.0327 59.6065 90.9922ZM59.9662 138.974C59.8349 139.018 59.7644 139.157 59.8084 139.285C60.0227 139.911 60.2451 140.533 60.4757 141.151C60.5126 141.251 60.6086 141.312 60.7112 141.312C60.7399 141.312 60.7687 141.308 60.7969 141.297C60.9271 141.251 60.9938 141.11 60.9461 140.982C60.7171 140.368 60.4963 139.751 60.2831 139.129C60.2391 139 60.0975 138.931 59.9662 138.974ZM56.1168 109.348C56.2475 109.348 56.3577 109.249 56.3664 109.119C56.4114 108.464 56.4651 107.811 56.5275 107.161C56.54 107.025 56.4391 106.906 56.3013 106.893C56.1651 106.88 56.0414 106.98 56.0283 107.115C55.9659 107.769 55.9122 108.426 55.8661 109.086C55.8569 109.221 55.9611 109.338 56.0994 109.347C56.1054 109.348 56.1113 109.348 56.1168 109.348ZM69.2646 86.9709V82.0748H66.3636V86.9709H61.6314V82.0748H57.7591V56.2505H61.6314V50.3403H66.3636V56.2505H69.2646V50.3403H73.9968V56.533C75.8041 57.0146 77.4757 58.1122 78.5408 59.7707C78.8126 59.4998 79.0823 59.2274 79.3584 58.9603C79.4566 58.8651 79.6156 58.8661 79.7127 58.9624C79.8098 59.0593 79.8087 59.2146 79.7105 59.3099C79.404 59.6062 79.104 59.909 78.8023 60.2101C79.3747 61.262 79.7176 62.5118 79.7176 63.9575C79.7176 65.6659 79.2722 67.136 78.6238 68.3279C79.8391 69.7187 80.7707 71.5458 80.7707 73.8103C80.7707 78.3865 77.5262 81.339 73.9974 81.953V86.9704H69.2646V86.9709ZM64.0788 66.3422H71.4929C72.7083 66.3023 73.8021 65.2695 73.8021 63.8393C73.8021 62.4092 72.7083 61.2966 71.4929 61.2966H64.0788V66.3422ZM72.3844 76.8702C73.8021 76.8702 74.9773 75.6783 74.9773 74.129C74.9773 72.5003 73.7619 71.3878 72.3844 71.3878H64.0794V76.8702H65.5226C65.6517 76.6408 65.7771 76.4083 65.9084 76.1801C65.9762 76.062 66.1292 76.021 66.2496 76.087C66.3701 76.154 66.4124 76.3035 66.3446 76.4222C66.2594 76.5706 66.1786 76.7217 66.0939 76.8702H72.3844ZM217.708 110.961H214.417C214.376 111.029 214.305 111.079 214.217 111.083C214.213 111.083 214.21 111.083 214.206 111.083C214.115 111.083 214.036 111.033 213.993 110.961H212.976V106.065H210.075V110.961H205.342V106.065H201.47V80.2403H205.342V79.0963C205.15 78.7292 204.959 78.361 204.761 77.9976C204.696 77.8779 204.742 77.7289 204.864 77.6651C204.984 77.6017 205.137 77.6459 205.203 77.7662C205.25 77.8534 205.295 77.9423 205.342 78.0295V74.3306H210.074V80.2408H212.975V74.3306H217.707V80.5233C220.753 81.3353 223.428 83.8812 223.428 87.9483C223.428 89.6568 222.982 91.1268 222.334 92.3187C223.549 93.7095 224.481 95.5366 224.481 97.8011C224.481 102.377 221.236 105.33 217.707 105.944L217.708 110.961ZM207.79 85.2858V90.3314H215.204C216.419 90.2915 217.513 89.2588 217.513 87.8286C217.513 86.3984 216.419 85.2858 215.204 85.2858H207.79ZM216.095 100.86C217.513 100.86 218.688 99.6681 218.688 98.1187C218.688 96.4901 217.473 95.3775 216.095 95.3775H207.791V100.86H216.095ZM177.275 40.3694C177.275 44.9457 174.031 47.8981 170.502 48.5122V53.5295H165.77V48.6335H162.869V53.5295H158.137V48.6335H154.264V39.3356C154.207 39.3218 154.15 39.3053 154.092 39.2915C153.958 39.259 153.875 39.126 153.909 38.994C153.942 38.8626 154.075 38.7817 154.212 38.8142C154.23 38.8185 154.247 38.8232 154.264 38.8275V22.8086H158.137V16.8984H162.869V22.8086H165.77V16.8984H170.502V23.0911C173.547 23.9031 176.222 26.449 176.222 30.5161C176.222 32.2246 175.777 33.6947 175.128 34.8865C176.344 36.2773 177.275 38.105 177.275 40.3694ZM160.584 32.9003H167.998C169.213 32.8604 170.307 31.8277 170.307 30.3975C170.307 28.9673 169.213 27.8547 167.998 27.8547H160.584V32.9003ZM168.89 43.4288C170.307 43.4288 171.482 42.237 171.482 40.6876C171.482 39.0589 170.267 37.9464 168.89 37.9464H160.585V40.6466C160.877 40.7435 161.171 40.8366 161.462 40.9366C161.593 40.9813 161.661 41.1218 161.615 41.2495C161.579 41.3506 161.482 41.4139 161.378 41.4139C161.351 41.4139 161.322 41.4096 161.295 41.4C161.059 41.3186 160.821 41.2441 160.585 41.1649V43.4293L168.89 43.4288Z" fill="#C58936"/>
<path d="M27.344 155.42C22.047 142.283 19.2686 128.153 19.2686 113.601C19.2686 92.4086 25.1532 72.1055 36.1525 54.475C36.2626 54.5495 36.3766 54.6191 36.4959 54.6841C25.7852 71.8607 19.606 92.0361 19.606 113.601C19.606 128.319 22.4854 142.389 27.7173 155.301C27.5887 155.336 27.4645 155.376 27.344 155.42ZM135.112 0.330414C180.303 0.330414 219.509 25.9169 238.475 63.0896C238.597 63.0316 238.724 62.98 238.855 62.9327C233.338 52.0966 226.013 42.0874 217.026 33.2732C195.146 11.8166 166.055 0 135.112 0C104.169 0 75.0784 11.8166 53.1986 33.2732C48.8858 37.5026 44.9609 42.0108 41.4289 46.7494C41.5406 46.826 41.647 46.9074 41.749 46.9931C62.7721 18.7319 96.789 0.330414 135.112 0.330414ZM121.638 226.103C118.632 225.758 115.666 225.287 112.734 224.72C112.707 224.837 112.681 224.955 112.654 225.072C115.609 225.638 118.595 226.097 121.608 226.438C121.614 226.326 121.625 226.214 121.638 226.103ZM31.5467 163.717C31.4327 163.787 31.3128 163.851 31.1891 163.911C36.726 174.885 44.1113 185.019 53.1981 193.93C58.3654 198.998 63.9359 203.524 69.8373 207.486V206.984C53.6077 196.04 40.3524 181.146 31.5467 163.717ZM100.946 221.799C90.3765 218.582 80.4514 213.919 71.4156 208.039V208.524C80.5681 214.455 90.4861 219.045 100.918 222.188C100.927 222.059 100.935 221.929 100.946 221.799ZM197.414 208.945C187.163 215.409 175.806 220.327 163.689 223.362V223.738C175.646 220.776 187.009 215.951 197.414 209.416V208.945ZM217.025 193.93C238.904 172.474 250.955 143.945 250.955 113.602C250.955 98.9114 248.123 84.65 242.726 71.4074C242.611 71.4654 242.49 71.5181 242.366 71.5665C247.685 84.5707 250.618 98.7561 250.618 113.602C250.618 152.913 230.087 187.606 198.993 207.925V208.408C205.411 204.23 211.453 199.395 217.025 193.93ZM134.058 226.863C134.054 226.973 134.049 227.082 134.045 227.192C134.4 227.196 134.755 227.204 135.111 227.204C144.323 227.204 153.369 226.148 162.111 224.111V223.74C153.446 225.783 144.406 226.873 135.111 226.873C134.759 226.873 134.409 226.866 134.058 226.863ZM101.214 238.267C101.214 238.267 98.6847 242.381 97.8681 245.61C97.8459 245.698 97.8426 245.782 97.8475 245.864H105.14V238.054L101.966 238.226L101.214 238.267ZM149.107 244.724C148.301 243.254 146.861 242.207 145.206 241.885L141.375 241.139C139.389 240.753 137.057 240.139 135.81 238.546L133.462 235.5L133.004 235.869L131.291 237.25C130.702 237.726 129.968 238.004 129.193 238.046L125.894 238.227L125.149 238.268C125.149 238.268 123.993 240.966 123.44 243.707C122.791 242.777 121.791 242.127 120.595 241.885L116.903 241.14C114.989 240.753 112.771 240.139 111.822 238.547L110.042 235.501L109.515 235.87L107.545 237.251C107.284 237.434 107.004 237.578 106.717 237.7V245.865H149.717C149.706 245.831 149.696 245.797 149.677 245.764L149.107 244.724ZM129.524 124.673C130.932 122.705 132.178 120.65 132.957 118.47C134.239 119.085 135.573 119.711 136.931 120.344C136.516 117.064 136.176 113.779 135.917 110.49L139.191 113.717L139.268 113.611C138.792 113.075 138.414 112.433 138.171 111.694C137.581 109.895 137.924 107.896 140.373 106.001L146.159 103.836L135.803 81.547C135.643 80.8154 135.272 80.1375 134.705 79.615C132.935 77.9848 130.987 76.6153 128.92 75.516C128.445 75.5091 127.964 75.4548 127.483 75.3378L126.055 74.9909L123.559 82.2051L122.38 81.813C120.682 78.8276 118.651 76.0539 115.991 73.9225L116.554 72.296C114.017 72.2486 111.479 72.5503 109.023 73.2457C106.677 73.9097 104.986 76.2258 104.766 78.9383C103.524 94.2851 104.074 109.614 106.504 124.675H129.524V124.673ZM43.7331 244.082C40.901 238.782 38.0807 233.476 35.0782 228.269C34.8183 229.698 34.7185 231.144 34.7559 232.585C35.9257 234.893 37.357 237.097 38.4795 239.417C39.5104 241.547 40.493 243.7 41.4495 245.864H44.6924C44.3728 245.27 44.0505 244.677 43.7331 244.082ZM44.6039 213.531C43.7581 214.158 42.9518 214.836 42.1906 215.558C42.7625 217.266 43.3376 218.972 43.9626 220.663C44.3316 221.662 42.7099 222.088 42.3447 221.1C41.8304 219.71 41.3518 218.307 40.8787 216.903C40.5917 217.218 40.3063 217.535 40.0356 217.862C43.5628 227.06 46.4888 236.46 49.411 245.864H49.908C47.4019 235.232 45.7547 224.412 44.6039 213.531ZM38.8539 219.413C38.1958 220.349 37.6071 221.33 37.0916 222.346C38.2668 224.521 39.4366 226.7 40.5136 228.923C40.9747 229.875 39.5277 230.709 39.0649 229.753C38.1654 227.896 37.204 226.071 36.2301 224.252C36.0125 224.802 35.8155 225.362 35.6436 225.929C39.168 231.944 42.4245 238.102 45.7124 244.246C46.0021 244.787 46.3 245.324 46.5924 245.864H47.6743C44.9202 236.983 42.1494 228.109 38.8539 219.413ZM59.8141 208.479C59.6996 208.477 59.5856 208.471 59.4712 208.471C57.4773 208.466 55.5012 208.731 53.5844 209.225C53.101 215.715 52.8373 222.208 53.4569 228.719C53.5573 229.775 51.8786 229.765 51.7793 228.719C51.176 222.378 51.4103 216.053 51.8694 209.732C49.87 210.403 47.9542 211.323 46.1752 212.455C47.3363 223.7 49.0133 234.882 51.6219 245.864H55.2506C54.7205 233.371 57.3579 220.91 59.8141 208.479ZM78.1081 222.033C78.649 220.948 79.2068 219.861 79.7542 218.768C79.4965 218.435 79.2312 218.109 78.9572 217.789C78.2009 219.178 77.4576 220.575 76.7387 221.984C74.8668 225.653 73.1252 229.38 71.4156 233.121V237.964C71.6614 237.327 71.9018 236.687 72.1508 236.051C74.0015 231.332 75.844 226.58 78.1081 222.033ZM65.5169 245.864H68.4462C68.9036 244.611 69.3696 243.36 69.8373 242.11V236.591C69.8172 236.636 69.7966 236.681 69.7766 236.725C68.4565 239.634 66.9162 242.703 65.5169 245.864ZM67.52 221.118C68.259 219.168 69.0387 217.234 69.8368 215.309V210.86C68.9714 210.457 68.0865 210.097 67.1831 209.79C65.492 214.705 64.0048 219.679 63.1014 224.813C62.918 225.856 61.3018 225.411 61.4835 224.376C62.3901 219.224 63.8843 214.233 65.5831 209.301C64.2337 208.94 62.8546 208.687 61.4575 208.563C58.9894 220.965 56.3433 233.413 56.9081 245.865H59.7728C61.4938 237.395 64.498 229.093 67.52 221.118ZM75.3378 214.289C74.5359 213.647 73.6987 213.046 72.8295 212.495C72.345 213.607 71.8806 214.728 71.4156 215.848V220.328C71.4286 220.305 71.4373 220.282 71.4536 220.26C72.8019 218.303 74.0698 216.296 75.3378 214.289ZM77.7728 216.493C77.4001 216.111 77.0154 215.74 76.6199 215.381C75.4072 217.301 74.1919 219.219 72.9017 221.091C72.4948 221.681 71.701 221.494 71.4156 221.041V229.172C72.8214 226.15 74.2597 223.143 75.7919 220.177C76.4321 218.937 77.0989 217.713 77.7728 216.493ZM61.4819 245.864H63.7145C65.116 242.643 66.6747 239.514 68.0311 236.544C68.6334 235.225 69.234 233.906 69.8368 232.589V219.779C69.6051 220.372 69.3631 220.961 69.1374 221.556C66.1707 229.384 63.2023 237.544 61.4819 245.864ZM84.2135 227.915C84.1924 227.828 84.1669 227.741 84.1446 227.654C81.7449 230.338 79.6652 233.223 78.4548 236.568C78.0956 237.561 76.4755 237.131 76.8369 236.131C78.2551 232.211 80.7677 228.916 83.6091 225.842C82.9374 223.887 82.0031 222.027 80.8551 220.299C78.3739 225.251 76.2162 230.292 74.1821 235.438C73.2337 237.837 72.3184 240.249 71.4156 242.665V245.864H74.64C77.7359 241.609 81.3021 237.613 84.8402 233.72C84.8689 231.773 84.6693 229.824 84.2135 227.915ZM179.4 234.458C179.231 235.387 179.166 236.326 179.19 237.262C179.95 238.762 180.88 240.194 181.61 241.701C182.275 243.077 182.91 244.467 183.528 245.864C183.538 245.889 183.55 245.913 183.561 245.938H185.672C185.659 245.914 185.645 245.889 185.632 245.864C185.429 245.487 185.225 245.11 185.023 244.732C183.183 241.289 181.351 237.842 179.4 234.458ZM184.021 226.2C184.392 227.309 184.766 228.418 185.172 229.516C185.412 230.166 184.358 230.442 184.121 229.801C183.787 228.897 183.476 227.986 183.169 227.074C182.982 227.278 182.797 227.484 182.621 227.697C184.909 233.664 186.808 239.763 188.704 245.864C188.712 245.888 188.719 245.913 188.727 245.938H189.046C189.04 245.913 189.035 245.888 189.029 245.864C187.404 238.964 186.335 231.943 185.588 224.883C185.04 225.291 184.516 225.731 184.021 226.2ZM180.708 230.61C181.471 232.023 182.231 233.438 182.931 234.883C183.231 235.502 182.291 236.043 181.99 235.422C181.406 234.216 180.781 233.03 180.148 231.848C180.006 232.206 179.879 232.569 179.767 232.938C182.057 236.846 184.173 240.847 186.309 244.838C186.493 245.182 186.681 245.522 186.867 245.864C186.881 245.889 186.894 245.914 186.907 245.938H187.599C187.591 245.914 187.584 245.889 187.576 245.864C185.789 240.102 183.991 234.345 181.853 228.704C181.425 229.313 181.043 229.95 180.708 230.61ZM195.471 221.6C195.397 221.599 195.323 221.595 195.248 221.595C193.952 221.592 192.669 221.764 191.423 222.084C191.109 226.301 190.938 230.519 191.34 234.75C191.405 235.436 190.315 235.429 190.25 234.75C189.859 230.63 190.011 226.52 190.309 222.414C189.01 222.85 187.765 223.448 186.609 224.183C187.363 231.48 188.451 238.737 190.142 245.864C190.148 245.888 190.153 245.913 190.159 245.938H192.506C192.505 245.913 192.505 245.888 192.504 245.864C192.166 237.756 193.877 229.669 195.471 221.6ZM201.061 245.938C201.071 245.914 201.08 245.889 201.089 245.864C201.864 243.739 202.66 241.621 203.486 239.514C204.688 236.448 205.886 233.361 207.357 230.408C207.708 229.702 208.071 228.996 208.426 228.286C208.258 228.07 208.086 227.858 207.909 227.65C207.417 228.552 206.934 229.46 206.467 230.375C204.86 233.524 203.402 236.737 201.943 239.953C201.089 241.835 200.094 243.82 199.187 245.865C199.177 245.89 199.165 245.914 199.154 245.939L201.061 245.938ZM196.539 221.655C194.936 229.704 193.22 237.783 193.582 245.864C193.583 245.889 193.583 245.914 193.584 245.938H195.433C195.438 245.914 195.445 245.889 195.45 245.864C195.958 243.371 196.641 240.902 197.414 238.463C197.91 236.9 198.439 235.348 198.992 233.814C199.478 232.468 199.977 231.133 200.478 229.812C201.264 227.738 202.103 225.684 202.991 223.653C202.117 223.173 201.201 222.772 200.259 222.452C199.808 223.763 199.382 225.08 198.992 226.408C198.433 228.316 197.953 230.245 197.607 232.212C197.581 232.36 197.507 232.454 197.414 232.516C197.081 232.739 196.463 232.454 196.556 231.928C196.788 230.612 197.08 229.314 197.414 228.026C197.871 226.267 198.41 224.529 198.992 222.805C199.068 222.581 199.142 222.357 199.219 222.134C199.143 222.114 199.068 222.097 198.992 222.078C198.472 221.947 197.945 221.84 197.414 221.761C197.124 221.718 196.832 221.681 196.539 221.655ZM196.56 245.864C196.555 245.889 196.549 245.913 196.544 245.938H197.983C198.31 245.187 198.65 244.447 198.992 243.713C199.611 242.386 200.238 241.087 200.81 239.835C202.44 236.265 204.049 232.691 205.852 229.2C206.268 228.395 206.701 227.6 207.139 226.808C206.897 226.56 206.647 226.319 206.389 226.085C205.602 227.332 204.812 228.578 203.974 229.795C203.583 230.362 202.639 229.827 203.033 229.255C203.909 227.984 204.732 226.68 205.556 225.376C205.035 224.958 204.491 224.568 203.927 224.21C203.08 226.153 202.279 228.114 201.528 230.097C200.657 232.396 199.789 234.742 198.992 237.119C198.417 238.833 197.882 240.564 197.413 242.309C197.097 243.488 196.807 244.673 196.56 245.864ZM205.068 245.938C205.086 245.913 205.106 245.889 205.124 245.864C207.131 243.11 209.439 240.521 211.731 238C211.75 236.736 211.62 235.469 211.324 234.228C211.31 234.171 211.294 234.116 211.279 234.059C209.72 235.803 208.369 237.678 207.582 239.851C207.349 240.496 206.297 240.216 206.531 239.567C207.453 237.02 209.085 234.879 210.932 232.882C210.495 231.612 209.888 230.403 209.142 229.28C207.53 232.498 206.128 235.772 204.807 239.116C203.922 241.354 203.072 243.605 202.246 245.864C202.237 245.889 202.227 245.913 202.218 245.938H205.068Z" fill="#DADADA"/>
</svg>
