<svg width="250" height="220" viewBox="0 0 250 220" fill="none" xmlns="http://www.w3.org/2000/svg">
<path d="M219.343 143.176C218.503 147.049 210.662 154.054 205.064 154.311C194.565 154.796 186.166 154.311 186.586 154.796L186.988 164.54L187.005 164.963L172.338 165.301L166.008 165.447C166.008 165.447 166.098 165.116 166.264 164.54C166.803 162.676 168.162 158.21 169.999 153.793C172.227 148.437 175.157 143.157 178.187 142.691C184.486 141.723 202.124 143.659 202.124 143.659C202.124 143.659 203.384 145.595 198.765 145.595C194.146 145.595 191.206 146.08 191.206 146.08C191.206 146.08 200.866 149.953 204.225 149.953C207.584 149.953 220.183 139.302 219.343 143.176ZM144.398 88.8728C145.924 91.3519 148.264 93.0145 146.449 94.499C146.044 94.8298 145.455 95.1219 144.783 95.3507C146.277 103.56 147.677 109.993 141.124 110.741C139.07 110.976 136.413 110.624 133.553 109.802L133.669 113.22L130.11 118.564L123.877 127.924L119.032 118.564L113.616 108.1L112.982 110.002L114.829 97.9107C115.082 98.0522 115.334 98.2183 115.588 98.3464C115.618 98.3676 115.647 98.3802 115.685 98.3915C118.566 99.8366 121.482 100.467 124.102 100.258C125.495 100.156 126.799 99.8183 127.976 99.2425C127.196 99.1602 126.43 98.9201 125.718 98.5358C124.968 98.1402 124.28 97.5729 123.686 96.8493C122.321 95.1979 121.858 92.7934 123.099 90.8951C124.765 88.3526 128.074 88.178 130.289 89.7393C131.45 90.5537 132.352 91.7897 132.985 93.2052C134.224 89.2332 133.504 84.2651 131.143 79.5997C130.098 79.3766 140.149 77.8534 140.954 77.7604L141.072 77.7471C142.391 80.5141 143.289 83.6985 143.586 87.1567C143.606 87.4059 143.631 87.6543 143.658 87.8993C143.924 88.1907 144.176 88.5117 144.398 88.8728ZM140.275 88.4547C140.163 87.4059 139.616 86.6161 139.058 86.6879C138.496 86.7611 138.136 87.6677 138.248 88.7137C138.362 89.7632 138.91 90.5523 139.464 90.4833C140.026 90.4101 140.383 89.5007 140.275 88.4547ZM71.8119 90.7775C65.513 89.8097 47.8742 91.7454 47.8742 91.7454C47.8742 91.7454 46.6146 93.6818 51.2333 93.6818C55.8526 93.6818 58.7929 94.166 58.7929 94.166C58.7929 94.166 49.1337 98.0389 45.7739 98.0389C42.4148 98.0389 29.8152 87.3876 30.6553 91.2611C31.496 95.1339 39.3365 102.139 44.9345 102.397C55.4332 102.881 63.8329 102.397 63.4128 102.881L60.0885 125.605L60.7332 125.646L74.2241 126.511C74.2241 126.511 74.2528 126.255 74.2998 125.796C74.8108 120.85 77.5765 91.6637 71.8119 90.7775Z" fill="#C58936"/>
<path d="M70.3409 0L82.195 9.87278L66.555 34.8447L65.4457 34.0156L80.2529 10.3711L70.54 2.28343L55.3774 26.4924L54.2656 25.6611L70.3409 0ZM78.7211 10.6576L64.5238 33.3264L62.5481 31.8497L56.5179 26.8267L70.7878 4.05089L78.7211 10.6576ZM71.3465 19.1318C71.4643 17.6233 70.8764 16.1311 69.8092 15.2456C68.1394 13.8519 65.7937 14.289 64.5873 16.217C64.1929 16.8455 63.9542 17.5853 63.8931 18.354C63.7747 19.8659 64.3632 21.3525 65.428 22.2416C66.2381 22.9159 67.2297 23.1855 68.2157 23.0018C69.2023 22.8195 70.068 22.2014 70.6535 21.2695C71.0479 20.6395 71.2872 19.8997 71.3465 19.1318ZM69.1681 16.2704C67.9861 15.2864 66.3303 15.5961 65.4768 16.9589C65.1972 17.4016 65.0281 17.9225 64.9866 18.4673C64.9023 19.5351 65.3181 20.5902 66.0709 21.2118C66.6435 21.689 67.3432 21.8791 68.041 21.7531C68.7377 21.6221 69.3506 21.1878 69.7628 20.5262C70.043 20.082 70.2121 19.5611 70.2548 19.0184C70.3379 17.9506 69.9215 16.899 69.1681 16.2704ZM177.641 100.063C177.842 100.56 178.157 100.981 178.551 101.286C179.322 101.885 180.323 101.974 181.16 101.512C181.798 101.164 182.279 100.549 182.52 99.7837C182.757 99.0171 182.722 98.1886 182.418 97.4524C182.215 96.9554 181.9 96.5338 181.509 96.2283C180.737 95.6307 179.737 95.5448 178.897 96.0031C177.578 96.7231 177.017 98.5448 177.641 100.063ZM180.311 79.7601L167.096 86.9771L176.385 109.582C176.776 109.374 177.18 109.169 177.596 108.967L168.927 87.8766L179.754 81.9618L188.644 103.585C188.995 103.345 189.381 103.088 189.791 102.822L180.311 79.7601ZM179.234 83.6476L187.701 104.244C186.554 105.061 185.912 105.587 185.912 105.587C185.912 105.587 182.131 106.873 178.611 108.487L170.39 88.4777L179.234 83.6476ZM178.426 94.8613C176.562 95.8771 175.764 98.4575 176.648 100.605C176.936 101.307 177.382 101.904 177.937 102.335C179.03 103.184 180.443 103.306 181.632 102.659C182.535 102.164 183.217 101.294 183.552 100.208C183.889 99.1234 183.837 97.9507 183.411 96.9104C183.122 96.2093 182.676 95.611 182.121 95.1809C181.031 94.3355 179.613 94.2109 178.426 94.8613ZM136.336 118.563H142.549V122.334V160.278V220H107.994V118.563H110.126L112.983 110.002L113.617 108.1L119.033 118.563L123.878 127.924L130.111 118.563L133.67 113.22L133.863 112.929L136.336 118.563ZM134.695 210.716L127.63 142.306V141.908V137.683L126.556 135.425L124.089 130.234L119.873 137.516L119.777 137.683V141.908V142.306L113.491 210.716L124.089 218.164L134.695 210.716Z" fill="#6AB891"/>
<path d="M29.4386 40.424V75.7678H40.988V67.5379C40.988 63.7939 43.6201 60.7587 46.8669 60.7587C50.1143 60.7587 52.7463 63.7939 52.7463 67.5379V75.7678H64.2957V40.424L47.4542 27.8349L29.4386 40.424ZM39.8952 54.9488H33.5957V47.6861H39.8952V54.9488ZM53.1236 47.6861H59.4231V54.9488H53.1236V47.6861ZM65.9325 57.3695H81.0511V75.2842H65.9325V57.3695ZM28.1357 75.2842H13.0171V57.3695H28.1357V75.2842ZM229.938 102.289C223.58 96.7916 211.818 93.4932 202.441 96.6086C197.272 98.3261 192.782 100.877 189.79 102.823C189.379 103.089 188.994 103.346 188.642 103.586C188.297 103.822 187.984 104.041 187.699 104.244C186.553 105.062 185.91 105.588 185.91 105.588C185.91 105.588 182.13 106.874 178.61 108.488C178.267 108.645 177.928 108.805 177.595 108.968C177.178 109.17 176.773 109.375 176.384 109.583C174.481 110.596 172.977 111.652 172.717 112.552C171.922 115.3 172.4 117.865 172.4 117.865C172.4 117.865 170.651 118.049 170.651 119.515C170.651 120.982 170.334 125.013 172.4 125.379C174.467 125.746 174.467 125.746 174.467 125.746L180.282 125.624C180.236 125.273 180.188 124.922 180.188 124.555C180.188 120.558 182.999 117.317 186.466 117.317C189.933 117.317 192.744 120.558 192.744 124.555C192.744 124.833 192.7 125.097 192.673 125.365L215.504 124.888C215.498 124.775 215.475 124.669 215.475 124.554C215.475 120.557 218.286 117.316 221.753 117.316C225.219 117.316 228.031 120.557 228.031 124.554C228.031 124.578 228.024 124.602 228.024 124.626L235.818 124.463L235.978 121.714C235.978 121.714 237.886 122.998 237.886 119.149C237.886 115.3 236.297 107.786 229.938 102.289ZM209.364 107.603H193.098C194.613 103.172 201.192 99.7438 209.364 99.2454V107.603ZM211.956 107.603V99.1877C220.824 99.3278 228.137 102.899 229.743 107.603H211.956ZM23.7167 131.075V139.277C23.7167 139.785 23.3602 140.196 22.9187 140.196C22.4785 140.196 22.1208 139.785 22.1208 139.277V131.075C22.1208 130.567 22.4785 130.155 22.9187 130.155C23.3602 130.155 23.7167 130.567 23.7167 131.075ZM23.7167 155.671V163.872C23.7167 164.38 23.3602 164.792 22.9187 164.792C22.4785 164.792 22.1208 164.38 22.1208 163.872V155.671C22.1208 155.162 22.4785 154.751 22.9187 154.751C23.3602 154.751 23.7167 155.162 23.7167 155.671ZM15.8097 148.394H8.69763C8.25621 148.394 7.89844 147.982 7.89844 147.473C7.89844 146.965 8.25621 146.553 8.69763 146.553H15.8097C16.2511 146.553 16.6089 146.965 16.6089 147.473C16.6083 147.982 16.2511 148.394 15.8097 148.394ZM37.9415 147.473C37.9415 147.982 37.5831 148.395 37.1429 148.395H30.0302C29.5888 148.395 29.2316 147.983 29.2316 147.473C29.2316 146.966 29.5888 146.554 30.0302 146.554H37.1429C37.5831 146.554 37.9415 146.966 37.9415 147.473ZM18.4564 141.027C18.7684 141.387 18.7684 141.969 18.4582 142.329C18.145 142.687 17.6395 142.687 17.3281 142.329L12.2979 136.529C11.9859 136.17 11.9859 135.587 12.2979 135.228C12.6093 134.868 13.1148 134.868 13.4268 135.228L18.4564 141.027ZM33.5414 158.417C33.8528 158.778 33.8528 159.36 33.5414 159.72C33.23 160.079 32.7251 160.079 32.4131 159.72L27.3823 153.921C27.071 153.561 27.071 152.979 27.3823 152.62C27.6937 152.26 28.1998 152.26 28.5118 152.62L33.5414 158.417ZM18.4564 152.619C18.7684 152.978 18.7684 153.56 18.4564 153.92L13.4268 159.72C13.1148 160.079 12.6093 160.079 12.2979 159.72C11.9859 159.36 11.9859 158.778 12.2979 158.417L17.3281 152.619C17.6395 152.26 18.145 152.26 18.4564 152.619ZM27.3823 141.027L32.4131 135.228C32.7251 134.868 33.23 134.868 33.5414 135.228C33.8528 135.587 33.8528 136.17 33.5414 136.529L28.5118 142.329C28.1998 142.687 27.6937 142.687 27.3823 142.329C27.071 141.968 27.071 141.387 27.3823 141.027ZM201.349 34.5951V26.3933C201.349 25.8851 201.707 25.4727 202.146 25.4727C202.589 25.4727 202.946 25.8844 202.946 26.3933V34.5951C202.946 35.1033 202.589 35.5144 202.146 35.5144C201.707 35.5144 201.349 35.1033 201.349 34.5951ZM201.349 59.1905V50.9894C201.349 50.4798 201.707 50.0687 202.146 50.0687C202.589 50.0687 202.946 50.4798 202.946 50.9894V59.1905C202.946 59.698 202.589 60.1097 202.146 60.1097C201.707 60.1097 201.349 59.698 201.349 59.1905ZM187.126 42.7912C187.126 42.2837 187.484 41.8719 187.925 41.8719H195.037C195.479 41.8719 195.837 42.2837 195.837 42.7912C195.837 43.3001 195.479 43.7119 195.037 43.7119H187.925C187.484 43.7119 187.126 43.3001 187.126 42.7912ZM209.258 41.8719H216.371C216.811 41.8719 217.169 42.2837 217.169 42.7912C217.169 43.3001 216.811 43.7119 216.371 43.7119H209.258C208.817 43.7119 208.459 43.3008 208.459 42.7912C208.46 42.2837 208.817 41.8719 209.258 41.8719ZM191.525 31.8471C191.213 31.4874 191.213 30.9046 191.525 30.5456C191.837 30.1852 192.343 30.1852 192.655 30.5456L197.684 36.345C197.996 36.7054 197.996 37.2868 197.686 37.6465C197.373 38.0054 196.867 38.0054 196.556 37.6465L191.525 31.8471ZM206.611 49.2388C206.299 48.8792 206.299 48.297 206.611 47.938C206.922 47.5784 207.428 47.5784 207.74 47.938L212.77 53.7353C213.081 54.0964 213.081 54.6785 212.77 55.0382C212.458 55.3972 211.953 55.3972 211.641 55.0382L206.611 49.2388ZM197.684 47.938C197.996 48.297 197.996 48.8792 197.684 49.2388L192.655 55.0382C192.343 55.3972 191.837 55.3972 191.525 55.0382C191.213 54.6785 191.213 54.0964 191.525 53.7353L196.556 47.938C196.867 47.5784 197.374 47.5784 197.684 47.938ZM206.611 37.6458C206.299 37.2861 206.299 36.7054 206.611 36.3443L211.641 30.5449C211.953 30.1845 212.458 30.1845 212.77 30.5449C213.081 30.9039 213.081 31.4867 212.77 31.8464L207.74 37.6458C207.428 38.0047 206.921 38.0047 206.611 37.6458Z" fill="#DADADA"/>
<path d="M70.1319 42.8431L47.4537 25.8969L23.936 43.3281V38.0025L47.4537 20.5713L54.2642 25.6604L55.3759 26.4917L62.5466 31.8497L64.5223 33.3265L65.4442 34.0156L66.5536 34.8448L70.1313 37.5189V42.8431H70.1319ZM65.9326 47.6852V55.4322H86.0906L81.0512 47.6852H65.9326ZM7.97852 55.4322H28.1364V47.6852H13.0178L7.97852 55.4322ZM150.085 64.7257C149.747 60.8029 147.816 57.5193 145.122 55.6427C143.315 54.3827 141.166 53.7506 138.914 54.0082C134.768 54.482 131.778 58.0324 126.868 58.6187C125.744 58.7461 124.881 58.8285 124.205 58.8721C120.752 59.0946 122.078 58.371 118.163 58.8193C117.966 58.8405 117.769 58.863 117.583 58.8926L117.524 58.9003C102.658 62.084 102.222 73.5074 103.331 80.9208C104.197 86.7103 107.881 92.4027 109.9 94.3053C110.447 94.8149 111 95.2978 111.562 95.7497C112.626 96.5979 113.724 97.2983 114.831 97.91C115.084 98.0514 115.336 98.2176 115.59 98.3457C115.62 98.3668 115.649 98.3794 115.687 98.3907C118.568 99.8358 121.484 100.466 124.104 100.257C125.497 100.155 126.801 99.8175 127.978 99.2417C127.198 99.1594 126.432 98.9193 125.72 98.535C124.97 98.1394 124.282 97.5721 123.688 96.8485C122.323 95.1972 121.86 92.7927 123.101 90.8943C124.767 88.3518 128.076 88.1772 130.291 89.7385C131.452 90.5529 132.354 91.7889 132.987 93.2045C134.226 89.2324 133.506 84.2643 131.145 79.5989C130.1 79.3758 140.151 77.8526 140.956 77.7597L141.074 77.7463H141.081C144.167 77.3486 146.779 75.3735 148.392 72.5811C149.677 70.3582 150.331 67.6145 150.085 64.7257ZM127.628 141.907V137.682L126.555 135.425L124.088 130.233L119.872 137.516L119.775 137.682V141.907V142.306L113.489 210.715L124.088 218.163L134.694 210.715L127.628 142.306V141.907Z" fill="#9E8F7A"/>
<path d="M99.1296 118.563H107.995V220H99.1296H88.3629C88.7799 219.88 88.0021 200.496 87.1803 180.597C83.8834 187.491 80.5481 193.859 77.587 198.584C76.1406 204.458 71.8804 209.148 66.3099 210.22C58.6092 211.701 51.325 205.704 50.041 196.825C49.157 190.718 54.6878 150.584 60.7333 125.647L74.2242 126.511C74.2242 126.511 74.2529 126.255 74.2999 125.796C75.1601 134.221 75.7609 144.3 76.2164 154.037C78.5846 143.854 80.6079 135.446 80.915 132.609C81.8809 123.678 88.9435 117.339 96.6912 118.453C97.0764 118.508 97.4415 118.582 97.795 118.666C98.234 118.6 98.6791 118.563 99.1296 118.563ZM56.5175 26.8265L70.7875 4.05067L78.7208 10.6567L64.5235 33.3262L65.4454 34.0153L80.2526 10.3709L70.5396 2.2832L55.3771 26.4921L62.5478 31.8502L56.5175 26.8265ZM65.4276 22.2413C64.3629 21.3523 63.7743 19.8657 63.8928 18.3537C63.9538 17.5851 64.1919 16.8446 64.5869 16.2167C65.7934 14.2888 68.1384 13.8517 69.8088 15.2454C70.876 16.1309 71.464 17.6231 71.3461 19.1315C71.2869 19.8995 71.0476 20.6393 70.6538 21.2693C70.0683 22.2012 69.2026 22.8192 68.216 23.0015C67.2299 23.1853 66.2384 22.915 65.4276 22.2413ZM66.0711 21.2123C66.6438 21.6895 67.3435 21.8795 68.0413 21.7535C68.738 21.6226 69.3509 21.1883 69.763 20.5267C70.0433 20.0825 70.2124 19.5616 70.2551 19.0189C70.3382 17.9511 69.9212 16.8988 69.1684 16.2709C67.9864 15.2869 66.3306 15.5966 65.4771 16.9593C65.1975 17.4021 65.0284 17.923 64.9868 18.4678C64.9026 19.5349 65.3184 20.59 66.0711 21.2123ZM178.611 108.487L170.39 88.4775L179.233 83.6474L187.7 104.243C187.985 104.041 188.298 103.821 188.643 103.585L179.753 81.9616L168.926 87.8764L177.595 108.966C177.929 108.805 178.269 108.645 178.611 108.487ZM181.631 102.659C180.443 103.305 179.029 103.184 177.937 102.335C177.382 101.904 176.935 101.306 176.648 100.605C175.764 98.4573 176.562 95.8768 178.426 94.8611C179.612 94.2107 181.031 94.3353 182.12 95.1814C182.675 95.6115 183.122 96.2091 183.411 96.9109C183.837 97.9519 183.889 99.1239 183.552 100.209C183.217 101.294 182.534 102.165 181.631 102.659ZM182.418 97.4529C182.216 96.9559 181.901 96.5343 181.509 96.2288C180.737 95.6312 179.737 95.5453 178.897 96.0035C177.579 96.7229 177.017 98.5453 177.641 100.064C177.842 100.561 178.157 100.981 178.551 101.287C179.322 101.886 180.324 101.975 181.16 101.513C181.798 101.164 182.28 100.549 182.52 99.7841C182.757 99.0169 182.722 98.1891 182.418 97.4529ZM96.5898 84.483C96.5898 83.1456 95.6496 82.0616 94.4896 82.0616H2.09962C0.940216 82.0616 0 83.1456 0 84.483C0 85.8196 0.940216 86.9036 2.09962 86.9036H94.4896C95.6496 86.9036 96.5898 85.8204 96.5898 84.483ZM247.9 133.976H166.049C165.966 133.444 165.901 132.981 165.861 132.609C164.895 123.678 157.832 117.34 150.085 118.453C149.712 118.507 149.346 118.582 148.985 118.667C148.546 118.599 148.102 118.563 147.652 118.563H142.548V122.334V160.278V220H147.652H158.207C157.995 219.745 158.042 215.8 158.238 209.766C159.541 211.975 161.332 213.845 163.546 215.134C170.515 219.192 179.018 215.967 182.536 207.932C184.302 203.901 186.386 183.941 187.145 164.539H186.988L187.005 164.963L172.339 165.301L166.009 165.447C166.009 165.447 166.098 165.116 166.265 164.539C166.804 162.675 168.163 158.21 170 153.793C168.797 147.973 167.7 142.75 166.93 138.818H247.901C249.06 138.818 250 137.734 250 136.397C250 135.059 249.06 133.976 247.9 133.976ZM216.589 124.92C216.589 121.632 218.901 118.964 221.754 118.964C224.607 118.964 226.92 121.632 226.92 124.92C226.92 128.208 224.607 130.875 221.754 130.875C218.901 130.876 216.589 128.209 216.589 124.92ZM219.768 124.92C219.768 126.184 220.656 127.211 221.754 127.211C222.851 127.211 223.741 126.184 223.741 124.92C223.741 123.656 222.851 122.629 221.754 122.629C220.656 122.629 219.768 123.656 219.768 124.92ZM186.149 118.964C189.001 118.964 191.316 121.632 191.316 124.92C191.316 128.208 189.001 130.875 186.149 130.875C183.298 130.875 180.984 128.208 180.984 124.92C180.984 121.632 183.298 118.964 186.149 118.964ZM186.149 122.629C185.052 122.629 184.163 123.656 184.163 124.92C184.163 126.184 185.052 127.211 186.149 127.211C187.249 127.211 188.136 126.184 188.136 124.92C188.136 123.656 187.249 122.629 186.149 122.629ZM139.058 86.6875C138.497 86.7607 138.137 87.6674 138.249 88.7133C138.362 89.7628 138.911 90.5519 139.464 90.4829C140.027 90.4104 140.383 89.501 140.276 88.455C140.165 87.4055 139.616 86.6157 139.058 86.6875Z" fill="#383C47"/>
</svg>
