<svg width="50" height="50" viewBox="0 0 50 50" fill="none" xmlns="http://www.w3.org/2000/svg">
<path d="M50.0002 49.6194C50.0002 49.8299 49.8274 50.0004 49.6143 50.0004H0.788374C0.575152 50.0004 0.402344 49.8298 0.402344 49.6194C0.402344 49.409 0.575152 49.2383 0.788374 49.2383H14.3088C14.3167 49.3058 14.3737 49.3597 14.4456 49.3597H18.6139C18.6779 49.3597 18.7195 49.2953 18.695 49.2383H20.0392H20.6834H21.0627H21.2877H21.6346H21.7372H22.0791H22.4488C22.4624 49.3044 22.5217 49.3541 22.5928 49.3541C22.6638 49.3541 22.723 49.3044 22.7368 49.2383H22.8114H23.1424H23.724H24.0655H24.5199H24.88H25.4617H25.8171H26.7129H34.0874L34.0732 49.2499H35.0071L35.0405 49.2383H49.6143C49.8274 49.2384 50.0002 49.409 50.0002 49.6194Z" fill="#263238"/>
<path d="M44.9016 47.4161V47.3609V47.2045V47.1493V46.9928V46.9376V46.7811V46.7259V46.5694V46.5142V46.3577V46.3025V46.146V46.0908V45.9343H45.6695V46.0908V46.146V46.3025V46.3577V46.5142V46.5694V46.7259V46.7811V46.9376V46.9928V47.1493V47.2045V47.3609V47.4161V47.5726H45.2856V47.7291V47.7843V47.9408V47.996V48.1525V48.2077V48.3642V48.4194V48.5759V48.6311V48.7876V48.8428V48.9993V49.0545V49.211H44.5178V49.0545V48.9993V48.8428V48.7876V48.6311V48.5759V48.4194V48.3642V48.2077V48.1525V47.996V47.9408V47.7843V47.7291V47.5726H44.9016V47.4161ZM44.9016 45.9346V45.9232V45.7781V45.7229V45.5664V45.5112V45.3547V45.2995V45.143V45.0878V44.9314V44.8762V44.7197V44.6645V44.508V44.4528V44.2963H45.5286V44.1398V44.0846V43.9281V43.8729V43.7164V43.6612V43.5047V43.4495V43.293V43.2378V43.0813V43.0261V42.8696V42.8144V42.6579V42.6465H44.7608V42.6579V42.8144V42.8696V43.0261V43.0813V43.2378V43.293V43.4495V43.5047V43.6612V43.7164V43.8729V43.9281V44.0846V44.1398V44.2963H44.1338V44.4528V44.508V44.6645V44.7197V44.8762V44.9314V45.0878V45.143V45.2995V45.3547V45.5112V45.5664V45.7229V45.7781V45.9346H44.9016Z" fill="#9E8F7A"/>
<path d="M45.2855 49.2112V49.0547H47.8186V49.2112H45.2855ZM41.9844 49.0547V49.2112H44.5175V49.0547H41.9844ZM41.9844 48.8431V48.9996H44.5175V48.8431H41.9844ZM47.8186 48.9996V48.8431H45.2855V48.9996H47.8186ZM41.9844 48.6314V48.7879H44.5175V48.6314H41.9844ZM47.8186 48.7879V48.6314H45.2855V48.7879H47.8186ZM47.8186 48.5763V48.4198H45.2855V48.5763H47.8186ZM41.9844 48.4198V48.5763H44.5175V48.4198H41.9844ZM41.9844 48.2081V48.3646H44.5175V48.2081H41.9844ZM47.8186 48.3646V48.2081H45.2855V48.3646H47.8186ZM41.9844 47.9965V48.153H44.5175V47.9965H41.9844ZM47.8186 48.1529V47.9964H45.2855V48.1529H47.8186ZM42.166 47.7848H41.9846V47.9234V47.9412H44.5176V47.7847H42.166V47.7848ZM47.8186 47.9413V47.7848H45.2855V47.9413H47.8186ZM45.2855 47.5732V47.7297H47.8186V47.5732H48.2024V47.4168H45.6693V47.5732H45.2855ZM41.9844 47.7296H42.2217H44.5175V47.5731H44.9014V47.4166H42.3682V47.5731H42.1092H41.9843V47.7296H41.9844ZM48.2024 47.3616V47.2051H45.6693V47.3616H48.2024ZM42.3684 47.2051V47.3616H44.9016V47.2051H42.3684ZM42.3684 46.9935V47.15H44.9016V46.9935H42.3684ZM48.2024 47.1499V46.9934H45.6693V47.1499H48.2024ZM42.3684 46.7818V46.9383H44.9016V46.7818H42.3684ZM48.2024 46.9383V46.7818H45.6693V46.9383H48.2024ZM48.2024 46.7266V46.5701H45.6693V46.7266H48.2024ZM42.3684 46.5701V46.7266H44.9016V46.5701H42.3684ZM42.3684 46.3585V46.515H44.9016V46.3585H42.3684V46.3585ZM48.2024 46.515V46.3585H45.6693V46.515H48.2024ZM48.2024 46.3033V46.1468H45.6693V46.3033H48.2024ZM42.3684 46.1468V46.3033H44.9016V46.1468H42.3684ZM44.1338 45.9352V45.7787H41.6007V45.9352H42.3685V46.0917H44.9017V45.9352H44.1338ZM44.9015 45.9352H45.6693V46.0917H48.2024V45.9352H47.4346V45.7787H44.9015V45.9238V45.9352V45.9352ZM47.4347 45.7235V45.567H44.9016V45.7235H47.4347ZM41.6006 45.567V45.7235H44.1337V45.567H41.6006ZM47.4347 45.5119V45.3555H44.9016V45.5119H47.4347ZM41.6006 45.3555V45.5119H44.1337V45.3555H41.6006ZM47.4347 45.3003V45.1438H44.9016V45.3003H47.4347ZM41.6006 45.1438V45.3003H44.1337V45.1438H41.6006ZM41.6006 44.9322V45.0887H44.1337V44.9322H41.6006ZM47.4347 45.0887V44.9322H44.9016V45.0887H47.4347ZM47.4347 44.877V44.7205H44.9016V44.877H47.4347ZM41.6006 44.7205V44.877H44.1337V44.7205H41.6006ZM47.4347 44.6654V44.5089H44.9016V44.6654H47.4347ZM41.6006 44.5089V44.6654H44.1337V44.5089H41.6006ZM44.9015 44.2972V44.4537H47.4346V44.2972H48.0616V44.1407H45.5284V44.2972H44.9015ZM44.7608 44.2972V44.1407H42.2277V44.2972H41.6007V44.4537H44.1338V44.2972H44.7608ZM48.0617 44.0856V43.9291H45.5285V44.0856H48.0617ZM42.2276 43.9291V44.0856H44.7607V43.9291H42.2276ZM42.2276 43.7174V43.8739H44.7607V43.7174H42.2276ZM48.0617 43.8739V43.7174H45.5285V43.8739H48.0617ZM42.2276 43.5058V43.6623H44.7607V43.5058H42.2276ZM48.0617 43.6622V43.5057H45.5285V43.6622H48.0617ZM48.0617 43.4506V43.2942H45.5285V43.4506H48.0617ZM42.2276 43.2942V43.4506H44.7607V43.2942H42.2276ZM42.2276 43.0826V43.2391H44.7607V43.0826H42.2276ZM48.0617 43.239V43.0825H45.5285V43.239H48.0617ZM42.2276 42.8709V43.0274H44.7607V42.8709H42.2276ZM48.0617 43.0274V42.8709H45.5285V43.0274H48.0617ZM42.2276 42.6592V42.8157H44.7607V42.6592H42.2276ZM48.0617 42.8157V42.6592H45.5285V42.8157H48.0617Z" fill="#66BB6A"/>
<path d="M30.4466 29.6174H28.8728L29.157 28.5813H28.8728L29.1666 27.5098H30.6363C30.6999 27.5382 30.7626 27.5683 30.8229 27.6028C30.833 27.6087 30.8429 27.6152 30.8529 27.6213C30.8479 27.6321 30.8429 27.6431 30.8381 27.6543C30.6288 27.5641 30.3947 27.5179 30.1847 27.5146C30.1294 27.5137 30.1161 27.5955 30.1631 27.6102C30.3719 27.6759 30.5791 27.7495 30.7666 27.8572C30.9649 28.169 31.1727 28.4379 31.4965 28.5303C31.5868 28.556 31.6817 28.5485 31.7654 28.5129C31.8514 28.5589 31.9355 28.6048 32.0184 28.6505L32.1747 29.2203L32.2835 29.6173H30.4466V29.6174ZM31.9898 27.5098H31.9061C31.9431 27.5409 31.9805 27.5715 32.0158 27.6045L31.9898 27.5098ZM0.496 41.7606H8.90861V40.9215H0.496V41.7606ZM9.10785 39.9805H0.695137V40.8195H9.10774V39.9805H9.10785ZM8.41261 39.0534H0V39.8924H8.41261V39.0534ZM8.90861 38.9653V38.1263H7.63523H7.52895H0.496V38.9653H8.33438H8.44987H8.90861ZM10.2547 46.4456C10.1782 46.8763 9.82422 47.2263 9.23591 47.3275V47.9129H8.66624V47.3677C8.27674 47.3505 7.89873 47.2471 7.67792 47.1208L7.85236 46.4494C8.09646 46.5812 8.43958 46.7018 8.81738 46.7018C9.1487 46.7018 9.37546 46.5756 9.37546 46.3459C9.37546 46.1278 9.18943 45.99 8.75931 45.8466C8.13719 45.64 7.71281 45.353 7.71281 44.7964C7.71281 44.2912 8.07327 43.8951 8.69527 43.7746V43.2294H9.26495V43.7344C9.65445 43.7516 9.91621 43.832 10.108 43.9238L9.93939 44.5725C9.78814 44.5092 9.52075 44.3772 9.10222 44.3772C8.72431 44.3772 8.60221 44.538 8.60221 44.6987C8.60221 44.888 8.80568 45.0086 9.29984 45.1922C9.99161 45.4334 10.2707 45.749 10.2707 46.2657C10.2707 46.2885 10.2691 46.3109 10.2677 46.3334C10.2742 46.3225 10.2798 46.3111 10.2896 46.3021C10.6873 45.9303 11.3809 45.6151 11.3809 45.6151L11.4792 45.6894L11.8547 45.169L11.7419 45.0734C11.8882 44.7649 12.0523 44.46 12.2326 44.1617C11.6673 42.9042 10.3922 42.0265 8.90882 42.0265C8.74045 42.0265 8.57512 42.0388 8.41282 42.0606V41.8487H0V42.6878H6.80716C6.76642 42.7163 6.72623 42.7456 6.68668 42.7758H0.695245V43.6149H5.89013C5.86738 43.6484 5.84561 43.6825 5.82404 43.7167H0.496V44.5558H5.43433C5.42523 44.5849 5.41732 44.6144 5.40898 44.6438H0V45.4829H5.27636C5.27528 45.5122 5.27452 45.5415 5.27409 45.5709H0.695137V46.41H5.36336C5.37117 46.444 5.37842 46.4782 5.3872 46.5118H0.496V47.3509H5.72588C5.74246 47.3805 5.75969 47.4098 5.77713 47.4389H0V48.278H6.47032C6.50401 48.308 6.53847 48.3373 6.57324 48.366H0.695137V49.2051H9.10774V49.1995C10.2077 49.1409 11.1772 48.5994 11.8037 47.7861L10.293 46.5052C10.2736 46.4889 10.2623 46.4679 10.2547 46.4456Z" fill="#C58936"/>
<path d="M40.8778 47.2609L40.3436 46.4536L41.2687 45.9398L41.6672 46.958L41.8158 47.1647C41.5057 47.4011 41.1388 47.5449 40.7057 47.5182L40.8778 47.2609ZM33.9277 29.7481C34.1879 29.4075 34.4393 29.057 34.6496 28.681C34.4083 28.6059 34.1547 28.5301 33.8995 28.4543C33.3538 28.2921 32.8008 28.1296 32.34 27.9717C32.2429 27.839 32.1343 27.7161 32.0153 27.6044C31.98 27.5713 31.9426 27.5406 31.9055 27.5096C31.8198 27.4377 31.7312 27.3692 31.6369 27.3085C31.383 27.0431 30.9516 26.9118 30.5913 26.906C30.5361 26.9051 30.5227 26.9869 30.5697 27.0016C30.7785 27.0673 30.9857 27.1409 31.1732 27.2486C31.1766 27.2505 31.1797 27.2528 31.1831 27.2547C31.1704 27.262 31.1577 27.2693 31.1457 27.2769C30.9 27.1273 30.5888 27.0521 30.3182 27.0478C30.2629 27.047 30.2496 27.1287 30.2966 27.1435C30.5054 27.2093 30.7125 27.2827 30.9001 27.3905C30.9234 27.4038 30.946 27.4182 30.9682 27.433C30.9679 27.4334 30.9677 27.4338 30.9674 27.4341C30.7406 27.3212 30.4754 27.2639 30.2404 27.2602C30.1851 27.2593 30.1718 27.341 30.2188 27.3558C30.3605 27.4004 30.5012 27.4496 30.6357 27.5097C30.6993 27.5382 30.7621 27.5682 30.8223 27.6028C30.8325 27.6087 30.8423 27.6152 30.8523 27.6213C30.8473 27.6321 30.8423 27.643 30.8376 27.6542C30.6283 27.5641 30.3941 27.5179 30.1841 27.5145C30.1289 27.5137 30.1156 27.5954 30.1626 27.6102C30.3714 27.6759 30.5785 27.7494 30.7661 27.8572C30.9643 28.169 31.1721 28.4379 31.496 28.5302C31.5862 28.556 31.6811 28.5485 31.7649 28.5129C31.8508 28.5589 31.935 28.6048 32.0179 28.6504C32.3781 28.8492 32.7116 29.0443 33.0299 29.2312C32.7342 29.23 32.4442 29.2276 32.1741 29.2202L32.283 29.6171H30.4459C30.6975 29.8255 30.9516 29.9867 31.2542 29.984C31.3481 29.9832 31.4369 29.9493 31.5069 29.8915C32.4218 30.0814 33.1905 30.3003 33.937 30.4642C34.0114 30.2668 34.0829 30.0675 34.1476 29.8659C34.0743 29.8274 34.0009 29.7884 33.9277 29.7481ZM36.9626 47.8886L36.8849 47.712L36.9888 46.7258H35.9449L36.0424 47.6271L35.7345 47.8805C36.1309 47.9921 36.5471 47.9779 36.9626 47.8886ZM35.458 24.2571C35.7657 23.9249 36.1003 23.6366 36.4755 23.4641L36.4824 23.2471L36.4885 23.0541L36.5129 22.2841L36.5014 22.2842C36.5287 22.2007 36.548 22.1134 36.5571 22.0226L36.3416 21.816C35.9236 21.6871 35.5297 21.4803 35.1821 21.1941C34.7848 20.8672 34.4295 20.4521 34.2501 19.9854L34.2318 22.0598L34.231 22.147C34.1814 22.642 34.5504 23.0818 34.8534 23.1115L35.1735 23.1427C35.2332 23.1485 35.2919 23.1487 35.3502 23.1463L35.324 23.973L35.315 24.2579L35.458 24.2571ZM19.1266 34.0211C18.9406 34.43 19.1174 34.7838 19.358 35.1512C19.377 35.358 19.3575 35.5677 19.3304 35.7756C19.3244 35.8224 19.4025 35.8443 19.4244 35.796C19.5074 35.6127 19.5622 35.3907 19.5677 35.1723C19.5796 35.1727 19.5914 35.1729 19.6031 35.173C19.6046 35.1843 19.6063 35.1954 19.6074 35.2066C19.6264 35.4134 19.6069 35.6231 19.5798 35.831C19.5738 35.8778 19.6519 35.8997 19.6738 35.8514C19.7666 35.6461 19.8243 35.3927 19.8168 35.1499C19.8172 35.1498 19.8177 35.1497 19.8181 35.1496C19.8222 35.1749 19.8257 35.2004 19.8281 35.2261C19.8471 35.4328 19.8276 35.6426 19.8005 35.8505C19.7945 35.8973 19.8726 35.9191 19.8945 35.8709C20.0015 35.6345 20.0622 35.3339 20.0298 35.0596C20.0415 35.0524 20.0531 35.0443 20.0648 35.0363C20.0652 35.0401 20.0659 35.0437 20.0662 35.0474C20.0853 35.2542 20.0658 35.464 20.0387 35.6718C20.0326 35.7187 20.1107 35.7405 20.1326 35.6923C20.2751 35.3777 20.3349 34.9498 20.2029 34.6208C20.1576 34.3065 20.0528 34.0015 19.8921 33.7224C19.8933 33.7219 19.8944 33.7214 19.8956 33.7209C19.5856 32.9625 19.1156 31.9961 18.6549 31.0419C18.6538 31.0524 18.6525 31.063 18.6516 31.0736C18.6129 31.4736 18.4711 31.8405 18.255 32.1507L18.2065 33.1127C18.5027 33.4258 18.8092 33.7293 19.1266 34.0211ZM11.854 45.169L11.4785 45.6894L11.9133 46.0184C12.0155 46.0958 12.1395 46.1399 12.2681 46.1445L12.6417 46.158L12.8173 45.9859L11.854 45.169ZM15.7049 47.8139L15.9972 47.5839L16.0168 47.3404H14.7469L14.8056 47.9767L15.3526 47.9467C15.4811 47.9395 15.6042 47.8932 15.7049 47.8139ZM18.4305 22.6774L18.6362 22.6871L18.6896 21.5849L18.6976 21.4193L18.9408 21.4106C19.5217 21.3899 19.9754 20.9081 19.9544 20.3347L19.8912 18.6133L19.8569 17.6777L18.302 17.7334L18.2248 18.2853L17.9413 18.4424L17.7542 19.5956L17.5576 19.6027L17.5525 19.4649C17.5455 19.2732 17.3808 19.1219 17.1866 19.1289C16.9925 19.1358 16.8393 19.2984 16.8463 19.4901L16.8552 19.7334C16.8601 19.8677 16.9425 19.9819 17.0581 20.036C17.0624 20.1516 17.0818 20.2629 17.1118 20.3696L17.0913 20.7931L17.0717 21.1982L17.0473 21.7018C17.5694 21.9231 18.0215 22.2757 18.4305 22.6774ZM17.8596 30.3436C18.1327 30.4744 18.4103 30.596 18.6899 30.713C19.8914 31.216 21.1474 31.5934 22.4292 31.8375C22.4641 32.0873 22.5867 32.2622 22.759 32.4003C22.8344 32.4607 22.9192 32.5142 23.0104 32.5638C23.0812 32.6024 23.1557 32.6387 23.2326 32.6742C23.3598 32.8395 23.456 33.0275 23.5448 33.2179C23.5649 33.2608 23.6429 33.2384 23.6354 33.1861C23.6072 32.9871 23.5344 32.7703 23.4217 32.5822C23.4321 32.5763 23.4422 32.5703 23.4521 32.5642C23.4593 32.573 23.4668 32.5815 23.4737 32.5906C23.6009 32.7558 23.6971 32.9439 23.786 33.1343C23.806 33.1772 23.884 33.1547 23.8766 33.1024C23.845 32.8798 23.7576 32.6347 23.6209 32.4328C23.6212 32.4325 23.6215 32.4321 23.6218 32.4318C23.6389 32.4512 23.6555 32.4709 23.6714 32.4914C23.7986 32.6567 23.8948 32.8447 23.9836 33.0351C24.0035 33.078 24.0817 33.0556 24.0742 33.0033C24.0469 32.8107 23.9781 32.6014 23.8715 32.4177C23.836 32.3567 23.7965 32.2985 23.7528 32.2447C23.7588 32.2324 23.7644 32.2196 23.77 32.2067C23.7722 32.2096 23.7748 32.2123 23.7771 32.2153C23.8327 32.2875 23.8817 32.3646 23.9274 32.4439C23.9862 32.546 24.0393 32.6519 24.0894 32.7589C24.1094 32.8018 24.1874 32.7794 24.1799 32.7271C24.1749 32.6915 24.1676 32.6553 24.1598 32.6189C24.1255 32.4598 24.0641 32.2961 23.9786 32.1477C23.8957 32.0038 23.7911 31.8745 23.6638 31.7821C23.4564 31.5394 23.2037 31.3358 22.9176 31.1834C22.9184 31.1823 22.919 31.1813 22.9198 31.1803C21.9308 30.4714 20.4034 29.5613 19.1779 28.7639C18.8749 29.36 18.351 29.8649 17.8596 30.3436Z" fill="#C58936"/>
<path d="M34.2517 19.9854L34.2334 22.0598C34.0302 21.9019 33.8491 21.7194 33.7755 21.4795C33.702 21.24 33.7432 20.9615 33.5984 20.756C33.5107 20.6316 33.3693 20.5571 33.2513 20.4602C33.1333 20.3633 33.0305 20.2166 33.0678 20.0697C33.1264 19.8385 33.4896 19.7498 33.4851 19.5116C33.4832 19.4085 33.4068 19.3207 33.3894 19.2189C33.3522 19.0032 33.5765 18.8407 33.7707 18.7353C34.1743 18.5165 34.5814 18.2969 35.0204 18.1597C35.4594 18.0226 35.9374 17.9717 36.3805 18.0952C36.87 18.2317 37.3221 18.6495 37.3085 19.1515C37.3054 19.268 37.2779 19.3869 37.3089 19.4993C37.3578 19.6763 37.5334 19.7843 37.6506 19.9266C37.8734 20.1972 37.8631 20.6276 37.6278 20.8874C37.4981 21.0307 37.3011 21.1447 37.2818 21.3359C37.2716 21.4381 37.3175 21.5364 37.3489 21.6344C37.4836 22.0531 37.3372 22.5456 36.9948 22.8262C36.8503 22.9446 36.6741 23.0194 36.4898 23.054L36.5142 22.2839L36.5027 22.284C36.53 22.2006 36.5493 22.1133 36.5584 22.0225L36.3429 21.8158C35.9249 21.6869 35.5311 21.4802 35.1834 21.194C34.7863 20.8672 34.431 20.4521 34.2517 19.9854ZM17.0598 20.0357C16.9442 19.9816 16.8618 19.8675 16.8569 19.7331L16.848 19.4899C16.841 19.2982 16.9941 19.1356 17.1883 19.1286C17.3825 19.1217 17.5472 19.2728 17.5542 19.4646L17.5593 19.6024L17.7559 19.5954L17.9429 18.4421L18.2265 18.2851L18.3037 17.7331L19.8586 17.6775L19.8929 18.6131C19.9542 18.5798 20.0118 18.5392 20.0591 18.4809C20.2127 18.2924 20.2807 18.0371 20.257 17.7977C20.1905 17.1259 19.6055 16.6693 18.9756 16.5126C18.4912 16.392 17.9198 16.386 17.4558 16.586C17.2554 16.6724 17.0548 16.8114 16.9414 17.0002C16.8536 17.1462 16.8767 17.2928 16.8397 17.4491C16.8064 17.5894 16.7247 17.7175 16.6417 17.8337C16.5627 17.9441 16.4774 18.0514 16.4177 18.173C16.4001 18.2087 16.3865 18.2453 16.3761 18.2825C16.3178 18.4907 16.3608 18.7199 16.4017 18.9291C16.5293 19.5816 16.7637 20.2133 17.093 20.7928L17.1135 20.3693C17.0834 20.2625 17.064 20.1513 17.0598 20.0357Z" fill="#9E8F7A"/>
<path d="M20.239 8.03131C20.2469 8.05741 20.2318 8.08501 20.2053 8.09271C20.0773 8.13037 19.95 8.16962 19.8235 8.21038C19.8183 8.21209 19.8131 8.21284 19.808 8.21284C19.787 8.21284 19.7672 8.19958 19.7604 8.17882C19.7519 8.15294 19.7663 8.12502 19.7925 8.11657C19.9199 8.07549 20.048 8.03602 20.1769 7.99815C20.2032 7.99023 20.2311 8.00521 20.239 8.03131ZM24.872 38.5681C24.8444 38.5684 24.8222 38.5907 24.8225 38.6179C24.8228 38.645 24.8451 38.6668 24.8725 38.6668C24.8728 38.6668 24.8729 38.6668 24.873 38.6668C25.0074 38.6654 25.1415 38.6626 25.275 38.6581C25.3026 38.6571 25.3242 38.6342 25.3233 38.6069C25.3222 38.5798 25.2987 38.5591 25.2715 38.5592C25.1387 38.5638 25.0057 38.5667 24.872 38.5681ZM10.4509 16.2639C10.4259 16.2523 10.3962 16.2627 10.3843 16.2873C10.3266 16.4072 10.2703 16.5279 10.2155 16.6493C10.2044 16.6742 10.2156 16.7034 10.2409 16.7146C10.2475 16.7174 10.2543 16.7188 10.2611 16.7188C10.2803 16.7188 10.2986 16.7079 10.3068 16.6895C10.3612 16.5689 10.4171 16.449 10.4746 16.3299C10.4866 16.3051 10.476 16.2756 10.4509 16.2639ZM24.1388 7.35794C24.1112 7.3589 24.0895 7.38179 24.0906 7.40896C24.0916 7.4356 24.1138 7.45667 24.1406 7.45667C24.1412 7.45667 24.1418 7.45667 24.1424 7.45667C24.2752 7.45207 24.4084 7.44897 24.542 7.44747C24.5696 7.44715 24.5918 7.4248 24.5915 7.39752C24.5912 7.37024 24.5699 7.3527 24.5409 7.34863C24.4063 7.35013 24.2724 7.35312 24.1388 7.35794ZM19.1277 8.34698C19.0019 8.39372 18.8769 8.44197 18.7527 8.49171C18.7271 8.50198 18.7148 8.53075 18.7252 8.5561C18.7331 8.57536 18.7518 8.58691 18.7716 8.58691C18.7779 8.58691 18.7842 8.58573 18.7904 8.58327C18.9138 8.53375 19.038 8.48582 19.163 8.4394C19.1888 8.42977 19.2019 8.40132 19.1922 8.37575C19.1824 8.35029 19.1537 8.33735 19.1277 8.34698ZM21.248 7.72292C21.1168 7.7518 20.9861 7.78229 20.8562 7.81438C20.8293 7.82101 20.8131 7.84786 20.8198 7.87428C20.8254 7.89674 20.8458 7.91172 20.8682 7.91172C20.8723 7.91172 20.8764 7.91129 20.8804 7.91022C21.0095 7.87835 21.1393 7.84807 21.2698 7.8193C21.2967 7.81341 21.3138 7.78699 21.3077 7.76036C21.3016 7.73372 21.2751 7.71703 21.248 7.72292ZM17.1205 9.256C17.003 9.31944 16.8863 9.38437 16.7704 9.45058C16.7465 9.46427 16.7384 9.49444 16.7522 9.51808C16.7616 9.5338 16.7784 9.54268 16.7956 9.54268C16.804 9.54268 16.8127 9.54054 16.8206 9.53605C16.9357 9.47016 17.0516 9.40576 17.1684 9.34265C17.1927 9.3296 17.2015 9.29954 17.1883 9.27569C17.1751 9.25173 17.1447 9.24285 17.1205 9.256ZM18.1076 8.76683C17.9859 8.82203 17.8649 8.87862 17.7449 8.9367C17.7201 8.94868 17.7099 8.97831 17.7219 9.00281C17.7306 9.02024 17.7484 9.03041 17.7669 9.03041C17.7743 9.03041 17.7818 9.0288 17.7889 9.02538C17.9082 8.96761 18.0283 8.91135 18.1492 8.85658C18.1744 8.84524 18.1854 8.81583 18.1738 8.79112C18.1625 8.76641 18.1329 8.7556 18.1076 8.76683ZM21.9387 7.58685C21.9115 7.59156 21.8933 7.61723 21.8982 7.64408C21.9024 7.66804 21.9235 7.68484 21.9474 7.68484C21.9503 7.68484 21.9532 7.68462 21.9561 7.68409C22.0871 7.6613 22.2188 7.64002 22.3509 7.62044C22.3783 7.61638 22.3971 7.59124 22.393 7.56428C22.3889 7.53733 22.3638 7.51925 22.3361 7.52278C22.2029 7.54246 22.0705 7.56385 21.9387 7.58685ZM11.5434 14.3685C11.5203 14.3533 11.4892 14.3596 11.474 14.3824C11.3999 14.4931 11.3272 14.6047 11.2559 14.7172C11.2413 14.7403 11.2485 14.7708 11.2719 14.7853C11.2801 14.7904 11.2893 14.7927 11.2983 14.7927C11.315 14.7927 11.3312 14.7845 11.3408 14.7695C11.4116 14.6576 11.4838 14.5468 11.5575 14.4369C11.5728 14.4142 11.5665 14.3836 11.5434 14.3685ZM11.0729 30.9048C11.0492 30.9188 11.0413 30.9491 11.0554 30.9725C11.1237 31.0864 11.1934 31.1993 11.2645 31.3113C11.274 31.3263 11.2903 31.3344 11.307 31.3344C11.3161 31.3344 11.3253 31.3319 11.3335 31.3269C11.3569 31.3125 11.364 31.282 11.3493 31.2588C11.2787 31.1475 11.2095 31.0352 11.1415 30.922C11.1274 30.8988 11.0968 30.891 11.0729 30.9048ZM12.1869 13.4825C12.1649 13.4659 12.1336 13.4701 12.1167 13.4917C12.035 13.5969 11.9548 13.7032 11.8758 13.8106C11.8595 13.8326 11.8645 13.8635 11.8868 13.8795C11.8957 13.886 11.906 13.889 11.9162 13.889C11.9317 13.889 11.947 13.8819 11.9567 13.8686C12.0353 13.762 12.1151 13.6564 12.1963 13.5518C12.2131 13.5301 12.2089 13.4991 12.1869 13.4825ZM11.664 31.8229C11.6412 31.8384 11.6355 31.8692 11.6512 31.8917C11.7273 32.0007 11.8049 32.1086 11.8837 32.2156C11.8935 32.229 11.9087 32.2359 11.9242 32.2359C11.9344 32.2359 11.9447 32.2328 11.9536 32.2265C11.9759 32.2104 11.9809 32.1796 11.9645 32.1575C11.8862 32.0512 11.8091 31.944 11.7334 31.8355C11.7178 31.8131 11.6866 31.8075 11.664 31.8229ZM25.6445 7.47304C25.6709 7.47304 25.6928 7.45282 25.6944 7.42651C25.696 7.39934 25.675 7.37591 25.6474 7.37441C25.5137 7.36671 25.3797 7.36072 25.2452 7.35644C25.2447 7.35644 25.2441 7.35644 25.2436 7.35644C25.2167 7.35644 25.1944 7.37751 25.1936 7.40415C25.1927 7.43143 25.2144 7.45432 25.2419 7.45517C25.3756 7.45956 25.5088 7.46544 25.6416 7.47304C25.6425 7.47293 25.6435 7.47304 25.6445 7.47304ZM10.9637 15.2971C10.9397 15.2838 10.9091 15.2921 10.8956 15.3158C10.8294 15.4314 10.7648 15.5477 10.7017 15.665C10.6887 15.689 10.698 15.719 10.7223 15.7318C10.7298 15.7358 10.7378 15.7376 10.7459 15.7376C10.7637 15.7376 10.7811 15.7281 10.7901 15.7114C10.8529 15.5948 10.9171 15.4792 10.9828 15.3644C10.9962 15.3406 10.9878 15.3106 10.9637 15.2971ZM10.5485 29.9487C10.5238 29.961 10.5138 29.9906 10.5261 30.015C10.5862 30.1333 10.6476 30.2507 10.7105 30.3673C10.7195 30.384 10.7369 30.3934 10.7547 30.3934C10.7627 30.3934 10.7707 30.3916 10.7783 30.3876C10.8026 30.3748 10.8118 30.3448 10.7988 30.3208C10.7363 30.205 10.6752 30.0883 10.6155 29.9709C10.6033 29.9464 10.5733 29.9366 10.5485 29.9487ZM13.0333 33.528C13.013 33.5464 13.0116 33.5777 13.0302 33.5978C13.121 33.6954 13.213 33.7919 13.3061 33.8871C13.316 33.8972 13.329 33.9022 13.3421 33.9022C13.3546 33.9022 13.3671 33.8976 13.3769 33.8883C13.3967 33.8694 13.3973 33.8381 13.3781 33.8184C13.2854 33.7238 13.1941 33.6281 13.104 33.531C13.0852 33.5109 13.0535 33.5096 13.0333 33.528ZM15.2602 10.4327C15.1525 10.5117 15.046 10.5921 14.9405 10.6736C14.9187 10.6904 14.9149 10.7214 14.932 10.7429C14.9418 10.7553 14.9565 10.7618 14.9714 10.7618C14.9822 10.7618 14.9931 10.7584 15.0023 10.7513C15.107 10.6702 15.2129 10.5904 15.3199 10.5119C15.3421 10.4957 15.3467 10.4648 15.3302 10.4428C15.3138 10.4209 15.2824 10.4163 15.2602 10.4327ZM14.3961 11.1145C14.2943 11.2006 14.1936 11.2881 14.094 11.3768C14.0735 11.395 14.0719 11.4263 14.0904 11.4465C14.1003 11.4573 14.1138 11.4628 14.1276 11.4628C14.1395 11.4628 14.1516 11.4586 14.1611 11.4501C14.2601 11.3619 14.3601 11.2751 14.4613 11.1894C14.4822 11.1716 14.4847 11.1405 14.4667 11.1197C14.4487 11.0992 14.4171 11.0967 14.3961 11.1145ZM13.6522 11.8543C13.6328 11.8348 13.6011 11.8347 13.5814 11.8539C13.4859 11.9468 13.3915 12.0411 13.2983 12.1364C13.2792 12.1559 13.2797 12.1873 13.2996 12.2062C13.3094 12.2155 13.3218 12.22 13.3344 12.22C13.3475 12.22 13.3606 12.215 13.3704 12.2049C13.463 12.1102 13.5567 12.0167 13.6517 11.9243C13.6714 11.905 13.6716 11.8738 13.6522 11.8543ZM12.3185 32.6989C12.2969 32.7159 12.2933 32.7469 12.3106 32.7682C12.3943 32.8719 12.4793 32.9742 12.5655 33.0755C12.5754 33.0872 12.5896 33.0932 12.6039 33.0932C12.6152 33.0932 12.6266 33.0894 12.636 33.0816C12.6572 33.0641 12.66 33.0329 12.6421 33.0121C12.5564 32.9113 12.4719 32.8096 12.3888 32.7067C12.3716 32.6852 12.34 32.6818 12.3185 32.6989ZM16.1699 9.81214C16.057 9.88349 15.9451 9.95623 15.8342 10.0305C15.8114 10.0458 15.8053 10.0765 15.8208 10.099C15.8305 10.1132 15.8463 10.1207 15.8623 10.1207C15.8719 10.1207 15.8817 10.118 15.8903 10.1123C16.0004 10.0386 16.1117 9.96628 16.2239 9.89536C16.2471 9.8806 16.2539 9.85011 16.239 9.82712C16.2241 9.80422 16.193 9.79727 16.1699 9.81214ZM23.0347 7.43453C23.0072 7.43742 22.9872 7.4617 22.9902 7.48876C22.9929 7.51411 23.0145 7.53305 23.0399 7.53305C23.0416 7.53305 23.0434 7.53294 23.0452 7.53273C23.1775 7.51893 23.3102 7.50684 23.4436 7.49636C23.4711 7.49422 23.4917 7.47036 23.4895 7.44319C23.4873 7.41602 23.4639 7.39591 23.4357 7.39795C23.3014 7.40854 23.1679 7.42073 23.0347 7.43453ZM36.7835 12.922C36.7623 12.9395 36.7596 12.9707 36.7774 12.9916C36.8633 13.0921 36.9478 13.1939 37.0309 13.2967C37.0408 13.3089 37.0554 13.3153 37.07 13.3153C37.081 13.3153 37.092 13.3118 37.1014 13.3045C37.1228 13.2875 37.1265 13.2563 37.1092 13.2351C37.0254 13.1316 36.9404 13.0292 36.854 12.9279C36.8361 12.9071 36.8046 12.9045 36.7835 12.922ZM37.4667 13.7764C37.4444 13.7925 37.4395 13.8234 37.4558 13.8454C37.5343 13.9516 37.6114 14.0588 37.6873 14.167C37.6969 14.1809 37.7126 14.1883 37.7285 14.1883C37.7383 14.1883 37.7482 14.1854 37.7568 14.1795C37.7796 14.164 37.7852 14.1333 37.7695 14.1108C37.6934 14.0018 37.6157 13.894 37.5367 13.7871C37.5202 13.7652 37.4889 13.7604 37.4667 13.7764ZM38.0878 14.6753C38.0644 14.6897 38.0574 14.7202 38.072 14.7433C38.1428 14.8546 38.2121 14.9668 38.2801 15.0799C38.2895 15.0954 38.3061 15.104 38.3232 15.104C38.3318 15.104 38.3406 15.1018 38.3486 15.0971C38.3723 15.0832 38.3803 15.0528 38.3661 15.0294C38.2977 14.9155 38.2279 14.8027 38.1567 14.6908C38.142 14.6678 38.1112 14.661 38.0878 14.6753ZM34.3964 10.665C34.3794 10.6865 34.3833 10.7175 34.4051 10.7343C34.5103 10.8154 34.6144 10.8978 34.7175 10.9814C34.7268 10.989 34.7379 10.9927 34.7492 10.9927C34.7637 10.9927 34.7779 10.9866 34.7879 10.9746C34.8053 10.9535 34.8023 10.9224 34.7809 10.905C34.6773 10.8209 34.5724 10.738 34.4666 10.6564C34.4449 10.6398 34.4134 10.6433 34.3964 10.665ZM35.2448 11.3623C35.2264 11.3827 35.228 11.4139 35.2486 11.4321C35.3477 11.5201 35.4457 11.6094 35.5427 11.6998C35.5524 11.7088 35.5648 11.7133 35.5772 11.7133C35.5905 11.7133 35.6036 11.7081 35.6135 11.6978C35.6324 11.678 35.6316 11.6467 35.6115 11.6279C35.514 11.537 35.4152 11.4471 35.3154 11.3585C35.2951 11.3405 35.2632 11.3421 35.2448 11.3623ZM36.0418 12.116C36.0219 12.1351 36.0214 12.1663 36.0406 12.1859C36.1333 12.2805 36.2247 12.3762 36.3152 12.473C36.3251 12.4836 36.3385 12.4889 36.3519 12.4889C36.3641 12.4889 36.3763 12.4846 36.3859 12.4759C36.4062 12.4574 36.4074 12.4262 36.3887 12.406C36.2978 12.3087 36.2058 12.2123 36.1124 12.1171C36.0932 12.0976 36.0616 12.0971 36.0418 12.116ZM39.311 17.0454C39.3175 17.0454 39.324 17.0442 39.3303 17.0416C39.3558 17.0311 39.3678 17.0022 39.3572 16.977C39.3057 16.8549 39.2525 16.7337 39.1979 16.6134C39.1865 16.5883 39.157 16.5773 39.1318 16.5884C39.1066 16.5997 39.0953 16.6288 39.1066 16.6538C39.1608 16.7734 39.2136 16.8938 39.2649 17.015C39.2729 17.034 39.2915 17.0454 39.311 17.0454ZM39.5297 28.331C39.4838 28.4553 39.4366 28.5788 39.3876 28.7014C39.3775 28.7268 39.3901 28.7556 39.4158 28.7655C39.4219 28.768 39.4281 28.7689 39.4342 28.7689C39.4542 28.7689 39.473 28.7571 39.4807 28.7377C39.5301 28.6141 39.5778 28.4898 39.6237 28.3647C39.6333 28.339 39.6198 28.3108 39.5938 28.3014C39.5676 28.2924 39.539 28.3054 39.5297 28.331ZM38.6439 15.6142C38.6194 15.627 38.6103 15.657 38.6233 15.681C38.6859 15.7967 38.7472 15.9134 38.807 16.0307C38.8158 16.0479 38.8335 16.0579 38.8517 16.0579C38.8592 16.0579 38.8669 16.0562 38.8741 16.0526C38.8988 16.0404 38.9086 16.0107 38.8963 15.9863C38.8362 15.8681 38.7745 15.7508 38.7116 15.6344C38.6984 15.6103 38.6678 15.6014 38.6439 15.6142ZM39.1162 29.3403C39.0617 29.4609 39.0057 29.5808 38.9482 29.6998C38.9363 29.7245 38.9468 29.7539 38.9717 29.7657C38.9787 29.769 38.9861 29.7705 38.9933 29.7705C39.0119 29.7705 39.0298 29.7602 39.0384 29.7425C39.0964 29.6227 39.1527 29.5021 39.2077 29.3806C39.2189 29.3556 39.2076 29.3265 39.1823 29.3152C39.1572 29.3043 39.1275 29.3153 39.1162 29.3403ZM27.832 7.74987C27.8554 7.74987 27.8762 7.73372 27.8809 7.71019C27.8865 7.68345 27.8688 7.65745 27.8416 7.6521C27.7103 7.62611 27.5783 7.60183 27.4457 7.57915C27.4192 7.57434 27.3926 7.59252 27.388 7.61937C27.3832 7.64622 27.4014 7.67179 27.4287 7.67649C27.5603 7.69906 27.6914 7.72324 27.822 7.74902C27.8254 7.74955 27.8287 7.74987 27.832 7.74987ZM25.9704 38.5204C25.9429 38.5225 25.9222 38.5463 25.9245 38.5734C25.9265 38.5993 25.9484 38.619 25.9742 38.619C25.9756 38.619 25.9769 38.6189 25.9782 38.6188C26.1124 38.6084 26.246 38.5963 26.3792 38.5825C26.4066 38.5798 26.4266 38.5555 26.4237 38.5283C26.4209 38.5012 26.3956 38.4809 26.3688 38.4843C26.2365 38.4979 26.1037 38.5099 25.9704 38.5204ZM28.9054 8.00072C28.9274 8.00072 28.9476 7.98638 28.9538 7.96435C28.9611 7.93803 28.9453 7.91086 28.9188 7.90359C28.7894 7.86861 28.6595 7.83524 28.5291 7.80336C28.5016 7.79683 28.4751 7.81309 28.4685 7.83951C28.4619 7.86594 28.4782 7.89279 28.505 7.89931C28.6347 7.93087 28.7637 7.96413 28.8921 7.9989C28.8967 8.00018 28.9011 8.00072 28.9054 8.00072ZM28.5339 38.109C28.4049 38.1408 28.275 38.1709 28.1445 38.1995C28.1176 38.2054 28.1006 38.2318 28.1065 38.2584C28.1117 38.2815 28.1324 38.2971 28.1554 38.2971C28.1589 38.2971 28.1626 38.2967 28.1662 38.296C28.2974 38.2672 28.4281 38.2368 28.5581 38.2049C28.5848 38.1984 28.6012 38.1716 28.5945 38.145C28.5879 38.1184 28.5608 38.1025 28.5339 38.109ZM26.7431 7.5738C26.7678 7.5738 26.7894 7.55562 26.7926 7.53069C26.7961 7.50363 26.7768 7.47892 26.7493 7.47539C26.6164 7.4586 26.4832 7.44341 26.3494 7.42982C26.3224 7.42779 26.2974 7.44672 26.2946 7.474C26.2917 7.50106 26.3117 7.52535 26.3392 7.52813C26.4721 7.54161 26.6046 7.55658 26.7366 7.57338C26.7388 7.5737 26.7409 7.5738 26.7431 7.5738ZM27.0633 38.3974C27.0359 38.4013 27.017 38.4265 27.0211 38.4534C27.0247 38.478 27.0461 38.4956 27.0704 38.4956C27.0729 38.4956 27.0754 38.4954 27.0779 38.495C27.2109 38.4756 27.3434 38.4542 27.4753 38.4314C27.5026 38.4267 27.5207 38.4011 27.5159 38.3743C27.5113 38.3472 27.4836 38.3286 27.4581 38.3342C27.327 38.3567 27.1953 38.3779 27.0633 38.3974ZM32.6304 9.43422C32.6066 9.42074 32.5759 9.42876 32.5622 9.45229C32.5483 9.47593 32.5565 9.5061 32.5805 9.51979C32.6962 9.58568 32.8111 9.65307 32.9249 9.72186C32.933 9.72678 32.942 9.72913 32.951 9.72913C32.9678 9.72913 32.9843 9.72079 32.9937 9.70549C33.0081 9.68228 33.0006 9.65179 32.9771 9.63756C32.8624 9.56836 32.7469 9.50054 32.6304 9.43422ZM33.501 10.0271C33.4855 10.0497 33.4915 10.0804 33.5145 10.0957C33.6252 10.1694 33.7351 10.2445 33.8437 10.3209C33.8524 10.3271 33.8626 10.3301 33.8727 10.3301C33.8883 10.3301 33.9037 10.3228 33.9134 10.3093C33.9295 10.2871 33.9242 10.2563 33.9017 10.2404C33.7923 10.1635 33.6819 10.088 33.5704 10.0139C33.5476 9.9988 33.5166 10.0045 33.501 10.0271ZM31.6512 8.92066C31.6267 8.90889 31.5965 8.91884 31.5844 8.94344C31.5722 8.96794 31.5826 8.99757 31.6074 9.00944C31.7277 9.06731 31.8471 9.12657 31.9656 9.18733C31.9731 9.19107 31.9809 9.19289 31.9887 9.19289C32.0068 9.19289 32.0241 9.18316 32.0331 9.16626C32.0459 9.14208 32.0364 9.11224 32.0118 9.09961C31.8924 9.03854 31.7722 8.97885 31.6512 8.92066ZM29.5937 8.10255C29.5676 8.09421 29.5394 8.10844 29.5308 8.13432C29.5224 8.16032 29.5367 8.18813 29.5631 8.19647C29.6905 8.23723 29.8174 8.27937 29.9435 8.32312C29.9489 8.32505 29.9546 8.32591 29.9601 8.32591C29.9806 8.32591 30 8.31318 30.0073 8.29285C30.0165 8.26718 30.0027 8.23894 29.9767 8.22995C29.8498 8.18599 29.7221 8.14352 29.5937 8.10255ZM30.6373 8.47598C30.612 8.46582 30.5825 8.47802 30.5722 8.50337C30.5618 8.52872 30.5743 8.55749 30.5999 8.56766C30.7241 8.61708 30.8475 8.66789 30.97 8.72041C30.9765 8.72319 30.9834 8.72447 30.99 8.72447C31.0094 8.72447 31.0277 8.71335 31.0359 8.69474C31.0469 8.66971 31.0353 8.64061 31.0099 8.62981C30.8864 8.57686 30.7622 8.52562 30.6373 8.47598ZM12.8911 12.6431C12.8705 12.6251 12.8389 12.627 12.8204 12.6475C12.7317 12.7468 12.6442 12.8472 12.5578 12.9488C12.54 12.9697 12.5429 13.0009 12.564 13.0184C12.5734 13.0261 12.5848 13.03 12.5961 13.03C12.6104 13.03 12.6245 13.024 12.6344 13.0123C12.7201 12.9115 12.8072 12.8116 12.8954 12.7128C12.9137 12.6924 12.9118 12.6612 12.8911 12.6431ZM40.4361 21.8913C40.4455 22.0223 40.4534 22.1537 40.4595 22.2856C40.4607 22.3121 40.4828 22.3328 40.5094 22.3328C40.5101 22.3328 40.511 22.3328 40.5117 22.3328C40.5393 22.3315 40.5607 22.3085 40.5594 22.2812C40.5533 22.1485 40.5455 22.0162 40.536 21.8843C40.5339 21.857 40.5081 21.8361 40.4826 21.8386C40.4549 21.8405 40.4341 21.8642 40.4361 21.8913ZM23.7723 38.5416C23.7454 38.5391 23.7211 38.5608 23.7194 38.588C23.7178 38.6152 23.7388 38.6387 23.7665 38.6402C23.9 38.6479 24.0341 38.6542 24.1686 38.6586C24.1692 38.6586 24.1697 38.6586 24.1704 38.6586C24.1972 38.6586 24.2194 38.6375 24.2203 38.6109C24.2212 38.5837 24.1996 38.5608 24.172 38.5599C24.0383 38.5554 23.905 38.5493 23.7723 38.5416ZM39.6996 18.063C39.7049 18.063 39.7103 18.0622 39.7156 18.0604C39.7418 18.0517 39.7559 18.0237 39.747 17.9979C39.704 17.8721 39.6595 17.7471 39.6134 17.6228C39.6039 17.5973 39.5753 17.5841 39.5493 17.5934C39.5233 17.6028 39.51 17.6312 39.5195 17.6567C39.5653 17.7802 39.6095 17.9045 39.6523 18.0294C39.6593 18.0501 39.6786 18.063 39.6996 18.063ZM40.3627 20.7558C40.3353 20.7596 40.3163 20.7845 40.3203 20.8116C40.3388 20.9417 40.3558 21.0723 40.3712 21.2034C40.3742 21.2286 40.3958 21.2472 40.4208 21.2472C40.4228 21.2472 40.4247 21.2471 40.4267 21.2469C40.4541 21.2438 40.4738 21.2193 40.4706 21.1921C40.4552 21.0602 40.4381 20.9287 40.4193 20.7979C40.4155 20.7706 40.3905 20.7515 40.3627 20.7558ZM30.2695 37.6772C30.2753 37.6772 30.2813 37.6762 30.287 37.6739C30.4128 37.6273 30.5379 37.5792 30.6621 37.5296C30.6877 37.5194 30.7002 37.4906 30.6898 37.4652C30.6794 37.44 30.65 37.4279 30.6245 37.438C30.501 37.4874 30.3768 37.5351 30.2517 37.5815C30.2258 37.591 30.2127 37.6195 30.2225 37.6451C30.2302 37.665 30.2492 37.6772 30.2695 37.6772ZM13.8048 34.3066C13.7858 34.3264 13.7866 34.3577 13.8068 34.3765C13.8393 34.407 13.8728 34.4365 13.9056 34.4667C13.8929 34.4114 13.8812 34.3562 13.8692 34.3009C13.8492 34.2873 13.822 34.2887 13.8048 34.3066ZM29.2235 38.0239C29.2282 38.0239 29.233 38.0233 29.2378 38.0219C29.3668 37.9842 29.4948 37.9448 29.6222 37.9038C29.6485 37.8954 29.6629 37.8674 29.6544 37.8416C29.6459 37.8156 29.6176 37.8016 29.5914 37.8098C29.4647 37.8505 29.3374 37.8896 29.2093 37.9271C29.1829 37.9349 29.1678 37.9623 29.1756 37.9886C29.182 38.01 29.202 38.0239 29.2235 38.0239ZM10.0933 28.9595C10.0678 28.9699 10.0557 28.9989 10.0663 29.0241C10.1178 29.1461 10.1708 29.2674 10.2253 29.3879C10.2336 29.4062 10.2518 29.4171 10.271 29.4171C10.2778 29.4171 10.2847 29.4157 10.2914 29.4128C10.3166 29.4016 10.3279 29.3724 10.3166 29.3474C10.2624 29.2277 10.2098 29.1072 10.1586 28.986C10.1481 28.9609 10.1188 28.9494 10.0933 28.9595ZM23.0645 38.5838C23.0662 38.584 23.068 38.5841 23.0697 38.5841C23.095 38.5841 23.1167 38.5652 23.1194 38.5399C23.1222 38.5127 23.1023 38.4884 23.0748 38.4856C22.9625 38.4742 22.8507 38.4609 22.7391 38.4471V38.5466C22.8473 38.5599 22.9556 38.5728 23.0645 38.5838ZM40.3055 25.6203C40.3083 25.6207 40.3111 25.6209 40.3139 25.6209C40.3378 25.6209 40.3591 25.6037 40.3631 25.5797C40.3851 25.449 40.4052 25.3181 40.4237 25.1866C40.4275 25.1596 40.4085 25.1347 40.3812 25.1309C40.3546 25.1278 40.3284 25.146 40.3247 25.173C40.3063 25.3037 40.2862 25.4339 40.2645 25.5635C40.2598 25.5904 40.2782 25.6158 40.3055 25.6203ZM40.0843 26.6875C40.0882 26.6885 40.0921 26.6889 40.0959 26.6889C40.1185 26.6889 40.1391 26.6737 40.1445 26.6511C40.1756 26.5223 40.205 26.3929 40.2328 26.2631C40.2385 26.2363 40.2213 26.2102 40.1943 26.2045C40.1671 26.1994 40.1407 26.2159 40.135 26.2425C40.1074 26.3717 40.0781 26.5 40.0472 26.628C40.0407 26.6546 40.0574 26.6812 40.0843 26.6875ZM40.2653 20.1691C40.2925 20.1641 40.3104 20.1383 40.3053 20.1115C40.2805 19.981 40.2542 19.8511 40.2262 19.7217C40.2204 19.695 40.194 19.6777 40.1669 19.6837C40.1399 19.6894 40.1225 19.7156 40.1284 19.7423C40.1561 19.8708 40.1825 20 40.207 20.1297C40.2116 20.1534 40.2325 20.17 40.2561 20.17C40.2592 20.17 40.2623 20.1697 40.2653 20.1691ZM21.5725 38.3604C21.7038 38.3864 21.8357 38.411 21.9682 38.4336C21.9711 38.4342 21.974 38.4344 21.9768 38.4344C22.0007 38.4344 22.0218 38.4175 22.0261 38.3935C22.0309 38.3667 22.0127 38.341 21.9854 38.3364C21.8537 38.3136 21.7226 38.2893 21.5922 38.2634C21.5651 38.2579 21.5387 38.2754 21.5333 38.3022C21.5278 38.3289 21.5454 38.355 21.5725 38.3604ZM39.9317 27.2626C39.9048 27.2545 39.8775 27.2702 39.8699 27.2965C39.8331 27.4233 39.7948 27.5494 39.7549 27.6749C39.7466 27.7009 39.7613 27.7286 39.7876 27.7367C39.7926 27.7383 39.7976 27.739 39.8026 27.739C39.8239 27.739 39.8437 27.7256 39.8503 27.7044C39.8906 27.5781 39.929 27.4512 39.966 27.3237C39.9737 27.2974 39.9583 27.2701 39.9317 27.2626ZM40.4556 24.5407C40.481 24.5407 40.5028 24.5215 40.5053 24.4959C40.5179 24.3643 40.5288 24.2323 40.538 24.0997C40.5399 24.0726 40.5191 24.0489 40.4916 24.047C40.4639 24.0457 40.4402 24.0657 40.4383 24.0929C40.429 24.2246 40.4183 24.3557 40.4057 24.4865C40.4033 24.5137 40.4233 24.5378 40.4509 24.5403C40.4523 24.5407 40.454 24.5407 40.4556 24.5407ZM20.4955 38.1076C20.6248 38.1427 20.7546 38.1762 20.885 38.2081C20.889 38.2091 20.8931 38.2095 20.8971 38.2095C20.9195 38.2095 20.9399 38.1945 20.9456 38.172C20.9522 38.1456 20.9359 38.1187 20.9091 38.1122C20.7795 38.0804 20.6505 38.0472 20.5221 38.0123C20.4955 38.0052 20.4679 38.0205 20.4605 38.0468C20.4533 38.0732 20.4689 38.1004 20.4955 38.1076ZM18.815 37.4419C18.6909 37.3924 18.5674 37.3414 18.4449 37.289C18.4197 37.278 18.3902 37.2896 18.3791 37.3146C18.3682 37.3397 18.3798 37.3688 18.4051 37.3797C18.5284 37.4324 18.6526 37.4837 18.7775 37.5336C18.7837 37.5361 18.79 37.5371 18.7963 37.5371C18.8161 37.5371 18.8347 37.5255 18.8426 37.5062C18.853 37.4811 18.8407 37.4522 18.815 37.4419ZM19.438 37.7801C19.5649 37.8242 19.6925 37.8669 19.8207 37.9079C19.8258 37.9095 19.8311 37.9103 19.8361 37.9103C19.8572 37.9103 19.8768 37.8971 19.8836 37.8762C19.8922 37.8502 19.8778 37.8224 19.8514 37.814C19.7239 37.7731 19.5973 37.731 19.4711 37.6869C19.445 37.6776 19.4165 37.6913 19.4073 37.7169C19.3983 37.7427 19.412 37.7711 19.438 37.7801ZM40.0155 19.1068C40.0196 19.1068 40.0239 19.1063 40.0281 19.1052C40.0548 19.0983 40.0709 19.0713 40.0638 19.045C40.0299 18.9166 39.9945 18.7888 39.9573 18.6616C39.9496 18.6354 39.9217 18.6203 39.8953 18.6278C39.8688 18.6354 39.8535 18.6627 39.8611 18.689C39.898 18.8153 39.9334 18.9423 39.9671 19.0698C39.973 19.0921 39.9932 19.1068 40.0155 19.1068ZM9.24897 26.3177C9.25244 26.3177 9.25591 26.3173 9.25937 26.3167C9.28635 26.311 9.30369 26.2847 9.29794 26.2582C9.27021 26.1296 9.24421 26.0004 9.21983 25.8707C9.21474 25.8439 9.18862 25.8262 9.16154 25.8312C9.13434 25.8362 9.11647 25.8621 9.12145 25.8888C9.14605 26.0192 9.17237 26.1492 9.20011 26.2786C9.20509 26.3018 9.2259 26.3177 9.24897 26.3177ZM9.05764 25.2449C9.05991 25.2449 9.0623 25.2447 9.06468 25.2445C9.09198 25.2408 9.11116 25.2157 9.10726 25.1888C9.08884 25.0587 9.07194 24.9281 9.05666 24.797C9.05352 24.7699 9.02871 24.7502 9.0013 24.7535C8.97389 24.7566 8.95417 24.7811 8.95731 24.8082C8.9727 24.9401 8.9896 25.0715 9.00823 25.2025C9.0117 25.2271 9.03304 25.2449 9.05764 25.2449ZM9.12134 20.4106C9.09371 20.4054 9.06825 20.4244 9.06392 20.4512C9.04214 20.5817 9.0221 20.7128 9.00368 20.8442C8.99989 20.8713 9.01896 20.8962 9.04637 20.8998C9.04864 20.9002 9.05103 20.9004 9.0533 20.9004C9.0779 20.9004 9.09935 20.8825 9.10282 20.8577C9.12113 20.727 9.14106 20.5968 9.16262 20.4672C9.16707 20.4403 9.14854 20.415 9.12134 20.4106ZM8.94041 21.9841C8.96652 21.9841 8.98851 21.9641 8.99035 21.938C8.99935 21.8063 9.01007 21.6751 9.02253 21.5442C9.02502 21.5171 9.00487 21.493 8.97735 21.4904C8.95016 21.4879 8.92546 21.5079 8.92286 21.535C8.9104 21.6666 8.89967 21.7987 8.89057 21.9312C8.88873 21.9584 8.90953 21.9819 8.93716 21.9839C8.93813 21.984 8.93932 21.9841 8.94041 21.9841ZM8.94247 24.1616C8.94366 24.1616 8.94485 24.1616 8.94593 24.1614C8.97345 24.1595 8.99426 24.1359 8.99231 24.1087C8.9831 23.9777 8.9754 23.8462 8.96944 23.7143C8.96814 23.687 8.94442 23.6649 8.91722 23.6671C8.88959 23.6683 8.86825 23.6914 8.86944 23.7187C8.8754 23.8515 8.8832 23.9838 8.89241 24.1155C8.89447 24.1417 8.91646 24.1616 8.94247 24.1616ZM31.2868 37.2594C31.2938 37.2594 31.3009 37.258 31.3076 37.255C31.4295 37.2001 31.5504 37.1435 31.6706 37.0855C31.6954 37.0735 31.7057 37.0439 31.6936 37.0194C31.6813 36.9948 31.6512 36.985 31.6266 36.9967C31.5073 37.0543 31.3871 37.1104 31.266 37.1651C31.2409 37.1764 31.2299 37.2058 31.2413 37.2306C31.2497 37.2487 31.2679 37.2594 31.2868 37.2594ZM8.85817 22.6259C8.85503 22.7528 8.85352 22.8801 8.85352 23.0077V23.0233C8.85352 23.0506 8.87594 23.0727 8.90357 23.0727C8.9312 23.0727 8.95363 23.0506 8.95363 23.0233V23.0077C8.95363 22.8809 8.95514 22.7544 8.95829 22.6284C8.95894 22.6011 8.93705 22.5784 8.90942 22.5778C8.88136 22.5762 8.85882 22.5986 8.85817 22.6259ZM9.709 27.9403C9.68278 27.9489 9.6687 27.9769 9.67747 28.0027C9.72027 28.1285 9.76469 28.2537 9.81074 28.3779C9.81811 28.3979 9.83728 28.4103 9.85776 28.4103C9.8635 28.4103 9.86924 28.4093 9.87488 28.4073C9.90088 28.3979 9.91421 28.3695 9.90478 28.3438C9.85906 28.2204 9.81496 28.0962 9.77238 27.9712C9.76361 27.9454 9.73533 27.9316 9.709 27.9403ZM10.008 17.2643C9.98236 17.2544 9.95332 17.2667 9.94324 17.2922C9.89416 17.4157 9.84649 17.5401 9.80055 17.6653C9.79113 17.6909 9.80456 17.7193 9.83056 17.7286C9.8362 17.7306 9.84194 17.7315 9.84757 17.7315C9.86805 17.7315 9.88723 17.7191 9.8946 17.699C9.94032 17.5747 9.98745 17.4512 10.0363 17.3283C10.0464 17.3029 10.0337 17.2742 10.008 17.2643ZM34.1566 35.592C34.2643 35.5132 34.371 35.4329 34.4765 35.3514C34.4983 35.3346 34.5022 35.3036 34.4851 35.2821C34.4679 35.2603 34.4364 35.2568 34.4149 35.2737C34.3099 35.3546 34.204 35.4343 34.0969 35.5127C34.0747 35.529 34.07 35.5599 34.0865 35.5818C34.0962 35.5949 34.1114 35.6018 34.1267 35.6018C34.1372 35.6017 34.1476 35.5985 34.1566 35.592ZM9.63717 18.2936C9.61063 18.2853 9.58267 18.3 9.57444 18.3261C9.53435 18.4524 9.496 18.5794 9.45905 18.707C9.45147 18.7332 9.46685 18.7606 9.4935 18.7681C9.49806 18.7693 9.50272 18.77 9.50727 18.77C9.52904 18.77 9.54909 18.7559 9.55537 18.7341C9.59199 18.6074 9.63013 18.4812 9.66989 18.3557C9.67823 18.3295 9.66361 18.3018 9.63717 18.2936ZM33.2464 36.2117C33.3594 36.1404 33.4713 36.0677 33.5823 35.9937C33.6052 35.9785 33.6113 35.9478 33.5958 35.9251C33.5803 35.9025 33.5492 35.8965 33.5263 35.9118C33.4161 35.9853 33.3049 36.0576 33.1926 36.1283C33.1692 36.1431 33.1624 36.1736 33.1772 36.1966C33.1868 36.2113 33.203 36.2195 33.2195 36.2195C33.2287 36.2194 33.2379 36.2169 33.2464 36.2117ZM9.46804 27.3388C9.47433 27.3605 9.49437 27.3746 9.51604 27.3746C9.52059 27.3746 9.52525 27.3741 9.52991 27.3727C9.55645 27.3652 9.57173 27.3378 9.56415 27.3116C9.52742 27.1852 9.49221 27.0582 9.45862 26.9305C9.45169 26.904 9.42438 26.8884 9.39762 26.8951C9.37086 26.902 9.35483 26.929 9.36176 26.9554C9.39567 27.0839 9.43099 27.2117 9.46804 27.3388ZM32.2713 36.7729C32.2794 36.7729 32.2876 36.771 32.2952 36.7669C32.4129 36.7035 32.5297 36.6388 32.6454 36.5726C32.6693 36.559 32.6776 36.5287 32.6637 36.5052C32.6498 36.4816 32.6189 36.4733 32.5954 36.4871C32.4803 36.5529 32.3642 36.6173 32.2473 36.6801C32.223 36.6932 32.2141 36.7232 32.2273 36.7472C32.2364 36.7636 32.2536 36.7729 32.2713 36.7729ZM40.5711 23.4051C40.5744 23.2731 40.5761 23.1406 40.5761 23.0077V22.9767C40.5761 22.9494 40.5536 22.9272 40.526 22.9272C40.4984 22.9272 40.476 22.9494 40.476 22.9767V23.0077C40.476 23.1397 40.4743 23.2714 40.471 23.4026C40.4703 23.4299 40.4922 23.4526 40.5197 23.4533C40.5203 23.4533 40.5206 23.4533 40.521 23.4533C40.5481 23.4533 40.5704 23.4319 40.5711 23.4051ZM9.34161 19.3431C9.31485 19.3366 9.28776 19.3532 9.28137 19.3798C9.25049 19.5085 9.22113 19.6378 9.19339 19.7677C9.18776 19.7943 9.20498 19.8206 9.23207 19.8262C9.23554 19.8269 9.23901 19.8273 9.24247 19.8273C9.26566 19.8273 9.28646 19.8113 9.29133 19.788C9.31885 19.6589 9.348 19.5304 9.37866 19.4025C9.38516 19.3761 9.36848 19.3494 9.34161 19.3431ZM35.9453 46.7263H36.9892L37.4745 42.1181L40.344 46.4541L41.2691 45.9403L39.2842 40.8691L39.1198 40.7116L39.0624 40.6565L38.1989 39.8286L39.8425 36.4996C40.3586 35.4541 40.4746 34.2596 40.1688 33.1363L40.1378 33.0226C38.8417 34.0009 36.1668 33.9614 34.4974 33.7205L35.1181 39.0798L35.5362 42.945L35.5456 43.0321L35.9453 46.7263ZM34.7613 26.4156C35.1636 25.0304 36.1734 23.9814 37.4245 23.2987C37.3156 23.2397 37.1983 23.1975 37.0728 23.1795C36.874 23.1509 36.6746 23.1845 36.4827 23.2476L36.4758 23.4647C36.1007 23.6371 35.7661 23.9254 35.4583 24.2576L35.3153 24.2585L35.3243 23.9736C35.1378 24.1386 34.9519 24.3207 34.7757 24.5094C34.5199 25.1165 34.5322 25.8223 34.7613 26.4156ZM16.1411 47.3409C16.213 46.2685 16.2895 45.2141 16.4065 44.1668C16.4096 44.1398 16.4127 44.1128 16.4157 44.0858C16.4683 43.6241 16.5292 43.1637 16.601 42.7036C16.6104 42.6955 16.6204 42.6867 16.6297 42.6786C17.3621 42.0426 17.802 41.1406 17.8505 40.1787L18.2068 33.1132L18.2553 32.1512C17.8006 32.8043 17.0157 33.2049 16.1626 33.126C15.9374 33.1052 15.7106 33.0728 15.4877 33.029C14.7341 32.8813 14.1333 32.3822 13.8348 31.7295L13.6603 31.7443C13.574 32.5872 13.6826 33.4428 13.8691 34.3004C13.8811 34.3558 13.8928 34.4109 13.9055 34.4662C14.4407 36.8083 15.5042 39.1623 14.7457 41.3201C14.2407 41.7101 13.7706 42.1572 13.3445 42.6435C13.3258 42.6649 13.3065 42.6859 13.2879 42.7074C12.8945 43.1637 12.5397 43.6531 12.2324 44.1617C12.0522 44.4601 11.888 44.7649 11.7418 45.0734L11.8545 45.1691L12.8179 45.986L12.9119 46.0656C13.2715 45.7037 13.7274 45.2731 14.2153 44.8254C14.242 45.6842 14.3724 46.5386 14.5987 47.3405H14.7474H16.0173H16.1411V47.3409Z" fill="#DADADA"/>
<path d="M3.19463 31.2466C2.13686 28.6056 1.58203 25.7647 1.58203 22.8392C1.58203 18.5785 2.75713 14.4966 4.9536 10.9521C4.97559 10.967 4.99834 10.9812 5.02218 10.9941C2.88335 14.4474 1.64942 18.5036 1.64942 22.8392C1.64942 25.7981 2.2244 28.6269 3.26917 31.2228C3.2436 31.2298 3.21879 31.2378 3.19463 31.2466ZM24.7148 0.0665352C33.7392 0.0665352 41.5682 5.21059 45.3556 12.684C45.3799 12.6724 45.4052 12.662 45.4314 12.6523C44.3298 10.4738 42.867 8.4615 41.0723 6.68944C36.7031 2.37568 30.8939 0 24.7149 0C18.536 0 12.7268 2.37568 8.35767 6.68944C7.49644 7.53974 6.71267 8.4461 6.00735 9.39877C6.02967 9.41417 6.05091 9.43054 6.07128 9.44776C10.2693 3.76607 17.0622 0.0665352 24.7148 0.0665352ZM4.03386 32.9147C4.01111 32.9288 3.98717 32.9416 3.96246 32.9537C4.89455 34.8136 6.08991 36.5528 7.52894 38.1265H7.63523C6.20454 36.5697 4.98848 34.817 4.03386 32.9147ZM8.44987 38.9657H8.33437C8.34217 38.9734 8.34976 38.9813 8.35756 38.989C9.84751 40.4601 11.5055 41.7048 13.288 42.7076C13.3065 42.6861 13.3258 42.6651 13.3445 42.6437C11.5492 41.6349 9.90395 40.3953 8.44987 38.9657ZM41.0722 38.989C45.4413 34.6753 47.8476 28.9397 47.8476 22.8393C47.8476 19.8858 47.2821 17.0186 46.2045 14.3563C46.1814 14.3679 46.1574 14.3785 46.1327 14.3881C47.1948 17.0026 47.7803 19.8545 47.7803 22.8392C47.7803 30.0459 44.3713 36.4805 39.0626 40.6563L39.1201 40.7114C39.7975 40.177 40.45 39.6033 41.0722 38.989ZM18.7835 45.7388C18.7316 46.0261 18.7117 46.3167 18.7192 46.6064C18.9528 47.0705 19.2386 47.5135 19.4627 47.98C19.6625 48.3957 19.853 48.8157 20.0386 49.2377H20.6828C20.6258 49.1311 20.5685 49.0246 20.5118 48.9179C19.9464 47.8523 19.3832 46.7856 18.7835 45.7388ZM22.4452 45.7208V42.4006C22.3745 43.506 22.3486 44.6122 22.4452 45.7208ZM22.4452 49.2085C22.4452 49.2185 22.4463 49.2283 22.4483 49.2377H22.0786C21.7838 47.9829 21.5501 46.7147 21.36 45.4389C21.2445 45.4224 21.1291 45.4059 21.014 45.3878C21.2046 46.6808 21.4401 47.966 21.7367 49.2377H21.6341C21.2247 47.9115 20.8137 46.5861 20.3616 45.2745C20.2364 45.2511 20.1115 45.227 19.9869 45.2017C20.4518 46.5362 20.8708 47.8865 21.2871 49.2377H21.0622C21.0105 49.1421 20.9582 49.0467 20.9072 48.9507C20.2506 47.7157 19.6003 46.4775 18.8965 45.2683C18.9262 45.1698 18.9601 45.0729 18.9966 44.9769C18.116 44.7569 17.2512 44.487 16.4066 44.1667C16.4096 44.1398 16.4127 44.1127 16.4158 44.0858C17.3899 44.458 18.3964 44.7648 19.4289 45.0048C19.3483 44.8523 19.2672 44.7 19.1856 44.548C19.2885 44.3437 19.4061 44.1465 19.5375 43.9581C19.683 44.3446 19.8225 44.733 19.959 45.1226C20.0838 45.1486 20.2092 45.1727 20.3348 45.1966C20.1551 44.6774 19.9694 44.1603 19.7737 43.6465C19.8277 43.5806 19.8846 43.517 19.9421 43.4538C20.0365 43.7361 20.1321 44.0179 20.2348 44.2974C20.3077 44.496 20.6316 44.4103 20.5579 44.2095C20.4331 43.8697 20.3181 43.5265 20.204 43.1831C20.356 43.038 20.5171 42.9018 20.6859 42.7757C20.775 43.624 20.8796 44.4703 21.0026 45.3134C21.1181 45.332 21.2332 45.3514 21.3492 45.3683C21.2114 44.4353 21.0959 43.4985 20.9996 42.5593C21.3549 42.3318 21.7375 42.1468 22.1367 42.0118C22.045 43.2826 21.9982 44.5542 22.1187 45.8291C22.136 46.0124 22.393 46.0373 22.4452 45.9V49.2085V49.2085ZM19.4743 45.0908C19.3304 45.0581 19.187 45.0242 19.044 44.9888C19.228 45.3354 19.4095 45.6832 19.5797 46.037C19.6722 46.2291 19.9611 46.0615 19.869 45.87C19.7428 45.6077 19.6099 45.3486 19.4743 45.0908ZM22.7361 49.2377H22.8108C22.712 46.7389 23.2353 44.2465 23.7233 41.7599C23.7004 41.7595 23.6777 41.7582 23.6548 41.7582C23.3461 41.7576 23.0397 41.7902 22.7392 41.8507V49.2085C22.7391 49.2186 22.7381 49.2283 22.7361 49.2377ZM24.7568 45.678C24.8753 45.6778 24.9936 45.6756 25.1119 45.6737C24.6963 46.8362 24.316 48.0283 24.0648 49.2377H24.5192C24.7946 48.6037 25.0986 47.9877 25.3641 47.4024C25.6323 46.8112 25.8993 46.2201 26.1738 45.6323C26.3002 45.6246 26.4266 45.6165 26.5526 45.6069C26.266 46.2143 25.9886 46.8261 25.7126 47.4387C25.4544 48.0116 25.1543 48.6158 24.8794 49.2377H25.4611C25.6959 48.5903 25.9367 47.9451 26.1868 47.3032C26.4111 46.7274 26.635 46.1494 26.8773 45.5795C27.009 45.5675 27.1404 45.554 27.2718 45.5398C27.0346 46.081 26.8095 46.6272 26.5924 47.18C26.3244 47.8625 26.0671 48.549 25.8165 49.2377H26.7123C27.324 48.3966 28.0249 47.6056 28.7208 46.8347C28.7265 46.4434 28.6867 46.0514 28.5956 45.6676C28.5914 45.6501 28.5863 45.6328 28.5819 45.6152C28.1026 46.1549 27.6874 46.7349 27.4457 47.4074C27.3739 47.6069 27.0504 47.5204 27.1226 47.3194C27.3832 46.5941 27.8299 45.9755 28.3418 45.3997C30.8742 45.0083 33.3026 44.2087 35.546 43.0321L35.5366 42.9449C33.3479 44.098 30.9503 44.9124 28.4152 45.3177C28.4353 45.2956 28.4548 45.273 28.475 45.251C28.3409 44.858 28.1543 44.4839 27.9251 44.1366C27.7061 44.5765 27.5014 45.0207 27.3043 45.4679C27.1723 45.4826 27.0402 45.4963 26.9076 45.5087C27.0555 45.1636 27.2103 44.8216 27.3766 44.4853C27.4847 44.267 27.596 44.0484 27.7054 43.8286C27.6539 43.7617 27.6009 43.6962 27.5462 43.6319C27.3952 43.9112 27.2467 44.1919 27.1032 44.4752C26.9251 44.8266 26.7543 45.1812 26.5858 45.537C26.4598 45.5471 26.3333 45.5553 26.2067 45.5633C26.4349 45.0762 26.6681 44.5912 26.914 44.1119C27.0418 43.8627 27.1749 43.6166 27.3096 43.3714C27.2351 43.2946 27.1583 43.2201 27.0793 43.1479C26.8372 43.5338 26.5945 43.9194 26.3369 44.2957C26.2167 44.4714 25.9266 44.3056 26.0476 44.1288C26.3168 43.7353 26.57 43.3318 26.8232 42.9284C26.6631 42.7991 26.4959 42.6784 26.3223 42.5676C26.0622 43.1687 25.816 43.7759 25.5852 44.3892C25.4339 44.791 25.2828 45.1972 25.1356 45.607C25.0173 45.6091 24.8991 45.6111 24.7804 45.6115C24.9376 45.1705 25.0995 44.7333 25.2621 44.3013C25.5037 43.6594 25.7617 43.0241 26.0345 42.3953C25.766 42.2467 25.4845 42.1229 25.1948 42.0237C24.8571 43.012 24.5601 44.0118 24.3797 45.0441C24.3431 45.2538 24.0203 45.1643 24.0566 44.9562C24.2377 43.9204 24.5361 42.917 24.8753 41.9255C24.6058 41.8529 24.3304 41.802 24.0514 41.7771C23.5611 44.2577 23.0361 46.7476 23.1418 49.238H23.7234C23.9699 48.0301 24.3444 46.84 24.7568 45.678ZM40.7062 47.5185L39.5294 49.2047H40.3058L41.9845 47.9232V47.7847H42.166L42.2276 47.7376L42.2218 47.7295H41.9845V47.573H42.1093L41.8162 47.1651C41.5062 47.4014 41.1394 47.5453 40.7062 47.5185ZM35.0063 49.2494L35.0398 49.2377L37.2222 48.4778L36.9633 47.8889C36.5478 47.9783 36.1316 47.9925 35.7351 47.8809L34.0867 49.2377L34.0725 49.2494H35.0063V49.2494ZM40.1381 33.0225C40.1853 32.9869 40.2309 32.9502 40.2744 32.9118C39.3987 30.9049 38.6123 29.9078 38.6002 28.9763C38.5883 28.056 38.4821 27.7421 38.4959 26.8217C38.5097 25.9014 38.5569 24.7869 38.0896 23.9904C37.9271 23.7133 37.7033 23.4494 37.4246 23.2986C36.1734 23.9812 35.1637 25.0302 34.7614 26.4155C34.5322 25.8221 34.52 25.1163 34.776 24.5093C34.3965 24.9159 34.0625 25.3495 33.8682 25.6912C33.0618 27.11 33.5013 27.6912 33.9 28.4546C34.1553 28.5305 34.4088 28.6062 34.6501 28.6814C34.4398 29.0574 34.1885 29.4077 33.9282 29.7484C34.0015 29.7888 34.0748 29.8278 34.1482 29.8665C34.0836 30.068 34.012 30.2673 33.9375 30.4648C34.0661 30.493 34.1942 30.5187 34.3223 30.543C34.2783 31.4164 34.0361 31.954 34.2889 33.6886C34.3563 33.6996 34.4263 33.7101 34.4976 33.7204C36.1669 33.9613 38.8418 34.0009 40.1381 33.0225ZM12.2688 46.1448C12.1401 46.1401 12.0161 46.0961 11.914 46.0188L11.4792 45.6898L11.3809 45.6154C11.3809 45.6154 10.6873 45.9307 10.2896 46.3024C10.2798 46.3116 10.2742 46.3229 10.2677 46.3337C10.2466 46.3686 10.2421 46.4087 10.2547 46.446C10.2622 46.4683 10.2736 46.4894 10.2932 46.5059L11.8039 47.7869L13.4554 49.1873C13.5053 49.2297 13.583 49.2053 13.599 49.1423L13.6468 48.9546C13.7143 48.6892 13.6539 48.4079 13.4831 48.1922L13.0879 47.6933C12.883 47.4347 12.6608 47.1114 12.6872 46.7841L12.7424 46.1619L12.6425 46.1583L12.2688 46.1448ZM14.445 49.3591H18.6133C18.6772 49.3591 18.7188 49.2947 18.6944 49.2377C18.6936 49.236 18.6934 49.2342 18.6925 49.2325L18.6049 49.0594C18.4809 48.8147 18.2494 48.6401 17.9777 48.5864L17.3485 48.4622C17.0224 48.3978 16.6405 48.2955 16.4445 48.0301L16.0758 47.5227L15.9977 47.5842L15.7054 47.8142C15.6047 47.8934 15.4815 47.9398 15.353 47.9468L14.806 47.9769L14.6824 47.9837C14.6824 47.9837 14.3643 48.669 14.3078 49.2069C14.3067 49.2174 14.307 49.2276 14.308 49.2376C14.3161 49.3052 14.373 49.3591 14.445 49.3591ZM15.4877 33.0291C15.7106 33.0728 15.9374 33.1052 16.1627 33.1261C17.0158 33.2049 17.8006 32.8043 18.2553 32.1513C18.4714 31.8411 18.6132 31.4742 18.6519 31.0742C18.6529 31.0636 18.6543 31.053 18.6552 31.0424C18.666 30.9326 18.6788 30.823 18.6904 30.7134C18.4108 30.5964 18.1332 30.4747 17.86 30.3439C18.3514 29.8652 18.8753 29.3603 19.1782 28.7646C19.1069 28.7183 19.0374 28.6725 18.9681 28.627C19.1797 27.3345 19.4648 26.0557 19.8453 24.7948C20.1784 23.6911 19.8368 22.4771 18.9296 21.7533C18.8524 21.6918 18.7721 21.6369 18.6901 21.5853L18.6367 22.6875L18.4311 22.6777C18.0221 22.2762 17.57 21.9235 17.0479 21.702L17.0722 21.1984C16.6684 21.2112 15.6031 21.6371 15.2945 22.5679C14.3505 25.4156 13.7791 27.8552 13.6316 30.6714C13.612 31.0464 13.687 31.4066 13.8348 31.7297C14.1335 32.3823 14.7342 32.8813 15.4877 33.0291Z" fill="#181E2D"/>
</svg>
