<svg width="30" height="30" viewBox="0 0 30 30" fill="none" xmlns="http://www.w3.org/2000/svg">
<path d="M30 24.6774V0H0V24.6774H30Z" fill="url(#paint0_linear_177_765)"/>
<path d="M30 24.6777V23.71H0V24.6777H30Z" fill="#C7CDD8"/>
<path d="M30 0H0V3.87097H30V0Z" fill="url(#paint1_linear_177_765)"/>
<path d="M2.90329 1.93504C2.90329 2.06337 2.85231 2.18645 2.76157 2.27719C2.67082 2.36793 2.54775 2.41891 2.41942 2.41891C2.29109 2.41891 2.16801 2.36793 2.07727 2.27719C1.98653 2.18645 1.93555 2.06337 1.93555 1.93504C1.93555 1.80671 1.98653 1.68364 2.07727 1.59289C2.16801 1.50215 2.29109 1.45117 2.41942 1.45117C2.54775 1.45117 2.67082 1.50215 2.76157 1.59289C2.85231 1.68364 2.90329 1.80671 2.90329 1.93504Z" fill="#CF4055"/>
<path d="M5.32223 1.93504C5.32223 2.06337 5.27125 2.18645 5.18051 2.27719C5.08977 2.36793 4.96669 2.41891 4.83836 2.41891C4.71003 2.41891 4.58696 2.36793 4.49621 2.27719C4.40547 2.18645 4.35449 2.06337 4.35449 1.93504C4.35449 1.80671 4.40547 1.68364 4.49621 1.59289C4.58696 1.50215 4.71003 1.45117 4.83836 1.45117C4.96669 1.45117 5.08977 1.50215 5.18051 1.59289C5.27125 1.68364 5.32223 1.80671 5.32223 1.93504Z" fill="#F6B756"/>
<path d="M7.74216 1.93504C7.74216 2.06337 7.69118 2.18645 7.60043 2.27719C7.50969 2.36793 7.38662 2.41891 7.25829 2.41891C7.12995 2.41891 7.00688 2.36793 6.91614 2.27719C6.82539 2.18645 6.77441 2.06337 6.77441 1.93504C6.77441 1.80671 6.82539 1.68364 6.91614 1.59289C7.00688 1.50215 7.12995 1.45117 7.25829 1.45117C7.38662 1.45117 7.50969 1.50215 7.60043 1.59289C7.69118 1.68364 7.74216 1.80671 7.74216 1.93504Z" fill="#7ECE67"/>
<path d="M17.4197 13.5488H12.581L5.67132 20.0714C1.8681 23.6666 4.47132 30.0004 9.61971 30.0004H20.381C21.5302 29.9962 22.6517 29.6482 23.6015 29.0012C24.5512 28.3543 25.2857 27.4379 25.7103 26.3701C26.1349 25.3023 26.2303 24.1318 25.9842 23.0093C25.7381 21.8868 25.1618 20.8636 24.3294 20.0714L17.4197 13.5488Z" fill="url(#paint2_linear_177_765)"/>
<path d="M20.3803 29.9996H9.61905C8.80308 29.9992 7.99653 29.8252 7.25304 29.489C6.50954 29.1528 5.84614 28.6622 5.30694 28.0498C4.76774 27.4373 4.3651 26.7171 4.1258 25.937C3.88651 25.1569 3.81603 24.3348 3.91905 23.5254C4.09463 24.9131 4.77057 26.189 5.82002 27.1137C6.86947 28.0384 8.22031 28.5484 9.61905 28.548H20.3803C21.7788 28.5474 23.1291 28.037 24.1783 27.1125C25.2275 26.188 25.9038 24.9127 26.0803 23.5254C26.1834 24.3348 26.1129 25.1569 25.8736 25.937C25.6343 26.7171 25.2317 27.4373 24.6925 28.0498C24.1533 28.6622 23.4899 29.1528 22.7464 29.489C22.0029 29.8252 21.1963 29.9992 20.3803 29.9996Z" fill="#4DA67F"/>
<path d="M17.4192 11.6131H12.5805L11.1289 6.77441H18.8708L17.4192 11.6131Z" fill="url(#paint3_linear_177_765)"/>
<path d="M18.8708 6.77441C17.8208 10.2776 18.0337 9.57119 17.4192 11.6131H12.5805C11.9612 9.55183 12.1837 10.2825 11.1289 6.77441H18.8708Z" fill="url(#paint4_linear_177_765)"/>
<path d="M17.8552 10.1611L17.4197 11.6127H12.581L12.1455 10.1611H17.8552Z" fill="#4DA67F"/>
<path d="M17.4197 13.5488H12.581C12.3244 13.5488 12.0782 13.4468 11.8967 13.2653C11.7152 13.0838 11.6133 12.8377 11.6133 12.581C11.6133 12.3244 11.7152 12.0782 11.8967 11.8967C12.0782 11.7152 12.3244 11.6133 12.581 11.6133H17.4197C17.6764 11.6133 17.9225 11.7152 18.104 11.8967C18.2855 12.0782 18.3875 12.3244 18.3875 12.581C18.3875 12.8377 18.2855 13.0838 18.104 13.2653C17.9225 13.4468 17.6764 13.5488 17.4197 13.5488Z" fill="#8A6762"/>
<path d="M19.1617 20.971L20.0956 20.4339L19.1279 18.7597L18.1891 19.3017C17.595 18.6592 16.821 18.2107 15.9682 18.0146V16.9355H14.0327V18.0146C13.1799 18.2107 12.4059 18.6592 11.8117 19.3017L10.873 18.7597L9.90527 20.4339L10.8391 20.971C10.5827 21.8099 10.5827 22.7063 10.8391 23.5452L9.90527 24.0823L10.873 25.7565L11.8117 25.2146C12.4059 25.857 13.1799 26.3055 14.0327 26.5017V27.5807H15.9682V26.5017C16.821 26.3055 17.595 25.857 18.1891 25.2146L19.1279 25.7565L20.0956 24.0823L19.1617 23.5452C19.4181 22.7063 19.4181 21.8099 19.1617 20.971Z" fill="url(#paint5_linear_177_765)"/>
<path d="M15.2424 21.7738H14.7586C14.6944 21.7738 14.6329 21.7484 14.5875 21.703C14.5421 21.6576 14.5166 21.5961 14.5166 21.5319C14.5166 21.4677 14.5421 21.4062 14.5875 21.3608C14.6329 21.3155 14.6944 21.29 14.7586 21.29H15.9682C16.0966 21.29 16.2196 21.239 16.3104 21.1483C16.4011 21.0575 16.4521 20.9344 16.4521 20.8061C16.4521 20.6778 16.4011 20.5547 16.3104 20.464C16.2196 20.3732 16.0966 20.3222 15.9682 20.3222H15.4844V19.8384C15.4844 19.71 15.4334 19.587 15.3426 19.4962C15.2519 19.4055 15.1288 19.3545 15.0005 19.3545C14.8722 19.3545 14.7491 19.4055 14.6583 19.4962C14.5676 19.587 14.5166 19.71 14.5166 19.8384V20.3222C14.3578 20.3381 14.2036 20.3851 14.0629 20.4606C13.9222 20.5361 13.7978 20.6385 13.6967 20.7621C13.4925 21.0116 13.3958 21.3321 13.4279 21.6529C13.46 21.9737 13.6182 22.2686 13.8678 22.4728C14.1173 22.677 14.4377 22.7737 14.7586 22.7416H15.2424C15.3066 22.7416 15.3681 22.7671 15.4135 22.8125C15.4589 22.8578 15.4844 22.9194 15.4844 22.9835C15.4844 23.0477 15.4589 23.1092 15.4135 23.1546C15.3681 23.2 15.3066 23.2255 15.2424 23.2255H14.0328C13.9044 23.2255 13.7813 23.2764 13.6906 23.3672C13.5999 23.4579 13.5489 23.581 13.5489 23.7093C13.5489 23.8377 13.5999 23.9607 13.6906 24.0515C13.7813 24.1422 13.9044 24.1932 14.0328 24.1932H14.5166V24.6771C14.5166 24.8054 14.5676 24.9285 14.6583 25.0192C14.7491 25.11 14.8722 25.1609 15.0005 25.1609C15.1288 25.1609 15.2519 25.11 15.3426 25.0192C15.4334 24.9285 15.4844 24.8054 15.4844 24.6771V24.1932C15.8052 24.1611 16.1001 24.0029 16.3043 23.7534C16.5085 23.5038 16.6052 23.1834 16.5731 22.8626C16.541 22.5417 16.3828 22.2468 16.1332 22.0426C15.8837 21.8384 15.5633 21.7418 15.2424 21.7738Z" fill="#FFF2E3"/>
<defs>
<linearGradient id="paint0_linear_177_765" x1="15" y1="24.6774" x2="15" y2="0" gradientUnits="userSpaceOnUse">
<stop stop-color="#D4D8E1"/>
<stop offset="1" stop-color="#F3F4F5"/>
</linearGradient>
<linearGradient id="paint1_linear_177_765" x1="15" y1="3.87097" x2="15" y2="0" gradientUnits="userSpaceOnUse">
<stop stop-color="#A0A6BA"/>
<stop offset="1" stop-color="#C6CCDA"/>
</linearGradient>
<linearGradient id="paint2_linear_177_765" x1="14.9955" y1="30.0004" x2="14.9955" y2="13.5488" gradientUnits="userSpaceOnUse">
<stop stop-color="#6AB891"/>
<stop offset="1" stop-color="#85CBA9"/>
</linearGradient>
<linearGradient id="paint3_linear_177_765" x1="14.9999" y1="11.6131" x2="14.9999" y2="6.77441" gradientUnits="userSpaceOnUse">
<stop stop-color="#6AB891"/>
<stop offset="1" stop-color="#85CBA9"/>
</linearGradient>
<linearGradient id="paint4_linear_177_765" x1="14.9999" y1="11.6131" x2="14.9999" y2="6.77441" gradientUnits="userSpaceOnUse">
<stop stop-color="#6AB891"/>
<stop offset="1" stop-color="#85CBA9"/>
</linearGradient>
<linearGradient id="paint5_linear_177_765" x1="15.0004" y1="27.5807" x2="15.0004" y2="16.9355" gradientUnits="userSpaceOnUse">
<stop stop-color="#E9A254"/>
<stop offset="1" stop-color="#F4BB79"/>
</linearGradient>
</defs>
</svg>
