<svg width="50" height="50" viewBox="0 0 50 50" fill="none" xmlns="http://www.w3.org/2000/svg">
<path d="M25.483 39.8148L23.9453 37.4728L24.1417 30.1622C23.3804 30.1182 22.6561 29.9769 22.0549 29.7218L22.694 35.2835L22.705 35.3792L22.8164 36.3488L23.4189 41.9629L23.4257 42.0267L23.7523 45.0714H24.9337L25.483 39.8148ZM15.2648 17.3812L18.3708 17.8411C18.502 17.8606 18.6417 17.9818 18.6827 18.1121L20.1523 22.7761C20.1757 22.8504 20.161 22.9106 20.1205 22.9458C20.2019 22.8952 20.2591 22.7889 20.2305 22.6982L18.7609 18.0343C18.7199 17.9041 18.5802 17.7828 18.449 17.7633L15.343 17.3033C15.2158 17.2845 15.0634 17.4075 15.0912 17.5337C15.0802 17.4304 15.1504 17.3642 15.2648 17.3812ZM15.0928 17.5458L15.095 17.5522C15.094 17.5471 15.0922 17.5417 15.0916 17.5367C15.0923 17.5397 15.0918 17.5428 15.0928 17.5458ZM24.4275 22.9895C24.544 20.9041 25.6661 19.0421 27.2564 17.6139C27.1211 17.6005 26.9829 17.6066 26.8457 17.6225C26.8036 17.5043 26.7596 17.383 26.7247 17.2783C26.707 17.2939 26.6884 17.3085 26.6705 17.3239C26.331 17.6109 25.9417 17.8426 25.5273 18.0048C25.4874 18.3087 25.4475 18.6128 25.4076 18.9168L25.2468 18.9336L25.2006 18.2517L25.1894 18.0843L24.9678 18.1884L25.0295 18.3531C24.7854 18.5016 24.5446 18.6631 24.3196 18.8278C23.8902 20.1676 24.044 21.6536 24.4275 22.9895ZM27.5869 28.3399L27.4881 29.7433C26.4712 30.0754 25.2665 30.2271 24.1417 30.1621L23.9453 37.4727L25.483 39.8146L27.0327 42.175L27.0715 42.2339L28.7305 44.7608L29.7774 44.1746L28.9695 42.0941L28.946 42.0337L28.1482 39.979C27.7416 38.9319 27.112 37.9849 26.3027 37.2029L26.9596 35.8619L26.9909 35.7979L28.1629 33.4054C28.747 32.2128 28.8782 30.8501 28.5322 29.5688L28.4691 29.3354C28.3252 29.4118 28.1706 29.4817 28.0118 29.5484L27.5869 28.3399Z" fill="#DADADA"/>
<path d="M24.8179 47.4422L24.8823 46.9618L24.9564 46.4075L24.8173 46.1964L24.9349 45.0716H23.7535L23.8638 46.0996L23.0078 48.0393L23.5676 48.1812L24.8179 47.4422ZM29.3362 45.6818L29.4609 47.7968L30.0241 47.6696L30.7998 46.4454L30.5737 45.8094L30.4499 45.4613L30.2296 45.3363L29.7786 44.1748L28.7315 44.761L29.3362 45.6818ZM18.412 22.8034C18.4193 22.7845 18.4287 22.7654 18.4352 22.7464C18.5789 22.3229 18.5153 21.9046 18.271 21.5197C18.2513 21.2761 18.2767 21.0294 18.3108 20.785C18.3185 20.73 18.2275 20.7033 18.2014 20.7598C18.1022 20.9747 18.0354 21.2352 18.0263 21.4923C18.0123 21.4917 17.9986 21.4912 17.985 21.491C17.9835 21.4778 17.9816 21.4646 17.9805 21.4513C17.9608 21.2077 17.9862 20.961 18.0203 20.7166C18.028 20.6616 17.937 20.6349 17.9109 20.6914C17.7999 20.9319 17.7295 21.2295 17.7352 21.5155C17.7347 21.5156 17.7342 21.5157 17.7336 21.5158C17.7291 21.486 17.7254 21.456 17.7229 21.4257C17.7033 21.182 17.7286 20.9354 17.7628 20.691C17.7704 20.636 17.6795 20.6093 17.6533 20.6657C17.5255 20.9427 17.4509 21.2958 17.4854 21.6192C17.4717 21.6276 17.4579 21.6368 17.4442 21.6463C17.4439 21.6419 17.4431 21.6376 17.4428 21.6332C17.4231 21.3896 17.4485 21.1429 17.4826 20.8985C17.4902 20.8435 17.3993 20.8168 17.3732 20.8733C17.203 21.242 17.1279 21.7449 17.278 22.1337C17.2984 22.2882 17.3338 22.4403 17.3782 22.5899C17.4402 22.7992 17.5227 23.003 17.6303 23.1959C17.6293 23.197 17.6288 23.1979 17.6278 23.199C18.2745 23.7809 19.0709 24.3319 19.8939 24.9198C20.0772 24.5348 20.2461 24.1428 20.4574 23.7719C19.8125 23.5198 19.2101 23.2371 18.412 22.8034ZM25.2478 18.9336L25.4086 18.9168C25.4486 18.6129 25.4884 18.3088 25.5284 18.0049C25.9426 17.8425 26.3319 17.611 26.6715 17.3239L26.6073 16.3755L26.5892 16.1074L26.5739 16.109C26.5992 15.9926 26.6134 15.8721 26.6134 15.7481L26.2967 15.4972C25.7189 15.3782 25.1629 15.1506 24.6582 14.8098C24.0815 14.4203 23.5492 13.906 23.246 13.2988L23.3734 14.7062L23.5107 16.2233C23.5107 16.8988 24.0647 17.4448 24.475 17.4448H24.9085C24.9893 17.4448 25.0682 17.4373 25.1459 17.4264L25.1905 18.0844L25.2018 18.2518L25.2478 18.9336ZM28.6084 25.0702C28.3094 25.5819 28.0053 26.1112 27.7216 26.5709C27.6404 26.7026 27.5609 26.8282 27.4836 26.9463C27.3108 26.8898 27.1333 26.8483 26.9532 26.8237C26.5634 26.6723 26.0576 26.7446 25.6862 26.912C25.6293 26.9376 25.6556 27.0283 25.711 27.021C25.9568 26.9882 26.2048 26.9643 26.4495 26.9852C26.4539 26.9856 26.4582 26.9863 26.4626 26.9868C26.4531 27.0003 26.4438 27.014 26.4353 27.0275C26.1106 26.9916 25.7555 27.0639 25.4764 27.1897C25.4194 27.2153 25.4458 27.3061 25.5012 27.2987C25.747 27.2659 25.9949 27.242 26.2397 27.2629C26.27 27.2655 26.3001 27.2695 26.3301 27.274C26.33 27.2745 26.3299 27.275 26.3298 27.2756C26.0426 27.2685 25.743 27.337 25.5008 27.4461C25.4438 27.4718 25.4702 27.5625 25.5256 27.5552C25.7714 27.5224 26.0194 27.4985 26.2641 27.5194C26.2774 27.5205 26.2905 27.5225 26.3039 27.5241C26.304 27.5376 26.3044 27.5513 26.305 27.5652C26.0467 27.5729 25.7845 27.6381 25.568 27.7356C25.511 27.7612 25.5374 27.852 25.5927 27.8446C25.8385 27.8119 26.0865 27.7879 26.3312 27.8088C26.6868 28.035 27.0312 28.2121 27.4078 28.1515C27.5499 28.1286 27.6713 28.0397 27.7367 27.9141C27.8415 27.7934 27.9451 27.6766 28.0477 27.5631C28.5787 26.9756 29.0796 26.4763 29.5435 25.9945C29.1864 25.7371 28.8772 25.4075 28.6084 25.0702Z" fill="#C58936"/>
<path d="M49.6117 49.2258H29.3536L29.0674 49.3714L29.1429 49.2258H25.0316L25.0266 49.2644H24.8238L24.8202 49.2258H23.2402L23.1972 49.2644H21.9367L21.9907 49.2258H11.4767H10.5565H10.1981H9.61553H9.25218H8.78378H8.43936H7.84139H7.50791H6.76055H6.4159H6.30855H5.95879H5.72125H5.33907H4.69373H0.3891C0.174148 49.2258 0 49.3993 0 49.6131C0 49.8269 0.174269 50.0003 0.3891 50.0003H49.6118C49.8268 50.0003 50.0009 49.8269 50.0009 49.6131C50.0009 49.3993 49.8267 49.2258 49.6117 49.2258ZM24.6555 14.8083C25.1602 15.1491 25.7162 15.3766 26.294 15.4957L26.6107 15.7466C26.6107 15.8706 26.5965 15.9911 26.5711 16.1075L26.5864 16.1059L26.6045 16.374C27.1664 16.0666 27.601 15.5246 27.7807 14.9081C27.914 14.451 27.9116 13.9626 27.7966 13.5002C27.8571 13.4147 27.9094 13.3235 27.9522 13.2282C28.1785 12.723 28.1448 12.1182 27.8973 11.623C27.6447 11.1173 27.1633 10.719 26.6061 10.6118C26.0491 10.5046 25.4306 10.7117 25.0881 11.1619C25.0497 11.2123 25.0161 11.266 24.9858 11.3214C24.232 11.3705 23.4987 11.7833 23.1297 12.4386C22.7304 13.1477 22.8181 14.111 23.3705 14.7048L23.2431 13.2974C23.5465 13.9045 24.0788 14.4187 24.6555 14.8083ZM17.3707 20.8719C17.3968 20.8153 17.4878 20.842 17.4801 20.8971C17.446 21.1415 17.4206 21.3883 17.4403 21.6318C17.4406 21.6362 17.4414 21.6405 17.4417 21.6449C17.4555 21.6356 17.4692 21.6263 17.4829 21.6178C17.4485 21.2944 17.523 20.9414 17.6509 20.6644C17.677 20.6078 17.7679 20.6345 17.7603 20.6896C17.7262 20.934 17.7008 21.1808 17.7204 21.4243C17.7229 21.4545 17.7266 21.4846 17.7311 21.5145C17.7316 21.5143 17.7321 21.5142 17.7327 21.5141C17.727 21.2282 17.7974 20.9305 17.9084 20.69C17.9345 20.6334 18.0255 20.6601 18.0179 20.7152C17.9837 20.9596 17.9584 21.2064 17.978 21.4499C17.9791 21.4632 17.9811 21.4764 17.9825 21.4896C17.9961 21.4898 18.0098 21.4902 18.0238 21.4909C18.0329 21.2338 18.0997 20.9733 18.1989 20.7584C18.225 20.7018 18.316 20.7285 18.3083 20.7836C18.2742 21.028 18.2488 21.2748 18.2685 21.5183C18.5129 21.9033 18.5765 22.3215 18.4327 22.745L19.9874 22.9752C20.0438 22.9836 20.0884 22.9709 20.1189 22.9444C20.1595 22.9093 20.1742 22.8491 20.1507 22.7747L18.6812 18.1108C18.6401 17.9806 18.5005 17.8593 18.3692 17.8398L15.2632 17.3798C15.1488 17.3629 15.0786 17.429 15.0896 17.5324C15.0898 17.5333 15.0899 17.5343 15.09 17.5354C15.0906 17.5403 15.0924 17.5458 15.0934 17.5509C15.0952 17.5606 15.0966 17.5701 15.0998 17.5803L16.5694 22.2443C16.6105 22.3745 16.7501 22.4958 16.8814 22.5153L17.3755 22.5885C17.3312 22.4389 17.2958 22.2869 17.2754 22.1323C17.1254 21.7435 17.2004 21.2405 17.3707 20.8719ZM46.5744 12.0782L46.7735 12.3671C46.7978 12.3341 46.83 12.3075 46.8674 12.2896L46.6703 12.0035C46.6449 12.0357 46.6125 12.0618 46.5744 12.0782ZM47.1812 12.3734L48.4279 11.2736C48.394 11.2505 48.3671 11.2188 48.3481 11.1825L47.0888 12.2934C47.1257 12.3122 47.1579 12.3393 47.1812 12.3734ZM41.0556 13.3115C41.0889 13.3356 41.1157 13.3677 41.1337 13.405L42.8489 12.2836C42.8185 12.2564 42.7951 12.2223 42.7808 12.1834L41.0556 13.3115ZM45.6685 12.3441L44.5682 13.0836C44.5977 13.1117 44.6196 13.1468 44.6326 13.1862L45.7636 12.4259L46.5959 13.1424C46.614 13.1054 46.6408 13.0736 46.6739 13.0497L45.8679 12.356L46.3254 12.0484C46.2926 12.0237 46.266 11.9917 46.2486 11.9541L45.7728 12.2739L45.6686 12.1842C45.6522 12.2222 45.6261 12.2544 45.594 12.2798L45.6685 12.3441ZM42.6541 12.9766L41.4072 14.0764C41.4411 14.0994 41.4681 14.1311 41.487 14.1675L42.7464 13.0566C42.7094 13.0376 42.6774 13.0105 42.6541 12.9766ZM44.0715 12.9237L43.2392 12.2073C43.2211 12.2443 43.1944 12.2761 43.1612 12.3L43.9672 12.9937L43.5097 13.3013C43.5425 13.3258 43.5691 13.358 43.5865 13.3956L44.0623 13.0757L44.1665 13.1653C44.1829 13.1274 44.209 13.0951 44.2411 13.0697L44.1665 13.0056L45.2668 12.266C45.2372 12.2381 45.2154 12.2028 45.2024 12.1634L45.1207 12.2183L45.0759 12.2484L44.0715 12.9237ZM48.7795 12.0384C48.7462 12.0142 48.7194 11.9822 48.7014 11.9448L46.9863 13.0662C47.0166 13.0934 47.0401 13.1275 47.0543 13.1664L48.7795 12.0384ZM43.2607 13.2716L43.0616 12.9827C43.0373 13.0157 43.0051 13.0423 42.9677 13.0602L43.1648 13.3463C43.1902 13.3141 43.2226 13.288 43.2607 13.2716Z" fill="#9E8F7A"/>
<path d="M40.7415 22.0007C40.7446 21.8807 40.746 21.7603 40.746 21.6396V21.6114C40.746 21.5866 40.7259 21.5666 40.701 21.5666C40.6761 21.5666 40.6559 21.5866 40.6559 21.6114V21.6396C40.6559 21.7596 40.6545 21.8792 40.6514 21.9985C40.6508 22.0233 40.6705 22.0439 40.6954 22.0446C40.6959 22.0446 40.6962 22.0446 40.6965 22.0446C40.7208 22.0444 40.7408 22.0251 40.7415 22.0007ZM40.6373 23.0327C40.6603 23.0327 40.68 23.0153 40.6822 22.9921C40.6936 22.8724 40.7034 22.7524 40.7117 22.6319C40.7134 22.6071 40.6945 22.5857 40.6698 22.5841C40.6449 22.583 40.6234 22.6011 40.6217 22.6257C40.6134 22.7454 40.6037 22.8647 40.5923 22.9835C40.59 23.0081 40.6082 23.0301 40.633 23.0324C40.6344 23.0327 40.6359 23.0327 40.6373 23.0327ZM39.9557 17.1456C39.9604 17.1456 39.9654 17.1449 39.9701 17.1432C39.9937 17.1352 40.0065 17.1099 39.9984 17.0863C39.9597 16.972 39.9195 16.8585 39.878 16.7455C39.8695 16.7223 39.8436 16.7103 39.82 16.7188C39.7966 16.7274 39.7846 16.7531 39.7932 16.7764C39.8345 16.8887 39.8743 17.0016 39.9129 17.1152C39.9193 17.1339 39.9369 17.1456 39.9557 17.1456ZM40.6197 20.6249C40.6282 20.7439 40.6353 20.8633 40.6407 20.9832C40.6418 21.0072 40.6618 21.0261 40.6858 21.0261C40.6864 21.0261 40.6871 21.0261 40.6879 21.0261C40.7128 21.025 40.732 21.004 40.7309 20.9792C40.7254 20.8586 40.7183 20.7383 40.7098 20.6184C40.708 20.5937 40.6847 20.5747 40.6616 20.5769C40.6367 20.5787 40.6179 20.6002 40.6197 20.6249ZM39.8024 26.4774C39.7611 26.5903 39.7185 26.7026 39.6743 26.8141C39.6652 26.8372 39.6765 26.8633 39.6997 26.8724C39.7052 26.8746 39.7107 26.8755 39.7162 26.8755C39.7342 26.8755 39.7512 26.8648 39.7581 26.8471C39.8026 26.7347 39.8455 26.6217 39.8871 26.5081C39.8956 26.4848 39.8836 26.4591 39.8601 26.4506C39.8368 26.4424 39.8109 26.4542 39.8024 26.4774ZM39.6053 16.2208C39.6112 16.2208 39.617 16.2198 39.6227 16.2173C39.6457 16.2078 39.6566 16.1816 39.647 16.1586C39.6006 16.0478 39.5526 15.9376 39.5033 15.8282C39.4931 15.8055 39.4664 15.7954 39.4438 15.8055C39.4211 15.8156 39.4109 15.8422 39.4211 15.8648C39.47 15.9735 39.5175 16.083 39.5638 16.1932C39.5711 16.2105 39.5877 16.2208 39.6053 16.2208ZM40.1651 25.5065C40.1408 25.4991 40.1161 25.5134 40.1093 25.5373C40.0762 25.6525 40.0417 25.767 40.0057 25.8811C39.9982 25.9047 40.0114 25.93 40.0352 25.9373C40.0397 25.9388 40.0442 25.9394 40.0487 25.9394C40.0679 25.9394 40.0858 25.9271 40.0917 25.908C40.128 25.7932 40.1628 25.6779 40.196 25.562C40.2028 25.5381 40.189 25.5132 40.1651 25.5065ZM39.4297 27.3947C39.3805 27.5045 39.33 27.6134 39.2782 27.7215C39.2674 27.744 39.277 27.7707 39.2994 27.7814C39.3057 27.7844 39.3124 27.7857 39.3189 27.7857C39.3357 27.7857 39.3518 27.7763 39.3595 27.7602C39.4118 27.6513 39.4626 27.5417 39.5122 27.4314C39.5223 27.4086 39.5121 27.3822 39.4894 27.372C39.4666 27.3621 39.4399 27.3721 39.4297 27.3947ZM40.2405 18.0942C40.2441 18.0942 40.248 18.0938 40.2519 18.0928C40.2761 18.0865 40.2905 18.062 40.2842 18.038C40.2536 17.9213 40.2217 17.8052 40.1881 17.6896C40.1812 17.6658 40.156 17.6521 40.1323 17.6589C40.1083 17.6658 40.0946 17.6907 40.1014 17.7145C40.1347 17.8293 40.1665 17.9447 40.1969 18.0606C40.2022 18.0809 40.2204 18.0942 40.2405 18.0942ZM40.5537 19.5929C40.529 19.5964 40.5118 19.6191 40.5153 19.6436C40.5321 19.7618 40.5474 19.8805 40.5612 19.9997C40.5639 20.0225 40.5834 20.0394 40.606 20.0394C40.6078 20.0394 40.6095 20.0393 40.6114 20.0391C40.6361 20.0362 40.6539 20.0139 40.651 19.9893C40.637 19.8694 40.6216 19.75 40.6047 19.6311C40.6013 19.6064 40.5787 19.589 40.5537 19.5929ZM40.3025 24.9839C40.3061 24.9847 40.3096 24.9851 40.313 24.9851C40.3334 24.9851 40.352 24.9712 40.3568 24.9507C40.3849 24.8336 40.4113 24.7161 40.4365 24.5981C40.4416 24.5738 40.426 24.55 40.4016 24.5449C40.3771 24.5404 40.3533 24.5553 40.3482 24.5796C40.3233 24.697 40.2969 24.8136 40.2691 24.9299C40.2633 24.9539 40.2784 24.9781 40.3025 24.9839ZM40.5021 24.0139C40.5046 24.0144 40.507 24.0145 40.5096 24.0145C40.5312 24.0145 40.5503 23.9989 40.554 23.9769C40.5738 23.8582 40.592 23.7392 40.6088 23.6197C40.6122 23.595 40.5951 23.5724 40.5704 23.569C40.5465 23.5663 40.5228 23.5827 40.5196 23.6072C40.5029 23.726 40.4848 23.8443 40.4651 23.9622C40.4609 23.9867 40.4774 24.0098 40.5021 24.0139ZM40.4659 19.0596C40.4904 19.055 40.5064 19.0316 40.5019 19.0073C40.4796 18.8888 40.4559 18.7707 40.4307 18.6531C40.4253 18.6289 40.4016 18.6132 40.3771 18.6186C40.3528 18.6237 40.3371 18.6476 40.3424 18.6719C40.3674 18.7887 40.3911 18.906 40.4133 19.024C40.4173 19.0455 40.4362 19.0606 40.4575 19.0606C40.4603 19.0605 40.4631 19.0602 40.4659 19.0596ZM33.8707 9.57146C33.8859 9.57146 33.9007 9.56384 33.9092 9.54994C33.9222 9.52879 33.9155 9.50124 33.8943 9.48819C33.7909 9.42534 33.6869 9.3637 33.5818 9.3034C33.5603 9.29107 33.5326 9.29844 33.5202 9.31983C33.5077 9.34134 33.5151 9.36878 33.5368 9.38123C33.6411 9.44117 33.7447 9.50233 33.8473 9.56493C33.8546 9.5694 33.8627 9.57146 33.8707 9.57146ZM13.5839 15.5105C13.5613 15.4999 13.5344 15.5094 13.5237 15.5317C13.4718 15.6406 13.421 15.7504 13.3716 15.8607C13.3615 15.8833 13.3717 15.9099 13.3945 15.9199C13.4005 15.9226 13.4067 15.9238 13.4129 15.9238C13.4302 15.9238 13.4466 15.9139 13.4542 15.8971C13.5032 15.7873 13.5536 15.6784 13.6053 15.5702C13.6159 15.5479 13.6064 15.5211 13.5839 15.5105ZM13.2614 27.0486C13.2385 27.0582 13.2275 27.0845 13.2371 27.1073C13.2835 27.2183 13.3313 27.3285 13.3804 27.438C13.388 27.4547 13.4044 27.4646 13.4217 27.4646C13.4278 27.4646 13.4341 27.4634 13.4401 27.4607C13.4628 27.4506 13.473 27.424 13.4629 27.4014C13.4141 27.2926 13.3666 27.1831 13.3204 27.0729C13.3109 27.0498 13.2844 27.0394 13.2614 27.0486ZM12.3275 23.6727C12.3296 23.6727 12.3317 23.6726 12.3339 23.6722C12.3585 23.6689 12.3758 23.6461 12.3722 23.6216C12.3556 23.5034 12.3404 23.3847 12.3267 23.2654C12.3239 23.2409 12.3014 23.2229 12.2768 23.226C12.252 23.2288 12.2343 23.2512 12.2372 23.2757C12.251 23.3956 12.2663 23.515 12.2831 23.6341C12.2861 23.6565 12.3054 23.6727 12.3275 23.6727ZM14.0462 14.6318C14.0246 14.6197 13.9969 14.6272 13.9847 14.6489C13.9251 14.7539 13.8668 14.8596 13.8099 14.9662C13.7982 14.9881 13.8065 15.0153 13.8284 15.0269C13.8351 15.0305 13.8424 15.0322 13.8496 15.0322C13.8657 15.0322 13.8814 15.0236 13.8894 15.0084C13.946 14.9024 14.0039 14.7974 14.0632 14.6931C14.0756 14.6715 14.0679 14.644 14.0462 14.6318ZM13.1844 16.4197C13.1612 16.4107 13.1351 16.422 13.126 16.445C13.0817 16.5573 13.0388 16.6703 12.9974 16.784C12.9889 16.8074 13.0011 16.8331 13.0245 16.8416C13.0296 16.8434 13.0348 16.8442 13.0399 16.8442C13.0584 16.8442 13.0757 16.8329 13.0823 16.8146C13.1235 16.7017 13.1661 16.5893 13.2101 16.4778C13.219 16.4548 13.2076 16.4287 13.1844 16.4197ZM12.2238 22.6881C12.2249 22.6881 12.2259 22.6881 12.227 22.688C12.2519 22.6862 12.2706 22.6648 12.2689 22.6401C12.2605 22.5211 12.2537 22.4016 12.2482 22.2817C12.2471 22.2569 12.2256 22.2367 12.2011 22.2389C12.1762 22.24 12.157 22.261 12.1581 22.2858C12.1636 22.4064 12.1705 22.5266 12.1789 22.6464C12.1805 22.67 12.2003 22.6881 12.2238 22.6881ZM12.915 26.1224C12.8914 26.1302 12.8786 26.1557 12.8865 26.1792C12.9252 26.2935 12.9652 26.4072 13.0066 26.5201C13.0133 26.5382 13.0306 26.5496 13.049 26.5496C13.0541 26.5496 13.0593 26.5487 13.0644 26.5469C13.0879 26.5385 13.0999 26.5126 13.0914 26.4893C13.0502 26.377 13.0104 26.2642 12.972 26.1505C12.9641 26.1271 12.9386 26.1145 12.915 26.1224ZM12.2219 20.7092C12.2454 20.7092 12.2652 20.6911 12.2668 20.6674C12.275 20.5477 12.2847 20.4285 12.2958 20.3095C12.2981 20.2849 12.2799 20.263 12.255 20.2607C12.2305 20.2584 12.2083 20.2765 12.206 20.3013C12.1948 20.421 12.1851 20.541 12.1768 20.6615C12.1751 20.6862 12.194 20.7076 12.2188 20.7093C12.2198 20.7091 12.2209 20.7092 12.2219 20.7092ZM14.1447 28.8166C14.1233 28.8293 14.1161 28.8569 14.1289 28.8781C14.1905 28.9817 14.2534 29.0843 14.3174 29.1861C14.326 29.1996 14.3407 29.2071 14.3556 29.2071C14.3638 29.2071 14.3721 29.2049 14.3795 29.2002C14.4007 29.187 14.407 29.1594 14.3938 29.1383C14.3301 29.0373 14.2676 28.9352 14.2064 28.8323C14.1939 28.8112 14.1662 28.804 14.1447 28.8166ZM23.3189 7.74834C23.2006 7.77456 23.0828 7.80224 22.9656 7.83149C22.9414 7.83753 22.9267 7.86182 22.9328 7.88587C22.9379 7.9063 22.9563 7.91983 22.9765 7.91983C22.9802 7.91983 22.9838 7.91935 22.9875 7.9185C23.1039 7.88962 23.221 7.86206 23.3386 7.83596C23.3628 7.83052 23.3781 7.80659 23.3727 7.78242C23.3673 7.75813 23.3433 7.7429 23.3189 7.74834ZM13.6718 27.9477C13.6496 27.9588 13.6404 27.9858 13.6517 28.0078C13.7058 28.1153 13.7613 28.222 13.818 28.328C13.8261 28.3432 13.8418 28.3518 13.8578 28.3518C13.865 28.3518 13.8723 28.3501 13.879 28.3465C13.9009 28.3349 13.9093 28.3077 13.8975 28.2857C13.8412 28.1804 13.7861 28.0744 13.7323 27.9677C13.7212 27.9455 13.6942 27.9367 13.6718 27.9477ZM39.1912 15.3234C39.1981 15.3234 39.2049 15.3218 39.2115 15.3185C39.2338 15.3074 39.2427 15.2803 39.2315 15.2582C39.1774 15.1508 39.1218 15.0442 39.0649 14.9383C39.053 14.9163 39.0254 14.9083 39.0038 14.92C38.9819 14.9316 38.9735 14.9589 38.9853 14.9807C39.0417 15.0859 39.0971 15.1919 39.151 15.2986C39.1589 15.3143 39.1747 15.3234 39.1912 15.3234ZM20.4875 8.69706C20.3777 8.74722 20.2686 8.7987 20.1604 8.85139C20.1381 8.86227 20.1288 8.88922 20.1398 8.91146C20.1477 8.92729 20.1637 8.9366 20.1803 8.9366C20.187 8.9366 20.1938 8.93515 20.2001 8.932C20.3076 8.87955 20.4159 8.82843 20.5251 8.77864C20.5477 8.76824 20.5577 8.74166 20.5473 8.71906C20.5369 8.69658 20.5102 8.68679 20.4875 8.69706ZM14.5689 13.788C14.5481 13.7742 14.5201 13.7799 14.5063 13.8007C14.4395 13.9014 14.374 14.0028 14.3097 14.105C14.2965 14.126 14.3029 14.1537 14.324 14.1669C14.3315 14.1715 14.3398 14.1738 14.348 14.1738C14.363 14.1738 14.3777 14.1663 14.3862 14.1528C14.4501 14.0511 14.5152 13.9503 14.5816 13.8504C14.5953 13.8295 14.5896 13.8017 14.5689 13.788ZM22.3531 7.99839C22.2368 8.03283 22.1213 8.06873 22.0065 8.10607C21.9828 8.11369 21.9699 8.13907 21.9776 8.16263C21.9837 8.18161 22.0015 8.19357 22.0204 8.19357C22.025 8.19357 22.0298 8.19285 22.0344 8.1914C22.1485 8.1543 22.2633 8.11876 22.3787 8.08444C22.4026 8.07743 22.4162 8.05241 22.409 8.0286C22.402 8.0048 22.377 7.99114 22.3531 7.99839ZM17.1409 10.8305C17.0491 10.9089 16.9584 10.9883 16.8685 11.069C16.85 11.0855 16.8486 11.1139 16.8652 11.1323C16.8741 11.1421 16.8863 11.1472 16.8987 11.1472C16.9095 11.1472 16.9204 11.1433 16.929 11.1356C17.0182 11.0554 17.1085 10.9765 17.1997 10.8987C17.2186 10.8826 17.2207 10.8542 17.2045 10.8354C17.1884 10.8166 17.1598 10.8145 17.1409 10.8305ZM14.6776 29.651C14.657 29.6651 14.6519 29.6931 14.666 29.7135C14.7348 29.8126 14.8046 29.9107 14.8758 30.0078C14.8846 30.0199 14.8983 30.0263 14.9123 30.0263C14.9215 30.0263 14.9308 30.0235 14.9388 30.0177C14.9589 30.0031 14.9633 29.975 14.9487 29.955C14.8781 29.8584 14.8086 29.7609 14.7403 29.6624C14.7261 29.6421 14.698 29.637 14.6776 29.651ZM15.1491 12.9827C15.1293 12.9678 15.101 12.9715 15.0858 12.9911C15.0123 13.0868 14.9399 13.1834 14.8686 13.2809C14.8539 13.301 14.8584 13.329 14.8785 13.3436C14.8866 13.3494 14.8958 13.3522 14.905 13.3522C14.919 13.3522 14.9327 13.3458 14.9416 13.3337C15.0124 13.2368 15.0844 13.1408 15.1575 13.0457C15.1727 13.026 15.1689 12.9977 15.1491 12.9827ZM16.4064 11.5025C16.3203 11.587 16.2352 11.6725 16.1511 11.7592C16.1338 11.7771 16.1344 11.8055 16.1522 11.8226C16.161 11.8311 16.1723 11.8352 16.1836 11.8352C16.1953 11.8352 16.2071 11.8306 16.216 11.8214C16.2994 11.7354 16.3841 11.6503 16.4697 11.5663C16.4874 11.5489 16.4877 11.5205 16.4702 11.5029C16.4527 11.4853 16.4241 11.4851 16.4064 11.5025ZM15.7203 12.2239C15.6402 12.3142 15.5613 12.4054 15.4835 12.4977C15.4674 12.5167 15.47 12.545 15.489 12.561C15.4975 12.568 15.5077 12.5715 15.5179 12.5715C15.5308 12.5715 15.5436 12.566 15.5526 12.5554C15.6299 12.4637 15.7084 12.3729 15.7879 12.2832C15.8044 12.2646 15.8026 12.2363 15.7839 12.2199C15.7654 12.2036 15.7368 12.2053 15.7203 12.2239ZM12.1477 21.2926C12.1449 21.4079 12.1436 21.5235 12.1436 21.6396V21.6537C12.1436 21.6785 12.1637 21.6985 12.1886 21.6985C12.2135 21.6985 12.2337 21.6785 12.2337 21.6537V21.6396C12.2337 21.5243 12.2351 21.4093 12.2378 21.2948C12.2384 21.27 12.2187 21.2494 12.1938 21.2488C12.1686 21.2474 12.1484 21.2677 12.1477 21.2926ZM20.1778 34.4361C20.1842 34.4391 20.1909 34.4407 20.1976 34.4407C20.2142 34.4407 20.2304 34.4314 20.2381 34.4155C20.2491 34.3933 20.2398 34.3663 20.2174 34.3555C20.1089 34.3028 20.0013 34.2487 19.8946 34.1934C19.8724 34.1819 19.8452 34.1904 19.8337 34.2125C19.8222 34.2344 19.8308 34.2616 19.8529 34.273C19.9605 34.3286 20.0687 34.383 20.1778 34.4361ZM21.0915 34.8411C21.0971 34.8432 21.1028 34.8443 21.1084 34.8443C21.1262 34.8443 21.1431 34.8337 21.1502 34.8163C21.1595 34.7933 21.1484 34.7671 21.1253 34.7578C21.0133 34.7128 20.9021 34.6664 20.7916 34.6187C20.7688 34.6088 20.7422 34.6193 20.7322 34.642C20.7223 34.6648 20.7328 34.6912 20.7556 34.7011C20.867 34.7491 20.9788 34.7957 21.0915 34.8411ZM17.6684 32.8654C17.6819 32.8654 17.6951 32.8595 17.704 32.8481C17.7193 32.8287 17.7159 32.8004 17.6962 32.7852C17.6014 32.7113 17.5076 32.6364 17.4147 32.5603C17.3956 32.5444 17.3671 32.5473 17.3512 32.5663C17.3353 32.5854 17.3381 32.6138 17.3573 32.6295C17.4507 32.7061 17.545 32.7817 17.6405 32.8557C17.649 32.8624 17.6588 32.8654 17.6684 32.8654ZM19.2954 33.9684C19.3026 33.9725 19.3103 33.9744 19.318 33.9744C19.3335 33.9744 19.3487 33.9663 19.3571 33.9519C19.3696 33.9305 19.3622 33.903 19.3407 33.8906C19.2364 33.8306 19.1329 33.7692 19.0302 33.7066C19.0089 33.6936 18.9811 33.7003 18.9681 33.7214C18.9551 33.7426 18.9618 33.7701 18.983 33.7832C19.0864 33.8463 19.1905 33.9079 19.2954 33.9684ZM22.0321 35.1813C22.0367 35.1827 22.0414 35.1834 22.046 35.1834C22.0651 35.1834 22.0828 35.1714 22.0889 35.1524C22.0966 35.1288 22.0836 35.1034 22.0599 35.0958C21.945 35.0587 21.8307 35.0203 21.7171 34.9804C21.6935 34.9719 21.6678 34.9844 21.6595 35.0077C21.6512 35.0312 21.6635 35.0568 21.6871 35.065C21.8013 35.1052 21.9165 35.1439 22.0321 35.1813ZM18.4736 33.4484C18.488 33.4484 18.5023 33.4415 18.511 33.4287C18.525 33.4082 18.5195 33.3803 18.4989 33.3664C18.399 33.2992 18.3002 33.2309 18.2022 33.1614C18.1819 33.1471 18.1538 33.1518 18.1393 33.1719C18.1248 33.1921 18.1295 33.2201 18.1498 33.2345C18.2484 33.3044 18.3479 33.3733 18.4483 33.4407C18.4561 33.446 18.465 33.4484 18.4736 33.4484ZM27.5769 35.7378C27.552 35.7397 27.5334 35.7613 27.5355 35.786C27.5373 35.8095 27.5571 35.8274 27.5803 35.8274C27.5815 35.8274 27.5827 35.8272 27.5839 35.8272C27.705 35.8178 27.8255 35.8068 27.9455 35.7942C27.9702 35.7917 27.9883 35.7696 27.9857 35.7449C27.9831 35.7203 27.9604 35.7019 27.9361 35.7049C27.8168 35.7174 27.6971 35.7284 27.5769 35.7378ZM28.5623 35.626C28.5376 35.6296 28.5206 35.6525 28.5242 35.677C28.5275 35.6994 28.5468 35.7153 28.5687 35.7153C28.5709 35.7153 28.5732 35.7152 28.5754 35.7148C28.6954 35.6971 28.8147 35.6777 28.9337 35.657C28.9583 35.6526 28.9747 35.6294 28.9704 35.6051C28.9662 35.5806 28.9414 35.5637 28.9182 35.5686C28.8 35.5892 28.6814 35.6084 28.5623 35.626ZM29.8883 35.364C29.7719 35.3929 29.6547 35.4203 29.5372 35.4463C29.5129 35.4516 29.4976 35.4757 29.5029 35.4998C29.5076 35.5208 29.5263 35.535 29.547 35.535C29.5502 35.535 29.5536 35.5346 29.5569 35.5339C29.6752 35.5078 29.793 35.4801 29.9103 35.4511C29.9344 35.4452 29.9491 35.4208 29.9432 35.3966C29.937 35.3726 29.9126 35.358 29.8883 35.364ZM30.8417 35.0921C30.7276 35.1291 30.6127 35.1646 30.4972 35.1987C30.4733 35.2058 30.4598 35.2307 30.4668 35.2545C30.4727 35.274 30.4906 35.2867 30.5101 35.2867C30.5143 35.2867 30.5186 35.286 30.5229 35.2848C30.6392 35.2505 30.7546 35.2147 30.8695 35.1775C30.8932 35.1698 30.9062 35.1445 30.8986 35.121C30.8908 35.0973 30.8653 35.0846 30.8417 35.0921ZM22.6644 35.2761C22.6405 35.2697 22.6156 35.2836 22.6089 35.3076C22.6024 35.3315 22.6165 35.3563 22.6404 35.3628C22.6607 35.3684 22.6812 35.3732 22.7016 35.3787L22.6905 35.283C22.6819 35.2806 22.6732 35.2784 22.6644 35.2761ZM16.9064 32.2285C16.9188 32.2285 16.931 32.2236 16.9399 32.2136C16.9565 32.1953 16.9551 32.1669 16.9366 32.1502C16.8472 32.0701 16.759 31.9887 16.6716 31.9064C16.6535 31.8896 16.625 31.8902 16.6079 31.9082C16.5908 31.9262 16.5915 31.9546 16.6096 31.9717C16.6974 32.0546 16.7863 32.1362 16.8761 32.2168C16.8848 32.2246 16.8956 32.2285 16.9064 32.2285ZM12.5835 18.309C12.5594 18.3031 12.535 18.3182 12.5293 18.3424C12.5013 18.4593 12.475 18.5768 12.45 18.6949C12.4449 18.7192 12.4604 18.743 12.4848 18.7481C12.488 18.7487 12.4911 18.749 12.4942 18.749C12.515 18.749 12.5337 18.7345 12.5382 18.7134C12.563 18.596 12.5892 18.4793 12.6171 18.363C12.6229 18.339 12.6078 18.3147 12.5835 18.309ZM12.5001 24.6477C12.5031 24.6477 12.5064 24.6473 12.5096 24.6467C12.534 24.6415 12.5495 24.6177 12.5443 24.5935C12.5193 24.4767 12.4959 24.3593 12.4739 24.2414C12.4694 24.2169 12.4458 24.201 12.4213 24.2055C12.3968 24.2099 12.3806 24.2334 12.3852 24.2578C12.4074 24.3764 12.4311 24.4944 12.4561 24.612C12.4605 24.6333 12.4793 24.6477 12.5001 24.6477ZM12.8501 17.3552C12.8262 17.3477 12.801 17.3609 12.7936 17.3846C12.7576 17.4994 12.7228 17.6148 12.6897 17.7307C12.6829 17.7545 12.6967 17.7794 12.7206 17.7862C12.7248 17.7873 12.729 17.7879 12.733 17.7879C12.7526 17.7879 12.7707 17.7751 12.7764 17.7552C12.8094 17.6399 12.8438 17.5254 12.8797 17.4113C12.8871 17.3877 12.8739 17.3626 12.8501 17.3552ZM12.6976 25.5757C12.7033 25.5954 12.7213 25.6082 12.7409 25.6082C12.7451 25.6082 12.7493 25.6078 12.7534 25.6064C12.7774 25.5995 12.7912 25.5746 12.7843 25.551C12.7511 25.4361 12.7194 25.3206 12.6891 25.2046C12.6828 25.1805 12.6582 25.1664 12.6341 25.1724C12.61 25.1787 12.5956 25.2032 12.6018 25.2272C12.6324 25.3439 12.6642 25.4602 12.6976 25.5757ZM15.525 30.8054C15.5352 30.8054 15.5455 30.802 15.554 30.7949C15.5731 30.779 15.5755 30.7507 15.5595 30.7317C15.4822 30.6402 15.4061 30.5476 15.3312 30.4542C15.3156 30.4348 15.2872 30.4316 15.2678 30.4471C15.2483 30.4626 15.2452 30.4907 15.2606 30.5102C15.336 30.6043 15.4126 30.6974 15.4905 30.7895C15.4994 30.8 15.5121 30.8054 15.525 30.8054ZM16.1907 31.5407C16.202 31.5407 16.2133 31.5365 16.2221 31.5281C16.2399 31.511 16.2404 31.4826 16.2232 31.4647C16.1397 31.3786 16.0573 31.2917 15.976 31.2035C15.9591 31.1852 15.9305 31.1841 15.9123 31.2009C15.8939 31.2177 15.8927 31.2461 15.9095 31.2643C15.9913 31.353 16.0743 31.4408 16.1583 31.5273C16.1672 31.5361 16.1789 31.5407 16.1907 31.5407ZM26.9935 35.8166C26.9932 35.8096 26.9909 35.8032 26.9878 35.7975L26.9564 35.8616C26.9779 35.8575 26.9942 35.8391 26.9935 35.8166ZM12.385 19.2791C12.3601 19.2745 12.3371 19.2917 12.3331 19.3161C12.3136 19.4348 12.2955 19.5537 12.2788 19.6733C12.2754 19.6979 12.2927 19.7206 12.3173 19.724C12.3194 19.7243 12.3215 19.7245 12.3235 19.7245C12.3458 19.7245 12.3651 19.7082 12.3681 19.6857C12.3846 19.5669 12.4026 19.4486 12.422 19.3307C12.4263 19.3062 12.4096 19.2831 12.385 19.2791ZM21.4073 8.3154C21.2938 8.35794 21.1811 8.40169 21.0692 8.44701C21.0461 8.45631 21.0349 8.48254 21.0443 8.5055C21.0514 8.52291 21.0683 8.53354 21.086 8.53354C21.0918 8.53354 21.0975 8.53245 21.1031 8.53028C21.2143 8.48532 21.3263 8.44169 21.4391 8.39951C21.4624 8.39081 21.4742 8.36495 21.4654 8.34174C21.4566 8.31842 21.4307 8.3067 21.4073 8.3154ZM36.2387 11.3749C36.2507 11.3749 36.2626 11.3702 36.2715 11.3609C36.2886 11.3428 36.2878 11.3144 36.2697 11.2974C36.1818 11.2147 36.0926 11.133 36.0028 11.0525C35.9845 11.036 35.9558 11.0374 35.939 11.0559C35.9224 11.0744 35.9238 11.1027 35.9424 11.1193C36.0318 11.1993 36.1202 11.2805 36.2076 11.3627C36.2164 11.3709 36.2276 11.3749 36.2387 11.3749ZM35.9502 32.1529C35.8608 32.2329 35.7706 32.3118 35.6791 32.3896C35.6602 32.4057 35.658 32.4341 35.6741 32.4529C35.683 32.4633 35.6958 32.4686 35.7084 32.4686C35.7188 32.4686 35.7292 32.4651 35.7378 32.4579C35.8297 32.3796 35.9205 32.3002 36.0104 32.2198C36.029 32.2032 36.0305 32.1748 36.0138 32.1564C35.9971 32.1376 35.9685 32.1362 35.9502 32.1529ZM36.9374 12.0797C36.9483 12.0797 36.9594 12.0757 36.968 12.0679C36.9863 12.0511 36.9874 12.0227 36.9705 12.0044C36.8886 11.9159 36.8056 11.8283 36.7215 11.7419C36.7041 11.7241 36.6755 11.7237 36.6577 11.7408C36.6398 11.7581 36.6392 11.7865 36.6566 11.8043C36.7402 11.8902 36.8227 11.9772 36.9042 12.0652C36.9131 12.0749 36.9252 12.0797 36.9374 12.0797ZM35.4923 10.7198C35.5053 10.7198 35.5182 10.7143 35.5272 10.7034C35.543 10.6842 35.5402 10.6559 35.5209 10.6402C35.4274 10.5637 35.3329 10.4884 35.2374 10.4142C35.2176 10.3991 35.1895 10.4022 35.174 10.4219C35.1587 10.4415 35.1623 10.4697 35.1819 10.4849C35.2768 10.5586 35.3707 10.6334 35.4636 10.7094C35.4721 10.7164 35.4823 10.7198 35.4923 10.7198ZM36.6636 31.4675C36.5801 31.5535 36.4955 31.6385 36.4097 31.7225C36.3919 31.7399 36.3917 31.7683 36.4092 31.7859C36.4181 31.7949 36.4298 31.7993 36.4414 31.7993C36.4528 31.7993 36.4644 31.795 36.473 31.7864C36.5592 31.7019 36.6445 31.6164 36.7285 31.5298C36.7459 31.5119 36.7454 31.4835 36.7274 31.4664C36.7094 31.4492 36.6808 31.4497 36.6636 31.4675ZM34.3895 33.3671C34.2902 33.4339 34.1899 33.4996 34.0886 33.5638C34.0676 33.5773 34.0614 33.6049 34.0747 33.6258C34.0834 33.6393 34.0981 33.6466 34.1128 33.6466C34.1211 33.6466 34.1295 33.6443 34.137 33.6396C34.2389 33.5748 34.3399 33.5089 34.4399 33.4414C34.4606 33.4275 34.466 33.3997 34.4519 33.3791C34.4382 33.3586 34.4102 33.3532 34.3895 33.3671ZM35.1908 32.7871C35.0962 32.8607 35.0006 32.9331 34.9041 33.0044C34.884 33.0191 34.8798 33.0473 34.8947 33.0671C34.9036 33.079 34.9172 33.0853 34.9309 33.0853C34.9403 33.0853 34.9497 33.0824 34.9578 33.0764C35.0548 33.0048 35.1511 32.9319 35.2462 32.8578C35.2659 32.8426 35.2694 32.8143 35.2539 32.7948C35.2386 32.775 35.2102 32.7718 35.1908 32.7871ZM34.702 10.1177C34.7161 10.1177 34.7299 10.1112 34.7387 10.0989C34.7531 10.0787 34.7484 10.0507 34.7281 10.0363C34.6294 9.96641 34.5299 9.89777 34.4294 9.83033C34.4087 9.81667 34.3808 9.82187 34.3667 9.84242C34.3527 9.86296 34.3582 9.89088 34.379 9.90466C34.4788 9.97161 34.5778 10.0399 34.6758 10.1093C34.6837 10.1149 34.6929 10.1177 34.702 10.1177ZM38.7147 14.4565C38.7226 14.4565 38.7305 14.4544 38.7376 14.4502C38.759 14.4375 38.7662 14.4099 38.7534 14.3887C38.6917 14.2852 38.6288 14.1826 38.5647 14.081C38.5513 14.0599 38.5235 14.0538 38.5025 14.0668C38.4814 14.08 38.4751 14.1077 38.4883 14.1287C38.5521 14.2297 38.6146 14.3317 38.6759 14.4346C38.6843 14.4486 38.6994 14.4565 38.7147 14.4565ZM38.4957 29.1383C38.4317 29.24 38.3665 29.3406 38.3001 29.4405C38.2864 29.4611 38.2921 29.4891 38.3127 29.5027C38.3204 29.5077 38.329 29.5102 38.3376 29.5102C38.3522 29.5102 38.3665 29.5031 38.3752 29.4901C38.4422 29.3896 38.5079 29.2882 38.5721 29.1861C38.5853 29.165 38.5789 29.1374 38.5579 29.1242C38.5369 29.111 38.509 29.1173 38.4957 29.1383ZM23.9416 7.62458C23.9171 7.62893 23.9007 7.65214 23.9051 7.67655C23.909 7.6983 23.9279 7.71365 23.9494 7.71365C23.952 7.71365 23.9546 7.71341 23.9573 7.71293C24.0755 7.69214 24.1941 7.6728 24.3132 7.65504C24.3379 7.65141 24.3549 7.62845 24.3511 7.60391C24.3474 7.57938 24.3249 7.56307 24.2998 7.56621C24.18 7.58422 24.0606 7.60367 23.9416 7.62458ZM38.9934 28.283C38.9367 28.3889 38.8786 28.4939 38.8192 28.5982C38.807 28.6197 38.8146 28.6472 38.8364 28.6594C38.8434 28.6634 38.8509 28.6652 38.8586 28.6652C38.8743 28.6652 38.8896 28.6571 38.8979 28.6423C38.9576 28.5374 39.016 28.4317 39.0731 28.3252C39.0847 28.3033 39.0765 28.2761 39.0545 28.2644C39.0325 28.2531 39.0052 28.2612 38.9934 28.283ZM33.5502 33.89C33.4464 33.9499 33.3418 34.0084 33.2364 34.0654C33.2146 34.0774 33.2064 34.1046 33.2183 34.1263C33.2265 34.1413 33.242 34.1498 33.2579 34.1498C33.2652 34.1498 33.2726 34.1479 33.2795 34.1443C33.3856 34.0867 33.4909 34.0279 33.5953 33.9677C33.6169 33.9554 33.6243 33.9279 33.6118 33.9065C33.5993 33.8848 33.5715 33.8775 33.5502 33.89ZM38.1784 13.6243C38.1873 13.6243 38.1962 13.6217 38.204 13.6163C38.2245 13.6023 38.2296 13.5742 38.2154 13.5538C38.1467 13.4548 38.0766 13.3568 38.0055 13.2596C37.9906 13.2397 37.9623 13.2352 37.9424 13.2498C37.9224 13.2645 37.9179 13.2925 37.9326 13.3126C38.0034 13.409 38.073 13.5064 38.1414 13.6048C38.15 13.6175 38.1641 13.6243 38.1784 13.6243ZM37.5848 12.8307C37.5946 12.8307 37.6046 12.8276 37.613 12.8209C37.6324 12.8054 37.6355 12.7772 37.62 12.7578C37.5445 12.6638 37.4677 12.5707 37.39 12.4788C37.3738 12.4598 37.3454 12.4575 37.3264 12.4733C37.3073 12.4893 37.3049 12.5176 37.3209 12.5365C37.3984 12.6279 37.4745 12.7204 37.5496 12.8138C37.5584 12.8249 37.5715 12.8307 37.5848 12.8307ZM37.9396 29.9568C37.8688 30.0536 37.7967 30.1495 37.7235 30.2444C37.7083 30.2641 37.7121 30.2923 37.7317 30.3074C37.7399 30.3137 37.7496 30.3167 37.7592 30.3167C37.7727 30.3167 37.786 30.3106 37.795 30.2992C37.8687 30.2034 37.9412 30.107 38.0126 30.0096C38.0272 29.9896 38.0228 29.9615 38.0027 29.9469C37.9825 29.9324 37.9542 29.9367 37.9396 29.9568ZM37.3278 30.7344C37.2505 30.826 37.172 30.9166 37.0922 31.0063C37.0757 31.0248 37.0774 31.0532 37.0961 31.0696C37.1046 31.0772 37.1153 31.081 37.126 31.081C37.1384 31.081 37.1509 31.0759 37.1597 31.0659C37.24 30.9756 37.3191 30.8845 37.3969 30.7921C37.4129 30.7732 37.4105 30.7449 37.3913 30.7289C37.3723 30.713 37.3438 30.7155 37.3278 30.7344ZM30.8439 8.09326C30.8203 8.08577 30.7948 8.09858 30.7872 8.12215C30.7795 8.14571 30.7925 8.17109 30.8162 8.17871C30.9311 8.21569 31.0455 8.25412 31.1592 8.29388C31.1642 8.29558 31.1693 8.29642 31.1741 8.29642C31.1927 8.29642 31.2102 8.28494 31.2166 8.26645C31.2249 8.24312 31.2126 8.21738 31.189 8.20928C31.0748 8.16904 30.9596 8.13049 30.8439 8.09326ZM25.9254 7.41647C25.9005 7.41731 25.8809 7.4381 25.8819 7.46288C25.8828 7.48717 25.9028 7.50614 25.927 7.50614C25.9276 7.50614 25.9281 7.50614 25.9285 7.50614C26.0483 7.50191 26.1684 7.49913 26.2889 7.4978C26.3138 7.49756 26.3338 7.47714 26.3334 7.45248C26.3332 7.42771 26.314 7.41175 26.2879 7.40813C26.1667 7.40946 26.0459 7.41224 25.9254 7.41647ZM29.8839 7.82146C29.8591 7.81553 29.8353 7.83028 29.8293 7.85433C29.8233 7.87838 29.8381 7.90279 29.8622 7.90859C29.9791 7.93736 30.0955 7.96745 30.2112 7.99912C30.2152 8.0002 30.2192 8.00069 30.2232 8.00069C30.243 8.00069 30.2612 7.98763 30.2667 7.96769C30.2733 7.94376 30.2592 7.91911 30.2351 7.91246C30.1187 7.88068 30.0015 7.85034 29.8839 7.82146ZM31.7734 34.7542C31.6621 34.799 31.55 34.8425 31.4373 34.8847C31.414 34.8934 31.4022 34.9193 31.4109 34.9425C31.4177 34.9605 31.4348 34.9716 31.4532 34.9716C31.4585 34.9716 31.4639 34.9707 31.4691 34.9687C31.5825 34.9264 31.6952 34.8826 31.8073 34.8376C31.8304 34.8282 31.8416 34.802 31.8322 34.7791C31.8227 34.756 31.7963 34.745 31.7734 34.7542ZM28.9072 7.61745C28.8832 7.6131 28.8593 7.62954 28.8551 7.65395C28.8507 7.67836 28.8672 7.70157 28.8917 7.70592C29.0104 7.72634 29.1287 7.74846 29.2463 7.77179C29.2493 7.77239 29.2523 7.77263 29.2552 7.77263C29.2762 7.77263 29.295 7.75789 29.2993 7.73649C29.3043 7.7122 29.2884 7.68851 29.2638 7.68368C29.1457 7.66023 29.0268 7.63812 28.9072 7.61745ZM26.923 7.41502C26.9225 7.41502 26.9219 7.41502 26.9216 7.41502C26.8974 7.41502 26.8773 7.43423 26.8765 7.4584C26.8757 7.48318 26.8952 7.50397 26.9201 7.50469C27.0406 7.50868 27.1608 7.51412 27.2804 7.52101C27.2813 7.52101 27.2823 7.52113 27.2831 7.52113C27.3069 7.52113 27.3267 7.50276 27.3282 7.47883C27.3296 7.45405 27.3107 7.4329 27.2858 7.43145C27.1652 7.42444 27.0444 7.419 26.923 7.41502ZM27.9185 7.48185C27.8942 7.48004 27.8716 7.4972 27.8691 7.52198C27.8665 7.54663 27.8845 7.56863 27.9094 7.57116C28.0292 7.58337 28.1486 7.59703 28.2678 7.61225C28.2697 7.6125 28.2716 7.61262 28.2736 7.61262C28.2959 7.61262 28.3154 7.59606 28.3183 7.57346C28.3214 7.54893 28.3041 7.52633 28.2793 7.52318C28.1594 7.50796 28.0392 7.49418 27.9185 7.48185ZM33.0033 9.08416C33.0195 9.08416 33.0352 9.07534 33.0432 9.05999C33.0548 9.038 33.0461 9.01092 33.024 8.99944C32.9164 8.94385 32.8081 8.88971 32.6989 8.83677C32.6768 8.82601 32.6496 8.8352 32.6387 8.85756C32.6278 8.87979 32.6371 8.90675 32.6595 8.91762C32.7679 8.9702 32.8756 9.0241 32.9825 9.07921C32.9892 9.08259 32.9962 9.08416 33.0033 9.08416ZM32.1028 8.65839C32.1203 8.65839 32.1368 8.64823 32.1442 8.63132C32.154 8.60859 32.1436 8.58213 32.1207 8.57222C32.0094 8.52424 31.8974 8.47771 31.7847 8.43251C31.7619 8.42332 31.7353 8.43432 31.7261 8.4574C31.7167 8.48036 31.7279 8.50659 31.7511 8.5159C31.863 8.56073 31.9743 8.60702 32.0848 8.65464C32.0908 8.65718 32.0968 8.65839 32.1028 8.65839ZM24.9299 7.4862C24.9052 7.48874 24.8872 7.51086 24.8899 7.53551C24.8923 7.55859 24.9118 7.57576 24.9347 7.57576C24.9362 7.57576 24.9378 7.57563 24.9394 7.57551C25.0587 7.56307 25.1784 7.55207 25.2986 7.54252C25.3234 7.54059 25.342 7.51895 25.34 7.49418C25.338 7.4694 25.3168 7.45115 25.2915 7.45297C25.1704 7.46251 25.0499 7.47363 24.9299 7.4862ZM32.6767 34.3532C32.5691 34.4055 32.4608 34.4565 32.3516 34.5062C32.329 34.5166 32.3191 34.5431 32.3293 34.5657C32.3368 34.5822 32.3532 34.592 32.3703 34.592C32.3766 34.592 32.3829 34.5906 32.3891 34.588C32.499 34.5379 32.6081 34.4866 32.7163 34.4339C32.7386 34.423 32.7479 34.3961 32.7369 34.3738C32.726 34.3513 32.6988 34.3424 32.6767 34.3532ZM18.7703 11.1811V10.7673C19.581 10.7316 20.0225 10.2464 20.0225 9.69485C20.0225 8.90324 19.3194 8.75519 18.7703 8.60207V7.81034C18.9139 7.86134 19.0115 7.97893 19.0319 8.16783H19.9711C19.9249 7.51932 19.4733 7.16182 18.7703 7.10562V6.69193H18.4418V7.10562C17.7438 7.15155 17.205 7.52959 17.205 8.16783C17.205 8.96971 17.8926 9.12296 18.4418 9.26593V9.84254C18.4403 9.8435 18.439 9.84435 18.4375 9.84532C18.4169 9.85921 18.4115 9.88713 18.4255 9.90768C18.4298 9.91396 18.4355 9.9188 18.4418 9.92218V10.073C18.2673 10.0168 18.1646 9.88919 18.1441 9.67962H17.2101C17.2237 10.0294 17.3743 10.2948 17.6161 10.4769C17.6177 10.4826 17.6202 10.488 17.6241 10.493C17.633 10.5043 17.6462 10.5103 17.6597 10.5103C17.6599 10.5103 17.6601 10.51 17.6603 10.51C17.8683 10.6514 18.137 10.7357 18.4419 10.7625V11.1813H18.7703V11.1811ZM18.7703 9.73485C18.7766 9.73087 18.7827 9.72664 18.789 9.72265C18.81 9.70923 18.8161 9.68156 18.8026 9.66065C18.7952 9.64905 18.783 9.64252 18.7703 9.64083V9.3631C18.9704 9.4396 19.1039 9.54185 19.1039 9.72567C19.1039 9.91457 18.9756 10.0526 18.7703 10.0882V9.73485V9.73485ZM18.1339 8.1271C18.1339 7.92793 18.2518 7.81553 18.4418 7.78496V8.49475C18.2571 8.41305 18.1339 8.30585 18.1339 8.1271ZM28.2342 1.94554H29.6096V5.35031H28.2342V1.94554ZM32.3748 5.35031H33.7501V2.10943V2.03425V0H32.3748V1.57742V1.64836V5.35031ZM43.2373 12.2082C43.2535 12.1753 43.2633 12.1388 43.2633 12.0998C43.2633 11.9624 43.1514 11.851 43.0134 11.851C42.8753 11.851 42.7634 11.9624 42.7634 12.0998C42.7634 12.1295 42.7695 12.1575 42.7791 12.184C42.7933 12.2229 42.8166 12.2571 42.8471 12.2842C42.8913 12.3237 42.9492 12.3485 43.0134 12.3485C43.068 12.3485 43.1183 12.3305 43.1595 12.3009C43.1926 12.2769 43.2192 12.2452 43.2373 12.2082ZM44.3944 13.0155C44.3355 13.0155 44.2821 13.0366 44.2393 13.0706C44.2074 13.096 44.1811 13.1283 44.1648 13.1662C44.1518 13.1963 44.1445 13.2294 44.1445 13.2642C44.1445 13.4016 44.2563 13.5129 44.3944 13.5129C44.5325 13.5129 44.6443 13.4016 44.6443 13.2642C44.6443 13.2371 44.6389 13.2115 44.6308 13.1871C44.6179 13.1477 44.596 13.1125 44.5665 13.0845C44.5215 13.042 44.4612 13.0155 44.3944 13.0155ZM46.3235 12.0493C46.3653 12.0806 46.4168 12.0998 46.4731 12.0998C46.5086 12.0998 46.5421 12.0923 46.5726 12.079C46.6106 12.0625 46.643 12.0363 46.6685 12.0044C46.7022 11.9621 46.723 11.9093 46.723 11.851C46.723 11.7136 46.6112 11.6023 46.4731 11.6023C46.335 11.6023 46.2232 11.7136 46.2232 11.851C46.2232 11.8883 46.2319 11.9233 46.2468 11.955C46.2641 11.9926 46.2907 12.0246 46.3235 12.0493ZM48.426 11.2742C48.4662 11.3016 48.5147 11.3177 48.567 11.3177C48.7051 11.3177 48.8169 11.2064 48.8169 11.069C48.8169 10.9316 48.7051 10.8203 48.567 10.8203C48.4289 10.8203 48.3171 10.9316 48.3171 11.069C48.3171 11.1103 48.3281 11.1488 48.3461 11.1831C48.3653 11.2196 48.3923 11.2511 48.426 11.2742ZM46.7716 12.3678C46.7414 12.4089 46.7229 12.4592 46.7229 12.5141C46.7229 12.6515 46.8348 12.7628 46.9729 12.7628C47.1109 12.7628 47.2228 12.6515 47.2228 12.5141C47.2228 12.4621 47.2066 12.4139 47.1793 12.374C47.156 12.34 47.1238 12.313 47.0869 12.2939C47.0525 12.2762 47.0143 12.2653 46.973 12.2653C46.9344 12.2653 46.8983 12.2748 46.8656 12.2904C46.8281 12.3082 46.7959 12.3348 46.7716 12.3678Z" fill="#C58936"/>
<path d="M26.1412 0.79451V5.35019H27.5166V0.820252C28.4747 0.868836 29.4162 0.981233 30.3361 1.15515H30.3327V5.35031H31.708V1.46236C31.9327 1.52086 32.156 1.58261 32.3776 1.64836V1.57742C32.1556 1.51228 31.9324 1.45088 31.708 1.39311V1.15527H30.6768C29.6429 0.944493 28.5873 0.8101 27.5167 0.756561V0H26.1414V0.733356C20.6847 0.811067 15.5662 2.96074 11.6991 6.80916C10.9226 7.58192 10.2159 8.40568 9.57995 9.27149C9.60011 9.28551 9.6193 9.30038 9.63764 9.31597C13.3665 4.22888 19.3667 0.892524 26.1412 0.79451ZM45.0581 12.2571C45.0641 12.2542 45.0708 12.252 45.0768 12.2493L45.1216 12.2192C44.129 10.2428 42.8117 8.41716 41.196 6.80916C39.0488 4.6723 36.5153 3.06008 33.7528 2.03413V2.10931C38.6789 3.95514 42.7217 7.61008 45.0581 12.2571ZM7.80058 30.6432C7.78006 30.656 7.75844 30.6676 7.73622 30.6786C8.73314 32.6839 10.0628 34.5355 11.699 36.1637C14.9166 39.3659 19.0009 41.3907 23.4251 42.026L23.4183 41.9622C16.5566 40.9611 10.7731 36.6138 7.80058 30.6432ZM25.654 42.1678C25.6538 42.1877 25.653 42.2074 25.6516 42.2271C25.9161 42.2369 26.1813 42.2434 26.4475 42.2434C26.6559 42.2434 26.8636 42.2394 27.0709 42.2333L27.0321 42.1744C26.8378 42.1797 26.643 42.183 26.4475 42.183C26.1818 42.183 25.9173 42.1778 25.654 42.1678ZM41.196 36.1637C45.1354 32.2434 47.305 27.0307 47.305 21.4863C47.305 18.8022 46.7951 16.1964 45.8235 13.7768C45.8026 13.7873 45.7809 13.797 45.7586 13.8058C46.7162 16.1818 47.2442 18.7737 47.2442 21.4863C47.2442 32.0571 39.2392 40.8011 28.9454 42.0331L28.9689 42.0935C33.5856 41.5434 37.8572 39.4865 41.196 36.1637ZM23.1981 49.2649L23.2411 49.2263L24.6958 47.9228L24.8212 49.2263L24.8248 49.2649H25.0276L25.0326 49.2263L25.2932 47.2141L25.2915 47.2158C25.3157 47.0682 25.2863 46.9099 25.1958 46.7726L24.9547 46.4066L24.8807 46.9609L24.8164 47.4413L23.5661 48.1803L23.0063 48.0384L22.5042 48.861L21.9917 49.2262L21.9376 49.2648H23.1981V49.2649ZM30.7982 46.4446L30.0226 47.6689L29.4593 47.796L29.3881 48.7558L29.1438 49.2265L29.0682 49.372L29.3545 49.2265L30.1907 48.8012L30.9107 46.9279L31.6392 48.0647L31.8197 47.9728L31.1187 46.0263L31.1179 46.0286C31.072 45.8862 30.9734 45.7586 30.8301 45.6773L30.4482 45.4606L30.5719 45.8086L30.7982 46.4446ZM27.4875 29.7426L27.5863 28.3392L28.0113 29.5478C28.1702 29.4811 28.3248 29.4112 28.4687 29.3348C28.3529 28.651 28.2006 28.069 28.0462 27.5625C27.9436 27.676 27.84 27.7927 27.7352 27.9135C27.6699 28.039 27.5484 28.128 27.4063 28.1508C27.0297 28.2115 26.6853 28.0342 26.3297 27.8082C26.085 27.7874 25.837 27.8113 25.5912 27.844C25.5358 27.8513 25.5095 27.7606 25.5664 27.7349C25.7829 27.6373 26.0451 27.5723 26.3035 27.5645C26.3029 27.5506 26.3026 27.537 26.3024 27.5234C26.2891 27.5219 26.2759 27.5199 26.2626 27.5187C26.0178 27.4979 25.7699 27.5219 25.5241 27.5545C25.4687 27.5619 25.4423 27.4711 25.4993 27.4455C25.7414 27.3362 26.041 27.2677 26.3283 27.275C26.3284 27.2745 26.3285 27.274 26.3286 27.2734C26.2986 27.2688 26.2685 27.2649 26.2381 27.2623C25.9934 27.2415 25.7455 27.2654 25.4997 27.2981C25.4443 27.3054 25.4179 27.2147 25.4749 27.189C25.754 27.0632 26.1091 26.9908 26.4338 27.0268C26.4423 27.0132 26.4516 26.9997 26.4611 26.9861C26.4567 26.9858 26.4524 26.9849 26.448 26.9846C26.2033 26.9638 25.9553 26.9877 25.7095 27.0203C25.6541 27.0277 25.6278 26.9369 25.6847 26.9113C26.0561 26.7438 26.5619 26.6717 26.9517 26.8231C27.1318 26.8476 27.3091 26.8892 27.4821 26.9456C27.5593 26.8274 27.6389 26.7019 27.7201 26.5703C27.4595 25.8029 27.2788 25.2342 27.4039 24.6957C27.6414 23.6726 27.9064 23.1269 28.1722 22.1108C28.213 21.9548 28.2559 21.7934 28.2983 21.6292C28.7203 22.1941 29.1379 22.7506 29.6272 23.4401C29.3256 23.8521 28.9701 24.4478 28.6069 25.0696C28.8757 25.4069 29.1849 25.7365 29.542 25.994C30.3012 25.2054 30.9627 24.4597 31.499 23.435C30.2587 21.6985 29.6556 20.3648 28.4154 18.6283C28.2568 18.2254 27.9963 17.8537 27.6 17.694C27.4894 17.6494 27.3736 17.625 27.2558 17.6132C25.6655 19.0414 24.5434 20.9034 24.427 22.9888C24.0434 21.6529 23.8896 20.1669 24.3189 18.827C23.949 19.0977 23.6211 19.3765 23.3929 19.6197C22.2462 20.8414 22.5491 21.5628 22.8715 22.3808L21.9832 24.3053C21.3952 24.114 20.9141 23.95 20.4559 23.7711C20.2446 24.142 20.0757 24.5341 19.8924 24.919C20.2322 25.1617 20.5765 25.4105 20.9169 25.6707C21.3242 25.9821 21.8308 26.1509 22.342 26.1023C22.5954 26.0782 22.7819 26.0007 22.9176 25.7861C22.7112 27.0582 22.4426 28.3717 22.0545 29.7211C22.6556 29.9761 23.3799 30.1174 24.1412 30.1615C25.2659 30.2265 26.4706 30.0747 27.4875 29.7426ZM5.57965 14.5225C6.10137 14.5225 6.4912 14.2054 6.4912 13.599C6.4912 12.9924 6.10137 12.6754 5.57965 12.6754C5.05806 12.6754 4.66265 12.9924 4.66265 13.599C4.66265 14.2056 5.05806 14.5225 5.57965 14.5225ZM5.57419 13.222C5.73886 13.222 5.84318 13.3367 5.84318 13.5991C5.84318 13.8558 5.73886 13.9706 5.57419 13.9706C5.40939 13.9706 5.31054 13.8559 5.31054 13.5991C5.31066 13.3367 5.40939 13.222 5.57419 13.222ZM7.27632 15.7192C7.27632 16.3258 7.66615 16.6428 8.18786 16.6428C8.70946 16.6428 9.09928 16.3258 9.09928 15.7192C9.09928 15.1073 8.70946 14.7957 8.18786 14.7957C7.66615 14.7957 7.27632 15.1072 7.27632 15.7192ZM8.45139 15.7192C8.45139 15.976 8.34719 16.0908 8.1824 16.0908C8.0176 16.0908 7.91887 15.9761 7.91887 15.7192C7.91887 15.4625 8.0176 15.3422 8.1824 15.3422C8.34719 15.3422 8.45139 15.4625 8.45139 15.7192ZM6.17363 16.5826C5.7889 18.1694 5.58998 19.8126 5.58998 21.4863C5.58998 24.145 6.0902 26.727 7.044 29.1272C7.06574 29.1191 7.08808 29.1119 7.11116 29.1055C6.16913 26.7462 5.6507 24.1754 5.6507 21.4862C5.6507 19.797 5.85654 18.155 6.24212 16.5825H6.27709L8.39103 12.7356H7.60567C7.93186 12.0428 8.2934 11.3697 8.69185 10.7212C8.67035 10.7093 8.64983 10.6965 8.63003 10.683C8.22175 11.3471 7.85499 12.0329 7.52625 12.7356H7.4852L5.37114 16.5825H6.17363V16.5826ZM41.0565 13.3121C41.0152 13.2822 40.9649 13.2641 40.91 13.2641C40.7719 13.2641 40.6601 13.3754 40.6601 13.5128C40.6601 13.6502 40.7719 13.7615 40.91 13.7615C41.0481 13.7615 41.16 13.6502 41.16 13.5128C41.16 13.4743 41.1504 13.4383 41.1347 13.4056C41.1167 13.3683 41.0899 13.3363 41.0565 13.3121ZM48.7803 12.039C48.8216 12.0688 48.8719 12.087 48.9268 12.087C49.0649 12.087 49.1767 11.9757 49.1767 11.8382C49.1767 11.7008 49.0649 11.5895 48.9268 11.5895C48.7887 11.5895 48.6769 11.7008 48.6769 11.8382C48.6769 11.8768 48.6864 11.9128 48.7021 11.9454C48.7202 11.9828 48.7469 12.0149 48.7803 12.039ZM46.5968 13.143C46.5806 13.1759 46.5708 13.2124 46.5708 13.2514C46.5708 13.3888 46.6826 13.5001 46.8207 13.5001C46.9588 13.5001 47.0707 13.3888 47.0707 13.2514C47.0707 13.2217 47.0646 13.1936 47.055 13.1672C47.0408 13.1283 47.0175 13.0941 46.987 13.067C46.9428 13.0275 46.8848 13.0027 46.8207 13.0027C46.7661 13.0027 46.7158 13.0207 46.6746 13.0503C46.6416 13.0742 46.6149 13.1061 46.5968 13.143ZM45.4398 12.3357C45.4987 12.3357 45.5521 12.3145 45.5949 12.2806C45.6268 12.2552 45.6531 12.2229 45.6695 12.185C45.6825 12.1549 45.6897 12.1218 45.6897 12.087C45.6897 11.9495 45.5779 11.8382 45.4398 11.8382C45.3017 11.8382 45.1899 11.9495 45.1899 12.087C45.1899 12.114 45.1954 12.1397 45.2034 12.1641C45.2164 12.2035 45.2382 12.2386 45.2677 12.2667C45.3125 12.3092 45.3729 12.3357 45.4398 12.3357ZM43.5107 13.302C43.4689 13.2707 43.4174 13.2515 43.3611 13.2515C43.3256 13.2515 43.2921 13.259 43.2616 13.2723C43.2236 13.2888 43.1912 13.315 43.1657 13.3469C43.1321 13.3893 43.1112 13.442 43.1112 13.5003C43.1112 13.6377 43.223 13.749 43.3611 13.749C43.4992 13.749 43.611 13.6377 43.611 13.5003C43.611 13.463 43.6023 13.4281 43.5875 13.3963C43.5701 13.3587 43.5435 13.3266 43.5107 13.302ZM41.4081 14.077C41.3679 14.0495 41.3194 14.0335 41.2671 14.0335C41.129 14.0335 41.0171 14.1448 41.0171 14.2822C41.0171 14.4196 41.129 14.5309 41.2671 14.5309C41.4051 14.5309 41.517 14.4196 41.517 14.2822C41.517 14.2409 41.5059 14.2024 41.488 14.1681C41.4689 14.1317 41.4419 14.1001 41.4081 14.077ZM43.0625 12.9834C43.0927 12.9423 43.1112 12.892 43.1112 12.8371C43.1112 12.6997 42.9993 12.5884 42.8612 12.5884C42.7232 12.5884 42.6113 12.6997 42.6113 12.8371C42.6113 12.8891 42.6275 12.9373 42.6548 12.9772C42.6781 13.0111 42.7103 13.0382 42.7472 13.0573C42.7816 13.075 42.8198 13.0858 42.8611 13.0858C42.8997 13.0858 42.9358 13.0764 42.9685 13.0608C43.006 13.0429 43.0382 13.0163 43.0625 12.9834ZM5.1925 48.9485C4.62233 47.8656 4.05459 46.7818 3.45017 45.7179C3.39783 46.0099 3.37779 46.3051 3.38532 46.5995C3.6208 47.0712 3.90898 47.5213 4.13498 47.9953C4.32904 48.4022 4.514 48.8134 4.69471 49.2263H5.34005C5.29074 49.1338 5.24132 49.0412 5.1925 48.9485ZM5.36786 42.707C5.1976 42.8351 5.03535 42.9736 4.88197 43.121C4.9971 43.47 5.11295 43.8186 5.23877 44.164C5.31309 44.368 4.98665 44.4552 4.91306 44.2533C4.80959 43.9693 4.71317 43.6828 4.61796 43.396C4.56015 43.4603 4.50271 43.5249 4.44818 43.5919C5.14769 45.4429 5.72976 47.3342 6.30928 49.2265H6.41663C5.92309 47.082 5.59641 44.9006 5.36786 42.707ZM4.21015 43.9084C4.07766 44.0997 3.95913 44.3001 3.85542 44.5077C4.09199 44.9521 4.32747 45.3971 4.54424 45.8513C4.63714 46.0459 4.3458 46.2162 4.25266 46.021C4.07159 45.6416 3.87801 45.2687 3.682 44.897C3.63816 45.0095 3.59857 45.1239 3.56396 45.2398C4.27355 46.4685 4.92909 47.7268 5.59095 48.9817C5.63406 49.0635 5.67814 49.1449 5.72198 49.2263H5.95953C5.41377 47.4407 4.86315 45.657 4.21015 43.9084ZM8.4299 41.6748C8.40682 41.6744 8.38387 41.6731 8.36092 41.6729C7.95955 41.6721 7.56171 41.7261 7.17589 41.8269C7.07861 43.1528 7.02542 44.4795 7.15014 45.8096C7.1703 46.0252 6.83245 46.0232 6.81241 45.8096C6.69097 44.5142 6.73809 43.222 6.83051 41.9306C6.42805 42.0677 6.04235 42.2557 5.68422 42.4869C5.91508 44.7549 6.24783 47.0103 6.76141 49.2263H7.50876C7.41731 46.703 7.94085 44.186 8.4299 41.6748ZM10.9134 47.3076C11.286 46.3436 11.6569 45.3728 12.1127 44.4441C12.2217 44.2222 12.3339 44.0002 12.4442 43.7768C12.3923 43.7089 12.3389 43.6423 12.2837 43.5769C12.1314 43.8607 11.9818 44.1459 11.8371 44.4339C11.3393 45.424 10.8874 46.4343 10.4354 47.4455C10.1816 48.0132 9.88793 48.6113 9.61651 49.2266H10.1991C10.4303 48.5844 10.6673 47.9443 10.9134 47.3076ZM9.9812 44.257C10.2248 43.6047 10.4848 42.9591 10.7599 42.3201C10.4893 42.1692 10.2055 42.0434 9.91343 41.9425C9.57291 42.9466 9.27355 43.9627 9.09163 45.0116C9.05472 45.2247 8.72925 45.1338 8.76593 44.9223C8.94845 43.8697 9.24927 42.8502 9.59112 41.8426C9.31946 41.7688 9.04184 41.7171 8.76058 41.6919C8.26935 44.1969 7.74411 46.7113 7.84212 49.2263H8.4401C8.78937 47.5261 9.38285 45.8592 9.9812 44.257ZM10.0841 47.4084C10.5891 46.2859 11.0877 45.1621 11.6464 44.0644C11.7753 43.8113 11.9095 43.5612 12.0452 43.312C11.9702 43.2339 11.8927 43.1583 11.8131 43.0848C11.5689 43.477 11.3243 43.8689 11.0647 44.2513C10.9435 44.4297 10.6511 44.2613 10.7731 44.0816C11.0445 43.6818 11.2998 43.2719 11.5551 42.8618C11.3937 42.7304 11.2251 42.6078 11.0501 42.4954C10.7879 43.1062 10.5397 43.723 10.3069 44.3464C9.71973 45.9187 9.13353 47.5566 8.78463 49.2265H9.25303C9.52518 48.5989 9.82296 47.9885 10.0841 47.4084ZM13.4679 46.8315C13.4737 46.4338 13.4335 46.0355 13.3417 45.6455C13.3375 45.6276 13.3323 45.6101 13.3279 45.5922C12.8448 46.1406 12.4261 46.7299 12.1825 47.4134C12.1102 47.6162 11.784 47.5283 11.8567 47.3241C12.1423 46.5233 12.6481 45.85 13.2201 45.2221C13.0849 44.8227 12.8968 44.4426 12.6655 44.0897C12.1661 45.1014 11.7317 46.1312 11.3222 47.1825C11.058 47.8605 10.8045 48.5424 10.5572 49.2266H11.4775C12.0861 48.3894 12.7792 47.6005 13.4679 46.8315Z" fill="#5B8DC9"/>
</svg>
