<svg width="30" height="31" viewBox="0 0 30 31" fill="none" xmlns="http://www.w3.org/2000/svg">
<path d="M14.5166 20.8231V16.4682C14.5166 16.3399 14.5676 16.2168 14.6583 16.1261C14.7491 16.0354 14.8721 15.9844 15.0005 15.9844C15.1288 15.9844 15.2519 16.0354 15.3426 16.1261C15.4334 16.2168 15.4843 16.3399 15.4843 16.4682V20.8231C15.4843 20.9514 15.4334 21.0745 15.3426 21.1652C15.2519 21.256 15.1288 21.307 15.0005 21.307C14.8721 21.307 14.7491 21.256 14.6583 21.1652C14.5676 21.0745 14.5166 20.9514 14.5166 20.8231Z" fill="#AAE0E5"/>
<path d="M3.38672 20.8231V18.8876C3.38672 18.7593 3.4377 18.6362 3.52844 18.5455C3.61918 18.4547 3.74226 18.4037 3.87059 18.4037H12.5803V16.4682C12.5803 16.3399 12.6312 16.2168 12.722 16.1261C12.8127 16.0354 12.9358 15.9844 13.0641 15.9844C13.1925 15.9844 13.3155 16.0354 13.4063 16.1261C13.497 16.2168 13.548 16.3399 13.548 16.4682V18.8876C13.548 19.0159 13.497 19.139 13.4063 19.2297C13.3155 19.3205 13.1925 19.3715 13.0641 19.3715H4.35446V20.8231C4.35446 20.9514 4.30348 21.0745 4.21274 21.1652C4.12199 21.256 3.99892 21.307 3.87059 21.307C3.74226 21.307 3.61918 21.256 3.52844 21.1652C3.4377 21.0745 3.38672 20.9514 3.38672 20.8231Z" fill="#AAE0E5"/>
<path d="M25.6447 20.8231V19.3715H16.935C16.8067 19.3715 16.6836 19.3205 16.5929 19.2297C16.5022 19.139 16.4512 19.0159 16.4512 18.8876V16.4682C16.4512 16.3399 16.5022 16.2168 16.5929 16.1261C16.6836 16.0354 16.8067 15.9844 16.935 15.9844C17.0634 15.9844 17.1864 16.0354 17.2772 16.1261C17.3679 16.2168 17.4189 16.3399 17.4189 16.4682V18.4037H26.1286C26.2569 18.4037 26.38 18.4547 26.4707 18.5455C26.5615 18.6362 26.6125 18.7593 26.6125 18.8876V20.8231C26.6125 20.9514 26.5615 21.0745 26.4707 21.1652C26.38 21.256 26.2569 21.307 26.1286 21.307C26.0003 21.307 25.8772 21.256 25.7864 21.1652C25.6957 21.0745 25.6447 20.9514 25.6447 20.8231Z" fill="#AAE0E5"/>
<path d="M24.677 8.85265C24.6952 8.34487 24.5989 7.8395 24.3953 7.37397C24.1917 6.90845 23.8859 6.4947 23.5007 6.16337C23.1155 5.83205 22.6607 5.59164 22.1699 5.45996C21.6792 5.32828 21.1651 5.30869 20.6657 5.40265C20.3258 3.75867 19.3876 2.29944 18.033 1.3079C16.6783 0.316348 15.0038 -0.136888 13.3339 0.0360603C11.6641 0.209009 10.118 0.995819 8.99532 2.24395C7.87264 3.49208 7.2534 5.11261 7.25766 6.79136C5.97435 6.79136 4.7436 7.30115 3.83617 8.20859C2.92874 9.11602 2.41895 10.3468 2.41895 11.6301C2.41895 12.9134 2.92874 14.1441 3.83617 15.0516C4.7436 15.959 5.97435 16.4688 7.25766 16.4688H23.7093C24.6495 16.4661 25.5566 16.1213 26.2612 15.4988C26.9658 14.8762 27.4198 14.0185 27.5383 13.0858C27.6568 12.153 27.4318 11.2091 26.9053 10.4301C26.3787 9.6511 25.5867 9.0904 24.677 8.85265Z" fill="url(#paint0_linear_177_747)"/>
<path d="M23.7093 16.4691H7.25772C6.58148 16.4691 5.91274 16.3273 5.29465 16.053C4.67656 15.7787 4.12283 15.3778 3.66919 14.8763C3.21555 14.3748 2.87207 13.7837 2.66091 13.1413C2.44974 12.4989 2.37558 11.8193 2.4432 11.1465C2.56356 12.3442 3.12601 13.454 4.02074 14.2593C4.91546 15.0645 6.0782 15.5074 7.28191 15.5013H23.7093C24.6516 15.5005 25.5611 15.156 26.2675 14.5324C26.9739 13.9089 27.4286 13.0491 27.5464 12.1142C27.615 12.6588 27.567 13.2118 27.4056 13.7364C27.2442 14.261 26.9731 14.7453 26.6102 15.1572C26.2473 15.569 25.801 15.899 25.3009 16.1252C24.8007 16.3513 24.2582 16.4686 23.7093 16.4691Z" fill="#C7CDD8"/>
<path d="M18.387 22.2754H11.6128C11.3455 22.2754 11.1289 22.492 11.1289 22.7593V27.598C11.1289 27.8652 11.3455 28.0818 11.6128 28.0818H18.387C18.6542 28.0818 18.8708 27.8652 18.8708 27.598V22.7593C18.8708 22.492 18.6542 22.2754 18.387 22.2754Z" fill="url(#paint1_linear_177_747)"/>
<path d="M15.9677 28.0811H14.0322V30.0165H15.9677V28.0811Z" fill="#86B8E0"/>
<path d="M16.9359 30.0166H13.0649C12.9366 30.0166 12.8135 29.9656 12.7228 29.8748C12.632 29.7841 12.5811 29.661 12.5811 29.5327C12.5811 29.4044 12.632 29.2813 12.7228 29.1906C12.8135 29.0998 12.9366 29.0488 13.0649 29.0488H16.9359C17.0642 29.0488 17.1873 29.0998 17.278 29.1906C17.3688 29.2813 17.4198 29.4044 17.4198 29.5327C17.4198 29.661 17.3688 29.7841 17.278 29.8748C17.1873 29.9656 17.0642 30.0166 16.9359 30.0166Z" fill="#5B8DC9"/>
<path d="M29.5159 22.2754H22.7417C22.4744 22.2754 22.2578 22.492 22.2578 22.7593V27.598C22.2578 27.8652 22.4744 28.0818 22.7417 28.0818H29.5159C29.7831 28.0818 29.9997 27.8652 29.9997 27.598V22.7593C29.9997 22.492 29.7831 22.2754 29.5159 22.2754Z" fill="url(#paint2_linear_177_747)"/>
<path d="M27.0966 28.0811H25.1611V30.0165H27.0966V28.0811Z" fill="#86B8E0"/>
<path d="M28.0648 30.0166H24.1938C24.0655 30.0166 23.9424 29.9656 23.8517 29.8748C23.7609 29.7841 23.71 29.661 23.71 29.5327C23.71 29.4044 23.7609 29.2813 23.8517 29.1906C23.9424 29.0998 24.0655 29.0488 24.1938 29.0488H28.0648C28.1931 29.0488 28.3162 29.0998 28.4069 29.1906C28.4977 29.2813 28.5487 29.4044 28.5487 29.5327C28.5487 29.661 28.4977 29.7841 28.4069 29.8748C28.3162 29.9656 28.1931 30.0166 28.0648 30.0166Z" fill="#5B8DC9"/>
<path d="M7.25806 22.2754H0.483871C0.216636 22.2754 0 22.492 0 22.7593V27.598C0 27.8652 0.216636 28.0818 0.483871 28.0818H7.25806C7.5253 28.0818 7.74194 27.8652 7.74194 27.598V22.7593C7.74194 22.492 7.5253 22.2754 7.25806 22.2754Z" fill="url(#paint3_linear_177_747)"/>
<path d="M11.1289 26.6299H18.8708V27.5976C18.8708 27.726 18.8199 27.849 18.7291 27.9398C18.6384 28.0305 18.5153 28.0815 18.387 28.0815H11.6128C11.4844 28.0815 11.3614 28.0305 11.2706 27.9398C11.1799 27.849 11.1289 27.726 11.1289 27.5976V26.6299Z" fill="#5B8DC9"/>
<path d="M22.2578 26.6299H29.9997V27.5976C29.9997 27.726 29.9488 27.849 29.858 27.9398C29.7673 28.0305 29.6442 28.0815 29.5159 28.0815H22.7417C22.6134 28.0815 22.4903 28.0305 22.3995 27.9398C22.3088 27.849 22.2578 27.726 22.2578 27.5976V26.6299Z" fill="#5B8DC9"/>
<path d="M0 26.6299H7.74194V27.5976C7.74194 27.726 7.69096 27.849 7.60021 27.9398C7.50947 28.0305 7.38639 28.0815 7.25806 28.0815H0.483871C0.35554 28.0815 0.232466 28.0305 0.141723 27.9398C0.0509791 27.849 0 27.726 0 27.5976V26.6299Z" fill="#5B8DC9"/>
<path d="M4.8388 28.0811H2.90332V30.0165H4.8388V28.0811Z" fill="#86B8E0"/>
<path d="M5.80601 30.0166H1.93504C1.80671 30.0166 1.68364 29.9656 1.59289 29.8748C1.50215 29.7841 1.45117 29.661 1.45117 29.5327C1.45117 29.4044 1.50215 29.2813 1.59289 29.1906C1.68364 29.0998 1.80671 29.0488 1.93504 29.0488H5.80601C5.93434 29.0488 6.05742 29.0998 6.14816 29.1906C6.2389 29.2813 6.28988 29.4044 6.28988 29.5327C6.28988 29.661 6.2389 29.7841 6.14816 29.8748C6.05742 29.9656 5.93434 30.0166 5.80601 30.0166Z" fill="#5B8DC9"/>
<defs>
<linearGradient id="paint0_linear_177_747" x1="14.9996" y1="16.4688" x2="14.9996" y2="0.0171702" gradientUnits="userSpaceOnUse">
<stop stop-color="#D4D8E1"/>
<stop offset="1" stop-color="#F3F4F5"/>
</linearGradient>
<linearGradient id="paint1_linear_177_747" x1="14.9999" y1="28.0818" x2="14.9999" y2="22.2754" gradientUnits="userSpaceOnUse">
<stop stop-color="#7AA8D7"/>
<stop offset="1" stop-color="#C3D2E7"/>
</linearGradient>
<linearGradient id="paint2_linear_177_747" x1="26.1288" y1="28.0818" x2="26.1288" y2="22.2754" gradientUnits="userSpaceOnUse">
<stop stop-color="#7AA8D7"/>
<stop offset="1" stop-color="#C3D2E7"/>
</linearGradient>
<linearGradient id="paint3_linear_177_747" x1="3.87097" y1="28.0818" x2="3.87097" y2="22.2754" gradientUnits="userSpaceOnUse">
<stop stop-color="#7AA8D7"/>
<stop offset="1" stop-color="#C3D2E7"/>
</linearGradient>
</defs>
</svg>
