<svg width="30" height="30" viewBox="0 0 30 30" fill="none" xmlns="http://www.w3.org/2000/svg">
<path d="M16.4516 0H1.93548C0.866546 0 0 0.866546 0 1.93548V28.0645C0 29.1335 0.866546 30 1.93548 30H16.4516C17.5206 30 18.3871 29.1335 18.3871 28.0645V1.93548C18.3871 0.866546 17.5206 0 16.4516 0Z" fill="url(#paint0_linear_225_66)"/>
<path d="M18.3871 27.0967V28.0644C18.3871 28.5777 18.1832 29.07 17.8202 29.433C17.4572 29.796 16.9649 29.9999 16.4516 29.9999H1.93548C1.42216 29.9999 0.929864 29.796 0.56689 29.433C0.203917 29.07 0 28.5777 0 28.0644V27.0967C0 27.61 0.203917 28.1023 0.56689 28.4653C0.929864 28.8282 1.42216 29.0322 1.93548 29.0322H16.4516C16.9649 29.0322 17.4572 28.8282 17.8202 28.4653C18.1832 28.1023 18.3871 27.61 18.3871 27.0967Z" fill="#42455E"/>
<path d="M16.4517 1.93555V28.0646H1.93555V1.93555H5.32264C5.32264 2.19221 5.4246 2.43836 5.60609 2.61984C5.78758 2.80133 6.03372 2.90329 6.29039 2.90329H12.0968C12.3535 2.90329 12.5996 2.80133 12.7811 2.61984C12.9626 2.43836 13.0646 2.19221 13.0646 1.93555H16.4517Z" fill="url(#paint1_linear_225_66)"/>
<path d="M7.74216 1.45067C7.74216 1.579 7.69118 1.70207 7.60043 1.79282C7.50969 1.88356 7.38662 1.93454 7.25829 1.93454C7.12995 1.93454 7.00688 1.88356 6.91614 1.79282C6.82539 1.70207 6.77441 1.579 6.77441 1.45067C6.77441 1.32234 6.82539 1.19926 6.91614 1.10852C7.00688 1.01778 7.12995 0.966797 7.25829 0.966797C7.38662 0.966797 7.50969 1.01778 7.60043 1.10852C7.69118 1.19926 7.74216 1.32234 7.74216 1.45067V1.45067Z" fill="#42455E"/>
<path d="M11.6132 1.45067C11.6132 1.579 11.5623 1.70207 11.4715 1.79282C11.3808 1.88356 11.2577 1.93454 11.1294 1.93454C11.001 1.93454 10.878 1.88356 10.7872 1.79282C10.6965 1.70207 10.6455 1.579 10.6455 1.45067C10.6455 1.32234 10.6965 1.19926 10.7872 1.10852C10.878 1.01778 11.001 0.966797 11.1294 0.966797C11.2577 0.966797 11.3808 1.01778 11.4715 1.10852C11.5623 1.19926 11.6132 1.32234 11.6132 1.45067V1.45067Z" fill="#42455E"/>
<path d="M30.0002 8.22559H6.77441V21.774H30.0002V8.22559Z" fill="url(#paint2_linear_225_66)"/>
<path d="M30.0002 20.8066H6.77441V21.7744H30.0002V20.8066Z" fill="#4DA67F"/>
<path d="M18.3867 21.7744H16.4512V22.7422H18.3867V21.7744Z" fill="#42455E"/>
<path d="M16.4518 21.7744H6.77441V22.7422H16.4518V21.7744Z" fill="#77CACB"/>
<path d="M25.6454 19.8386H11.1293C11.1293 19.5208 11.0667 19.2062 10.9452 18.9127C10.8236 18.6192 10.6454 18.3525 10.4207 18.1278C10.196 17.9032 9.92934 17.7249 9.63581 17.6034C9.34228 17.4818 9.02768 17.4192 8.70996 17.4192V12.5805C9.02768 12.5805 9.34228 12.5179 9.63581 12.3963C9.92934 12.2747 10.196 12.0965 10.4207 11.8719C10.6454 11.6472 10.8236 11.3805 10.9452 11.087C11.0667 10.7935 11.1293 10.4788 11.1293 10.1611H25.6454C25.6454 10.8028 25.9003 11.4182 26.3541 11.8719C26.8078 12.3256 27.4231 12.5805 28.0648 12.5805V17.4192C27.4231 17.4192 26.8078 17.6741 26.3541 18.1278C25.9003 18.5815 25.6454 19.1969 25.6454 19.8386Z" fill="#9FE2BF"/>
<path d="M28.5488 10.1616C28.5488 10.2899 28.4978 10.413 28.4071 10.5038C28.3163 10.5945 28.1933 10.6455 28.0649 10.6455C27.9366 10.6455 27.8135 10.5945 27.7228 10.5038C27.632 10.413 27.5811 10.2899 27.5811 10.1616C27.5811 10.0333 27.632 9.9102 27.7228 9.81946C27.8135 9.72871 27.9366 9.67773 28.0649 9.67773C28.1933 9.67773 28.3163 9.72871 28.4071 9.81946C28.4978 9.9102 28.5488 10.0333 28.5488 10.1616Z" fill="#9FE2BF"/>
<path d="M28.5488 19.8384C28.5488 19.9667 28.4978 20.0898 28.4071 20.1805C28.3163 20.2713 28.1933 20.3222 28.0649 20.3222C27.9366 20.3222 27.8135 20.2713 27.7228 20.1805C27.632 20.0898 27.5811 19.9667 27.5811 19.8384C27.5811 19.71 27.632 19.587 27.7228 19.4962C27.8135 19.4055 27.9366 19.3545 28.0649 19.3545C28.1933 19.3545 28.3163 19.4055 28.4071 19.4962C28.4978 19.587 28.5488 19.71 28.5488 19.8384Z" fill="#9FE2BF"/>
<path d="M9.19333 10.1616C9.19333 10.2899 9.14235 10.413 9.05161 10.5038C8.96086 10.5945 8.83779 10.6455 8.70946 10.6455C8.58113 10.6455 8.45805 10.5945 8.36731 10.5038C8.27656 10.413 8.22559 10.2899 8.22559 10.1616C8.22559 10.0333 8.27656 9.9102 8.36731 9.81946C8.45805 9.72871 8.58113 9.67773 8.70946 9.67773C8.83779 9.67773 8.96086 9.72871 9.05161 9.81946C9.14235 9.9102 9.19333 10.0333 9.19333 10.1616Z" fill="#9FE2BF"/>
<path d="M9.19333 19.8384C9.19333 19.9667 9.14235 20.0898 9.05161 20.1805C8.96086 20.2713 8.83779 20.3222 8.70946 20.3222C8.58113 20.3222 8.45805 20.2713 8.36731 20.1805C8.27656 20.0898 8.22559 19.9667 8.22559 19.8384C8.22559 19.71 8.27656 19.587 8.36731 19.4962C8.45805 19.4055 8.58113 19.3545 8.70946 19.3545C8.83779 19.3545 8.96086 19.4055 9.05161 19.4962C9.14235 19.587 9.19333 19.71 9.19333 19.8384Z" fill="#9FE2BF"/>
<path d="M18.3876 17.9031C19.991 17.9031 21.2908 16.6033 21.2908 14.9999C21.2908 13.3965 19.991 12.0967 18.3876 12.0967C16.7842 12.0967 15.4844 13.3965 15.4844 14.9999C15.4844 16.6033 16.7842 17.9031 18.3876 17.9031Z" fill="url(#paint3_linear_225_66)"/>
<path d="M25.6449 15.4843H23.7095C23.5811 15.4843 23.4581 15.4334 23.3673 15.3426C23.2766 15.2519 23.2256 15.1288 23.2256 15.0005C23.2256 14.8721 23.2766 14.7491 23.3673 14.6583C23.4581 14.5676 23.5811 14.5166 23.7095 14.5166H25.6449C25.7733 14.5166 25.8963 14.5676 25.9871 14.6583C26.0778 14.7491 26.1288 14.8721 26.1288 15.0005C26.1288 15.1288 26.0778 15.2519 25.9871 15.3426C25.8963 15.4334 25.7733 15.4843 25.6449 15.4843Z" fill="#4DA67F"/>
<path d="M13.0649 15.4843H11.1294C11.001 15.4843 10.878 15.4334 10.7872 15.3426C10.6965 15.2519 10.6455 15.1288 10.6455 15.0005C10.6455 14.8721 10.6965 14.7491 10.7872 14.6583C10.878 14.5676 11.001 14.5166 11.1294 14.5166H13.0649C13.1932 14.5166 13.3163 14.5676 13.407 14.6583C13.4978 14.7491 13.5487 14.8721 13.5487 15.0005C13.5487 15.1288 13.4978 15.2519 13.407 15.3426C13.3163 15.4334 13.1932 15.4843 13.0649 15.4843Z" fill="#4DA67F"/>
<path d="M16.4517 27.0967H1.93555V28.0644H16.4517V27.0967Z" fill="#77CACB"/>
<defs>
<linearGradient id="paint0_linear_225_66" x1="9.19355" y1="30" x2="9.19355" y2="0" gradientUnits="userSpaceOnUse">
<stop stop-color="#474F72"/>
<stop offset="1" stop-color="#878C9F"/>
</linearGradient>
<linearGradient id="paint1_linear_225_66" x1="9.19361" y1="28.0646" x2="9.19361" y2="1.93555" gradientUnits="userSpaceOnUse">
<stop stop-color="#9DD5DF"/>
<stop offset="1" stop-color="#C3E1F5"/>
</linearGradient>
<linearGradient id="paint2_linear_225_66" x1="18.3873" y1="21.774" x2="18.3873" y2="8.22559" gradientUnits="userSpaceOnUse">
<stop stop-color="#6AB891"/>
<stop offset="1" stop-color="#85CBA9"/>
</linearGradient>
<linearGradient id="paint3_linear_225_66" x1="15.4844" y1="14.9999" x2="21.2908" y2="14.9999" gradientUnits="userSpaceOnUse">
<stop stop-color="#6AB891"/>
<stop offset="1" stop-color="#85CBA9"/>
</linearGradient>
</defs>
</svg>
