<svg width="30" height="31" viewBox="0 0 30 31" fill="none" xmlns="http://www.w3.org/2000/svg">
<g opacity="0.8">
<path d="M10.2273 20.4545C15.8756 20.4545 20.4545 15.8756 20.4545 10.2273C20.4545 4.57891 15.8756 0 10.2273 0C4.57891 0 0 4.57891 0 10.2273C0 15.8756 4.57891 20.4545 10.2273 20.4545Z" fill="#3F51B5"/>
<path d="M11.7954 8.86337V10.0225H9.20446V10.977H11.7954V12.1361H9.20446C9.20446 12.5452 9.27264 12.9543 9.409 13.227C9.54537 13.4997 9.68173 13.7725 9.88627 13.9088C10.0908 14.1134 10.3635 14.1816 10.6363 14.3179C10.909 14.3861 11.2499 14.4543 11.5908 14.4543C11.8635 14.4543 12.0681 14.4543 12.3408 14.3861C12.6135 14.3179 12.8181 14.3179 13.0226 14.1816L13.2954 16.0225C13.0226 16.0906 12.6817 16.1588 12.3408 16.1588C11.9999 16.227 11.659 16.227 11.3181 16.227C10.7045 16.227 10.0908 16.1588 9.54537 15.9543C8.99991 15.8179 8.52264 15.5452 8.18173 15.2043C7.77264 14.8634 7.49991 14.4543 7.22718 13.9088C7.02264 13.4316 6.88628 12.8179 6.88628 12.1361H5.59082V10.977H6.88628V10.0225H5.59082V8.86337H6.88628C6.95446 8.18155 7.09082 7.6361 7.29537 7.09064C7.56809 6.61337 7.84082 6.1361 8.24991 5.79519C8.659 5.45428 9.13628 5.18155 9.68173 5.04519C10.2272 4.84064 10.8408 4.77246 11.4545 4.77246C11.7272 4.77246 12.0681 4.77246 12.3408 4.84064C12.6135 4.90882 12.9545 4.90882 13.2272 5.04519L12.9545 6.8861C12.7499 6.81792 12.5454 6.74973 12.2726 6.68155C11.9999 6.61337 11.7954 6.61337 11.5226 6.61337C11.1817 6.61337 10.8408 6.68155 10.5681 6.74973C10.2954 6.81792 10.0226 6.95428 9.88627 7.15882C9.68173 7.36337 9.54537 7.56792 9.409 7.84064C9.27264 8.11337 9.20446 8.45428 9.20446 8.86337H11.7954Z" fill="#FFF59D"/>
<path d="M19.7732 30.6811C25.4215 30.6811 30.0004 26.1022 30.0004 20.4538C30.0004 14.8055 25.4215 10.2266 19.7732 10.2266C14.1248 10.2266 9.5459 14.8055 9.5459 20.4538C9.5459 26.1022 14.1248 30.6811 19.7732 30.6811Z" fill="#4CAF50"/>
<path d="M18.6825 18.4082C18.7507 18.5446 18.8189 18.6809 18.9553 18.8173C19.0916 18.9537 19.228 19.09 19.4325 19.1582C19.6371 19.2946 19.9098 19.3627 20.1825 19.4991C20.6598 19.7037 21.1371 19.9082 21.5462 20.1127C21.9553 20.3173 22.2962 20.59 22.5689 20.8627C22.8416 21.1355 23.1143 21.4764 23.2507 21.8173C23.3871 22.1582 23.5234 22.6355 23.5234 23.1128C23.5234 23.59 23.4553 23.9991 23.3189 24.34C23.1825 24.6809 22.978 25.0218 22.7053 25.2946C22.4325 25.5673 22.0916 25.7718 21.7507 25.9082C21.3416 26.0446 20.9325 26.1809 20.5234 26.2491V27.7491H19.2962V26.2491C18.8871 26.1809 18.478 26.1127 18.0689 25.9764C17.6598 25.84 17.3189 25.6355 17.0462 25.2946C16.7053 25.0218 16.5007 24.6127 16.2962 24.2037C16.0916 23.7946 16.0234 23.2491 16.0234 22.6355H18.2734C18.2734 22.9764 18.3416 23.3173 18.4098 23.5218C18.478 23.7946 18.6143 23.9309 18.8189 24.1355C18.9553 24.2718 19.1598 24.4082 19.3643 24.4764C19.5689 24.5446 19.7734 24.5446 19.978 24.5446C20.2507 24.5446 20.4553 24.5446 20.5916 24.4764C20.7962 24.4082 20.9325 24.34 21.0689 24.2037C21.2053 24.0673 21.2734 23.9309 21.3416 23.7946C21.4098 23.6582 21.4098 23.4537 21.4098 23.2491C21.4098 23.0446 21.4098 22.84 21.3416 22.7037C21.2734 22.5673 21.2053 22.3627 21.0689 22.2264C20.9325 22.09 20.7962 21.9537 20.5916 21.8855C20.3871 21.7491 20.1143 21.6809 19.8416 21.5446C19.3643 21.34 18.8871 21.1355 18.478 20.9309C18.0689 20.7264 17.728 20.4537 17.4553 20.1809C17.1825 19.9082 16.9098 19.5673 16.7734 19.2264C16.6371 18.8855 16.5007 18.4082 16.5007 17.9309C16.5007 17.5218 16.5689 17.1127 16.7053 16.7718C16.8416 16.4309 17.0462 16.09 17.3189 15.8173C17.5916 15.5446 17.9325 15.34 18.2734 15.1355C18.6143 14.9991 19.0916 14.8627 19.5007 14.7946V13.1582H20.728V14.7946C21.1371 14.8627 21.5462 14.9991 21.9553 15.2037C22.2962 15.4082 22.6371 15.6127 22.8416 15.9537C23.1143 16.2264 23.3189 16.6355 23.4553 17.0446C23.5916 17.4537 23.6598 17.9309 23.6598 18.4082H21.4098C21.4098 17.7946 21.2734 17.3173 21.0007 17.0446C20.728 16.7718 20.3871 16.5673 19.978 16.5673C19.7734 16.5673 19.5689 16.6355 19.3643 16.7037C19.228 16.7718 19.0916 16.84 18.9553 16.9764C18.8189 17.1127 18.7507 17.2491 18.7507 17.3855C18.6825 17.5218 18.6825 17.7264 18.6825 17.9309C18.6143 18.0673 18.6825 18.2718 18.6825 18.4082Z" fill="white"/>
</g>
</svg>
