<svg width="55" height="50" viewBox="0 0 55 50" fill="none" xmlns="http://www.w3.org/2000/svg">
<path d="M32.773 14.5566L32.9029 14.6014L30.525 18.8841L31.506 19.223L30.3952 18.8392M31.506 19.223C31.6309 19.0844 31.7859 18.9592 31.953 18.8357C32.0617 18.6104 32.128 18.366 32.185 18.1206C32.1978 18.0654 32.2958 18.0726 32.3002 18.1358C32.3171 18.3764 32.2858 18.649 32.2001 18.8974C32.2138 18.9018 32.2273 18.9064 32.2405 18.9111C32.2468 18.899 32.2536 18.8872 32.2595 18.8749C32.3683 18.6496 32.4346 18.4052 32.4915 18.1598C32.5043 18.1046 32.6023 18.1118 32.6068 18.175C32.6256 18.4442 32.5842 18.7535 32.4734 19.0241C32.4738 19.0244 32.4743 19.0246 32.4747 19.0249C32.49 18.998 32.5047 18.9708 32.5182 18.9428C32.627 18.7175 32.6933 18.4731 32.7502 18.2277C32.763 18.1724 32.861 18.1797 32.8655 18.2429C32.8873 18.5531 32.8294 18.9166 32.6771 19.2126C32.6873 19.2256 32.6972 19.2393 32.7069 19.2532C32.7089 19.2491 32.7112 19.2453 32.7131 19.2413C32.8218 19.016 32.8881 18.7716 32.9451 18.5262C32.9579 18.4709 33.0559 18.4782 33.0603 18.5414C33.0861 18.9073 33 19.3464 32.7793 19.6622L33.6652 19.9682L36.0431 15.6855L35.9132 15.6407L34.4368 15.1307L32.9032 14.601L30.5253 18.8837L31.506 19.223ZM54.2 49.5865C54.2 49.815 54.0112 50.0002 53.7782 50.0002H0.421786C0.188811 50.0002 0 49.815 0 49.5865C0 49.3581 0.188811 49.1729 0.421786 49.1729H8.28977H8.93835H9.31847H9.53484H9.8824H9.9818H10.3244H11.0501H11.3817H11.9547H12.2965H12.743H13.1035H13.6893H13.9676V48.4222V47.3183V46.5179V43.9558V43.0619V42.1721V41.4974V41.397V31.7659V31.6505V30.4436H13.3568V29.8901H15.8821L15.9645 29.5417H19.5247L20.6145 24.9348H20.838L19.7482 29.5417L19.6658 29.8901L20.8381 24.9348H21.3009H25.905H28.3634H28.5869L28.2109 26.5242L27.9042 27.8209L27.4147 29.8901H27.9336H29.8755L29.9579 29.5417H33.5182L34.6079 24.9348H34.8315L33.7417 29.5417L33.6593 29.8901L34.8316 24.9348H42.3569H42.5804L41.7357 28.506L41.7172 28.584L41.4083 29.8901H41.8296V30.4436H40.9168H40.8025H39.7986V31.9851V32.146V41.5851V41.6817V44.4159C39.6946 44.3896 39.5893 44.3683 39.483 44.3525V41.8834V41.7891V30.4435H32.7381V37.3208V37.4263V44.6725V44.7476V49.1729H36.7057C36.7079 49.1778 36.7101 49.1827 36.7123 49.1877H37.1345C37.1319 49.1828 37.1292 49.1778 37.1266 49.1729H37.3736C37.3763 49.1778 37.3789 49.1828 37.3816 49.1877H37.52C37.5185 49.1828 37.5169 49.1778 37.5154 49.1729H37.7412C37.7427 49.1778 37.7443 49.1828 37.7458 49.1877H37.8096C37.8084 49.1828 37.8074 49.1778 37.8062 49.1729H38.0288C38.03 49.1778 38.031 49.1828 38.0321 49.1877H38.5017C38.5015 49.1828 38.5015 49.1778 38.5012 49.1729H38.7166C38.7169 49.1778 38.7169 49.1828 38.7171 49.1877H39.0869C39.0879 49.1828 39.0892 49.1779 39.0901 49.1729H39.3123C39.3113 49.1778 39.31 49.1827 39.3089 49.1877H39.5969C39.6621 49.0374 39.7301 48.8894 39.7986 48.7427V49.1729H39.8377C39.8355 49.1779 39.8331 49.1827 39.831 49.1877H40.2124C40.2142 49.1828 40.2161 49.1779 40.2178 49.1729H40.449C40.4472 49.1778 40.4453 49.1827 40.4435 49.1877H41.0135C41.0171 49.1827 41.0211 49.1779 41.0248 49.1729H53.7783C54.0112 49.1729 54.2 49.3581 54.2 49.5865ZM21.6442 30.4435H21.6054H21.3437V39.9724V46.8814V47.5398V49.1728H29.9436H32.4223V44.8222V44.7481V30.4435H27.9397H21.6442ZM14.2831 47.5928V48.533V49.1729H14.928H19.5696H21.028V47.611V46.8814V40.694V37.3185V37.2119V30.4434H14.2831V41.6078V41.7049V43.1697V44.0657V44.2081V45.8343V46.6241V47.5928V47.5928ZM39.4827 46.5032C39.5012 46.4909 39.5162 46.472 39.5214 46.4426C39.5906 46.0493 39.6866 45.6633 39.7984 45.2817V44.5611C39.682 44.906 39.5741 45.2534 39.4827 45.6053V46.5032ZM39.4827 48.4619C39.5765 48.1128 39.6835 47.7667 39.7984 47.4238V46.763C39.6878 47.0698 39.5818 47.38 39.4827 47.6926V48.4619Z" fill="#0C0E13"/>
<path d="M28.0748 21.2003L29.232 20.7675L31.2148 20.0256C31.1879 19.6933 31.3095 19.4416 31.5063 19.2233C31.6312 19.0848 31.7861 18.9595 31.9532 18.8361C32.062 18.6108 32.1283 18.3664 32.1852 18.121C32.198 18.0657 32.296 18.073 32.3005 18.1362C32.3174 18.3768 32.286 18.6493 32.2003 18.8978C32.2141 18.9021 32.2275 18.9067 32.2408 18.9114C32.2471 18.8994 32.2538 18.8876 32.2598 18.8752C32.3685 18.6499 32.4348 18.4055 32.4918 18.1601C32.5046 18.1049 32.6026 18.1121 32.607 18.1753C32.6259 18.4446 32.5844 18.7538 32.4737 19.0244C32.4741 19.0247 32.4745 19.0249 32.475 19.0253C32.4903 18.9983 32.5049 18.9711 32.5185 18.9431C32.6272 18.7178 32.6935 18.4734 32.7505 18.228C32.7633 18.1728 32.8613 18.18 32.8657 18.2432C32.8875 18.5534 32.8297 18.9169 32.6773 19.213C32.6875 19.226 32.6974 19.2397 32.7072 19.2535C32.7091 19.2495 32.7114 19.2456 32.7134 19.2416C32.8221 19.0163 32.8884 18.7719 32.9454 18.5265C32.9582 18.4713 33.0561 18.4785 33.0606 18.5417C33.0863 18.9077 33.0003 19.3467 32.7795 19.6626C32.7513 19.703 32.7215 19.7421 32.6887 19.778C32.5053 20.1129 32.2587 20.4129 31.96 20.6615L31.9613 20.6626L29.5398 22.8068C29.0333 23.2553 28.2637 23.1844 27.8541 22.7222C27.759 22.6149 27.6833 22.4866 27.6348 22.3388C27.5165 21.9794 27.5849 21.5795 28.0748 21.2003ZM20.3936 47.6458L21.0282 47.6114V46.8819H20.4353L20.3936 47.6458ZM21.9035 47.1742L21.9703 46.8817H21.344V47.5401C21.4013 47.5157 21.4573 47.4868 21.5096 47.4502L21.9035 47.1742ZM25.8389 47.6096C25.994 47.6011 26.1406 47.5454 26.2586 47.4503L26.6012 47.1742L26.6135 46.8817H25.0785L25.1792 47.6457L25.8389 47.6096ZM24.4762 16.3627L24.7119 16.4411L25.2112 14.9983L25.4967 15.0677C25.5929 15.0911 25.6892 15.1018 25.7842 15.1033C26.3627 15.112 26.8921 14.7315 27.0374 14.1573L27.582 12.0039L27.821 11.0592L25.9957 10.6152L25.7196 11.227L25.3371 11.3155L24.7306 12.5853L24.4996 12.5291L24.5403 12.3684C24.5969 12.1448 24.4566 11.9166 24.2287 11.8611C24.0007 11.8057 23.768 11.9432 23.7114 12.1667L23.6397 12.4503C23.6001 12.607 23.6573 12.7657 23.7734 12.8659C23.7393 13.0006 23.7242 13.1354 23.723 13.2684L23.6777 13.3995L23.3109 14.4593L23.1984 14.7846C23.7304 15.2109 24.1366 15.7656 24.4762 16.3627ZM25.9051 24.935H28.3635H28.5871L28.2111 26.5244C29.1225 26.6919 30.0444 26.8051 30.9697 26.8621C31.1136 27.3815 31.5534 27.5767 32.0636 27.737C32.2419 27.9146 32.3866 28.1239 32.5228 28.3372C32.5535 28.3851 32.6435 28.3467 32.6264 28.2855C32.5615 28.0529 32.4404 27.8057 32.2759 27.5989C32.2874 27.5902 32.2986 27.5816 32.3096 27.5729C32.3196 27.5823 32.3299 27.5912 32.3396 27.6009C32.5179 27.7785 32.6627 27.9878 32.7989 28.201C32.8296 28.249 32.9195 28.2106 32.9025 28.1494C32.8299 27.8892 32.6869 27.6106 32.4913 27.3908C32.4917 27.3904 32.492 27.39 32.4923 27.3895C32.5158 27.41 32.5389 27.4309 32.561 27.4531C32.7393 27.6307 32.884 27.84 33.0202 28.0532C33.0508 28.1012 33.1409 28.0628 33.1239 28.0016C33.0402 27.7018 32.8635 27.3772 32.6201 27.1469C32.6254 27.1314 32.6301 27.1152 32.6347 27.099C32.6379 27.1022 32.6414 27.1051 32.6446 27.1083C32.8228 27.2859 32.9676 27.4952 33.1038 27.7085C33.1345 27.7565 33.2244 27.718 33.2074 27.6569C33.0961 27.2578 32.8197 26.8157 32.441 26.6096C32.1545 26.3519 31.8198 26.1477 31.453 26.0095C31.4536 26.0082 31.4543 26.0069 31.4551 26.0056C30.3672 25.4228 28.8032 24.7288 27.3864 24.0691C27.1148 23.9427 26.848 23.8174 26.5917 23.6945C26.4358 24.1304 26.1867 24.5414 25.9051 24.935Z" fill="#C58936"/>
<path d="M20.1894 44.3593C20.2837 43.1254 20.5609 41.871 21.0283 40.6934V46.8808H20.4354H20.2556C20.1483 46.0977 20.1251 45.2727 20.1837 44.4371C20.1856 44.4113 20.1873 44.3853 20.1894 44.3593ZM27.9338 29.8895C27.925 29.1821 27.9134 28.4895 27.9043 27.8203L27.4149 29.8895H27.9338ZM21.6445 30.4429C21.6838 32.8512 22.434 35.2916 22.1197 37.6058C22.1152 37.6388 22.1101 37.6718 22.1053 37.7048C22.0039 38.3834 21.809 39.0509 21.4745 39.7032C21.4291 39.7918 21.3869 39.882 21.3439 39.9718V46.8808H21.9703H22.1199C22.2547 46.2538 22.39 45.632 22.531 45.0138C22.5364 44.9904 22.5416 44.9669 22.547 44.9434C22.9864 43.0243 23.4835 41.1394 24.1961 39.2434C24.48 38.488 24.7328 37.6935 24.9632 36.878C25.0272 37.3384 25.0558 37.7946 25.0361 38.2454C25.0346 38.2782 25.0333 38.311 25.0314 38.3438C25.0039 38.8032 24.9249 39.2567 24.7793 39.7032C24.0509 41.936 24.157 44.587 24.8988 46.8809H25.0786H26.6136H26.7632C26.777 46.3972 26.7917 45.9164 26.8095 45.4379C26.8103 45.416 26.8112 45.3941 26.8121 45.3722C26.8903 43.3047 27.0296 41.2805 27.4153 39.2436C27.4641 38.986 27.5074 38.7229 27.548 38.4571C27.553 38.4245 27.5573 38.3913 27.5621 38.3585C27.9307 35.8788 27.9655 33.0813 27.9399 30.443H21.6445V30.4429Z" fill="#5B8DC9"/>
<path d="M23.7223 13.2683L23.6769 13.3994C23.5169 12.6685 23.4678 11.9144 23.5353 11.1698C23.5589 10.91 23.5982 10.6454 23.7205 10.4138C23.8428 10.1821 24.0622 9.98587 24.3258 9.95054C24.4533 9.32036 24.9452 8.87694 25.597 8.81351C26.2489 8.75009 26.893 8.97601 27.4887 9.2431C27.6341 9.30823 27.7812 9.37697 27.9397 9.3974C27.9573 9.39964 27.9751 9.40123 27.9931 9.40208C28.3488 9.41879 28.6583 9.64236 28.7463 9.98076C28.8423 10.3501 28.8217 10.7449 28.6552 11.0909C28.4471 11.5235 28.0438 11.8556 27.5813 12.0038L27.8202 11.059L25.995 10.6151L25.7189 11.2269L25.3364 11.3154L24.7298 12.5851L24.4989 12.5289L24.5396 12.3682C24.5961 12.1447 24.4558 11.9164 24.2279 11.861C24 11.8055 23.7672 11.943 23.7107 12.1666L23.6389 12.4502C23.5993 12.6068 23.6565 12.7656 23.7726 12.8657C23.7384 13.0004 23.7235 13.1353 23.7223 13.2683Z" fill="#9E8F7A"/>
<path d="M35.8919 9.96185C36.0035 10.0357 36.1141 10.1108 36.2237 10.1872C36.2463 10.203 36.2515 10.2336 36.2354 10.2558C36.2257 10.2692 36.2103 10.2764 36.1946 10.2764C36.1845 10.2764 36.1743 10.2734 36.1656 10.2673C36.0567 10.1913 35.9467 10.1166 35.8359 10.0433C35.8129 10.0281 35.8068 9.9976 35.8223 9.97504C35.838 9.95259 35.869 9.94695 35.8919 9.96185ZM36.7193 10.6097C36.7023 10.6311 36.7062 10.6619 36.728 10.6786C36.8333 10.7593 36.9376 10.8412 37.0408 10.9245C37.0501 10.932 37.0613 10.9356 37.0726 10.9356C37.087 10.9356 37.1014 10.9296 37.1113 10.9177C37.1288 10.8967 37.1259 10.8657 37.1044 10.8485C37.0006 10.7647 36.8955 10.6823 36.7896 10.6012C36.7677 10.5846 36.7363 10.5881 36.7193 10.6097ZM37.5688 11.3035C37.5504 11.3237 37.552 11.3548 37.5726 11.3729C37.6719 11.4605 37.7701 11.5493 37.8672 11.6392C37.8769 11.6482 37.8894 11.6526 37.9017 11.6526C37.9151 11.6526 37.9282 11.6474 37.9381 11.6372C37.9571 11.6175 37.9562 11.5863 37.9361 11.5677C37.8385 11.4773 37.7395 11.3878 37.6396 11.2998C37.6193 11.2817 37.5874 11.2833 37.5688 11.3035ZM28.6597 7.39144C28.6327 7.38942 28.6076 7.40825 28.6048 7.43539C28.6019 7.46231 28.6219 7.48647 28.6495 7.48923C28.7826 7.50264 28.9153 7.51754 29.0475 7.53425C29.0497 7.53446 29.0518 7.53467 29.054 7.53467C29.0787 7.53467 29.1003 7.51658 29.1036 7.49179C29.1071 7.46497 29.0878 7.44029 29.0602 7.43677C28.9273 7.41996 28.7938 7.40485 28.6597 7.39144ZM29.7578 7.53978C29.7312 7.53499 29.7046 7.55308 29.7 7.57979C29.6952 7.6065 29.7134 7.63193 29.7408 7.63662C29.8726 7.65907 30.0039 7.68312 30.1347 7.70877C30.1379 7.7094 30.1412 7.70972 30.1446 7.70972C30.168 7.70972 30.1888 7.69355 30.1936 7.67024C30.1991 7.64364 30.1814 7.61778 30.1543 7.61246C30.0228 7.5866 29.8906 7.56234 29.7578 7.53978ZM27.5539 7.31823C27.5534 7.31823 27.5527 7.31823 27.5523 7.31823C27.5254 7.31823 27.503 7.33919 27.5022 7.36569C27.5013 7.39282 27.523 7.4156 27.5506 7.41645C27.6845 7.42081 27.8179 7.42666 27.9509 7.43422C27.9518 7.43422 27.9528 7.43432 27.9538 7.43432C27.9803 7.43432 28.0022 7.41421 28.0038 7.38804C28.0053 7.36101 27.9844 7.3377 27.9567 7.33621C27.8228 7.32844 27.6886 7.32249 27.5539 7.31823ZM34.9504 9.3853C34.9266 9.37189 34.8959 9.37988 34.8821 9.40329C34.8682 9.4268 34.8764 9.45681 34.9004 9.47043C35.0163 9.53609 35.1314 9.60302 35.2454 9.67145C35.2535 9.67634 35.2625 9.67868 35.2715 9.67868C35.2883 9.67868 35.3048 9.67038 35.3143 9.65517C35.3287 9.63207 35.3212 9.60185 35.2977 9.58759C35.1828 9.51874 35.0671 9.45128 34.9504 9.3853ZM33.3275 8.58486C33.2038 8.5324 33.0795 8.48143 32.9543 8.43195C32.9289 8.42184 32.8993 8.43397 32.889 8.45919C32.8786 8.48441 32.8911 8.51303 32.9168 8.52314C33.0412 8.57231 33.1648 8.62285 33.2875 8.6751C33.294 8.67787 33.3008 8.67915 33.3075 8.67915C33.3269 8.67915 33.3452 8.66808 33.3535 8.64956C33.3645 8.62466 33.3528 8.59572 33.3275 8.58486ZM38.367 12.0532C38.3472 12.0721 38.3466 12.1032 38.3659 12.1227C38.4587 12.2167 38.5503 12.312 38.6409 12.4084C38.6508 12.4189 38.6643 12.4242 38.6777 12.4242C38.6899 12.4242 38.702 12.4199 38.7117 12.4113C38.7321 12.3929 38.7333 12.3618 38.7145 12.3418C38.6235 12.2449 38.5313 12.1491 38.4378 12.0544C38.4186 12.0349 38.3869 12.0343 38.367 12.0532ZM42.9034 23.2835C42.9068 23.1522 42.9084 23.0203 42.9084 22.8882V22.8573C42.9084 22.8302 42.8859 22.8081 42.8583 22.8081C42.8306 22.8081 42.8081 22.8302 42.8081 22.8573V22.8882C42.8081 23.0195 42.8065 23.1505 42.8031 23.281C42.8025 23.3082 42.8244 23.3307 42.852 23.3315C42.8524 23.3315 42.8528 23.3315 42.8533 23.3315C42.8804 23.3315 42.9027 23.3102 42.9034 23.2835ZM41.9831 17.9359C41.9902 17.9563 42.0096 17.9693 42.0305 17.9693C42.0358 17.9693 42.0413 17.9685 42.0466 17.9668C42.0728 17.958 42.0869 17.9302 42.0781 17.9045C42.035 17.7794 41.9904 17.6551 41.9443 17.5314C41.9347 17.506 41.9061 17.4929 41.8799 17.5022C41.8539 17.5115 41.8405 17.5397 41.8501 17.5652C41.896 17.688 41.9402 17.8115 41.9831 17.9359ZM42.7877 24.4132C42.8132 24.4132 42.835 24.3941 42.8375 24.3687C42.8501 24.2377 42.8611 24.1064 42.8703 23.9745C42.8721 23.9475 42.8513 23.924 42.8237 23.9221C42.7961 23.9208 42.7723 23.9407 42.7704 23.9677C42.7611 24.0987 42.7504 24.2292 42.7378 24.3593C42.7353 24.3863 42.7554 24.4103 42.783 24.4128C42.7846 24.4132 42.7861 24.4132 42.7877 24.4132ZM42.7132 25.0004C42.6866 24.9973 42.6603 25.0154 42.6566 25.0422C42.6382 25.1722 42.6181 25.3017 42.5963 25.4307C42.5917 25.4575 42.6102 25.4828 42.6375 25.4872C42.6404 25.4877 42.6431 25.4878 42.6459 25.4878C42.6699 25.4878 42.6911 25.4707 42.6953 25.4468C42.7173 25.3168 42.7375 25.1866 42.756 25.0558C42.7596 25.0289 42.7406 25.0041 42.7132 25.0004ZM39.1099 12.8549C39.0888 12.8724 39.086 12.9034 39.1038 12.9242C39.1899 13.0242 39.2745 13.1254 39.3578 13.2277C39.3676 13.2398 39.3823 13.2462 39.3969 13.2462C39.4079 13.2462 39.419 13.2427 39.4283 13.2354C39.4498 13.2185 39.4535 13.1875 39.4361 13.1664C39.3522 13.0635 39.267 12.9616 39.1806 12.8609C39.1627 12.8401 39.1311 12.8376 39.1099 12.8549ZM42.4985 19.5815C42.4715 19.5871 42.4541 19.6132 42.46 19.6398C42.4878 19.7676 42.5142 19.8961 42.5388 20.0251C42.5433 20.0487 42.5643 20.0652 42.5879 20.0652C42.5911 20.0652 42.5942 20.0649 42.5973 20.0644C42.6245 20.0594 42.6424 20.0337 42.6373 20.007C42.6125 19.8772 42.5861 19.748 42.5581 19.6193C42.5521 19.5928 42.5259 19.5755 42.4985 19.5815ZM39.7942 13.705C39.7718 13.721 39.767 13.7517 39.7832 13.7737C39.8619 13.8792 39.9392 13.986 40.0151 14.0935C40.0248 14.1074 40.0405 14.1147 40.0564 14.1147C40.0662 14.1147 40.0761 14.1118 40.0848 14.106C40.1076 14.0906 40.1132 14.06 40.0975 14.0377C40.0212 13.9292 39.9434 13.822 39.8643 13.7157C39.8478 13.6938 39.8164 13.689 39.7942 13.705ZM40.652 15.0257C40.6607 15.0257 40.6695 15.0235 40.6775 15.0188C40.7012 15.005 40.7092 14.9749 40.695 14.9514C40.6265 14.8382 40.5566 14.726 40.4853 14.6147C40.4704 14.5917 40.4396 14.5849 40.4162 14.5991C40.3928 14.6135 40.3857 14.6438 40.4003 14.6668C40.4712 14.7775 40.5406 14.8891 40.6088 15.0016C40.6182 15.0171 40.6349 15.0257 40.652 15.0257ZM39.8721 32.05C39.8884 32.0281 39.8835 31.9974 39.861 31.9814C39.8416 31.9675 39.816 31.9702 39.7988 31.9853V32.1462C39.8231 32.114 39.8481 32.0824 39.8721 32.05ZM38.3737 33.6459C38.2809 33.7401 38.1868 33.8331 38.0916 33.925C38.0719 33.944 38.0717 33.9752 38.0911 33.9945C38.1009 34.0043 38.1139 34.0092 38.1268 34.0092C38.1395 34.0092 38.1522 34.0045 38.162 33.995C38.2578 33.9024 38.3524 33.8089 38.4457 33.7142C38.465 33.6946 38.4644 33.6635 38.4445 33.6447C38.4246 33.6259 38.3928 33.6264 38.3737 33.6459ZM37.5812 34.396C37.482 34.4836 37.3816 34.57 37.2802 34.6551C37.2591 34.6728 37.2568 34.7037 37.2748 34.7244C37.2846 34.7358 37.2987 34.7415 37.3129 34.7415C37.3244 34.7415 37.336 34.7377 37.3454 34.7297C37.4475 34.644 37.5483 34.557 37.6482 34.469C37.6688 34.4508 37.6705 34.4197 37.652 34.3996C37.6333 34.3794 37.6015 34.3778 37.5812 34.396ZM39.1821 32.8374C39.1609 32.8199 39.1293 32.8227 39.1115 32.8434C39.0256 32.9437 38.9385 33.0429 38.8498 33.1412C38.8314 33.1614 38.8333 33.1926 38.8542 33.2104C38.8636 33.2188 38.8755 33.2228 38.8874 33.2228C38.9011 33.2228 38.9149 33.2172 38.9248 33.2062C39.014 33.1074 39.1017 33.0076 39.1883 32.9065C39.2061 32.8859 39.2033 32.8548 39.1821 32.8374ZM31.5383 37.8263C31.5429 37.8263 31.5478 37.8257 31.5526 37.8243C31.6817 37.7867 31.81 37.7476 31.9376 37.7068C31.964 37.6984 31.9783 37.6706 31.9698 37.6449C31.9613 37.619 31.9329 37.6051 31.9067 37.6133C31.7798 37.6538 31.6523 37.6927 31.5241 37.73C31.4976 37.7378 31.4825 37.765 31.4903 37.7912C31.4967 37.8125 31.5167 37.8263 31.5383 37.8263ZM36.7377 35.0902C36.6326 35.1708 36.5266 35.2501 36.4193 35.3281C36.397 35.3442 36.3923 35.375 36.4088 35.3968C36.4186 35.4098 36.4338 35.4167 36.4491 35.4167C36.4595 35.4167 36.4699 35.4135 36.4789 35.407C36.5868 35.3286 36.6937 35.2488 36.7994 35.1677C36.8212 35.151 36.8251 35.1201 36.8079 35.0987C36.7909 35.077 36.7593 35.0735 36.7377 35.0902ZM27.6321 38.4064C27.631 38.3793 27.6074 38.3588 27.5802 38.359C27.5741 38.3592 27.568 38.3592 27.5621 38.3594C27.5572 38.3922 27.553 38.4254 27.548 38.4581C27.5599 38.4577 27.5718 38.4577 27.5838 38.4573C27.6113 38.4563 27.6329 38.4335 27.6321 38.4064ZM21.7071 37.521C21.6979 37.5467 21.7116 37.5748 21.7377 37.5838C21.8596 37.6259 21.9822 37.6665 22.1053 37.7057C22.1102 37.6728 22.1153 37.6398 22.1198 37.6068C22.003 37.5693 21.8867 37.5311 21.771 37.491C21.7449 37.4819 21.7163 37.4955 21.7071 37.521ZM24.9259 38.2826C24.9224 38.3095 24.9417 38.3342 24.9692 38.3377C24.9899 38.3404 25.0107 38.3423 25.0315 38.3449C25.0334 38.3121 25.0347 38.2792 25.0361 38.2464C25.0181 38.2442 25 38.2425 24.982 38.2403C24.9551 38.237 24.9295 38.2558 24.9259 38.2826ZM40.7682 30.5052C40.7546 30.5288 40.7631 30.5587 40.7872 30.5722C40.795 30.5766 40.8035 30.5786 40.8118 30.5786C40.8293 30.5786 40.8462 30.5697 40.8554 30.5537C40.8764 30.5174 40.8964 30.4804 40.917 30.4439H40.8026C40.791 30.4642 40.7799 30.4849 40.7682 30.5052ZM33.0069 37.2706C32.9965 37.2455 32.9671 37.2335 32.9416 37.2435C32.8742 37.2703 32.806 37.2954 32.7382 37.3213V37.4267C32.8186 37.3963 32.8993 37.3663 32.9792 37.3347C33.0048 37.3245 33.0173 37.2957 33.0069 37.2706ZM41.7462 28.6161C41.7523 28.6185 41.7585 28.6195 41.7647 28.6195C41.7846 28.6195 41.8035 28.6076 41.8112 28.5884C41.8607 28.4654 41.9084 28.3417 41.9545 28.2173C41.964 28.1918 41.9505 28.1637 41.9245 28.1543C41.8984 28.1452 41.8697 28.1583 41.8603 28.1837C41.8201 28.2919 41.7783 28.3992 41.7358 28.5061L41.7174 28.5841C41.7217 28.5982 41.7313 28.6104 41.7462 28.6161ZM33.9451 36.8044C33.8256 36.8617 33.7052 36.9175 33.5839 36.9719C33.5588 36.9832 33.5477 37.0125 33.5592 37.037C33.5677 37.0551 33.5858 37.0658 33.6048 37.0658C33.6117 37.0658 33.6189 37.0644 33.6256 37.0614C33.7477 37.0067 33.8688 36.9504 33.9891 36.8928C34.014 36.8808 34.0243 36.8514 34.0121 36.827C33.9999 36.8025 33.9696 36.7927 33.9451 36.8044ZM34.9154 36.2975C34.8 36.3629 34.6838 36.427 34.5667 36.4894C34.5424 36.5025 34.5334 36.5323 34.5467 36.5562C34.5558 36.5726 34.573 36.5818 34.5907 36.5818C34.5989 36.5818 34.6071 36.5799 34.6147 36.5759C34.7325 36.5128 34.8495 36.4484 34.9654 36.3825C34.9894 36.369 34.9976 36.3389 34.9837 36.3155C34.9699 36.2919 34.9389 36.2838 34.9154 36.2975ZM13.9515 31.6576C13.9287 31.673 13.923 31.7036 13.9387 31.726C13.9483 31.7395 13.9581 31.7526 13.9677 31.7661V31.6507C13.9622 31.6522 13.9566 31.6541 13.9515 31.6576ZM35.8476 35.7252C35.7373 35.7983 35.6258 35.8702 35.5134 35.9406C35.49 35.9553 35.4831 35.9856 35.498 36.0085C35.5075 36.0231 35.5238 36.0312 35.5403 36.0312C35.5496 36.0312 35.5589 36.0288 35.5673 36.0236C35.6805 35.9526 35.7926 35.8803 35.9038 35.8067C35.9267 35.7916 35.9328 35.761 35.9173 35.7385C35.9017 35.7159 35.8706 35.71 35.8476 35.7252ZM19.1312 36.2983C19.0153 36.2326 18.9003 36.1654 18.7864 36.0969C18.7627 36.0826 18.7319 36.0901 18.7175 36.1132C18.703 36.1363 18.7104 36.1665 18.734 36.1807C18.8488 36.2497 18.9645 36.3173 19.081 36.3834C19.0889 36.3878 19.0975 36.39 19.1061 36.39C19.1234 36.39 19.1402 36.3811 19.1495 36.3654C19.1635 36.342 19.1552 36.3118 19.1312 36.2983ZM17.8669 35.5C17.8444 35.4844 17.8131 35.4896 17.797 35.5115C17.7809 35.5335 17.7861 35.5643 17.8087 35.58C17.9182 35.6566 18.0287 35.7319 18.1402 35.8057C18.1488 35.8115 18.1586 35.8141 18.1682 35.8141C18.1842 35.8141 18.2001 35.8066 18.2097 35.7926C18.2253 35.77 18.2193 35.7394 18.1963 35.7243C18.0855 35.6508 17.9757 35.5761 17.8669 35.5ZM16.9921 34.8421C16.9709 34.8247 16.9392 34.8279 16.9216 34.8487C16.904 34.8696 16.9071 34.9006 16.9284 34.9178C17.0322 35.0017 17.137 35.0844 17.243 35.1656C17.2522 35.1727 17.2631 35.176 17.2738 35.176C17.2888 35.176 17.3035 35.1695 17.3133 35.1571C17.3304 35.1358 17.3265 35.1048 17.3048 35.0881C17.1995 35.0074 17.0952 34.9254 16.9921 34.8421ZM20.1053 36.807C19.9849 36.7493 19.8654 36.6901 19.7467 36.6296C19.7221 36.617 19.6918 36.6263 19.6791 36.6506C19.6663 36.6745 19.6759 36.7043 19.7004 36.7167C19.8198 36.7777 19.9401 36.8372 20.0612 36.8952C20.0682 36.8986 20.0757 36.9002 20.0831 36.9002C20.1017 36.9002 20.1195 36.89 20.1281 36.8726C20.1404 36.8483 20.1302 36.8188 20.1053 36.807ZM40.4088 31.0964C40.3377 31.2076 40.2654 31.3179 40.1915 31.4272C40.1762 31.4498 40.1826 31.4804 40.2056 31.4953C40.214 31.5007 40.2237 31.5035 40.2332 31.5035C40.2495 31.5035 40.2654 31.4957 40.275 31.4815C40.3493 31.3714 40.4223 31.2605 40.4938 31.1487C40.5084 31.1257 40.5014 31.0954 40.4779 31.0809C40.4545 31.0664 40.4235 31.0735 40.4088 31.0964ZM42.4666 26.1063C42.439 26.2347 42.4097 26.3624 42.3787 26.4897C42.3722 26.5161 42.3889 26.5426 42.4158 26.5489C42.4198 26.5498 42.4237 26.5503 42.4275 26.5503C42.4501 26.5503 42.4708 26.5351 42.4762 26.5126C42.5073 26.3845 42.5367 26.2558 42.5646 26.1266C42.5703 26.1 42.5531 26.0741 42.526 26.0684C42.4989 26.0634 42.4724 26.0798 42.4666 26.1063ZM42.2011 27.1546C42.1643 27.2807 42.1259 27.4061 42.086 27.531C42.0776 27.5568 42.0924 27.5844 42.1187 27.5925C42.1237 27.5941 42.1287 27.5948 42.1337 27.5948C42.1551 27.5948 42.1748 27.5814 42.1815 27.5603C42.2218 27.4347 42.2604 27.3085 42.2974 27.1816C42.3049 27.1555 42.2896 27.1283 42.263 27.1208C42.236 27.1129 42.2087 27.1285 42.2011 27.1546ZM29.3819 38.2955C29.3844 38.2955 29.3869 38.2953 29.3893 38.295C29.5226 38.2756 29.6553 38.2543 29.7873 38.2316C29.8147 38.227 29.8328 38.2015 29.828 38.1748C29.8234 38.148 29.7957 38.1294 29.7701 38.1349C29.6388 38.1575 29.5069 38.1784 29.3745 38.1979C29.3471 38.2018 29.3282 38.2269 29.3323 38.2537C29.3361 38.278 29.3576 38.2955 29.3819 38.2955ZM28.284 38.4183C28.2854 38.4183 28.2867 38.4182 28.288 38.4181C28.4225 38.4078 28.5563 38.3957 28.6896 38.382C28.7171 38.3792 28.7371 38.3551 28.7342 38.3281C28.7314 38.3011 28.7061 38.2809 28.6792 38.2843C28.5467 38.2978 28.4137 38.3099 28.2802 38.3202C28.2526 38.3223 28.2319 38.3459 28.2342 38.373C28.2363 38.3986 28.2582 38.4183 28.284 38.4183ZM20.6771 37.1207C20.6661 37.1456 20.6777 37.1745 20.7031 37.1854C20.8108 37.2311 20.9193 37.2753 21.0282 37.3189V37.2123C20.9329 37.1739 20.8375 37.1354 20.743 37.0952C20.7178 37.0843 20.6883 37.0958 20.6771 37.1207ZM30.4686 38.0981C30.4721 38.0981 30.4758 38.0977 30.4794 38.0969C30.6108 38.0683 30.7417 38.0381 30.8719 38.0064C30.8987 37.9999 30.9151 37.9732 30.9084 37.9468C30.9016 37.9204 30.8745 37.9044 30.8476 37.911C30.7184 37.9426 30.5883 37.9726 30.4576 38.001C30.4306 38.0069 30.4136 38.0332 30.4195 38.0597C30.4248 38.0826 30.4456 38.0981 30.4686 38.0981ZM16.1665 34.1264C16.1464 34.108 16.1147 34.1087 16.0957 34.1284C16.0766 34.148 16.0775 34.1791 16.0977 34.1978C16.1952 34.2885 16.294 34.3779 16.3938 34.4662C16.4033 34.4747 16.4154 34.4789 16.4273 34.4789C16.441 34.4789 16.4547 34.4735 16.4645 34.4627C16.483 34.4426 16.4815 34.4114 16.4609 34.3933C16.3616 34.3055 16.2635 34.2166 16.1665 34.1264ZM15.3939 33.3568C15.3751 33.3367 15.3433 33.3355 15.323 33.3538C15.3026 33.3721 15.3012 33.4032 15.32 33.4232C15.4109 33.5203 15.503 33.6163 15.5963 33.711C15.6062 33.721 15.6192 33.726 15.6324 33.726C15.6449 33.726 15.6574 33.7214 15.6672 33.7122C15.6871 33.6933 15.6876 33.6623 15.6684 33.6427C15.5756 33.5485 15.4841 33.4534 15.3939 33.3568ZM14.6775 32.5367C14.6602 32.5155 14.6286 32.5119 14.607 32.529C14.5854 32.5459 14.5819 32.5767 14.5991 32.5979C14.6829 32.701 14.7681 32.8029 14.8544 32.9036C14.8643 32.9152 14.8785 32.9212 14.8929 32.9212C14.9043 32.9212 14.9156 32.9175 14.9251 32.9097C14.9462 32.8923 14.9491 32.8612 14.9312 32.8405C14.8453 32.7403 14.7607 32.639 14.6775 32.5367ZM25.34 7.39602C25.3124 7.39889 25.2924 7.42305 25.2954 7.44997C25.2981 7.47519 25.3198 7.49392 25.3452 7.49392C25.3469 7.49392 25.3486 7.49381 25.3505 7.4936C25.483 7.47987 25.6159 7.46785 25.7495 7.45742C25.777 7.45529 25.7977 7.43156 25.7955 7.40453C25.7932 7.3775 25.7698 7.3575 25.7416 7.35952C25.607 7.37016 25.4732 7.38229 25.34 7.39602ZM16.6879 11.0568C16.586 11.1425 16.4851 11.2295 16.3853 11.3178C16.3648 11.3359 16.3632 11.367 16.3818 11.3871C16.3916 11.3979 16.4052 11.4033 16.419 11.4033C16.431 11.4033 16.443 11.3992 16.4525 11.3907C16.5517 11.303 16.6518 11.2166 16.7532 11.1313C16.7741 11.1137 16.7766 11.0827 16.7586 11.0621C16.7406 11.0416 16.7089 11.0392 16.6879 11.0568ZM17.5534 10.3786C17.4455 10.4572 17.3388 10.5371 17.2331 10.6183C17.2113 10.635 17.2075 10.6659 17.2246 10.6873C17.2344 10.6996 17.2492 10.7061 17.2641 10.7061C17.2749 10.7061 17.2858 10.7027 17.295 10.6957C17.3999 10.615 17.5059 10.5356 17.6131 10.4575C17.6354 10.4413 17.64 10.4106 17.6235 10.3888C17.607 10.3669 17.5756 10.3623 17.5534 10.3786ZM13.8309 14.2939C13.8077 14.2788 13.7766 14.2851 13.7614 14.3078C13.6872 14.4179 13.6144 14.5289 13.543 14.6408C13.5283 14.6638 13.5354 14.6941 13.5589 14.7085C13.5672 14.7136 13.5764 14.716 13.5854 14.716C13.6021 14.716 13.6184 14.7078 13.6279 14.6929C13.6989 14.5816 13.7712 14.4713 13.845 14.3619C13.8603 14.3394 13.854 14.3089 13.8309 14.2939ZM19.4165 9.20812C19.2988 9.27123 19.1819 9.33582 19.0659 9.40169C19.0419 9.41531 19.0338 9.44532 19.0477 9.46884C19.057 9.48448 19.0738 9.49331 19.0911 9.49331C19.0995 9.49331 19.1082 9.49118 19.1161 9.48671C19.2314 9.42116 19.3475 9.3571 19.4645 9.29432C19.4888 9.28134 19.4977 9.25144 19.4844 9.22771C19.4713 9.20376 19.4408 9.19493 19.4165 9.20812ZM13.5514 31.1487C13.561 31.1636 13.5773 31.1717 13.594 31.1717C13.6031 31.1717 13.6123 31.1692 13.6206 31.1642C13.644 31.1499 13.6511 31.1195 13.6364 31.0964C13.5657 30.9858 13.4963 30.874 13.4283 30.7614C13.4143 30.7382 13.3836 30.7305 13.3596 30.7442C13.3358 30.7581 13.3279 30.7883 13.342 30.8116C13.4105 30.9249 13.4803 31.0373 13.5514 31.1487ZM12.3784 28.809C12.3529 28.8194 12.3408 28.8482 12.3515 28.8733C12.4031 28.9947 12.4561 29.1153 12.5107 29.2352C12.5191 29.2534 12.5373 29.2642 12.5565 29.2642C12.5633 29.2642 12.5703 29.2628 12.5769 29.26C12.6022 29.2489 12.6135 29.2197 12.6022 29.195C12.5479 29.076 12.4952 28.956 12.444 28.8355C12.4334 28.8104 12.404 28.799 12.3784 28.809ZM12.8344 29.7931C12.8096 29.8053 12.7997 29.8348 12.812 29.8591C12.8722 29.9768 12.9337 30.0935 12.9967 30.2095C13.0057 30.2261 13.0231 30.2354 13.041 30.2354C13.0489 30.2354 13.0569 30.2336 13.0645 30.2297C13.089 30.2169 13.0982 30.1871 13.0852 30.1632C13.0225 30.0481 12.9613 29.932 12.9016 29.8151C12.8893 29.7907 12.8592 29.7811 12.8344 29.7931ZM26.4457 7.31983C26.418 7.32078 26.3963 7.34356 26.3974 7.37069C26.3984 7.39719 26.4206 7.41815 26.4474 7.41815C26.4481 7.41815 26.4486 7.41815 26.4493 7.41815C26.5823 7.41358 26.7157 7.41049 26.8495 7.409C26.8771 7.40868 26.8994 7.38644 26.8991 7.35931C26.8987 7.33217 26.8775 7.31472 26.8484 7.31067C26.7136 7.31206 26.5795 7.31504 26.4457 7.31983ZM24.2421 7.54755C24.2149 7.55223 24.1967 7.57777 24.2016 7.60448C24.2058 7.62832 24.227 7.64502 24.2508 7.64502C24.2538 7.64502 24.2567 7.64481 24.2596 7.64428C24.3908 7.62161 24.5226 7.60044 24.655 7.58096C24.6825 7.57692 24.7013 7.55191 24.6971 7.5251C24.693 7.49828 24.6679 7.4803 24.6402 7.48381C24.5069 7.50339 24.3743 7.52467 24.2421 7.54755ZM20.4052 8.72139C20.2832 8.7763 20.1621 8.83259 20.0419 8.89037C20.017 8.90229 20.0068 8.93177 20.0189 8.95614C20.0275 8.97348 20.0453 8.98359 20.0639 8.98359C20.0713 8.98359 20.0789 8.982 20.0859 8.97859C20.2054 8.92113 20.3257 8.86516 20.4468 8.81067C20.472 8.79939 20.4831 8.77023 20.4715 8.74555C20.4601 8.72097 20.4304 8.71022 20.4052 8.72139ZM23.5504 7.68291C23.419 7.71164 23.2881 7.74197 23.158 7.77389C23.1311 7.78049 23.1148 7.8072 23.1215 7.83348C23.1272 7.85583 23.1476 7.87073 23.17 7.87073C23.1741 7.87073 23.1782 7.87019 23.1822 7.86924C23.3115 7.83752 23.4415 7.80741 23.5722 7.77878C23.5992 7.77293 23.6162 7.74665 23.6102 7.72015C23.6042 7.69376 23.5775 7.67705 23.5504 7.68291ZM12.293 17.1746C12.2673 17.1648 12.2382 17.1771 12.2281 17.2024C12.179 17.3253 12.1313 17.4491 12.0852 17.5736C12.0758 17.599 12.0892 17.6273 12.1153 17.6366C12.1209 17.6385 12.1267 17.6394 12.1323 17.6394C12.1528 17.6394 12.172 17.6271 12.1794 17.6071C12.2252 17.4834 12.2724 17.3605 12.3213 17.2384C12.3314 17.213 12.3187 17.1845 12.293 17.1746ZM21.4269 8.30372C21.3009 8.35022 21.1757 8.39822 21.0514 8.4477C21.0257 8.45791 21.0134 8.48654 21.0238 8.51176C21.0317 8.53091 21.0505 8.5424 21.0702 8.5424C21.0765 8.5424 21.0829 8.54123 21.0891 8.53879C21.2127 8.48952 21.3371 8.44184 21.4623 8.39566C21.4881 8.38608 21.5012 8.35778 21.4915 8.33235C21.4817 8.30702 21.453 8.29414 21.4269 8.30372ZM22.4775 7.95671C22.3485 7.99438 22.2201 8.03364 22.0925 8.07451C22.0663 8.08291 22.0518 8.11069 22.0604 8.13644C22.0674 8.15719 22.087 8.17028 22.108 8.17028C22.1131 8.17028 22.1185 8.16953 22.1236 8.16783C22.2503 8.12729 22.3778 8.08823 22.506 8.05078C22.5324 8.04301 22.5476 8.01566 22.5397 7.9897C22.5319 7.96373 22.504 7.94883 22.4775 7.95671ZM18.4644 9.76126C18.3514 9.83224 18.2393 9.9046 18.1283 9.97845C18.1054 9.99367 18.0993 10.0242 18.1148 10.0467C18.1245 10.0607 18.1403 10.0683 18.1564 10.0683C18.166 10.0683 18.1758 10.0655 18.1844 10.0599C18.2947 9.98654 18.4062 9.9146 18.5185 9.84405C18.5418 9.82947 18.5485 9.79904 18.5337 9.77616C18.5187 9.75338 18.4876 9.74657 18.4644 9.76126ZM11.5329 26.181C11.5364 26.181 11.5398 26.1806 11.5433 26.1799C11.5703 26.1743 11.5877 26.1482 11.5819 26.1217C11.5542 25.9938 11.5281 25.8653 11.5036 25.7363C11.4985 25.7096 11.4723 25.692 11.4452 25.697C11.418 25.7019 11.4001 25.7277 11.4051 25.7543C11.4297 25.884 11.4561 26.0133 11.4838 26.1421C11.4889 26.1651 11.5097 26.181 11.5329 26.181ZM11.405 20.3046C11.3773 20.2994 11.3518 20.3183 11.3474 20.3451C11.3256 20.4749 11.3057 20.6053 11.2871 20.7361C11.2833 20.763 11.3024 20.7878 11.3299 20.7914C11.3321 20.7917 11.3345 20.7919 11.3368 20.7919C11.3614 20.7919 11.3829 20.7742 11.3864 20.7495C11.4047 20.6194 11.4247 20.4899 11.4463 20.361C11.4508 20.3341 11.4323 20.3089 11.405 20.3046ZM11.7522 27.1967C11.7585 27.2183 11.7786 27.2324 11.8003 27.2324C11.8048 27.2324 11.8095 27.2318 11.8142 27.2305C11.8407 27.223 11.8562 27.1958 11.8484 27.1697C11.8117 27.0439 11.7764 26.9176 11.7428 26.7905C11.7358 26.7643 11.7085 26.7487 11.6817 26.7553C11.6549 26.7622 11.6388 26.7891 11.6457 26.8153C11.6797 26.9431 11.7151 27.0703 11.7522 27.1967ZM11.3412 25.1138C11.3434 25.1138 11.3458 25.1136 11.3482 25.1133C11.3757 25.1095 11.3948 25.0846 11.3909 25.0578C11.3724 24.9284 11.3555 24.7985 11.3402 24.668C11.337 24.6411 11.3122 24.6215 11.2847 24.6248C11.2573 24.6279 11.2375 24.6523 11.2407 24.6792C11.2561 24.8104 11.273 24.9412 11.2917 25.0714C11.2951 25.096 11.3165 25.1138 11.3412 25.1138ZM11.6256 19.2427C11.5988 19.2362 11.5716 19.2527 11.5652 19.2792C11.5343 19.4072 11.5049 19.5358 11.4771 19.665C11.4715 19.6915 11.4887 19.7177 11.5159 19.7232C11.5193 19.724 11.5228 19.7243 11.5263 19.7243C11.5495 19.7243 11.5703 19.7084 11.5752 19.6852C11.6028 19.5568 11.632 19.429 11.6627 19.3017C11.6692 19.2754 11.6526 19.2489 11.6256 19.2427ZM11.1414 22.5084C11.1383 22.6346 11.1367 22.7612 11.1367 22.8882V22.9037C11.1367 22.9308 11.1592 22.9529 11.1869 22.9529C11.2145 22.9529 11.237 22.9308 11.237 22.9037V22.8882C11.237 22.7621 11.2385 22.6362 11.2417 22.5108C11.2423 22.4837 11.2204 22.4611 11.1927 22.4605C11.1646 22.4589 11.1421 22.4812 11.1414 22.5084ZM11.2259 24.036C11.2271 24.036 11.2283 24.036 11.2294 24.0359C11.257 24.034 11.2778 24.0105 11.2758 23.9835C11.2666 23.8531 11.2589 23.7223 11.2529 23.5911C11.2516 23.564 11.2279 23.542 11.2006 23.5442C11.173 23.5454 11.1516 23.5684 11.1528 23.5955C11.1587 23.7275 11.1666 23.8591 11.1758 23.9902C11.1777 24.0162 11.1998 24.036 11.2259 24.036ZM11.9217 18.1986C11.8951 18.1903 11.8671 18.2049 11.8589 18.2309C11.8187 18.3565 11.7803 18.4829 11.7433 18.6098C11.7357 18.6359 11.7511 18.6631 11.7778 18.6706C11.7824 18.6719 11.787 18.6725 11.7916 18.6725C11.8134 18.6725 11.8335 18.6585 11.8398 18.6369C11.8764 18.5108 11.9146 18.3852 11.9545 18.2604C11.9628 18.2343 11.9481 18.2067 11.9217 18.1986ZM11.9936 27.7951C11.9674 27.8037 11.9533 27.8316 11.9621 27.8572C12.0049 27.9824 12.0494 28.1069 12.0955 28.2304C12.1029 28.2503 12.1221 28.2627 12.1426 28.2627C12.1484 28.2627 12.1541 28.2617 12.1598 28.2597C12.1858 28.2503 12.1992 28.2221 12.1896 28.1967C12.1438 28.0738 12.0997 27.9503 12.057 27.8259C12.0482 27.8003 12.0199 27.7865 11.9936 27.7951ZM11.2237 21.8699C11.2499 21.8699 11.2719 21.85 11.2737 21.824C11.2827 21.693 11.2934 21.5625 11.3059 21.4323C11.3084 21.4053 11.2882 21.3814 11.2606 21.3788C11.2334 21.3762 11.2087 21.3961 11.2061 21.4232C11.1936 21.5541 11.1828 21.6855 11.1736 21.8173C11.1718 21.8444 11.1926 21.8678 11.2203 21.8697C11.2215 21.8698 11.2227 21.8699 11.2237 21.8699ZM13.8533 17.3944V16.4152H13.2731V17.3944H12.3267V16.4152H11.5522V11.2503H12.3267V10.0683H13.2731V11.2503H13.8533V10.0683H14.7998V11.3068C15.1612 11.4031 15.4955 11.6226 15.7085 11.9543C15.7629 11.9002 15.8168 11.8457 15.8721 11.7923C15.8917 11.7732 15.9235 11.7734 15.9429 11.7927C15.9624 11.8121 15.9621 11.8431 15.9425 11.8622C15.8812 11.9214 15.8212 11.982 15.7609 12.0422C15.8753 12.2526 15.9439 12.5026 15.9439 12.7917C15.9439 13.1334 15.8548 13.4274 15.7251 13.6658C15.9682 13.9439 16.1545 14.3094 16.1545 14.7622C16.1545 15.6775 15.5056 16.268 14.7999 16.3908V17.3943H13.8533V17.3944ZM12.8162 13.2686H14.299C14.542 13.2607 14.7608 13.0541 14.7608 12.7681C14.7608 12.482 14.542 12.2595 14.299 12.2595H12.8162V13.2686ZM14.4773 15.3742C14.7608 15.3742 14.9958 15.1359 14.9958 14.826C14.9958 14.5003 14.7528 14.2777 14.4773 14.2777H12.8163V15.3742H13.1049C13.1307 15.3284 13.1558 15.2819 13.1821 15.2362C13.1956 15.2126 13.2262 15.2044 13.2503 15.2176C13.2744 15.231 13.2829 15.2609 13.2693 15.2846C13.2523 15.3143 13.2361 15.3445 13.2192 15.3742H14.4773ZM43.542 22.1923H42.8839C42.8755 22.2061 42.8614 22.2159 42.8438 22.2168C42.8431 22.2168 42.8423 22.2168 42.8415 22.2168C42.8233 22.2168 42.8077 22.2068 42.799 22.1923H42.5955V21.2131H42.0153V22.1923H41.0689V21.2131H40.2944V16.0482H41.0689V15.8195C41.0304 15.746 40.9923 15.6724 40.9526 15.5997C40.9395 15.5758 40.9488 15.546 40.9732 15.5332C40.9972 15.5205 41.0278 15.5294 41.041 15.5534C41.0504 15.5709 41.0593 15.5886 41.0688 15.6061V14.8663H42.0152V16.0484H42.5954V14.8663H43.5419V16.1049C44.151 16.2672 44.6859 16.7764 44.6859 17.5899C44.6859 17.9315 44.5968 18.2256 44.4672 18.4639C44.7102 18.7421 44.8965 19.1075 44.8965 19.5604C44.8965 20.4757 44.2476 21.0662 43.5419 21.189L43.542 22.1923ZM41.5584 17.0574V18.0665H43.0412C43.2843 18.0585 43.503 17.8519 43.503 17.5659C43.503 17.2799 43.2843 17.0574 43.0412 17.0574H41.5584ZM43.2195 20.1722C43.503 20.1722 43.7381 19.9338 43.7381 19.6239C43.7381 19.2982 43.495 19.0757 43.2195 19.0757H41.5585V20.1722H43.2195ZM35.4555 8.07408C35.4555 8.98934 34.8065 9.57983 34.1008 9.70263V10.7061H33.1543V9.72689H32.5741V10.7061H31.6277V9.72689H30.8532V7.86732C30.8417 7.86455 30.8303 7.86125 30.8187 7.85849C30.7919 7.852 30.7754 7.82539 30.7822 7.799C30.7888 7.77272 30.8154 7.75654 30.8428 7.76304C30.8463 7.76389 30.8498 7.76484 30.8532 7.76569V4.56192H31.6277V3.37988H32.5741V4.56192H33.1543V3.37988H34.1008V4.61842C34.7099 4.78081 35.2448 5.29 35.2448 6.10342C35.2448 6.44511 35.1557 6.73913 35.0261 6.97749C35.2691 7.25566 35.4555 7.62119 35.4555 8.07408ZM32.1172 6.58025H33.6C33.8431 6.57227 34.0618 6.36573 34.0618 6.07969C34.0618 5.79365 33.8431 5.57114 33.6 5.57114H32.1172V6.58025ZM33.7783 8.68596C34.0618 8.68596 34.2969 8.44759 34.2969 8.13772C34.2969 7.81198 34.0538 7.58948 33.7783 7.58948H32.1173V8.12952C32.1758 8.14889 32.2346 8.16751 32.2928 8.18752C32.3189 8.19646 32.3326 8.22455 32.3234 8.25009C32.3161 8.27031 32.2968 8.28297 32.2761 8.28297C32.2706 8.28297 32.2649 8.28212 32.2594 8.2802C32.2122 8.26392 32.1646 8.24902 32.1173 8.23317V8.68606L33.7783 8.68596Z" fill="#C58936"/>
<path d="M5.46861 31.084C4.40921 28.4567 3.85352 25.6305 3.85352 22.7203C3.85352 18.4817 5.03044 14.4211 7.2303 10.895C7.25233 10.9099 7.27512 10.9238 7.29899 10.9368C5.15685 14.3721 3.92101 18.4072 3.92101 22.7203C3.92101 25.6638 4.49688 28.4778 5.54326 31.0603C5.51755 31.0673 5.4927 31.0752 5.46861 31.084ZM27.0221 0.0660827C36.0604 0.0660827 43.9016 5.18338 47.6949 12.6179C47.7192 12.6063 47.7446 12.596 47.7708 12.5865C46.6675 10.4193 45.2024 8.41748 43.4049 6.65465C39.029 2.36333 33.2108 0 27.0222 0C20.8337 0 15.0155 2.36333 10.6395 6.65465C9.77697 7.50052 8.99199 8.40216 8.28558 9.34988C8.30793 9.3652 8.3292 9.38148 8.3496 9.39861C12.5542 3.74638 19.3576 0.0660827 27.0221 0.0660827ZM24.3275 45.2205C23.7262 45.1517 23.133 45.0574 22.5466 44.9441C22.5412 44.9675 22.5359 44.991 22.5306 45.0144C23.1217 45.1276 23.7188 45.2195 24.3215 45.2877C24.3227 45.2652 24.3247 45.2429 24.3275 45.2205ZM6.30914 32.7434C6.28635 32.7574 6.26237 32.7702 6.23763 32.7821C7.345 34.977 8.82206 37.0039 10.6394 38.7861C11.6729 39.7995 12.787 40.7048 13.9673 41.4973V41.3968C10.7213 39.208 8.07029 36.2293 6.30914 32.7434ZM20.1889 44.3599C18.0751 43.7165 16.0901 42.7839 14.2829 41.6077V41.7049C16.1134 42.8911 18.097 43.809 20.1834 44.4377C20.1851 44.4118 20.1869 44.3858 20.1889 44.3599ZM39.4826 41.7889C37.4323 43.0819 35.161 44.0653 32.7377 44.6724V44.7475C35.1291 44.1551 37.4015 43.1903 39.4826 41.8832V41.7889ZM43.4048 38.7861C47.7807 34.4949 50.1907 28.7891 50.1907 22.7204C50.1907 19.7823 49.6243 16.93 48.545 14.2815C48.5219 14.2931 48.4978 14.3036 48.4731 14.3133C49.5368 16.9141 50.1234 19.7512 50.1234 22.7204C50.1234 30.5826 46.0173 37.5211 39.7984 41.5849V41.6816C41.082 40.846 42.2904 39.8789 43.4048 38.7861ZM26.8114 45.3726C26.8105 45.3945 26.8097 45.4165 26.8088 45.4384C26.8799 45.4391 26.9508 45.4407 27.022 45.4407C28.8644 45.4407 30.6736 45.2296 32.422 44.8221V44.7481C30.689 45.1567 28.881 45.3746 27.022 45.3746C26.9517 45.3746 26.8816 45.3732 26.8114 45.3726ZM20.2425 47.6535C20.2425 47.6535 19.7367 48.4762 19.5734 49.122C19.569 49.1395 19.5683 49.1564 19.5693 49.1727H21.0277V47.6108L20.393 47.6452L20.2425 47.6535ZM29.8213 48.9448C29.6599 48.6509 29.372 48.4413 29.041 48.377L28.2748 48.2279C27.8775 48.1505 27.4113 48.0277 27.1618 47.7092L26.6923 47.1L26.6007 47.1739L26.2581 47.45C26.1401 47.5451 25.9934 47.6008 25.8384 47.6093L25.1786 47.6455L25.0295 47.6537C25.0295 47.6537 24.7985 48.1932 24.6878 48.7413C24.5579 48.5554 24.3581 48.4254 24.1188 48.3771L23.3804 48.228C22.9975 48.1506 22.554 48.0278 22.3641 47.7093L22.0082 47.1001L21.9029 47.174L21.5089 47.4501C21.4567 47.4867 21.4007 47.5155 21.3433 47.54V49.173H29.9432C29.941 49.1662 29.9389 49.1594 29.9352 49.1528L29.8213 48.9448ZM25.9047 24.9346C26.1863 24.541 26.4354 24.13 26.5912 23.694C26.8475 23.8169 27.1144 23.9423 27.386 24.0687C27.303 23.4128 27.235 22.7559 27.1832 22.0981L27.8379 22.7433L27.8533 22.7223C27.7583 22.615 27.6825 22.4867 27.634 22.3389C27.5161 21.9791 27.5845 21.5792 28.0744 21.2001L29.2315 20.7673L27.1605 16.3094C27.1284 16.1631 27.0542 16.0275 26.9409 15.923C26.5869 15.597 26.1971 15.3231 25.7839 15.1032C25.6888 15.1018 25.5926 15.091 25.4963 15.0676L25.2108 14.9982L24.7116 16.441L24.4759 16.3626C24.1363 15.7655 23.7301 15.2108 23.1981 14.7845L23.3106 14.4592C22.8033 14.4497 22.2957 14.5101 21.8044 14.6491C21.3352 14.7819 20.997 15.2452 20.9531 15.7877C20.7046 18.857 20.8146 21.9229 21.3006 24.935H25.9047V24.9346ZM8.74643 48.8164C8.18 47.7564 7.61595 46.6952 7.01545 45.6539C6.96347 45.9397 6.9435 46.2288 6.95099 46.517C7.18494 46.9787 7.4712 47.4194 7.69571 47.8834C7.90188 48.3095 8.0984 48.74 8.2897 49.1728H8.93828C8.87437 49.054 8.80991 48.9354 8.74643 48.8164ZM8.92059 42.7062C8.75142 42.8317 8.59017 42.9671 8.43793 43.1115C8.5523 43.4531 8.66733 43.7945 8.79233 44.1326C8.86612 44.3323 8.54178 44.4175 8.46875 44.22C8.36588 43.942 8.27017 43.6615 8.17555 43.3807C8.11815 43.4436 8.06107 43.507 8.00692 43.5724C8.71236 45.4121 9.29756 47.2921 9.88201 49.1727H9.9814C9.48019 47.0464 9.15074 44.8825 8.92059 42.7062ZM7.77058 43.8825C7.63896 44.0698 7.52122 44.266 7.41813 44.4693C7.65317 44.9043 7.88712 45.3399 8.10252 45.7845C8.19475 45.975 7.90535 46.1418 7.81279 45.9506C7.63288 45.5793 7.4406 45.2142 7.24582 44.8503C7.2023 44.9605 7.16291 45.0723 7.12852 45.1859C7.83341 46.3887 8.4847 47.6205 9.14228 48.8491C9.20023 48.9573 9.2598 49.0648 9.31829 49.1728H9.53466C8.98385 47.3966 8.42968 45.6217 7.77058 43.8825ZM11.9626 41.6958C11.9397 41.6954 11.9169 41.6941 11.894 41.6941C11.4953 41.6933 11.1001 41.7463 10.7167 41.8449C10.62 43.1429 10.5673 44.4416 10.6912 45.7439C10.7113 45.955 10.3755 45.953 10.3557 45.7439C10.235 44.4755 10.2819 43.2106 10.3737 41.9464C9.97381 42.0806 9.59065 42.2646 9.23484 42.4909C9.46706 44.74 9.80247 46.9765 10.3242 49.1728H11.0499C10.9439 46.6742 11.4714 44.1821 11.9626 41.6958ZM15.6214 44.4067C15.7296 44.1895 15.8412 43.9721 15.9507 43.7535C15.8991 43.687 15.846 43.6218 15.7912 43.5578C15.64 43.8357 15.4913 44.1149 15.3475 44.3968C14.9732 45.1306 14.6249 45.8759 14.2829 46.6242V47.5928C14.3321 47.4653 14.3802 47.3374 14.43 47.2103C14.8001 46.2664 15.1686 45.316 15.6214 44.4067ZM13.1032 49.1728H13.689C13.7805 48.9221 13.8737 48.672 13.9673 48.4221V47.3183C13.9633 47.3272 13.9591 47.3361 13.9551 47.3451C13.6911 47.9268 13.383 48.5406 13.1032 49.1728ZM13.5038 44.2237C13.6516 43.8337 13.8075 43.4468 13.9672 43.0617V42.1719C13.7941 42.0915 13.6171 42.0193 13.4364 41.9579C13.0982 42.9411 12.8008 43.9357 12.6201 44.9626C12.5834 45.1712 12.2602 45.0822 12.2965 44.8751C12.4778 43.8447 12.7767 42.8466 13.1164 41.8602C12.8466 41.788 12.5707 41.7373 12.2913 41.7126C11.7977 44.1929 11.2685 46.6827 11.3814 49.1729H11.9544C12.2986 47.4789 12.8994 45.8187 13.5038 44.2237ZM15.0674 42.8579C14.907 42.7293 14.7395 42.6092 14.5657 42.499C14.4688 42.7214 14.3759 42.9455 14.2829 43.1696V44.0656C14.2855 44.0611 14.2873 44.0565 14.2905 44.0519C14.5602 43.6606 14.8138 43.2592 15.0674 42.8579ZM15.5544 43.2986C15.4798 43.2222 15.4029 43.148 15.3238 43.0762C15.0813 43.4602 14.8382 43.8438 14.5801 44.2181C14.4988 44.3362 14.34 44.2989 14.2829 44.2082V45.8344C14.5641 45.23 14.8517 44.6286 15.1582 44.0353C15.2862 43.7874 15.4196 43.5425 15.5544 43.2986ZM12.2962 49.1728H12.7427C13.023 48.5286 13.3348 47.9029 13.606 47.3089C13.7265 47.0451 13.8466 46.7813 13.9672 46.5178V43.9557C13.9208 44.0744 13.8724 44.1922 13.8273 44.3112C13.2339 45.8769 12.6403 47.5088 12.2962 49.1728ZM16.8425 45.583C16.8383 45.5655 16.8332 45.5483 16.8287 45.5308C16.3488 46.0677 15.9329 46.6447 15.6908 47.3137C15.6189 47.5121 15.2949 47.4262 15.3672 47.2262C15.6508 46.4423 16.1534 45.7831 16.7216 45.1684C16.5873 44.7774 16.4004 44.4053 16.1708 44.0598C15.6746 45.0502 15.243 46.0583 14.8362 47.0876C14.6466 47.5675 14.4635 48.0497 14.2829 48.533V49.1728H14.9278C15.547 48.3218 16.2602 47.5227 16.9678 46.7441C16.9736 46.3547 16.9337 45.9648 16.8425 45.583ZM35.8797 46.8916C35.846 47.0773 35.833 47.2652 35.8379 47.4524C35.9899 47.7524 36.1759 48.0388 36.3217 48.3403C36.4549 48.6154 36.5817 48.8934 36.7053 49.1728C36.7075 49.1777 36.7098 49.1826 36.7119 49.1876H37.1341C37.1315 49.1827 37.1288 49.1777 37.1262 49.1728C37.0856 49.0974 37.0447 49.022 37.0044 48.9465C36.6364 48.2578 36.27 47.5683 35.8797 46.8916ZM36.8039 45.2399C36.8783 45.4619 36.953 45.6836 37.0342 45.9033C37.0822 46.0331 36.8714 46.0884 36.824 45.9601C36.7572 45.7794 36.695 45.5972 36.6336 45.4147C36.5963 45.4556 36.5592 45.4968 36.524 45.5394C36.9817 46.7329 37.3615 47.9526 37.7406 49.1727C37.7421 49.1776 37.7437 49.1826 37.7452 49.1875H37.809C37.8078 49.1826 37.8068 49.1776 37.8056 49.1727C37.4805 47.7929 37.2667 46.3886 37.1174 44.9765C37.0077 45.0582 36.9029 45.1462 36.8039 45.2399ZM36.1414 46.122C36.294 46.4046 36.4461 46.6877 36.5861 46.9766C36.646 47.1003 36.458 47.2087 36.3978 47.0845C36.2809 46.8432 36.156 46.6059 36.0294 46.3696C36.0011 46.4412 35.9756 46.5139 35.9532 46.5876C36.4112 47.3691 36.8343 48.1695 37.2616 48.9677C37.2983 49.0363 37.3361 49.1044 37.3732 49.1728C37.3759 49.1777 37.3785 49.1827 37.3812 49.1876H37.5196C37.5181 49.1827 37.5165 49.1777 37.515 49.1728C37.1577 48.0205 36.7981 46.8691 36.3704 45.7408C36.2848 45.8625 36.2084 45.99 36.1414 46.122ZM39.094 44.3201C39.0791 44.3199 39.0644 44.319 39.0494 44.3189C38.7903 44.3184 38.5335 44.3527 38.2845 44.4168C38.2217 45.2601 38.1874 46.1039 38.2679 46.95C38.2809 47.0871 38.0628 47.0858 38.0499 46.95C37.9715 46.1259 38.0019 45.3041 38.0616 44.4828C37.8018 44.57 37.5528 44.6895 37.3217 44.8366C37.4724 46.2961 37.6901 47.7474 38.0282 49.1727C38.0294 49.1776 38.0303 49.1826 38.0315 49.1875H38.5011C38.5009 49.1826 38.5009 49.1776 38.5006 49.1727C38.4329 47.5512 38.7752 45.9337 39.094 44.3201ZM40.2121 49.1876C40.2139 49.1827 40.2158 49.1778 40.2175 49.1728C40.3726 48.7478 40.5318 48.3243 40.697 47.9029C40.9375 47.2896 41.177 46.6722 41.4712 46.0815C41.5415 45.9404 41.614 45.7991 41.685 45.6572C41.6515 45.614 41.6171 45.5716 41.5815 45.53C41.4832 45.7105 41.3866 45.8919 41.2932 46.075C40.9719 46.7048 40.6802 47.3474 40.3884 47.9906C40.2176 48.367 40.0186 48.764 39.8373 49.1729C39.8351 49.1779 39.8327 49.1827 39.8306 49.1877L40.2121 49.1876ZM39.3075 44.331C38.9871 45.9407 38.6438 47.5566 38.7163 49.1728C38.7165 49.1777 38.7165 49.1827 38.7167 49.1876H39.0865C39.0875 49.1827 39.0888 49.1778 39.0897 49.1728C39.1913 48.6742 39.3279 48.1803 39.4826 47.6925C39.5817 47.38 39.6877 47.0697 39.7982 46.7629C39.8953 46.4936 39.9952 46.2267 40.0953 45.9625C40.2526 45.5475 40.4204 45.1369 40.598 44.7305C40.4233 44.6345 40.2401 44.5544 40.0516 44.4903C39.9614 44.7525 39.8761 45.016 39.7982 45.2816C39.6863 45.6632 39.5903 46.0491 39.5212 46.4425C39.516 46.472 39.5011 46.4908 39.4826 46.5031C39.416 46.5477 39.2925 46.4909 39.311 46.3857C39.3573 46.1225 39.4157 45.8627 39.4826 45.6052C39.5739 45.2533 39.6818 44.9059 39.7982 44.561C39.8133 44.5163 39.8283 44.4715 39.8436 44.4268C39.8285 44.4228 39.8133 44.4195 39.7982 44.4156C39.6942 44.3893 39.5889 44.368 39.4826 44.3522C39.4245 44.3437 39.3662 44.3361 39.3075 44.331ZM39.3119 49.1728C39.3109 49.1777 39.3096 49.1826 39.3085 49.1876H39.5965C39.6617 49.0374 39.7298 48.8893 39.7982 48.7426C39.922 48.4772 40.0474 48.2175 40.1617 47.967C40.4878 47.253 40.8096 46.5381 41.1701 45.8401C41.2534 45.6791 41.34 45.52 41.4275 45.3615C41.3791 45.3119 41.3291 45.2637 41.2777 45.217C41.1201 45.4665 40.9621 45.7157 40.7946 45.9589C40.7163 46.0725 40.5276 45.9653 40.6063 45.851C40.7816 45.5967 40.9463 45.336 41.111 45.0752C41.0068 44.9916 40.898 44.9136 40.7851 44.842C40.6159 45.2305 40.4557 45.6229 40.3054 46.0194C40.1311 46.4793 39.9575 46.9484 39.7981 47.4238C39.6832 47.7667 39.5762 48.1127 39.4825 48.4619C39.4192 48.6977 39.3612 48.9347 39.3119 49.1728ZM41.0133 49.1876C41.0169 49.1826 41.0209 49.1778 41.0246 49.1728C41.426 48.6219 41.8876 48.1042 42.346 47.6C42.3498 47.3471 42.3238 47.0938 42.2646 46.8457C42.2619 46.8343 42.2585 46.8231 42.2557 46.8118C41.9438 47.1607 41.6736 47.5356 41.5163 47.9701C41.4696 48.0991 41.2591 48.0433 41.3061 47.9133C41.4904 47.404 41.8169 46.9757 42.1861 46.5763C42.0989 46.3223 41.9775 46.0806 41.8283 45.856C41.5059 46.4995 41.2255 47.1545 40.9611 47.8232C40.7842 48.2709 40.6142 48.721 40.449 49.1728C40.4471 49.1777 40.4453 49.1826 40.4434 49.1876H41.0133Z" fill="#DADADA"/>
</svg>
