<svg width="250" height="250" viewBox="0 0 250 250" fill="none" xmlns="http://www.w3.org/2000/svg">
<path d="M127.408 199.067L119.72 187.357L120.702 150.805C116.895 150.585 113.274 149.879 110.268 148.603L113.463 176.411L113.519 176.889L114.075 181.738L117.088 209.807L117.122 210.126L118.755 225.35H124.662L127.408 199.067ZM76.3179 86.901L91.8476 89.2008C92.504 89.2981 93.2023 89.9042 93.4075 90.5556L100.755 113.875C100.872 114.247 100.799 114.548 100.596 114.723C101.003 114.471 101.289 113.939 101.146 113.486L93.7985 90.1664C93.5933 89.5156 92.895 88.9089 92.2386 88.8117L76.7089 86.5118C76.0732 86.4175 75.3111 87.0327 75.4502 87.6635C75.3949 87.1469 75.7459 86.8164 76.3179 86.901ZM75.4581 87.724L75.469 87.756C75.4642 87.7306 75.455 87.7034 75.452 87.6786C75.4557 87.6938 75.4532 87.7089 75.4581 87.724ZM122.131 114.942C122.713 104.515 128.324 95.2054 136.275 88.0648C135.599 87.9977 134.908 88.0279 134.222 88.1077C134.011 87.5167 133.791 86.91 133.617 86.3867C133.528 86.4647 133.435 86.5378 133.345 86.6145C131.648 88.0497 129.702 89.2081 127.63 90.019C127.43 91.5387 127.231 93.0591 127.031 94.5788L126.227 94.6628L125.996 91.2535L125.94 90.4166L124.832 90.9369L125.141 91.7605C123.92 92.5031 122.716 93.3104 121.591 94.1341C119.444 100.833 120.213 108.263 122.131 114.942ZM137.927 141.694L137.434 148.711C132.349 150.371 126.326 151.129 120.702 150.804L119.72 187.357L127.408 199.066L135.157 210.868L135.35 211.162L143.645 223.797L148.88 220.866L144.84 210.463L144.723 210.161L140.734 199.888C138.701 194.653 135.553 189.918 131.507 186.008L134.791 179.303L134.948 178.983L140.807 167.021C143.728 161.058 144.384 154.244 142.654 147.838L142.339 146.671C141.619 147.053 140.846 147.402 140.052 147.736L137.927 141.694Z" fill="#DADADA"/>
<path d="M124.078 237.205L124.4 234.803L124.77 232.032L124.075 230.976L124.663 225.352H118.756L119.307 230.492L115.028 240.191L117.826 240.9L124.078 237.205ZM146.669 228.403L147.293 238.978L150.109 238.342L153.987 232.221L152.856 229.041L152.238 227.301L151.136 226.675L148.881 220.868L143.646 223.799L146.669 228.403ZM92.0491 114.013C92.0855 113.919 92.1329 113.823 92.1651 113.728C92.8834 111.611 92.5658 109.519 91.3441 107.595C91.2458 106.377 91.3727 105.143 91.5433 103.922C91.5815 103.647 91.1268 103.513 90.9962 103.795C90.5001 104.87 90.1662 106.172 90.1206 107.458C90.0508 107.455 89.9822 107.452 89.9142 107.451C89.9069 107.385 89.8972 107.319 89.8917 107.253C89.7934 106.035 89.9203 104.801 90.0909 103.58C90.1291 103.305 89.6743 103.171 89.5438 103.453C88.9888 104.656 88.6366 106.144 88.6652 107.574C88.6628 107.574 88.6603 107.575 88.6573 107.576C88.6348 107.426 88.616 107.276 88.6039 107.125C88.5055 105.907 88.6324 104.673 88.803 103.451C88.8413 103.176 88.3865 103.043 88.2559 103.325C87.6166 104.71 87.2437 106.475 87.4162 108.092C87.3476 108.135 87.2789 108.18 87.2103 108.228C87.2085 108.206 87.2049 108.184 87.203 108.162C87.1047 106.944 87.2316 105.711 87.4022 104.489C87.4405 104.214 86.9857 104.08 86.8551 104.363C86.0044 106.206 85.6286 108.721 86.3791 110.665C86.4811 111.437 86.6584 112.198 86.88 112.946C87.1903 113.992 87.6026 115.011 88.1406 115.976C88.1357 115.981 88.1333 115.986 88.1284 115.991C91.3617 118.901 95.3438 121.656 99.4587 124.595C100.375 122.67 101.22 120.71 102.276 118.855C99.0513 117.595 96.0396 116.182 92.0491 114.013ZM126.228 94.6647L127.032 94.5807C127.231 93.061 127.431 91.5406 127.63 90.0209C129.701 89.2094 131.648 88.0516 133.346 86.6164L133.025 81.8741L132.934 80.5338L132.858 80.5417C132.985 79.9598 133.056 79.3573 133.056 78.7374L131.472 77.4829C128.583 76.8877 125.803 75.7498 123.28 74.0458C120.396 72.0982 117.735 69.5271 116.219 66.4912L116.856 73.5279L117.542 81.1133C117.542 84.4906 120.312 87.2207 122.363 87.2207H124.531C124.935 87.2207 125.33 87.1832 125.718 87.1289L125.941 90.4185L125.998 91.2554L126.228 94.6647ZM143.03 125.347C141.535 127.906 140.015 130.552 138.596 132.85C138.19 133.509 137.793 134.137 137.406 134.727C136.542 134.445 135.655 134.237 134.755 134.114C132.805 133.357 130.276 133.719 128.42 134.556C128.135 134.684 128.267 135.138 128.544 135.101C129.773 134.937 131.012 134.817 132.236 134.922C132.258 134.924 132.28 134.927 132.301 134.93C132.254 134.997 132.207 135.066 132.165 135.133C130.541 134.954 128.766 135.315 127.37 135.944C127.086 136.072 127.217 136.526 127.494 136.489C128.723 136.326 129.963 136.206 131.187 136.31C131.338 136.323 131.489 136.343 131.639 136.366C131.638 136.368 131.638 136.371 131.637 136.374C130.201 136.338 128.703 136.681 127.492 137.226C127.208 137.355 127.339 137.808 127.616 137.772C128.845 137.608 130.085 137.488 131.309 137.593C131.376 137.598 131.441 137.608 131.508 137.616C131.508 137.684 131.51 137.752 131.513 137.822C130.222 137.86 128.911 138.186 127.828 138.674C127.543 138.802 127.675 139.256 127.952 139.219C129.181 139.055 130.421 138.935 131.645 139.04C133.422 140.17 135.144 141.056 137.027 140.753C137.738 140.639 138.345 140.194 138.672 139.566C139.196 138.963 139.714 138.379 140.227 137.811C142.882 134.874 145.386 132.377 147.706 129.969C145.92 128.682 144.374 127.034 143.03 125.347Z" fill="#C58936"/>
<path d="M248.054 246.128H146.765L145.334 246.855L145.712 246.128H125.156L125.131 246.32H124.117L124.099 246.128H116.199L115.984 246.32H109.681L109.952 246.128H57.3827H52.7813H50.9895H48.0768H46.26H43.9181H42.196H39.2062H37.5388H33.8021H32.0789H31.5421H29.7934H28.6057H26.6949H23.4682H1.94547C0.870724 246.128 0 246.995 0 248.064C0 249.133 0.871331 250 1.94547 250H248.055C249.129 250 250 249.133 250 248.064C250 246.995 249.129 246.128 248.054 246.128ZM123.275 74.0429C125.799 75.7469 128.579 76.8848 131.468 77.48L133.051 78.7344C133.051 79.3544 132.98 79.9569 132.853 80.5388L132.93 80.5309L133.02 81.8712C135.83 80.3345 138.002 77.6244 138.901 74.542C139.568 72.2566 139.555 69.8148 138.98 67.5028C139.283 67.075 139.545 66.6194 139.758 66.1426C140.89 63.6168 140.721 60.593 139.484 58.1167C138.221 55.5884 135.814 53.5968 133.028 53.0608C130.243 52.5248 127.15 53.5605 125.438 55.8114C125.246 56.0634 125.078 56.3317 124.927 56.6091C121.158 56.8544 117.491 58.9186 115.646 62.1949C113.65 65.7402 114.088 70.5568 116.851 73.5256L116.214 66.4889C117.73 69.5241 120.392 72.0953 123.275 74.0429ZM86.8519 104.36C86.9824 104.078 87.4372 104.211 87.3989 104.487C87.2283 105.708 87.1014 106.942 87.1998 108.16C87.2016 108.182 87.2052 108.203 87.2071 108.225C87.2757 108.179 87.3443 108.132 87.4129 108.09C87.2411 106.473 87.6133 104.708 88.2527 103.323C88.3832 103.04 88.838 103.174 88.7997 103.449C88.6291 104.671 88.5022 105.905 88.6006 107.122C88.6127 107.274 88.6315 107.424 88.654 107.573C88.6564 107.573 88.6589 107.572 88.6619 107.571C88.6334 106.142 88.9855 104.653 89.5405 103.451C89.6711 103.168 90.1259 103.302 90.0876 103.577C89.917 104.799 89.7901 106.033 89.8885 107.251C89.8939 107.317 89.9036 107.383 89.9109 107.449C89.9789 107.45 90.0475 107.452 90.1174 107.455C90.1629 106.17 90.4969 104.867 90.993 103.793C91.1235 103.51 91.5783 103.644 91.54 103.919C91.3694 105.141 91.2425 106.375 91.3409 107.593C92.5626 109.517 92.8807 111.609 92.1618 113.726L99.9352 114.877C100.217 114.919 100.44 114.855 100.593 114.723C100.796 114.547 100.869 114.246 100.752 113.875L93.4041 90.5552C93.1989 89.9044 92.5006 89.2977 91.8442 89.2004L76.3145 86.9005C75.7425 86.8159 75.3916 87.1465 75.4468 87.6631C75.4474 87.6679 75.4481 87.6728 75.4487 87.6782C75.4517 87.703 75.4608 87.7302 75.4657 87.7556C75.4748 87.8045 75.4814 87.8517 75.4978 87.903L82.8456 111.222C83.0508 111.873 83.7491 112.48 84.4054 112.577L86.8761 112.943C86.6545 112.195 86.4772 111.435 86.3752 110.662C85.6253 108.718 86.0006 106.203 86.8519 104.36ZM232.868 60.393L233.863 61.8372C233.985 61.6722 234.145 61.5393 234.332 61.4499L233.347 60.0196C233.22 60.1803 233.058 60.3108 232.868 60.393ZM235.901 61.8686L242.135 56.3698C241.966 56.2544 241.831 56.096 241.736 55.9141L235.439 61.4686C235.624 61.5629 235.785 61.6982 235.901 61.8686ZM205.274 66.559C205.441 66.6798 205.575 66.84 205.665 67.0267L214.24 61.4197C214.088 61.2837 213.971 61.1133 213.9 60.9187L205.274 66.559ZM228.338 61.7224L222.837 65.4199C222.985 65.5601 223.094 65.736 223.159 65.933L228.814 62.1315L232.975 65.7136C233.066 65.5287 233.199 65.3698 233.365 65.2501L229.335 61.7816L231.623 60.2438C231.459 60.1205 231.326 59.9603 231.239 59.7724L228.86 61.3713L228.339 60.9229C228.257 61.1127 228.126 61.274 227.966 61.4009L228.338 61.7224ZM213.266 64.8845L207.032 70.3834C207.202 70.4988 207.336 70.6571 207.431 70.839L213.728 65.2846C213.543 65.1897 213.383 65.0543 213.266 64.8845ZM220.354 64.6205L216.192 61.0384C216.101 61.2233 215.968 61.3822 215.802 61.5018L219.832 64.9703L217.545 66.5082C217.709 66.6309 217.842 66.7916 217.928 66.9796L220.307 65.38L220.828 65.8284C220.91 65.6387 221.041 65.4773 221.201 65.3504L220.828 65.0296L226.33 61.332C226.182 61.1925 226.073 61.016 226.008 60.819L225.599 61.0933L225.375 61.2438L220.354 64.6205ZM243.893 60.1936C243.726 60.0727 243.592 59.9126 243.502 59.7259L234.927 65.3329C235.079 65.4689 235.196 65.6393 235.267 65.8338L243.893 60.1936ZM216.299 66.3596L215.304 64.9154C215.183 65.0803 215.022 65.2133 214.835 65.3027L215.82 66.733C215.947 66.5723 216.109 66.4418 216.299 66.3596Z" fill="#9E8F7A"/>
<path d="M203.714 110.001C203.729 109.401 203.736 108.799 203.736 108.196V108.055C203.736 107.931 203.636 107.831 203.511 107.831C203.387 107.831 203.286 107.931 203.286 108.055V108.196C203.286 108.796 203.279 109.394 203.263 109.99C203.26 110.114 203.359 110.218 203.483 110.221C203.486 110.221 203.487 110.221 203.489 110.221C203.61 110.22 203.71 110.123 203.714 110.001ZM203.193 115.161C203.308 115.161 203.406 115.074 203.417 114.958C203.474 114.36 203.523 113.76 203.564 113.157C203.573 113.034 203.479 112.927 203.355 112.918C203.231 112.913 203.123 113.003 203.115 113.127C203.073 113.725 203.025 114.321 202.968 114.915C202.956 115.039 203.047 115.149 203.171 115.16C203.178 115.161 203.186 115.161 203.193 115.161ZM199.785 85.7266C199.808 85.7266 199.833 85.723 199.857 85.7145C199.975 85.6746 200.038 85.5478 199.998 85.4299C199.805 84.8583 199.604 84.2909 199.396 83.7259C199.354 83.6099 199.224 83.55 199.106 83.5923C198.989 83.6352 198.929 83.7639 198.972 83.8806C199.179 84.4419 199.378 85.0063 199.571 85.5743C199.603 85.668 199.691 85.7266 199.785 85.7266ZM203.105 103.122C203.147 103.718 203.183 104.315 203.21 104.914C203.215 105.034 203.315 105.129 203.435 105.129C203.438 105.129 203.442 105.129 203.445 105.129C203.57 105.123 203.666 105.018 203.66 104.894C203.633 104.291 203.598 103.69 203.555 103.09C203.546 102.966 203.43 102.872 203.314 102.882C203.19 102.892 203.096 102.999 203.105 103.122ZM199.018 132.385C198.812 132.949 198.599 133.51 198.378 134.068C198.332 134.184 198.389 134.314 198.505 134.359C198.532 134.37 198.56 134.375 198.587 134.375C198.677 134.375 198.762 134.321 198.797 134.233C199.019 133.671 199.234 133.106 199.442 132.538C199.484 132.422 199.424 132.293 199.307 132.251C199.19 132.21 199.061 132.269 199.018 132.385ZM198.033 81.1027C198.062 81.1027 198.091 81.0973 198.12 81.0852C198.234 81.0375 198.289 80.9063 198.241 80.7915C198.009 80.2374 197.769 79.6863 197.523 79.1395C197.472 79.0259 197.338 78.9757 197.225 79.0258C197.112 79.0766 197.061 79.2095 197.112 79.3225C197.356 79.8658 197.594 80.4133 197.825 80.9644C197.862 81.0508 197.945 81.1027 198.033 81.1027ZM200.831 127.53C200.71 127.493 200.587 127.564 200.553 127.684C200.387 128.26 200.215 128.833 200.035 129.403C199.997 129.521 200.063 129.647 200.182 129.684C200.205 129.691 200.227 129.695 200.25 129.695C200.346 129.695 200.435 129.633 200.465 129.537C200.646 128.963 200.82 128.387 200.986 127.807C201.02 127.688 200.951 127.564 200.831 127.53ZM197.155 136.971C196.909 137.52 196.656 138.064 196.397 138.605C196.343 138.717 196.391 138.851 196.503 138.904C196.535 138.919 196.568 138.926 196.601 138.926C196.685 138.926 196.765 138.879 196.804 138.798C197.065 138.254 197.319 137.706 197.567 137.154C197.618 137.041 197.567 136.908 197.453 136.858C197.339 136.808 197.206 136.858 197.155 136.971ZM201.209 90.4695C201.227 90.4695 201.246 90.4671 201.266 90.4623C201.386 90.4309 201.459 90.3082 201.427 90.1885C201.274 89.6048 201.114 89.0241 200.947 88.4464C200.912 88.3274 200.786 88.2591 200.668 88.2929C200.548 88.3274 200.479 88.4519 200.513 88.5709C200.68 89.145 200.839 89.722 200.991 90.3015C201.017 90.4031 201.108 90.4695 201.209 90.4695ZM202.775 97.9625C202.651 97.98 202.565 98.0936 202.583 98.2163C202.666 98.8073 202.743 99.4006 202.812 99.9965C202.826 100.111 202.923 100.195 203.036 100.195C203.045 100.195 203.054 100.195 203.063 100.193C203.187 100.179 203.275 100.068 203.261 99.9445C203.191 99.345 203.114 98.748 203.03 98.1534C203.013 98.0302 202.9 97.9431 202.775 97.9625ZM201.519 124.917C201.536 124.921 201.554 124.923 201.571 124.923C201.673 124.923 201.766 124.854 201.79 124.751C201.931 124.165 202.063 123.578 202.189 122.988C202.214 122.867 202.136 122.748 202.014 122.722C201.892 122.699 201.773 122.774 201.747 122.896C201.623 123.483 201.491 124.066 201.352 124.647C201.323 124.767 201.398 124.888 201.519 124.917ZM202.516 120.067C202.529 120.07 202.541 120.07 202.554 120.07C202.662 120.07 202.758 119.992 202.776 119.882C202.875 119.289 202.966 118.694 203.05 118.096C203.067 117.973 202.982 117.86 202.858 117.843C202.739 117.829 202.62 117.911 202.604 118.034C202.521 118.628 202.43 119.22 202.332 119.809C202.311 119.931 202.393 120.047 202.516 120.067ZM202.336 95.2964C202.458 95.2735 202.538 95.1562 202.516 95.0348C202.404 94.442 202.286 93.8516 202.159 93.2637C202.133 93.1428 202.014 93.0643 201.892 93.0915C201.77 93.1168 201.692 93.2365 201.718 93.3579C201.843 93.9417 201.961 94.5284 202.073 95.1182C202.093 95.2257 202.187 95.3013 202.294 95.3013C202.308 95.3007 202.322 95.2995 202.336 95.2964ZM169.36 47.8564C169.436 47.8564 169.51 47.8183 169.553 47.7488C169.618 47.6431 169.584 47.5053 169.478 47.44C168.961 47.1258 168.441 46.8176 167.916 46.5161C167.808 46.4545 167.67 46.4913 167.608 46.5983C167.545 46.7059 167.583 46.843 167.691 46.9053C168.212 47.205 168.73 47.5107 169.243 47.8238C169.28 47.8461 169.32 47.8564 169.36 47.8564ZM67.9279 77.5508C67.815 77.4983 67.6808 77.5454 67.6274 77.6572C67.3675 78.2016 67.1137 78.7503 66.8666 79.302C66.8162 79.415 66.8672 79.548 66.9813 79.5981C67.0111 79.6114 67.042 79.6174 67.073 79.6174C67.1598 79.6174 67.2418 79.5679 67.2794 79.4839C67.5247 78.9352 67.7767 78.3908 68.0354 77.8493C68.0882 77.7382 68.0409 77.604 67.9279 77.5508ZM66.3158 135.241C66.2011 135.288 66.1464 135.42 66.1944 135.534C66.4263 136.089 66.665 136.64 66.9109 137.187C66.9485 137.271 67.0305 137.32 67.1173 137.32C67.1477 137.32 67.1793 137.314 67.209 137.301C67.3226 137.25 67.3736 137.117 67.3232 137.004C67.0791 136.461 66.8417 135.913 66.6109 135.362C66.5629 135.247 66.4306 135.195 66.3158 135.241ZM61.6465 118.361C61.6568 118.361 61.6671 118.361 61.678 118.359C61.8013 118.342 61.8875 118.228 61.8699 118.106C61.7867 117.515 61.7108 116.921 61.6422 116.325C61.6282 116.202 61.5159 116.112 61.3927 116.128C61.2688 116.142 61.1801 116.254 61.1947 116.376C61.2639 116.976 61.3404 117.573 61.4242 118.168C61.4394 118.28 61.536 118.361 61.6465 118.361ZM70.2395 73.1578C70.1315 73.0974 69.993 73.1348 69.9323 73.243C69.6342 73.7681 69.3427 74.2968 69.0579 74.8298C68.9996 74.9392 69.0409 75.0751 69.1508 75.1331C69.1842 75.1513 69.2207 75.1597 69.2565 75.1597C69.3372 75.1597 69.4156 75.1168 69.4556 75.0407C69.7386 74.5107 70.0282 73.9856 70.3245 73.4642C70.3865 73.356 70.3482 73.2188 70.2395 73.1578ZM65.9309 82.0967C65.8149 82.052 65.6843 82.1082 65.6388 82.2237C65.4172 82.785 65.2028 83.35 64.9958 83.9186C64.9533 84.0353 65.014 84.164 65.1312 84.2063C65.1567 84.2153 65.1828 84.2196 65.2083 84.2196C65.3006 84.2196 65.3874 84.1628 65.4202 84.0715C65.626 83.5071 65.8392 82.9452 66.059 82.3874C66.1039 82.2726 66.0468 82.1421 65.9309 82.0967ZM61.1279 113.438C61.1334 113.438 61.1382 113.438 61.1437 113.438C61.2682 113.429 61.3617 113.322 61.3532 113.199C61.3113 112.603 61.2773 112.006 61.25 111.406C61.2445 111.282 61.137 111.182 61.0144 111.192C60.8899 111.198 60.794 111.303 60.7994 111.427C60.8267 112.03 60.8614 112.631 60.9033 113.23C60.9112 113.348 61.0101 113.438 61.1279 113.438ZM64.5835 130.609C64.4657 130.649 64.4019 130.776 64.4414 130.893C64.6345 131.465 64.8349 132.034 65.0419 132.598C65.0753 132.689 65.1615 132.745 65.2538 132.745C65.2793 132.745 65.3054 132.741 65.3309 132.732C65.4481 132.69 65.5082 132.561 65.4657 132.444C65.2599 131.883 65.0607 131.319 64.8689 130.75C64.8294 130.633 64.7019 130.57 64.5835 130.609ZM61.1182 103.544C61.236 103.544 61.335 103.453 61.3429 103.335C61.3836 102.737 61.4321 102.14 61.488 101.546C61.4995 101.423 61.4084 101.313 61.284 101.302C61.1613 101.29 61.0502 101.381 61.0387 101.505C60.9828 102.103 60.9342 102.703 60.8929 103.305C60.8844 103.429 60.9785 103.536 61.103 103.545C61.1079 103.544 61.1133 103.544 61.1182 103.544ZM70.732 144.08C70.6251 144.144 70.5893 144.282 70.653 144.388C70.9609 144.906 71.2754 145.419 71.5954 145.928C71.6385 145.995 71.712 146.033 71.7867 146.033C71.8274 146.033 71.8693 146.022 71.9063 145.998C72.0119 145.932 72.0435 145.794 71.9773 145.689C71.6592 145.184 71.3465 144.673 71.0404 144.159C70.9779 144.053 70.8394 144.018 70.732 144.08ZM116.602 38.741C116.011 38.8721 115.422 39.0105 114.836 39.1567C114.715 39.1869 114.642 39.3084 114.672 39.4286C114.697 39.5308 114.789 39.5984 114.89 39.5984C114.909 39.5984 114.927 39.596 114.945 39.5918C115.527 39.4474 116.113 39.3096 116.701 39.1791C116.822 39.1519 116.898 39.0322 116.871 38.9114C116.844 38.7899 116.724 38.7138 116.602 38.741ZM68.3675 139.736C68.2564 139.791 68.2109 139.927 68.2674 140.037C68.5376 140.574 68.815 141.107 69.0986 141.637C69.1393 141.713 69.2176 141.756 69.2978 141.756C69.3336 141.756 69.37 141.748 69.4034 141.73C69.5133 141.672 69.5552 141.536 69.4963 141.426C69.2146 140.9 68.9389 140.37 68.6699 139.836C68.6147 139.725 68.4799 139.681 68.3675 139.736ZM195.962 76.6154C195.997 76.6154 196.031 76.6076 196.064 76.5913C196.176 76.5357 196.22 76.4003 196.164 76.2897C195.893 75.7525 195.615 75.2196 195.331 74.6902C195.271 74.5802 195.134 74.5404 195.025 74.5984C194.916 74.6564 194.874 74.7929 194.933 74.9023C195.215 75.428 195.492 75.958 195.761 76.4915C195.801 76.5701 195.88 76.6154 195.962 76.6154ZM102.445 43.4845C101.896 43.7353 101.351 43.9927 100.81 44.2561C100.698 44.3105 100.652 44.4453 100.707 44.5565C100.746 44.6356 100.827 44.6822 100.91 44.6822C100.943 44.6822 100.977 44.6749 101.009 44.6592C101.546 44.3969 102.088 44.1413 102.634 43.8924C102.747 43.8404 102.796 43.7075 102.745 43.5945C102.692 43.4821 102.559 43.4331 102.445 43.4845ZM72.8529 68.9388C72.7491 68.8699 72.6088 68.8983 72.5402 69.0022C72.2062 69.5056 71.8784 70.0126 71.5572 70.5238C71.491 70.6289 71.5231 70.7673 71.6288 70.8332C71.6658 70.8561 71.7077 70.8676 71.7484 70.8676C71.8237 70.8676 71.8972 70.8301 71.9397 70.7625C72.2591 70.2543 72.5845 69.7503 72.9167 69.2506C72.9853 69.146 72.9567 69.0071 72.8529 68.9388ZM111.773 39.9912C111.192 40.1634 110.615 40.3429 110.04 40.5296C109.922 40.5677 109.857 40.6946 109.896 40.8124C109.927 40.9073 110.015 40.9671 110.11 40.9671C110.133 40.9671 110.157 40.9635 110.18 40.9562C110.751 40.7707 111.324 40.5931 111.901 40.4214C112.021 40.3864 112.089 40.2613 112.053 40.1423C112.018 40.0232 111.893 39.955 111.773 39.9912ZM85.7128 54.1517C85.2537 54.5432 84.8002 54.9403 84.3508 55.3439C84.2585 55.4267 84.2512 55.5687 84.3344 55.6605C84.3788 55.7095 84.4401 55.7349 84.502 55.7349C84.5561 55.7349 84.6101 55.7155 84.6532 55.6769C85.0995 55.2762 85.5506 54.8816 86.0066 54.4925C86.1014 54.4121 86.1117 54.2701 86.0309 54.1758C85.9502 54.0822 85.8075 54.0713 85.7128 54.1517ZM73.3964 148.252C73.2937 148.323 73.2682 148.463 73.3387 148.565C73.6824 149.06 74.0315 149.551 74.3873 150.036C74.4316 150.096 74.5002 150.129 74.5701 150.129C74.6162 150.129 74.6624 150.115 74.7024 150.086C74.8032 150.012 74.8251 149.872 74.7522 149.772C74.3988 149.289 74.0515 148.802 73.7103 148.309C73.6392 148.208 73.4984 148.182 73.3964 148.252ZM75.7541 64.9125C75.6551 64.8376 75.5137 64.8563 75.4378 64.9542C75.0698 65.4328 74.7079 65.9156 74.3515 66.4033C74.278 66.5036 74.3005 66.6438 74.4013 66.7169C74.4413 66.7459 74.4875 66.7598 74.5336 66.7598C74.6035 66.7598 74.6721 66.7278 74.7164 66.6673C75.0704 66.1827 75.4305 65.7029 75.796 65.2273C75.8719 65.1289 75.8531 64.9874 75.7541 64.9125ZM82.0404 57.5114C81.6099 57.9338 81.1843 58.3616 80.7641 58.7949C80.6773 58.8843 80.6803 59.0263 80.7696 59.1121C80.8133 59.1544 80.8698 59.175 80.9262 59.175C80.9851 59.175 81.044 59.152 81.0883 59.1061C81.5055 58.6758 81.9287 58.2504 82.3568 57.8305C82.4454 57.7435 82.4467 57.6015 82.3592 57.5132C82.2718 57.4256 82.1291 57.4244 82.0404 57.5114ZM78.6098 61.1183C78.2096 61.5697 77.8149 62.0259 77.4257 62.4876C77.3456 62.5825 77.3583 62.7239 77.4537 62.8036C77.4962 62.8387 77.5472 62.8562 77.5982 62.8562C77.6625 62.8562 77.7263 62.829 77.7712 62.7758C78.158 62.3172 78.5503 61.8634 78.948 61.415C79.0305 61.3219 79.0214 61.1805 78.9279 61.0984C78.8356 61.0168 78.6923 61.0253 78.6098 61.1183ZM60.7472 106.461C60.7332 107.037 60.7266 107.616 60.7266 108.196V108.266C60.7266 108.39 60.8273 108.491 60.9518 108.491C61.0763 108.491 61.1771 108.39 61.1771 108.266V108.196C61.1771 107.619 61.1844 107.045 61.1977 106.472C61.2008 106.348 61.1024 106.245 60.9779 106.242C60.8516 106.235 60.7508 106.336 60.7472 106.461ZM100.897 172.177C100.929 172.192 100.963 172.2 100.996 172.2C101.079 172.2 101.16 172.154 101.199 172.074C101.253 171.963 101.207 171.828 101.095 171.774C100.553 171.511 100.015 171.241 99.481 170.964C99.3699 170.906 99.2339 170.949 99.1768 171.059C99.1191 171.169 99.1622 171.305 99.2727 171.362C99.8107 171.64 100.352 171.912 100.897 172.177ZM105.466 174.202C105.493 174.213 105.522 174.218 105.55 174.218C105.639 174.218 105.724 174.165 105.759 174.078C105.806 173.963 105.75 173.832 105.634 173.786C105.075 173.561 104.518 173.329 103.966 173.09C103.852 173.041 103.719 173.093 103.669 173.207C103.62 173.321 103.672 173.453 103.786 173.502C104.343 173.742 104.902 173.975 105.466 174.202ZM88.3504 164.324C88.4178 164.324 88.484 164.294 88.5283 164.238C88.6049 164.14 88.5879 163.999 88.4895 163.923C88.0153 163.554 87.5465 163.179 87.082 162.798C86.9861 162.719 86.844 162.734 86.7644 162.828C86.6849 162.924 86.6989 163.066 86.7948 163.145C87.2617 163.528 87.7335 163.905 88.2108 164.276C88.2533 164.309 88.3025 164.324 88.3504 164.324ZM96.4851 169.839C96.5209 169.859 96.5598 169.869 96.598 169.869C96.6757 169.869 96.7516 169.828 96.7935 169.756C96.8561 169.649 96.819 169.512 96.7116 169.45C96.19 169.15 95.6726 168.843 95.1589 168.53C95.0527 168.465 94.9136 168.498 94.8487 168.604C94.7837 168.71 94.8171 168.848 94.9234 168.913C95.4401 169.228 95.9605 169.536 96.4851 169.839ZM110.168 175.903C110.191 175.91 110.215 175.914 110.238 175.914C110.333 175.914 110.422 175.854 110.452 175.759C110.491 175.641 110.426 175.514 110.307 175.476C109.733 175.29 109.162 175.098 108.593 174.899C108.475 174.856 108.347 174.919 108.305 175.035C108.264 175.153 108.325 175.281 108.443 175.322C109.015 175.523 109.59 175.716 110.168 175.903ZM92.3762 167.239C92.4484 167.239 92.5195 167.205 92.5632 167.141C92.633 167.038 92.6057 166.898 92.5025 166.829C92.0033 166.493 91.5091 166.151 91.0191 165.804C90.9177 165.733 90.7774 165.756 90.7045 165.856C90.6323 165.957 90.656 166.098 90.7574 166.169C91.2504 166.519 91.7477 166.863 92.2499 167.2C92.2887 167.227 92.3331 167.239 92.3762 167.239ZM137.892 178.686C137.767 178.695 137.674 178.803 137.685 178.927C137.694 179.044 137.793 179.133 137.909 179.133C137.915 179.133 137.921 179.133 137.927 179.133C138.532 179.086 139.135 179.031 139.735 178.968C139.858 178.955 139.949 178.845 139.936 178.721C139.923 178.598 139.809 178.506 139.688 178.521C139.092 178.584 138.493 178.639 137.892 178.686ZM142.819 178.127C142.695 178.145 142.61 178.259 142.628 178.382C142.645 178.494 142.741 178.573 142.851 178.573C142.862 178.573 142.873 178.573 142.884 178.571C143.484 178.482 144.081 178.385 144.676 178.281C144.799 178.26 144.881 178.144 144.859 178.022C144.838 177.9 144.714 177.815 144.598 177.84C144.007 177.942 143.414 178.039 142.819 178.127ZM149.449 176.817C148.867 176.961 148.281 177.098 147.693 177.228C147.572 177.255 147.495 177.375 147.522 177.496C147.545 177.6 147.639 177.672 147.742 177.672C147.758 177.672 147.775 177.67 147.792 177.666C148.383 177.536 148.972 177.397 149.558 177.252C149.679 177.223 149.753 177.101 149.723 176.98C149.692 176.86 149.57 176.786 149.449 176.817ZM154.216 175.457C153.645 175.642 153.07 175.82 152.493 175.99C152.373 176.026 152.306 176.15 152.341 176.269C152.37 176.367 152.46 176.43 152.557 176.43C152.579 176.43 152.6 176.427 152.622 176.421C153.203 176.249 153.78 176.07 154.355 175.884C154.473 175.846 154.538 175.719 154.5 175.602C154.461 175.483 154.333 175.42 154.216 175.457ZM113.33 176.377C113.21 176.345 113.086 176.415 113.052 176.535C113.02 176.654 113.09 176.778 113.21 176.811C113.311 176.838 113.414 176.863 113.516 176.89L113.461 176.412C113.417 176.4 113.374 176.389 113.33 176.377ZM84.5403 161.14C84.6022 161.14 84.6635 161.115 84.7079 161.065C84.791 160.973 84.7838 160.831 84.6915 160.748C84.2446 160.347 83.8031 159.941 83.3666 159.529C83.2761 159.445 83.1334 159.448 83.0478 159.538C82.9622 159.628 82.9658 159.77 83.0563 159.855C83.4953 160.27 83.9397 160.678 84.3891 161.081C84.4322 161.12 84.4862 161.14 84.5403 161.14ZM62.9264 91.5433C62.8056 91.5137 62.6836 91.5892 62.655 91.7101C62.5154 92.295 62.3836 92.8824 62.2585 93.4728C62.233 93.5942 62.3107 93.7133 62.4328 93.7386C62.4486 93.7417 62.4644 93.7435 62.4795 93.7435C62.584 93.7435 62.6775 93.6709 62.7 93.5652C62.8238 92.9785 62.955 92.3947 63.094 91.8134C63.1232 91.6932 63.0479 91.5717 62.9264 91.5433ZM62.5093 123.236C62.5245 123.236 62.5409 123.234 62.5567 123.231C62.6787 123.205 62.7564 123.086 62.7303 122.965C62.6052 122.381 62.488 121.794 62.3781 121.205C62.3557 121.082 62.2379 121.003 62.1152 121.025C61.9926 121.047 61.9118 121.165 61.9349 121.287C62.046 121.879 62.1644 122.47 62.2895 123.058C62.3113 123.164 62.4055 123.236 62.5093 123.236ZM64.2592 86.7744C64.1396 86.7369 64.0139 86.8028 63.9769 86.9212C63.7966 87.4953 63.6229 88.0724 63.4571 88.6519C63.4231 88.7709 63.4924 88.8954 63.612 88.9292C63.6326 88.9347 63.6539 88.9377 63.6739 88.9377C63.7717 88.9377 63.8621 88.8737 63.8907 88.7746C64.0558 88.1981 64.2277 87.6252 64.4074 87.0548C64.4444 86.937 64.3782 86.8113 64.2592 86.7744ZM63.4966 127.876C63.5251 127.975 63.615 128.039 63.7134 128.039C63.734 128.039 63.7553 128.036 63.7759 128.03C63.8955 127.995 63.9647 127.871 63.9301 127.752C63.7644 127.178 63.6059 126.601 63.4541 126.021C63.4225 125.9 63.2999 125.83 63.179 125.86C63.0588 125.891 62.9866 126.014 63.0175 126.134C63.1705 126.717 63.3296 127.299 63.4966 127.876ZM77.6334 154.024C77.6844 154.024 77.736 154.007 77.7785 153.972C77.8738 153.892 77.886 153.751 77.8058 153.656C77.4197 153.198 77.0389 152.735 76.6643 152.268C76.5866 152.171 76.4445 152.155 76.3473 152.233C76.2502 152.31 76.2344 152.451 76.3115 152.548C76.6886 153.019 77.0717 153.484 77.4609 153.944C77.5053 153.997 77.569 154.024 77.6334 154.024ZM80.962 157.701C81.0185 157.701 81.075 157.679 81.1187 157.638C81.208 157.552 81.2104 157.41 81.1242 157.321C80.707 156.89 80.2947 156.456 79.8885 156.015C79.8041 155.923 79.6608 155.917 79.5697 156.001C79.4781 156.085 79.472 156.227 79.5558 156.319C79.965 156.762 80.3797 157.201 80.7999 157.634C80.8443 157.678 80.9031 157.701 80.962 157.701ZM134.975 179.08C134.974 179.045 134.962 179.013 134.946 178.984L134.79 179.305C134.897 179.284 134.978 179.192 134.975 179.08ZM61.9337 96.3938C61.8092 96.3708 61.6944 96.4566 61.6744 96.5787C61.5766 97.1721 61.4862 97.7667 61.403 98.3649C61.386 98.4876 61.4722 98.6012 61.5955 98.6181C61.6058 98.6199 61.6161 98.6205 61.6264 98.6205C61.7375 98.6205 61.8341 98.539 61.8493 98.4266C61.9319 97.8326 62.0217 97.241 62.1189 96.6518C62.1401 96.5291 62.0569 96.4137 61.9337 96.3938ZM107.044 41.5762C106.477 41.7889 105.914 42.0077 105.354 42.2343C105.238 42.2808 105.183 42.4119 105.229 42.5267C105.265 42.6137 105.35 42.6669 105.438 42.6669C105.467 42.6669 105.495 42.6615 105.523 42.6506C106.079 42.4258 106.639 42.2077 107.203 41.9968C107.32 41.9533 107.379 41.824 107.335 41.7079C107.291 41.5913 107.161 41.5327 107.044 41.5762ZM181.2 56.8733C181.26 56.8733 181.32 56.8497 181.364 56.8032C181.45 56.7132 181.445 56.5712 181.355 56.486C180.915 56.0727 180.47 55.6642 180.02 55.2617C179.929 55.1789 179.785 55.1862 179.702 55.2786C179.618 55.3711 179.626 55.5125 179.719 55.5953C180.165 55.9953 180.608 56.4014 181.045 56.8123C181.088 56.8534 181.144 56.8733 181.2 56.8733ZM179.757 160.761C179.311 161.161 178.859 161.556 178.402 161.945C178.307 162.025 178.297 162.167 178.377 162.262C178.422 162.314 178.485 162.34 178.549 162.34C178.601 162.34 178.652 162.323 178.695 162.286C179.155 161.895 179.609 161.498 180.059 161.096C180.152 161.013 180.159 160.871 180.076 160.779C179.992 160.685 179.849 160.678 179.757 160.761ZM184.693 60.3974C184.748 60.3974 184.803 60.3775 184.846 60.3382C184.938 60.2542 184.944 60.1122 184.859 60.021C184.449 59.5786 184.035 59.1405 183.614 58.7085C183.527 58.6196 183.384 58.6172 183.295 58.703C183.206 58.7894 183.203 58.9315 183.29 59.0203C183.707 59.4499 184.12 59.885 184.528 60.3249C184.572 60.3732 184.633 60.3974 184.693 60.3974ZM177.468 53.5982C177.533 53.5982 177.598 53.5704 177.643 53.516C177.722 53.4199 177.708 53.2785 177.611 53.2C177.143 52.8174 176.671 52.441 176.194 52.07C176.095 51.9944 175.954 52.0101 175.877 52.1086C175.8 52.2065 175.818 52.3473 175.916 52.4235C176.391 52.7921 176.86 53.1661 177.324 53.5462C177.367 53.5812 177.418 53.5982 177.468 53.5982ZM183.325 157.334C182.907 157.765 182.484 158.189 182.055 158.609C181.966 158.696 181.965 158.838 182.053 158.927C182.097 158.971 182.155 158.994 182.214 158.994C182.271 158.994 182.328 158.972 182.371 158.929C182.803 158.507 183.229 158.079 183.649 157.646C183.736 157.557 183.733 157.415 183.644 157.329C183.554 157.243 183.41 157.246 183.325 157.334ZM171.954 166.832C171.458 167.167 170.956 167.495 170.45 167.816C170.345 167.883 170.314 168.022 170.381 168.126C170.424 168.193 170.497 168.23 170.571 168.23C170.612 168.23 170.654 168.219 170.692 168.195C171.201 167.871 171.706 167.541 172.206 167.204C172.31 167.135 172.337 166.996 172.266 166.892C172.198 166.79 172.058 166.763 171.954 166.832ZM175.961 163.932C175.488 164.3 175.01 164.662 174.527 165.019C174.427 165.093 174.406 165.233 174.48 165.333C174.525 165.392 174.593 165.423 174.661 165.423C174.708 165.423 174.755 165.409 174.795 165.379C175.281 165.021 175.762 164.656 176.238 164.286C176.336 164.21 176.354 164.068 176.276 163.971C176.2 163.872 176.058 163.856 175.961 163.932ZM173.517 50.5877C173.587 50.5877 173.656 50.5551 173.7 50.4934C173.772 50.3925 173.749 50.2523 173.647 50.1804C173.154 49.8311 172.656 49.4879 172.154 49.1507C172.05 49.0825 171.911 49.1084 171.84 49.2112C171.77 49.3139 171.798 49.4535 171.902 49.5224C172.401 49.8571 172.896 50.1985 173.386 50.5454C173.425 50.5738 173.471 50.5877 173.517 50.5877ZM193.58 72.281C193.619 72.281 193.659 72.2707 193.694 72.2496C193.801 72.1861 193.837 72.0484 193.773 71.942C193.465 71.4247 193.15 70.9117 192.83 70.4035C192.763 70.2984 192.624 70.2676 192.519 70.3328C192.413 70.3987 192.382 70.5371 192.448 70.6422C192.767 71.1474 193.079 71.6574 193.386 72.1716C193.428 72.2417 193.503 72.281 193.58 72.281ZM192.485 145.689C192.165 146.197 191.839 146.701 191.507 147.2C191.438 147.303 191.467 147.443 191.57 147.511C191.608 147.536 191.651 147.548 191.694 147.548C191.767 147.548 191.839 147.513 191.883 147.448C192.217 146.945 192.546 146.438 192.867 145.928C192.933 145.822 192.901 145.684 192.796 145.618C192.691 145.552 192.551 145.584 192.485 145.689ZM119.716 38.1222C119.593 38.144 119.511 38.26 119.533 38.382C119.553 38.4908 119.647 38.5676 119.755 38.5676C119.767 38.5676 119.781 38.5663 119.794 38.5639C120.385 38.46 120.978 38.3633 121.574 38.2745C121.697 38.2564 121.782 38.1415 121.763 38.0189C121.745 37.8962 121.632 37.8146 121.507 37.8303C120.908 37.9204 120.311 38.0177 119.716 38.1222ZM194.973 141.413C194.69 141.942 194.399 142.467 194.103 142.988C194.041 143.096 194.079 143.233 194.188 143.294C194.223 143.314 194.261 143.323 194.299 143.323C194.378 143.323 194.454 143.283 194.496 143.209C194.794 142.685 195.086 142.156 195.372 141.623C195.43 141.514 195.389 141.378 195.279 141.319C195.169 141.263 195.032 141.303 194.973 141.413ZM167.758 169.447C167.239 169.746 166.716 170.039 166.189 170.324C166.08 170.384 166.039 170.52 166.099 170.628C166.139 170.703 166.217 170.746 166.296 170.746C166.333 170.746 166.37 170.737 166.405 170.718C166.935 170.43 167.461 170.137 167.983 169.836C168.091 169.774 168.128 169.636 168.066 169.529C168.003 169.421 167.864 169.384 167.758 169.447ZM190.898 68.12C190.943 68.12 190.988 68.1073 191.026 68.0801C191.129 68.01 191.155 67.8698 191.084 67.7677C190.74 67.2728 190.39 66.7827 190.034 66.2969C189.96 66.1972 189.818 66.1748 189.719 66.248C189.618 66.3211 189.596 66.4613 189.669 66.5616C190.023 67.0438 190.371 67.5308 190.713 68.0227C190.756 68.0861 190.827 68.12 190.898 68.12ZM187.93 64.1524C187.98 64.1524 188.029 64.1366 188.071 64.1034C188.168 64.0261 188.184 63.8847 188.106 63.788C187.729 63.3179 187.345 62.8526 186.956 62.3927C186.876 62.2978 186.734 62.2864 186.638 62.3655C186.543 62.4453 186.531 62.5867 186.611 62.6816C186.998 63.1384 187.379 63.6007 187.754 64.0677C187.799 64.1233 187.864 64.1524 187.93 64.1524ZM189.705 149.781C189.351 150.265 188.99 150.745 188.624 151.219C188.548 151.318 188.567 151.459 188.665 151.534C188.706 151.565 188.754 151.581 188.802 151.581C188.87 151.581 188.936 151.55 188.981 151.493C189.35 151.014 189.712 150.532 190.07 150.045C190.142 149.945 190.121 149.805 190.02 149.732C189.919 149.659 189.777 149.681 189.705 149.781ZM186.646 153.669C186.259 154.127 185.866 154.58 185.468 155.029C185.385 155.121 185.393 155.263 185.487 155.345C185.529 155.383 185.583 155.402 185.636 155.402C185.698 155.402 185.761 155.377 185.805 155.326C186.207 154.875 186.602 154.419 186.991 153.958C187.071 153.863 187.059 153.722 186.963 153.642C186.868 153.562 186.726 153.575 186.646 153.669ZM154.227 40.4656C154.109 40.4281 153.981 40.4922 153.943 40.61C153.905 40.7278 153.97 40.8547 154.088 40.8928C154.663 41.0777 155.235 41.2698 155.803 41.4686C155.828 41.4771 155.853 41.4813 155.878 41.4813C155.97 41.4813 156.058 41.4239 156.09 41.3315C156.131 41.2149 156.07 41.0861 155.952 41.0457C155.381 40.8444 154.805 40.6517 154.227 40.4656ZM129.634 37.0816C129.51 37.0859 129.412 37.1898 129.417 37.3137C129.421 37.4352 129.522 37.53 129.642 37.53C129.645 37.53 129.648 37.53 129.65 37.53C130.249 37.5089 130.849 37.495 131.452 37.4883C131.576 37.4871 131.676 37.385 131.675 37.2617C131.673 37.1378 131.577 37.0581 131.447 37.04C130.841 37.0466 130.237 37.0605 129.634 37.0816ZM149.427 39.1066C149.303 39.077 149.184 39.1507 149.153 39.2709C149.124 39.3912 149.198 39.5132 149.318 39.5422C149.903 39.686 150.484 39.8365 151.063 39.9948C151.083 40.0003 151.103 40.0027 151.123 40.0027C151.222 40.0027 151.313 39.9374 151.341 39.8377C151.373 39.7181 151.303 39.5948 151.183 39.5616C150.6 39.4027 150.014 39.251 149.427 39.1066ZM158.874 173.768C158.317 173.992 157.757 174.209 157.193 174.42C157.077 174.464 157.018 174.593 157.062 174.709C157.096 174.799 157.181 174.855 157.273 174.855C157.3 174.855 157.326 174.85 157.352 174.84C157.92 174.629 158.483 174.41 159.044 174.185C159.159 174.138 159.215 174.007 159.168 173.892C159.121 173.777 158.988 173.722 158.874 173.768ZM144.543 38.0865C144.423 38.0648 144.304 38.147 144.283 38.269C144.261 38.3911 144.343 38.5071 144.466 38.5289C145.059 38.631 145.651 38.7416 146.239 38.8582C146.253 38.8612 146.269 38.8624 146.283 38.8624C146.388 38.8624 146.482 38.7887 146.504 38.6818C146.529 38.5603 146.449 38.4419 146.326 38.4177C145.736 38.3005 145.141 38.1899 144.543 38.0865ZM134.623 37.0744C134.62 37.0744 134.617 37.0744 134.615 37.0744C134.494 37.0744 134.394 37.1705 134.39 37.2913C134.386 37.4152 134.484 37.5191 134.608 37.5228C135.21 37.5427 135.811 37.5699 136.41 37.6043C136.414 37.6043 136.419 37.6049 136.423 37.6049C136.542 37.6049 136.641 37.5131 136.648 37.3934C136.655 37.2696 136.561 37.1638 136.436 37.1566C135.833 37.1215 135.229 37.0943 134.623 37.0744ZM139.6 37.4086C139.478 37.3995 139.365 37.4853 139.353 37.6092C139.34 37.7324 139.43 37.8424 139.554 37.8551C140.154 37.9161 140.75 37.9844 141.346 38.0606C141.356 38.0618 141.366 38.0624 141.375 38.0624C141.487 38.0624 141.584 37.9796 141.599 37.8666C141.614 37.7439 141.528 37.6309 141.404 37.6152C140.804 37.5391 140.203 37.4702 139.6 37.4086ZM165.023 45.42C165.105 45.42 165.183 45.3759 165.223 45.2991C165.281 45.1891 165.238 45.0538 165.127 44.9964C164.589 44.7184 164.047 44.4477 163.502 44.183C163.391 44.1293 163.255 44.1752 163.2 44.287C163.146 44.3982 163.192 44.5329 163.304 44.5873C163.846 44.8502 164.385 45.1196 164.919 45.3952C164.953 45.4121 164.988 45.42 165.023 45.42ZM160.521 43.2911C160.608 43.2911 160.691 43.2404 160.728 43.1558C160.777 43.0422 160.725 42.9098 160.611 42.8603C160.054 42.6204 159.494 42.3877 158.931 42.1617C158.816 42.1158 158.683 42.1708 158.637 42.2862C158.591 42.401 158.646 42.5322 158.762 42.5787C159.322 42.8029 159.878 43.0343 160.431 43.2724C160.461 43.2851 160.491 43.2911 160.521 43.2911ZM124.657 37.4303C124.533 37.443 124.444 37.5536 124.457 37.6769C124.469 37.7923 124.567 37.8781 124.681 37.8781C124.689 37.8781 124.697 37.8775 124.705 37.8769C125.301 37.8146 125.9 37.7596 126.501 37.7119C126.625 37.7022 126.717 37.5941 126.708 37.4702C126.697 37.3463 126.592 37.2551 126.465 37.2641C125.859 37.3119 125.257 37.3675 124.657 37.4303ZM163.39 171.763C162.852 172.024 162.311 172.279 161.765 172.528C161.652 172.58 161.602 172.713 161.653 172.826C161.691 172.908 161.773 172.957 161.858 172.957C161.89 172.957 161.922 172.95 161.953 172.937C162.502 172.687 163.047 172.43 163.588 172.166C163.7 172.112 163.746 171.977 163.692 171.866C163.637 171.754 163.501 171.709 163.39 171.763ZM93.8595 55.9047V53.8356C97.9132 53.6568 100.12 51.2312 100.12 48.4734C100.12 44.5154 96.6053 43.7752 93.8595 43.0095V39.051C94.5779 39.306 95.0654 39.8939 95.1675 40.8384H99.8635C99.6328 37.5959 97.3746 35.8084 93.8595 35.5275V33.4591H92.2171V35.5275C88.7275 35.7571 86.0334 37.6472 86.0334 40.8384C86.0334 44.8477 89.4713 45.6139 92.2171 46.3288V49.2118C92.2098 49.2166 92.2031 49.2208 92.1958 49.2257C92.0926 49.2952 92.0659 49.4347 92.1357 49.5375C92.157 49.5689 92.1855 49.5931 92.2171 49.61V50.3641C91.3445 50.0831 90.8315 49.445 90.7288 48.3972H86.0589C86.1269 50.146 86.8798 51.4729 88.0887 52.3836C88.0966 52.412 88.1094 52.4392 88.1288 52.4639C88.1731 52.5207 88.2393 52.5504 88.3067 52.5504C88.3079 52.5504 88.3085 52.5492 88.3098 52.5492C89.3499 53.2561 90.693 53.6773 92.2177 53.8115V55.9053H93.8595V55.9047ZM93.8595 48.6734C93.8911 48.6534 93.9215 48.6323 93.9531 48.6123C94.0581 48.5453 94.0885 48.4069 94.0211 48.3023C93.984 48.2443 93.9233 48.2117 93.8595 48.2032V46.8146C94.8602 47.1971 95.5275 47.7083 95.5275 48.6274C95.5275 49.5719 94.8863 50.262 93.8595 50.4402V48.6734ZM90.6778 40.6348C90.6778 39.6389 91.2674 39.0769 92.2171 38.9241V42.4729C91.2935 42.0645 90.6778 41.5285 90.6778 40.6348ZM141.179 9.72754H148.055V26.751H141.179V9.72754ZM161.881 26.751H168.757V10.5469V10.1711V0H161.881V7.88694V8.24164V26.751ZM216.192 61.0398C216.273 60.8754 216.322 60.6929 216.322 60.4977C216.322 59.8107 215.763 59.2541 215.073 59.2541C214.382 59.2541 213.823 59.8107 213.823 60.4977C213.823 60.6464 213.853 60.7866 213.901 60.9189C213.972 61.1135 214.089 61.2845 214.241 61.4198C214.462 61.6174 214.752 61.7413 215.073 61.7413C215.346 61.7413 215.597 61.6513 215.803 61.5032C215.969 61.3836 216.102 61.2247 216.192 61.0398ZM221.978 65.0763C221.683 65.0763 221.416 65.182 221.202 65.3518C221.043 65.4787 220.912 65.6401 220.83 65.8298C220.765 65.9803 220.728 66.1458 220.728 66.3199C220.728 67.0069 221.287 67.5635 221.978 67.5635C222.668 67.5635 223.227 67.0069 223.227 66.3199C223.227 66.1845 223.2 66.0564 223.16 65.9343C223.095 65.7374 222.986 65.5615 222.838 65.4213C222.614 65.2086 222.312 65.0763 221.978 65.0763ZM231.623 60.2451C231.832 60.4016 232.089 60.4977 232.371 60.4977C232.548 60.4977 232.716 60.4603 232.868 60.3938C233.059 60.3116 233.221 60.1805 233.348 60.021C233.516 59.8095 233.621 59.5454 233.621 59.2541C233.621 58.5671 233.062 58.0105 232.371 58.0105C231.681 58.0105 231.122 58.5671 231.122 59.2541C231.122 59.4402 231.165 59.6155 231.239 59.7738C231.326 59.9617 231.459 60.1219 231.623 60.2451ZM242.136 56.37C242.337 56.5071 242.579 56.5875 242.84 56.5875C243.531 56.5875 244.09 56.031 244.09 55.3439C244.09 54.6568 243.531 54.1003 242.84 54.1003C242.15 54.1003 241.591 54.6568 241.591 55.3439C241.591 55.5506 241.646 55.7427 241.736 55.9143C241.832 56.0968 241.967 56.2545 242.136 56.37ZM233.864 61.838C233.712 62.0434 233.62 62.2948 233.62 62.5692C233.62 63.2562 234.179 63.8128 234.87 63.8128C235.56 63.8128 236.119 63.2562 236.119 62.5692C236.119 62.3093 236.039 62.0682 235.902 61.8688C235.785 61.699 235.625 61.5637 235.44 61.4682C235.268 61.38 235.077 61.3256 234.87 61.3256C234.677 61.3256 234.497 61.3727 234.334 61.4507C234.146 61.5401 233.985 61.673 233.864 61.838Z" fill="#C58936"/>
<path d="M130.697 3.97345V26.7514H137.574V4.10216C142.365 4.34508 147.072 4.90705 151.671 5.7766H151.654V26.752H158.531V7.31265C159.654 7.60512 160.771 7.9139 161.879 8.24262V7.88791C160.769 7.56221 159.653 7.25524 158.531 6.9664V5.7772H153.375C148.205 4.72335 142.927 4.0514 137.574 3.78371V0.000976562H130.698V3.66769C103.415 4.05623 77.823 14.8044 58.488 34.0462C54.6055 37.9099 51.0723 42.0286 47.8924 46.3576C47.9931 46.4277 48.0891 46.502 48.1808 46.5799C66.8248 21.145 96.8253 4.46352 130.697 3.97345ZM225.28 61.2855C225.31 61.271 225.343 61.2601 225.373 61.2462L225.597 61.0957C220.634 51.2141 214.048 42.086 205.97 34.0462C195.234 23.3621 182.567 15.3011 168.755 10.1715V10.5473C193.384 19.7763 213.598 38.0507 225.28 61.2855ZM38.9957 153.214C38.8931 153.278 38.785 153.336 38.6739 153.391C43.6584 163.417 50.3066 172.675 58.4874 180.816C74.5751 196.827 94.9964 206.951 117.117 210.127L117.083 209.808C82.7747 204.803 53.8581 183.066 38.9957 153.214ZM128.261 210.836C128.26 210.935 128.256 211.034 128.249 211.132C129.571 211.181 130.898 211.214 132.229 211.214C133.271 211.214 134.309 211.194 135.345 211.164L135.152 210.869C134.18 210.896 133.206 210.912 132.229 210.912C130.9 210.912 129.578 210.886 128.261 210.836ZM205.97 180.816C225.666 161.215 236.514 135.152 236.514 107.431C236.514 94.0103 233.965 80.9817 229.106 68.8836C229.002 68.9361 228.894 68.9845 228.782 69.0286C233.57 80.9085 236.21 93.8677 236.21 107.431C236.21 160.284 196.186 204.003 144.718 210.163L144.835 210.465C167.918 207.714 189.276 197.43 205.97 180.816ZM115.982 246.321L116.197 246.128L123.47 239.61L124.097 246.128L124.115 246.321H125.129L125.154 246.128L126.457 236.067L126.449 236.075C126.569 235.338 126.423 234.546 125.97 233.86L124.765 232.03L124.394 234.801L124.073 237.203L117.822 240.898L115.023 240.189L112.512 244.301L109.95 246.128L109.68 246.32H115.982V246.321ZM153.981 232.22L150.104 238.341L147.287 238.977L146.931 243.776L145.71 246.129L145.332 246.856L146.763 246.129L150.944 244.002L154.544 234.636L158.186 240.32L159.089 239.861L155.584 230.128L155.58 230.14C155.351 229.428 154.858 228.79 154.141 228.383L152.232 227.3L152.85 229.04L153.981 232.22ZM137.429 148.711L137.922 141.695L140.047 147.737C140.842 147.404 141.615 147.054 142.334 146.672C141.756 143.254 140.994 140.343 140.222 137.811C139.709 138.378 139.191 138.962 138.667 139.566C138.341 140.193 137.733 140.638 137.022 140.752C135.139 141.056 133.417 140.169 131.64 139.039C130.416 138.935 129.176 139.055 127.947 139.218C127.67 139.255 127.539 138.801 127.823 138.673C128.905 138.185 130.216 137.86 131.508 137.821C131.505 137.752 131.504 137.683 131.503 137.616C131.437 137.608 131.371 137.598 131.304 137.592C130.08 137.488 128.84 137.608 127.611 137.771C127.335 137.808 127.203 137.354 127.488 137.226C128.698 136.68 130.196 136.337 131.632 136.373C131.633 136.371 131.634 136.368 131.634 136.365C131.484 136.342 131.334 136.323 131.182 136.31C129.958 136.206 128.718 136.326 127.489 136.489C127.213 136.526 127.081 136.072 127.366 135.944C128.761 135.315 130.536 134.953 132.16 135.133C132.202 135.064 132.249 134.997 132.297 134.929C132.275 134.927 132.253 134.923 132.231 134.921C131.007 134.817 129.768 134.937 128.539 135.1C128.262 135.137 128.13 134.683 128.415 134.555C130.272 133.718 132.801 133.357 134.75 134.114C135.65 134.237 136.537 134.444 137.401 134.727C137.787 134.136 138.185 133.508 138.591 132.85C137.288 129.013 136.385 126.17 137.01 123.477C138.198 118.362 139.523 115.634 140.852 110.553C141.056 109.773 141.27 108.966 141.482 108.145C143.592 110.969 145.68 113.752 148.127 117.199C146.619 119.259 144.841 122.238 143.025 125.347C144.37 127.033 145.915 128.681 147.701 129.969C151.497 126.026 154.804 122.297 157.486 117.174C151.284 108.492 148.269 101.823 142.068 93.1408C141.275 91.1261 139.972 89.268 137.991 88.4692C137.438 88.2462 136.859 88.1241 136.27 88.0655C128.319 95.2062 122.708 104.516 122.126 114.943C120.208 108.263 119.439 100.834 121.586 94.1342C119.736 95.4878 118.097 96.8818 116.956 98.0976C111.223 104.206 112.737 107.813 114.349 111.903L109.907 121.525C106.967 120.569 104.562 119.749 102.271 118.854C101.215 120.709 100.37 122.669 99.4538 124.594C101.153 125.807 102.874 127.051 104.576 128.352C106.613 129.909 109.145 130.753 111.702 130.51C112.968 130.39 113.901 130.002 114.579 128.929C113.548 135.289 112.204 141.857 110.264 148.604C113.269 149.879 116.891 150.585 120.697 150.806C126.321 151.131 132.344 150.372 137.429 148.711ZM27.8912 72.6119C30.4998 72.6119 32.4489 71.0269 32.4489 67.9947C32.4489 64.9618 30.4998 63.3768 27.8912 63.3768C25.2833 63.3768 23.3063 64.9618 23.3063 67.9947C23.3063 71.0275 25.2833 72.6119 27.8912 72.6119ZM27.8639 66.11C28.6873 66.11 29.2089 66.6834 29.2089 67.9953C29.2089 69.2788 28.6873 69.8528 27.8639 69.8528C27.0399 69.8528 26.5457 69.2794 26.5457 67.9953C26.5463 66.6834 27.0399 66.11 27.8639 66.11ZM36.3744 78.5954C36.3744 81.6282 38.3235 83.2132 40.932 83.2132C43.54 83.2132 45.4891 81.6282 45.4891 78.5954C45.4891 75.536 43.54 73.9782 40.932 73.9782C38.3235 73.9782 36.3744 75.5354 36.3744 78.5954ZM42.2497 78.5954C42.2497 79.8795 41.7287 80.4535 40.9047 80.4535C40.0807 80.4535 39.5871 79.8801 39.5871 78.5954C39.5871 77.3119 40.0807 76.7107 40.9047 76.7107C41.7287 76.7107 42.2497 77.3119 42.2497 78.5954ZM30.861 82.9123C28.9374 90.8464 27.9428 99.062 27.9428 107.431C27.9428 120.724 30.4439 133.634 35.2128 145.634C35.3215 145.594 35.4332 145.558 35.5486 145.526C30.8386 133.73 28.2464 120.876 28.2464 107.43C28.2464 98.9841 29.2756 90.7745 31.2035 82.9117H31.3784L41.9479 63.6778H38.0211C39.6521 60.2141 41.4597 56.8483 43.4519 53.6058C43.3444 53.5466 43.2418 53.4825 43.1428 53.4148C41.1014 56.7353 39.2677 60.1645 37.624 63.6778H37.4188L26.8487 82.9117H30.861V82.9123ZM205.272 66.5602C205.066 66.4109 204.814 66.3203 204.54 66.3203C203.849 66.3203 203.29 66.8768 203.29 67.5638C203.29 68.2509 203.849 68.8074 204.54 68.8074C205.23 68.8074 205.789 68.2509 205.789 67.5638C205.789 67.3711 205.741 67.191 205.663 67.0278C205.573 66.8411 205.439 66.681 205.272 66.5602ZM243.891 60.1948C244.097 60.344 244.348 60.4347 244.623 60.4347C245.313 60.4347 245.872 59.8781 245.872 59.1911C245.872 58.504 245.313 57.9475 244.623 57.9475C243.932 57.9475 243.373 58.504 243.373 59.1911C243.373 59.3838 243.421 59.5639 243.499 59.727C243.59 59.9138 243.724 60.0745 243.891 60.1948ZM232.973 65.7148C232.892 65.8791 232.843 66.0616 232.843 66.2568C232.843 66.9438 233.402 67.5004 234.093 67.5004C234.783 67.5004 235.342 66.9438 235.342 66.2568C235.342 66.1081 235.312 65.968 235.264 65.8356C235.193 65.641 235.076 65.47 234.924 65.3347C234.703 65.1371 234.413 65.0132 234.093 65.0132C233.82 65.0132 233.568 65.1032 233.362 65.2513C233.197 65.3709 233.064 65.5305 232.973 65.7148ZM227.188 61.6782C227.483 61.6782 227.75 61.5725 227.964 61.4027C228.123 61.2758 228.255 61.1145 228.337 60.9247C228.402 60.7743 228.438 60.6087 228.438 60.4347C228.438 59.7476 227.879 59.1911 227.188 59.1911C226.498 59.1911 225.939 59.7476 225.939 60.4347C225.939 60.57 225.966 60.6981 226.006 60.8202C226.071 61.0172 226.18 61.193 226.328 61.3332C226.552 61.5459 226.854 61.6782 227.188 61.6782ZM217.543 66.51C217.334 66.3535 217.077 66.2574 216.795 66.2574C216.618 66.2574 216.45 66.2949 216.298 66.3613C216.108 66.4435 215.945 66.5746 215.818 66.7342C215.65 66.9463 215.545 67.2097 215.545 67.501C215.545 68.188 216.105 68.7446 216.795 68.7446C217.485 68.7446 218.045 68.188 218.045 67.501C218.045 67.3149 218.001 67.1402 217.927 66.9813C217.84 66.7934 217.707 66.6327 217.543 66.51ZM207.03 70.3846C206.829 70.2474 206.587 70.167 206.325 70.167C205.635 70.167 205.075 70.7236 205.075 71.4106C205.075 72.0977 205.635 72.6542 206.325 72.6542C207.015 72.6542 207.575 72.0977 207.575 71.4106C207.575 71.204 207.519 71.0118 207.429 70.8402C207.334 70.6583 207.199 70.5 207.03 70.3846ZM215.302 64.9165C215.453 64.7111 215.545 64.4597 215.545 64.1854C215.545 63.4983 214.986 62.9418 214.296 62.9418C213.605 62.9418 213.046 63.4983 213.046 64.1854C213.046 64.4452 213.127 64.6863 213.263 64.8857C213.38 65.0555 213.541 65.1909 213.726 65.2863C213.897 65.3746 214.089 65.4289 214.295 65.4289C214.488 65.4289 214.669 65.3818 214.832 65.3039C215.019 65.2144 215.18 65.0815 215.302 64.9165ZM25.9555 244.739C23.1047 239.325 20.266 233.906 17.244 228.586C16.9823 230.046 16.8821 231.522 16.9198 232.994C18.0971 235.353 19.538 237.603 20.668 239.973C21.6383 242.008 22.5631 244.063 23.4666 246.128H26.6932C26.4467 245.665 26.1996 245.202 25.9555 244.739ZM26.8323 213.532C25.981 214.172 25.1698 214.865 24.4029 215.602C24.9785 217.347 25.5578 219.09 26.1868 220.817C26.5584 221.837 24.9263 222.273 24.5583 221.264C24.041 219.844 23.5589 218.411 23.0828 216.977C22.7938 217.298 22.5066 217.622 22.234 217.956C25.7314 227.211 28.6417 236.668 31.5393 246.129H32.076C29.6084 235.407 27.975 224.5 26.8323 213.532ZM21.0439 219.539C20.3814 220.496 19.7888 221.497 19.2702 222.536C20.4531 224.757 21.6304 226.982 22.7143 229.253C23.1788 230.226 21.7221 231.078 21.2564 230.102C20.351 228.205 19.3832 226.34 18.4031 224.482C18.1839 225.045 17.986 225.616 17.813 226.196C21.3608 232.339 24.6385 238.63 27.9477 244.905C28.1633 245.314 28.3837 245.721 28.6029 246.128H29.7906C27.0618 237.2 24.3088 228.282 21.0439 219.539ZM42.1422 208.371C42.0268 208.369 41.912 208.362 41.7973 208.362C39.7905 208.358 37.8013 208.628 35.8722 209.132C35.3859 215.761 35.1199 222.394 35.7435 229.045C35.8443 230.123 34.1551 230.113 34.0549 229.045C33.4477 222.568 33.6833 216.107 34.1454 209.65C32.1331 210.335 30.2047 211.276 28.414 212.432C29.5683 223.771 31.232 235.048 33.7999 246.128H37.5366C37.0794 233.512 39.697 220.927 42.1422 208.371ZM54.5594 236.535C56.4223 231.714 58.2767 226.861 60.5561 222.217C61.1007 221.108 61.6618 219.998 62.2131 218.881C61.9538 218.541 61.6867 218.208 61.411 217.882C60.6496 219.3 59.9015 220.726 59.1777 222.166C56.6888 227.117 54.4294 232.168 52.1695 237.224C50.9004 240.062 49.4322 243.053 48.0751 246.129H50.9878C52.1439 242.918 53.3292 239.718 54.5594 236.535ZM49.8985 221.282C51.1166 218.02 52.4166 214.792 53.7919 211.598C52.4391 210.843 51.02 210.214 49.5597 209.709C47.8571 214.73 46.3604 219.81 45.4508 225.055C45.2662 226.12 43.6389 225.666 43.8223 224.608C44.7349 219.346 46.2389 214.248 47.9482 209.21C46.5899 208.841 45.2018 208.582 43.7956 208.457C41.3395 220.981 38.7133 233.553 39.2033 246.128H42.1932C43.9395 237.627 46.9069 229.293 49.8985 221.282ZM50.4128 237.039C52.9382 231.426 55.4307 225.807 58.2244 220.319C58.8687 219.053 59.5396 217.803 60.2185 216.557C59.8432 216.167 59.4558 215.788 59.0581 215.421C57.837 217.382 56.6142 219.341 55.316 221.253C54.71 222.145 53.2478 221.303 53.8581 220.405C55.2152 218.406 56.4915 216.356 57.7678 214.306C56.9609 213.649 56.1181 213.036 55.2431 212.474C53.9322 215.528 52.691 218.612 51.527 221.729C48.5912 229.59 45.6603 237.78 43.9158 246.129H46.2578C47.6185 242.991 49.1074 239.939 50.4128 237.039ZM67.3318 234.154C67.361 232.166 67.16 230.174 66.7009 228.224C66.6797 228.135 66.6536 228.047 66.6317 227.958C64.2163 230.7 62.1227 233.646 60.9046 237.063C60.5433 238.077 58.9124 237.638 59.2761 236.617C60.7036 232.613 63.2326 229.247 66.0925 226.107C65.4167 224.11 64.4762 222.21 63.32 220.445C60.8226 225.504 58.6507 230.653 56.6032 235.909C55.2826 239.299 54.0147 242.709 52.7785 246.129H57.3798C60.4231 241.944 63.8884 237.999 67.3318 234.154Z" fill="#5B8DC9"/>
</svg>
