<svg width="60" height="63" viewBox="0 0 60 63" fill="none" xmlns="http://www.w3.org/2000/svg">
<path d="M24.8031 0.00242217C19.1202 0.254829 14.047 2.52108 10.1323 6.55621C-0.245449 17.2548 -0.0458233 37.4216 0.011019 39.652L0.0116958 60.6823C0.0116958 61.4294 0.618014 62.0357 1.36508 62.0357H22.1335C22.8806 62.0357 23.4869 61.4294 23.4869 60.6823V39.9125C23.4869 39.1655 22.8806 38.5591 22.1335 38.5591H11.5196C11.5216 36.8254 11.7314 21.4327 18.4124 14.5669C20.2205 12.708 22.3616 11.7153 24.9587 11.5319C25.6679 11.4819 26.2167 10.8925 26.2167 10.1819V1.35513C26.2167 0.98566 26.0658 0.632425 25.7992 0.377311C25.5319 0.12152 25.1773 -0.0205855 24.8031 0.00242217Z" fill="#C58936"/>
<path d="M59.5821 0.376635C59.3148 0.121521 58.969 -0.0205852 58.586 0.0024224C52.9038 0.254153 47.8299 2.52108 43.9146 6.55621C33.5374 17.2548 33.7364 37.4216 33.7932 39.652L33.7939 60.6823C33.7939 61.4294 34.4002 62.0357 35.1473 62.0357H55.9151C56.6621 62.0357 57.2684 61.4294 57.2684 60.6823V39.9125C57.2684 39.1655 56.6621 38.5591 55.9151 38.5591H45.3031C45.3052 36.8254 45.5149 21.4327 52.1953 14.5669C54.0041 12.708 56.1451 11.7153 58.7423 11.5319C59.4515 11.4819 59.9996 10.8925 59.9996 10.1819V1.35514C59.9996 0.986337 59.8487 0.633102 59.5821 0.376635Z" fill="#C58936"/>
</svg>
