<svg width="121" height="100" viewBox="0 0 121 100" fill="none" xmlns="http://www.w3.org/2000/svg">
<path d="M118.307 11.6331C115.636 12.8175 112.863 13.752 110.018 14.4285C113.153 11.4493 115.51 7.72306 116.84 3.56388C117.22 2.37651 115.93 1.34975 114.858 1.9855C110.9 4.33329 106.636 6.09456 102.185 7.22097C101.927 7.28633 101.661 7.31945 101.393 7.31945C100.583 7.31945 99.7944 7.01843 99.1745 6.47208C94.4391 2.29854 88.3486 0 82.0254 0C79.2893 0 76.5268 0.42647 73.8144 1.26769C65.4104 3.87428 58.926 10.8065 56.8916 19.3594C56.1283 22.5674 55.9217 25.7784 56.2769 28.9029C56.3177 29.262 56.148 29.5126 56.0433 29.6301C55.8595 29.8362 55.599 29.9543 55.3284 29.9543C55.2982 29.9543 55.2672 29.9528 55.2364 29.9499C36.8404 28.2408 20.2518 19.3781 8.52607 4.99483C7.92813 4.26118 6.7815 4.35116 6.30491 5.16864C4.00871 9.10799 2.79525 13.6136 2.79525 18.1984C2.79525 25.2247 5.61816 31.8463 10.5215 36.6735C8.45953 36.1846 6.46377 35.4146 4.60988 34.3849C3.71297 33.8866 2.60942 34.5271 2.59682 35.5529C2.46844 45.991 8.57971 55.279 17.7346 59.4613C17.5502 59.4657 17.3659 59.4678 17.1812 59.4678C15.73 59.4678 14.2607 59.3277 12.8145 59.0513C11.8045 58.8584 10.9559 59.8166 11.2695 60.7958C14.2411 70.073 22.2288 76.9111 31.7876 78.4637C23.8544 83.7892 14.6159 86.5983 5.00059 86.5983L2.00299 86.5965C1.07941 86.5965 0.29828 87.1986 0.0629153 88.0931C-0.168932 88.9742 0.258124 89.9037 1.0457 90.3618C11.8807 96.6674 24.2395 100 36.7915 100C47.7786 100 58.0561 97.8196 67.3388 93.5197C75.8485 89.5777 83.3685 83.9428 89.6896 76.7713C95.5781 70.0908 100.183 62.3789 103.375 53.8501C106.419 45.7202 108.027 37.0454 108.027 28.7634V28.3689C108.027 27.0391 108.628 25.7878 109.678 24.936C113.66 21.7031 117.127 17.8974 119.983 13.6248C120.737 12.4966 119.548 11.0826 118.307 11.6331Z" fill="#9E8F7A"/>
</svg>
