<svg width="51" height="100" viewBox="0 0 51 100" fill="none" xmlns="http://www.w3.org/2000/svg">
<path d="M1.61309 53.26H12.5746V98.3871C12.5746 99.2781 13.2965 100 14.1875 100H32.7732C33.6643 100 34.3861 99.2781 34.3861 98.3871V53.4727H46.9875C47.8068 53.4727 48.4963 52.8578 48.5898 52.0439L50.5037 35.4305C50.5562 34.9734 50.4115 34.5156 50.1057 34.1727C49.7996 33.8295 49.3615 33.633 48.9018 33.633H34.3869V23.2187C34.3869 20.0795 36.0771 18.4875 39.4115 18.4875C39.8867 18.4875 48.9018 18.4875 48.9018 18.4875C49.7928 18.4875 50.5146 17.7652 50.5146 16.8746V1.6248C50.5146 0.733789 49.7928 0.0119141 48.9018 0.0119141H35.8227C35.7305 0.00742188 35.5256 0 35.2236 0C32.9543 0 25.0662 0.445507 18.8352 6.17773C11.9313 12.5301 12.891 20.1357 13.1203 21.4545V33.6326H1.61289C0.721876 33.6326 0 34.3545 0 35.2455V51.6469C0.000195313 52.5377 0.722069 53.26 1.61309 53.26Z" fill="#9E8F7A"/>
</svg>
