<svg width="100" height="100" viewBox="0 0 100 100" fill="none" xmlns="http://www.w3.org/2000/svg">
<path d="M70.2095 0H29.7905C13.364 0 0 13.364 0 29.7905V70.2095C0 86.636 13.364 100 29.7905 100H70.2095C86.636 100 100 86.636 100 70.2095V29.7905C99.9998 13.364 86.6359 0 70.2095 0ZM89.94 70.2095C89.94 81.1062 81.1062 89.94 70.2095 89.94H29.7905C18.8938 89.94 10.06 81.1062 10.06 70.2095V29.7905C10.06 18.8936 18.8938 10.06 29.7905 10.06H70.2095C81.1062 10.06 89.94 18.8936 89.94 29.7905V70.2095Z" fill="#9E8F7A"/>
<path d="M49.9983 24.1348C35.7371 24.1348 24.1348 35.7371 24.1348 49.9981C24.1348 64.2591 35.7371 75.8617 49.9983 75.8617C64.2595 75.8617 75.8619 64.2593 75.8619 49.9981C75.8619 35.737 64.2595 24.1348 49.9983 24.1348ZM49.9983 65.8019C41.2702 65.8019 34.1948 58.7265 34.1948 49.9983C34.1948 41.2702 41.2704 34.1948 49.9983 34.1948C58.7265 34.1948 65.8019 41.2702 65.8019 49.9983C65.8019 58.7263 58.7263 65.8019 49.9983 65.8019Z" fill="#9E8F7A"/>
<path d="M75.9101 30.5332C79.3328 30.5332 82.1074 27.7586 82.1074 24.3359C82.1074 20.9133 79.3328 18.1387 75.9101 18.1387C72.4875 18.1387 69.7129 20.9133 69.7129 24.3359C69.7129 27.7586 72.4875 30.5332 75.9101 30.5332Z" fill="#9E8F7A"/>
</svg>
